<?xml version="1.0" encoding="utf-8"?>
<!-- Generator: Adobe Illustrator 25.2.1, SVG Export Plug-In . SVG Version: 6.00 Build 0)  -->
<svg version="1.1" id="Camada_1" xmlns="http://www.w3.org/2000/svg" xmlns:xlink="http://www.w3.org/1999/xlink" x="0px" y="0px"
	 viewBox="0 0 360 272" style="enable-background:new 0 0 360 272;" xml:space="preserve">
<style type="text/css">
	.st0{fill:#484445;}
	.st1{fill:#B00F17;}
	.st2{fill:#966B3A;}
	.st3{fill:#2D2A2B;}
	.st4{fill:#383536;}
	.st5{fill:#252122;}
	.st6{fill:none;}
</style>
<g>
	<path class="st0" d="M-129.5,387.8c0-0.34,0-0.67,0-1.01"/>
	<path class="st1" d="M225.81,152.43c1.78,0,3.23,0,4.68,0c23.57,0,47.15,0.01,70.72-0.01c2.11,0,4.24-0.07,6.33-0.32
		c5.37-0.65,8.67-3.5,9.73-8.23c1.3-5.81-0.27-10.43-5-13.86c-4.71-3.42-10.03-5.35-15.36-7.2c-13.35-4.64-27.17-7.83-39.46-15.77
		c-14.15-9.15-19.55-24.1-14.55-41.15c4.23-14.41,14.51-20.18,26.93-22.73c7.34-1.51,14.76-1.08,22.15-1.1
		c14.36-0.04,28.71,0.08,43.07-0.09c3-0.04,3.96,0.91,3.8,4.23c-0.23,5.02-0.23,10.08,0,15.1c0.15,3.3-0.77,4.23-3.77,4.2
		c-18.59-0.16-37.17-0.08-55.76-0.07c-2.41,0-4.8,0.09-7.2,0.67c-3.76,0.91-6.37,3.07-7.24,7.29c-0.95,4.59-0.17,8.67,3.48,11.63
		c4.85,3.93,10.49,5.79,16.11,7.7c13.38,4.55,27.22,7.63,39.52,15.56c14.99,9.67,20.54,25.59,15.09,43.8
		c-4.2,14.04-13.94,20.48-26.28,22.96c-3.84,0.77-7.81,0.97-11.72,0.97c-46.24,0.06-92.48-0.03-138.73,0.17
		c-4.2,0.02-5.15-1.37-4.83-5.62c0.32-4.34,0.36-8.75-0.01-13.08c-0.38-4.41,1.17-5.36,4.82-5.13c5.42,0.34,10.91-0.33,16.31,0.17
		c17.1,1.56,32.14-13.04,35.5-29.89c3.02-15.11,1.85-29.56-6.47-42.26c-10.02-15.28-24.22-20.21-40.45-16.72
		c-15.81,3.4-24.24,15.82-28.49,32.26c-2.06,7.97-2.3,16.2-2.44,24.44c-0.05,3.02,1,3.56,3.42,3.54
		c11.79-0.11,23.57,0.03,35.36-0.12c2.65-0.03,3.77,0.5,3.6,3.8c-0.27,5.36-0.22,10.75-0.01,16.11c0.12,2.98-0.9,3.59-3.36,3.56
		c-11.48-0.13-22.97,0.09-34.45-0.15c-3.51-0.07-4.6,0.92-4.57,4.97c0.16,29.21,0.02,58.43,0.16,87.64c0.02,3.82-0.7,5.38-4.43,5.06
		c-4.51-0.39-9.08-0.41-13.59,0c-3.79,0.35-4.36-1.34-4.34-5.06c0.13-29.05-0.02-58.09,0.17-87.14c0.03-4.39-0.88-5.51-4.91-5.53
		c-12.37-0.08-24.79,1.31-37.1-1c-30.15-5.66-50.8-34.16-49.84-68.71c0.9-32.64,23.61-59.62,53.25-63.48
		c8.6-1.12,17.21-0.35,25.81-0.71c2.17-0.09,2.91,0.71,2.86,3.13c-0.13,5.54-0.2,11.09,0.02,16.62c0.13,3.16-0.82,3.94-3.58,3.94
		c-7.84,0.02-15.69-0.6-23.5,1.12C57.89,42.21,45,59.55,45.46,81.09c0.46,21.89,13.94,38.54,33.74,41.84
		c10.83,1.81,21.72,0.4,32.57,0.94c3.15,0.16,2.4-2.22,2.36-4.03c-0.28-11.99,0.43-23.84,3.97-35.27
		c9.24-29.81,31.43-46.38,60.58-45.35c26.86,0.95,48.96,20.35,56.15,49.56c5.4,21.92,4.12,42.84-8.34,61.84
		C226.26,150.98,226.17,151.46,225.81,152.43z"/>
	<path class="st2" d="M370.5,45.03"/>
	<path class="st3" d="M158.25,231.25c0-1.84-0.05-3.69,0.01-5.53c0.1-3.05-1.27-6.71,3.86-6.77c7.01-0.08,11.04,1.84,11.58,6.68
		c0.45,4-1.92,7.07-6.38,8.23c-0.88,0.23-1.81,0.61-2.66,0.47c-3.14-0.51-3.49,1.43-3.24,4.13c0.11,1.16,0,2.34,0.02,3.52
		c0.01,1.09-0.12,1.96-1.41,1.98c-1.4,0.03-1.82-0.7-1.8-2.15C158.29,238.29,158.25,234.77,158.25,231.25z M161.42,226.8
		c0.16,2.26-0.92,5.35,3,4.9c3.09-0.36,5.91-1.18,5.88-5.3c-0.02-3.94-2.83-4.5-5.7-4.84C160.39,221.05,161.59,224.39,161.42,226.8z
		"/>
	<path class="st4" d="M171.2,189.35c-3.97-0.22-7.63,0.57-9.73,4.78c-1.8,3.61-1.8,7.54,0.25,10.99c2.34,3.95,6.09,4.56,10.04,4.11
		c0.59-0.07,1.18-0.28,1.76-0.46c1.05-0.33,1.86,0,2.03,1.22c0.15,1.02-0.64,1.26-1.39,1.56c-4.75,1.88-12.13-0.06-15.05-4.01
		c-2.97-4.03-3.2-10.52-0.54-15.06c2.71-4.63,9.06-7.22,14.45-5.68c0.89,0.25,2.89-0.35,2.49,1.87c-0.37,2.05-1.85,0.99-2.94,0.84
		C172.1,189.44,171.65,189.39,171.2,189.35z"/>
	<path class="st4" d="M255.24,244.52c-0.45-0.03-0.99,0.1-1.34-0.12c-1.52-0.99-4.96,0.38-4.48-2.61c0.45-2.8,2.9-0.23,4.45-0.18
		c2.62,0.08,5.48,0.34,6.44-3.08c1.06-3.78-1.85-4.74-4.21-5.82c-5.7-2.62-7.68-5.34-6.49-9c1.32-4.05,6.53-6.11,11.25-4.44
		c0.9,0.32,2.38,0.1,1.76,2.01c-0.4,1.22-1.22,1.12-2.2,0.8c-0.99-0.32-2.07-0.46-3.11-0.46c-2.07,0-4.03,0.52-4.43,3.22
		c-0.38,2.54,1.42,3.44,3.07,4.31c0.67,0.36,1.4,0.6,2.1,0.9c3.56,1.56,6.7,3.53,5.77,8.69
		C263.2,242.23,259.66,244.52,255.24,244.52z"/>
	<path class="st4" d="M197.79,202.65c0-1.85,0.03-3.69-0.01-5.54c-0.06-2.73,0.19-4.89,3.12-2.17c1.46,1.35,2.13-0.53,3.1-0.9
		c4.97-1.88,8.9,0.78,9.22,6.58c0.16,3.01,0.03,6.04,0.05,9.06c0.01,1.12-0.21,1.92-1.45,2c-1.43,0.09-1.83-0.69-1.81-2.11
		c0.03-2.68,0.11-5.38-0.05-8.05c-0.17-2.93-1.12-5.36-4.33-5.14c-2.88,0.2-4.33,2.07-4.36,5.26c-0.03,2.52,0.01,5.04-0.02,7.55
		c-0.01,1.11,0.28,2.44-1.4,2.49c-1.61,0.04-2.08-0.88-2.04-2.49c0.05-2.18,0.01-4.36,0.01-6.55
		C197.8,202.65,197.8,202.65,197.79,202.65z"/>
	<path class="st4" d="M250.36,193.41c4.99,0.12,8.75,4.3,8.61,9.56c-0.15,5.43-4.33,9.51-9.45,9.24c-4.84-0.25-8.37-4.2-8.36-9.33
		C241.17,197.38,245.14,193.29,250.36,193.41z M250.84,196.14c-3.74-0.16-5.98,2.37-6.14,6.28c-0.16,4.07,2.13,7.21,5.34,7.09
		c3.74-0.14,5.31-2.95,5.38-6.57C255.49,199.31,254.02,196.51,250.84,196.14z"/>
	<path class="st4" d="M284.83,235.28c-0.09,5.35-3.78,9.21-8.86,9.26c-5.01,0.05-8.71-3.93-8.7-9.36c0.01-5.59,3.86-9.62,9.09-9.5
		C281.41,225.81,284.92,229.78,284.83,235.28z M276.34,228.38c-3.81,0.12-5.5,2.59-5.58,6.44c-0.08,3.75,1.26,6.73,5.04,6.93
		c3.8,0.2,5.43-2.66,5.54-6.4C281.46,231.65,280.1,228.81,276.34,228.38z"/>
	<path class="st4" d="M210.12,235.15c0,1.51,0.08,3.02-0.02,4.52c-0.15,2.27,1.23,6.72-3.4,3.06c-1.04-0.82-1.86,0.72-2.8,1.09
		c-5,1.96-8.77-0.7-9.08-6.61c-0.15-2.84-0.06-5.69-0.03-8.54c0.01-1.12-0.24-2.45,1.43-2.48c1.68-0.03,1.96,1.06,1.94,2.6
		c-0.04,2.51-0.04,5.03,0.04,7.54c0.09,2.96,0.95,5.52,4.14,5.26c2.73-0.22,4.35-2.05,4.3-5.33c-0.04-2.68,0-5.36,0-8.04
		c0-1.09,0.16-2.01,1.42-2.01c1.18,0,2.08,0.29,2.06,1.91c-0.03,2.34-0.01,4.69-0.01,7.04
		C210.11,235.15,210.11,235.15,210.12,235.15z"/>
	<path class="st3" d="M304.07,235.15c0,1.5,0.07,3.01-0.01,4.51c-0.12,2.2,1.21,6.46-3.23,2.86c-0.96-0.78-1.72,0.81-2.62,1.19
		c-4.98,2.14-8.84-0.42-9.21-6.29c-0.18-2.83-0.05-5.68-0.08-8.52c-0.01-1.4-0.07-2.76,1.77-2.67c1.61,0.08,1.4,1.38,1.42,2.52
		c0.04,2.67-0.11,5.36,0.1,8.01c0.21,2.66,1.15,5.06,4.09,4.86c2.75-0.19,4.42-1.94,4.51-5.14c0.07-2.5,0-5.01,0.03-7.52
		c0.02-1.27-0.32-2.84,1.64-2.73c1.87,0.1,1.57,1.6,1.58,2.9C304.08,231.14,304.06,233.15,304.07,235.15z"/>
	<path class="st4" d="M338.18,237.66c0,1.51-0.02,3.01,0.01,4.52c0.02,0.89-0.31,2.19-0.99,1.68c-2.88-2.17-5.24,0.95-7.86,0.65
		c-2.57-0.29-4.78-1.37-5.26-4.52c-0.44-2.87,0.98-4.85,3.25-5.9c1.51-0.7,3.19-0.9,4.77-1.42c0.85-0.28,2.36,0.7,2.42-1.23
		c0.05-1.51-0.82-2.44-2.13-2.83c-1.66-0.5-3.29-0.14-4.91,0.23c-0.73,0.17-1.56,0.5-1.83-0.64c-0.26-1.07,0.54-1.31,1.25-1.66
		c5.83-2.96,11.12,0.6,11.25,7.6c0.02,1.17,0,2.34,0,3.51C338.16,237.66,338.17,237.66,338.18,237.66z M334.79,237.66
		c-0.02-1.57-0.03-3.06-1.86-2.67c-2.28,0.49-5.13,0.31-5.52,3.87c-0.22,2,1.13,2.94,2.88,2.95
		C332.91,241.85,334.55,240.55,334.79,237.66z"/>
	<path class="st4" d="M233.56,232.21c-1.11-4.64-3.94-3.87-6.62-3.54c-0.81,0.1-1.94,1.04-2.35-0.29c-0.53-1.71,0.93-1.67,1.89-2.03
		c6.4-2.37,10.26,0.71,10.34,8.27c0.02,1.68,0.08,3.36-0.01,5.03c-0.12,2.23,1.31,6.54-3.34,3.25c-0.44-0.31-1.55,0.6-2.36,0.91
		c-3.36,1.29-6.42,0.99-8.03-2.97c-1.36-3.34,0.84-6.32,5.28-7.55C229.95,232.87,231.59,232.62,233.56,232.21z M233.73,237.45
		c0.11-1.55-0.14-2.84-1.87-2.52c-2.3,0.43-5.15,0.29-5.68,3.7c-0.34,2.19,1.07,3.3,3.05,3.26
		C231.87,241.83,233.39,240.34,233.73,237.45z"/>
	<path class="st4" d="M189.91,209.58c0.47,0.15,2.46-1.86,2.56,0.73c0.08,1.99-2.13,1.36-3.29,1.59
		c-5.85,1.15-10.19-1.72-11.12-7.14c-0.9-5.18,2.16-10.27,6.8-11.2c2.49-0.5,4.86,0,6.73,1.95c1.71,1.79,2.9,4.27,2.21,6.74
		c-0.68,2.45-3.08,0.88-4.69,1.19c-1.17,0.22-2.44-0.17-3.59,0.1c-1.38,0.32-3.75-1.35-3.99,1.26c-0.2,2.3,1.7,3.83,3.72,4.38
		C186.54,209.53,187.93,209.43,189.91,209.58z M185.71,201.56c1.2-1.67,4.16,1.46,4.58-1.96c0.32-2.57-1.91-3.66-4-3.71
		c-2.31-0.06-4.55,1.31-4.62,3.82C181.59,202.58,184.23,200.39,185.71,201.56z"/>
	<path class="st4" d="M186.14,232.15c-0.46-4.53-3.38-3.76-6.09-3.55c-0.92,0.07-2.33,1.33-2.7-0.37c-0.45-2.05,1.48-1.69,2.47-2
		c6.13-1.95,9.67,0.99,9.78,8.04c0.15,9.52,0.15,9.6-7.99,10.19c-2.7,0.2-5.2-0.76-5.89-4.19c-0.63-3.14,0.88-5.27,3.37-6.27
		C181.32,233.11,183.73,232.76,186.14,232.15z M183.83,235.02c-1.87,0.54-4.79,0.46-4.92,4.04c-0.08,2.21,1.6,3.01,3.49,2.8
		c2.65-0.29,4.02-1.94,4.13-4.9C186.6,235.09,185.65,234.7,183.83,235.02z"/>
	<path class="st3" d="M317.79,228.75c-3.41,0-5.78,0.01-8.16,0c-0.83,0-1.5-0.29-1.37-1.42c0.09-0.79,0.63-1.07,1.27-1.08
		c3.62-0.02,7.26-0.33,10.84,0.07c2.91,0.33,1.24,2.23,0.36,3.4c-2.73,3.67-5.55,7.25-9.05,11.78c3.59,0,6.09-0.02,8.59,0.01
		c0.74,0.01,1.58,0.03,1.6,1.19c0.02,1.18-0.82,1.22-1.56,1.23c-3.62,0.02-7.23,0-10.85,0.02c-2.53,0.01-2.52-1.19-1.15-2.97
		C311.24,237.17,314.18,233.4,317.79,228.75z"/>
	<path class="st3" d="M223.71,212.09c-2.77-0.38-4.37-1.83-4.44-4.86c-0.05-2.34-0.04-4.68-0.05-7.02c-0.01-0.84,0.11-1.7-0.06-2.5
		c-0.27-1.24-0.15-6.34,0.12-7.27c0.3-1.04,1-1.11,1.73-1.21c1-0.13,1.27,0.58,1.32,1.51c0.01,0.17,0.04,0.34,0.02,0.5
		c-0.44,4.29,4.42,1.25,4.53,3.77c0.14,3.22-4.78-0.3-4.33,2.85c0.58,4.05-3.4,10.2,3.68,11.82c0.21,0.05,0.5,0.89,0.38,1.19
		C226.01,212.49,224.65,212.01,223.71,212.09z"/>
	<path class="st5" d="M218.44,230.24c0,3.52,0.01,7.05,0,10.57c-0.01,1.46,0.36,3.06-1.9,2.98c-1.9-0.06-1.73-1.33-1.73-2.67
		c0-7.05,0.02-14.09-0.01-21.14c-0.01-1.53,0.14-2.51,1.92-2.48c1.91,0.03,1.73,1.33,1.73,2.67
		C218.44,223.52,218.44,226.88,218.44,230.24z"/>
	<path class="st3" d="M230.73,202.73c0-1.51-0.06-3.02,0.01-4.52c0.12-2.25-1.28-6.63,3.33-2.93c0.51,0.41,2.2-1.12,3.4-1.61
		c0.87-0.36,1.82-0.47,2.08,0.97c0.17,0.94-0.06,1.7-0.99,1.88c-4.74,0.9-4.67,4.86-4.6,8.84c0.02,1.51-0.02,3.01,0,4.52
		c0.01,1.23-0.45,1.8-1.6,1.77c-1.16-0.03-1.58-0.7-1.58-1.88c0-2.34,0-4.69,0-7.03C230.76,202.73,230.75,202.73,230.73,202.73z"/>
	<path class="st6" d="M161.42,226.8c0.17-2.41-1.04-5.75,3.18-5.25c2.88,0.34,5.68,0.91,5.7,4.84c0.03,4.12-2.79,4.94-5.88,5.3
		C160.5,232.15,161.57,229.06,161.42,226.8z"/>
	<path class="st6" d="M250.84,196.14c3.18,0.37,4.65,3.17,4.58,6.79c-0.07,3.62-1.64,6.44-5.38,6.57c-3.21,0.12-5.5-3.02-5.34-7.09
		C244.86,198.52,247.1,195.99,250.84,196.14z"/>
	<path class="st6" d="M276.34,228.38c3.77,0.43,5.12,3.27,5.01,6.97c-0.11,3.74-1.74,6.6-5.54,6.4c-3.79-0.2-5.12-3.18-5.04-6.93
		C270.84,230.97,272.52,228.5,276.34,228.38z"/>
	<path class="st6" d="M334.79,237.66c-0.24,2.89-1.87,4.18-4.5,4.16c-1.74-0.02-3.09-0.95-2.88-2.95c0.39-3.56,3.25-3.38,5.52-3.87
		C334.76,234.61,334.77,236.09,334.79,237.66z"/>
	<path class="st6" d="M233.73,237.45c-0.34,2.89-1.86,4.38-4.5,4.44c-1.98,0.04-3.39-1.07-3.05-3.26c0.53-3.41,3.38-3.27,5.68-3.7
		C233.59,234.6,233.84,235.9,233.73,237.45z"/>
	<path class="st6" d="M185.71,201.56c-1.48-1.16-4.11,1.02-4.03-1.85c0.07-2.51,2.3-3.88,4.62-3.82c2.09,0.05,4.31,1.15,4,3.71
		C189.86,203.02,186.91,199.89,185.71,201.56z"/>
	<path class="st6" d="M183.83,235.02c1.82-0.32,2.77,0.07,2.7,1.95c-0.11,2.96-1.48,4.61-4.13,4.9c-1.9,0.21-3.57-0.59-3.49-2.8
		C179.04,235.48,181.96,235.56,183.83,235.02z"/>
</g>
</svg>
