<?xml version="1.0" encoding="utf-8"?>
<svg version="1.1" id="Camada_1" xmlns="http://www.w3.org/2000/svg" xmlns:xlink="http://www.w3.org/1999/xlink" x="0px" y="0px" viewBox="0 0 595.28 228.71" style="enable-background:new 0 0 595.28 228.71;" xml:space="preserve">
	<style type="text/css">
	.st0{fill:#3C4F5C;}
	.st1{fill:#3B4E5C;}
	.st2{fill:#3C4E5C;}
	.st3{fill:#4C5C69;}
	.st4{fill:#4A5B67;}
	.st5{fill:#4B5C68;}
	.st6{fill:#495965;}
	.st7{fill:#4E5E69;}
	.st8{fill:none;}
</style>
	<g>
		<path class="st0" d="M15.45,78.3c0-23.5,0.03-47-0.05-70.5c-0.01-2.45,0.77-3.27,3.64-3.27C53.17,4.61,87.31,4.6,121.44,4.53
		c2.73-0.01,3.5,0.74,3.43,3.08c-0.16,6.01-0.16,12.02,0.01,18.03c0.06,2.21-0.82,2.7-3.16,2.69c-23.95-0.07-47.89,0-71.84-0.1
		c-2.92-0.01-3.8,0.65-3.76,3.27c0.16,11.12,0.14,22.24,0.01,33.36c-0.03,2.19,0.76,2.68,3.11,2.67
		c21.81-0.07,43.61-0.01,65.42-0.09c2.59-0.01,3.56,0.45,3.46,2.94c-0.23,5.82-0.2,11.66-0.02,17.49c0.08,2.43-0.64,3.21-3.54,3.2
		c-21.5-0.11-43-0.01-64.5-0.13c-3.07-0.02-3.97,0.66-3.95,3.43c0.14,18.21,0.03,36.41,0.13,54.62c0.01,2.3-0.58,3.15-3.37,3.09
		c-7.94-0.16-15.9-0.15-23.84-0.01c-2.87,0.05-3.64-0.82-3.63-3.27C15.49,125.29,15.45,101.8,15.45,78.3z" />
		<path class="st1" d="M242.92,115.75c0,11.12-0.06,22.25,0.05,33.37c0.02,2.2-0.69,2.98-3.28,2.93c-6.93-0.14-13.86-0.13-20.79,0
		c-2.51,0.05-3.2-0.77-3.04-2.83c0.18-2.23-0.02-4.48,0.07-6.72c0.07-1.83-0.48-2.26-2.42-1.3c-4.44,2.19-8.94,4.3-13.47,6.33
		c-11.01,4.95-22.68,7.11-34.94,5.31c-18.53-2.72-29.24-14.98-28.01-31.54c1.08-14.53,11.45-24.88,28-28.05
		c5.9-1.13,11.86-1.65,17.89-1.64c10.09,0.03,20.18-0.04,30.27,0.04c2.27,0.02,3.06-0.57,2.91-2.62c-0.25-3.48,0.12-6.96-1-10.41
		c-1.9-5.82-6.02-9.77-12.56-11.47c-8.35-2.18-16.78-2-24.89,0.84c-6.87,2.4-10.55,7.18-11.08,13.65c-0.15,1.89-0.87,2.41-2.93,2.39
		c-7.03-0.09-14.07-0.11-21.1,0.01c-2.34,0.04-2.98-0.68-2.91-2.64c0.52-14.67,8.37-25.25,23.59-30.9c18-6.69,36.55-6.91,54.81-0.68
		c14.52,4.95,22.26,14.86,24.34,28.29c1.01,6.51,0.37,13.08,0.47,19.62C242.99,103.73,242.92,109.74,242.92,115.75z M216.01,115.73
		c0-1.69-0.14-2.69,0.03-3.66c0.46-2.66-0.84-3.28-3.72-3.23c-9.47,0.15-18.94,0.04-28.42,0.06c-3.89,0.01-7.71,0.41-11.34,1.78
		c-6.16,2.32-9.18,7.67-7.97,14.23c0.97,5.26,5.58,8.69,12.23,9.09c3.91,0.23,7.72-0.24,11.46-1.19c7.91-2.01,14.62-6.25,21.99-9.24
		C214.72,121.77,217.34,119.58,216.01,115.73z" />
		<path class="st2" d="M416.89,107.58c-12.03,0-24.05,0.05-36.08-0.04c-2.39-0.02-3.25,0.54-3.16,2.72c0.1,2.7,0.19,5.39,0.79,8.03
		c1.88,8.21,7.92,12.93,16.9,14.84c7.26,1.54,14.57,1.31,21.74-0.58c7.27-1.91,12.12-5.81,12.76-12.82c0.16-1.7,1.19-1.79,2.64-1.78
		c6.93,0.02,13.86,0.11,20.79-0.04c2.72-0.06,3.27,0.85,3.08,2.99c-1.05,12.23-7.93,21.07-20.12,26.71
		c-11.91,5.51-24.75,6.79-37.98,5.98c-8.73-0.53-17.08-2.31-24.78-6.12c-13.44-6.65-20.71-16.9-21.49-30.28
		c-0.61-10.55-0.61-21.18,0.02-31.74c1.11-18.8,13.73-32.29,34.35-37.36c13.09-3.22,26.26-3.04,39.14,0.81
		c19.56,5.85,30.93,20.24,31.06,38.75c0.04,5.65-0.13,11.31,0.07,16.95c0.08,2.34-0.58,3.07-3.35,3.03
		C441.15,107.5,429.02,107.58,416.89,107.58z M404.17,91.51C404.17,91.51,404.17,91.51,404.17,91.51c7.95-0.01,15.89-0.03,23.84,0
		c1.61,0.01,2.71-0.15,2.73-1.98c0.16-13.46-7.58-22.39-23.22-23.48c-17.98-1.25-28.97,6.9-29.84,22.09
		c-0.14,2.46,0.41,3.51,3.56,3.43C388.88,91.38,396.53,91.51,404.17,91.51z" />
		<path class="st2" d="M479.82,99.93c0-4.75-0.06-9.51,0.01-14.26c0.28-18.94,12.43-32.88,33.24-37.68
		c14.35-3.31,28.71-2.92,42.65,1.76c14.88,4.99,23.43,14.68,26.05,28.47c0.49,2.57,0.75,5.15,0.8,7.75
		c0.03,1.34-0.27,1.99-1.95,1.98c-7.54-0.04-15.08-0.04-22.62,0c-1.58,0.01-2.11-0.6-2.25-1.91c-0.22-2.05-0.43-4.13-1.04-6.1
		c-2.01-6.61-7.11-10.51-14.52-12.09c-5.82-1.24-11.73-1.36-17.55-0.05c-8.93,2.01-14.84,7.77-15.58,16.03
		c-0.95,10.73-0.98,21.52,0.01,32.24c0.81,8.71,7.24,14.47,16.9,16.15c5.68,0.99,11.37,0.81,16.96-0.46
		c9.07-2.06,13.9-7.47,14.7-16.74c0.21-2.46,1.08-3.17,3.83-3.1c6.72,0.17,13.45,0.15,20.17,0.01c2.5-0.05,3,0.64,2.92,2.76
		c-0.52,13-5.38,24.05-18.12,31.53c-8.27,4.86-17.66,6.76-27.44,7.4c-10.93,0.71-21.65-0.18-31.7-4.16
		c-17.04-6.75-24.84-18.92-25.43-35.01C479.67,109.62,479.82,104.78,479.82,99.93z" />
		<path class="st2" d="M275.76,95.54c0-9.31-0.11-16.93,0.07-24.55c0.05-2.33-0.81-2.9-3.28-2.81c-4.07,0.16-8.15-0.01-12.22,0.07
		c-1.78,0.04-2.57-0.37-2.54-2.1c0.1-5.47,0.09-10.94,0.01-16.41c-0.03-1.64,0.61-2.23,2.47-2.19c4.07,0.08,8.16-0.14,12.22,0.08
		c2.81,0.15,3.39-0.75,3.34-3.05c-0.16-7.62-0.01-15.24-0.11-22.87c-0.02-1.82,0.48-2.52,2.71-2.49c7.64,0.11,15.28,0.1,22.92,0.01
		c1.99-0.02,2.62,0.47,2.6,2.25c-0.1,7.8,0.03,15.6-0.1,23.4c-0.04,2.14,0.71,2.75,3.12,2.72c8.96-0.11,17.93,0.02,26.9-0.08
		c2.19-0.02,3.05,0.37,2.98,2.48c-0.18,5.29-0.16,10.58-0.01,15.87c0.05,1.94-0.7,2.4-2.79,2.37c-8.96-0.09-17.93,0.02-26.9-0.08
		c-2.43-0.03-3.33,0.43-3.31,2.79c0.13,14.53,0.05,29.06,0.08,43.58c0,1.52,0.15,3.05,0.41,4.55c1.28,7.31,5.86,11.04,14.25,11.69
		c5.39,0.42,10.79,0.29,16.19,0.23c2.12-0.02,2.84,0.58,2.8,2.47c-0.12,5.38-0.05,10.76-0.04,16.14c0,1.2,0.14,2.4-1.9,2.38
		c-10.97-0.15-21.98,0.62-32.78-2.1c-15.12-3.82-25.3-14.55-26.63-28.36C275.31,112.32,276.06,103.08,275.76,95.54z" />
		<path class="st3" d="M536.05,190.08c2.14,0,4.27,0.01,6.41,0c1.1-0.01,2.09,0.08,2.17,1.32c0.06,1.01,0.15,2.11-1.52,2.11
		c-1.71,0-1.57,0.67-1.31,1.88c1.23,5.65-2.05,9.27-8.57,9.53c-2.64,0.1-5.29,0.04-7.94,0.02c-1.34-0.01-2.58,0.22-2.61,1.63
		c-0.04,1.47,1.27,1.62,2.57,1.63c3.87,0.02,7.75-0.15,11.6,0.09c6.15,0.4,9.19,4.48,7.03,9.11c-0.87,1.87-2.53,3-4.54,3.77
		c-3.49,1.35-7.16,1.43-10.78,0.72c-4.47-0.87-6.95-3.8-7.3-8.21c-0.12-1.5-0.12-2.85-1.55-4.13c-1.75-1.58-1.34-4.8,0.55-6.38
		c1.09-0.91,1.42-1.5,0.8-2.86c-2.2-4.85,0.86-9.37,6.76-9.99c2.71-0.28,5.48-0.05,8.22-0.05
		C536.05,190.21,536.05,190.14,536.05,190.08z M530.77,193.38c-1.94,0.25-5.06-0.25-5.98,2.91c-0.47,1.6-0.5,3.32,1.28,4.36
		c3.05,1.78,6.42,1.38,9.62,0.42c1.74-0.52,2.45-2.03,2.39-3.7C537.97,194.63,535.96,193.41,530.77,193.38z M531.65,211.58
		c-1.39,0-2.52,0.1-3.62-0.02c-2.78-0.31-3.33,0.79-2.73,2.95c0.69,2.45,2.33,3.91,5.17,4.2c3.26,0.33,6.61,0.55,9.05-1.85
		c1.72-1.69,0.67-4.09-1.84-4.89C535.62,211.33,533.48,211.69,531.65,211.58z" />
		<path class="st3" d="M160.89,197.06c0,4.75,0.03,9.5-0.02,14.25c-0.01,0.97,0.54,2.33-1.38,2.49c-1.34,0.11-2.59,0.23-2.85-1.54
		c-0.23-1.58-1.4-0.74-2.26-0.32c-2.24,1.07-4.48,2.08-7.15,2.13c-5.3,0.09-8.98-2.82-9.16-7.47c-0.11-2.68-0.04-5.38-0.02-8.06
		c0.05-6.89,6.44-10.52,13.63-7.75c4.81,1.85,4.81,1.85,4.81-2.97c0-1.7,0.06-3.41-0.02-5.11c-0.06-1.45,0.2-2.37,2.27-2.36
		c2.18,0.01,2.15,1.13,2.15,2.47C160.87,187.56,160.89,192.31,160.89,197.06z M142.21,201.93c0,1.34-0.11,2.69,0.02,4.02
		c0.3,3.04,2.8,4.83,5.96,4.38c5.64-0.81,8.33-3.53,8.33-8.43c0-1.07,0-2.15,0.01-3.22c0.01-0.74-0.03-1.48-0.86-1.88
		c-2.21-1.08-4.21-2.51-6.76-3c-3.83-0.73-6.44,0.96-6.69,4.37C142.12,199.42,142.2,200.68,142.21,201.93z" />
		<path class="st4" d="M290.52,197.12c0,4.75,0.03,9.5-0.02,14.24c-0.01,0.88,0.61,2.21-1.07,2.39c-1.3,0.14-2.92,0.54-3.27-1.42
		c-0.3-1.64-1.39-0.74-2.23-0.34c-2.25,1.06-4.52,2.03-7.17,2.06c-5.25,0.06-8.9-2.96-9-7.6c-0.06-2.69-0.03-5.38-0.01-8.06
		c0.05-6.77,6.31-10.32,13.46-7.64c5,1.88,5,1.88,5-3.01c0-1.79,0.08-3.59-0.02-5.37c-0.08-1.54,0.67-2,2.35-2.02
		c1.74-0.02,2.02,0.73,2.01,1.99C290.5,187.26,290.52,192.19,290.52,197.12z M271.92,201.88c0,1.43-0.12,2.87,0.02,4.3
		c0.3,2.95,2.96,4.69,6.15,4.15c5.76-0.98,8.15-3.52,8.13-8.63c-0.01-1.07-0.02-2.15,0-3.22c0.02-0.78-0.25-1.44-1.04-1.81
		c-2.24-1.05-4.29-2.44-6.84-2.91c-3.52-0.65-6.08,0.97-6.4,4.11C271.81,199.18,271.92,200.54,271.92,201.88z" />
		<path class="st3" d="M218.58,197.09c0,4.84,0.01,9.67-0.01,14.51c0,0.94,0.3,2.14-1.42,2.2c-1.26,0.04-2.73,0.4-2.98-1.41
		c-0.23-1.62-1.27-0.88-2.17-0.45c-2.15,1.02-4.28,2.02-6.83,2.12c-5.59,0.2-9.34-2.75-9.51-7.68c-0.09-2.51-0.04-5.01-0.02-7.52
		c0.06-7.35,6.18-10.88,13.85-8c4.74,1.78,4.74,1.78,4.74-2.81c0-1.79,0.06-3.58-0.02-5.37c-0.07-1.51,0.36-2.33,2.35-2.32
		c1.95,0.01,2.07,0.94,2.06,2.24C218.56,187.42,218.58,192.25,218.58,197.09z M199.82,201.98c-0.01,0-0.01,0-0.02,0
		c0,1.34-0.1,2.69,0.02,4.02c0.31,3.3,3.27,5.05,6.87,4.14c6.26-1.59,7.65-3.22,7.65-8.96c0-0.8-0.01-1.61,0.01-2.41
		c0.01-0.65-0.02-1.38-0.66-1.71c-2.69-1.4-5.2-3.21-8.49-3.42c-2.93-0.19-5.03,1.37-5.36,4.06
		C199.68,199.1,199.82,200.54,199.82,201.98z" />
		<path class="st5" d="M582.33,205.17c0,2.15-0.02,4.3,0.01,6.45c0.01,1.05-0.01,2.07-1.55,2.17c-1.29,0.08-2.76,0.34-2.93-1.45
		c-0.19-1.92-1.47-0.96-2.34-0.57c-2.45,1.09-4.84,2.23-7.74,2.2c-4.73-0.04-7.79-2.33-7.99-6.11c-0.22-4.25,2.74-7.26,7.53-7.5
		c2.74-0.13,5.49-0.11,8.24-0.02c1.95,0.06,2.47-0.74,2.33-2.29c-0.25-2.61-1.9-4.24-4.93-4.68c-3.78-0.55-7.13,0.53-7.93,3.04
		c-0.63,1.97-1.98,2.27-3.58,1.8c-2.06-0.61-0.87-2.15-0.49-3.17c1.45-3.88,6.73-5.98,12.76-5.21c5.2,0.66,8.38,3.81,8.6,8.65
		C582.41,200.69,582.33,202.93,582.33,205.17z M572.67,203.59c0-0.03,0-0.07-0.01-0.1c-1.72,0.1-3.46,0.1-5.15,0.34
		c-2.53,0.36-3.68,1.81-3.33,4.04c0.3,1.91,2.35,2.9,4.94,2.44c2.84-0.51,5.25-1.89,7.77-3.05c1.27-0.59,1.13-1.61,0.96-2.58
		c-0.19-1.08-1.2-1.06-2.13-1.07C574.71,203.58,573.69,203.59,572.67,203.59z" />
		<path class="st3" d="M63.85,204.51c0,2.51-0.01,5.02,0,7.54c0.01,1-0.22,1.82-1.64,1.78c-1.09-0.03-2.43,0.21-2.58-1.23
		c-0.2-1.98-1.36-1.26-2.49-0.76c-2.37,1.03-4.68,2.15-7.47,2.14c-4.83-0.01-7.83-2.15-8.13-5.98c-0.33-4.27,2.53-7.3,7.4-7.62
		c2.64-0.17,5.31-0.18,7.94-0.03c2.54,0.14,2.97-0.97,2.63-2.79c-0.48-2.57-2.29-3.91-5.14-4.23c-3.8-0.42-6.87,0.66-7.6,3.12
		c-0.6,2.03-2.01,2.17-3.6,1.71c-1.86-0.54-0.97-1.98-0.6-2.98c1.45-3.99,6.72-6.12,13-5.37c4.89,0.59,8.12,3.69,8.24,7.98
		c0.06,2.24,0.01,4.49,0.01,6.73C63.84,204.51,63.85,204.51,63.85,204.51z M54.09,203.6c0-0.02,0-0.04,0-0.05
		c-1.51,0.06-3.05,0-4.53,0.2c-2.63,0.36-4.2,2.12-3.68,4.07c0.61,2.29,2.57,2.84,4.91,2.5c2.95-0.43,5.43-1.88,7.97-3.16
		c1.18-0.6,1.1-1.64,0.88-2.62c-0.25-1.07-1.31-0.92-2.2-0.94C56.32,203.58,55.2,203.6,54.09,203.6z" />
		<path class="st4" d="M189.44,204.58c0,2.42,0.01,4.84-0.01,7.26c-0.01,0.88,0.15,1.94-1.38,1.95c-1.16,0.01-2.62,0.36-2.8-1.28
		c-0.21-1.94-1.34-1.28-2.49-0.74c-2.43,1.13-4.86,2.22-7.75,2.19c-4.59-0.05-7.61-2.24-7.94-5.91c-0.37-4.15,2.37-7.25,7.05-7.64
		c2.83-0.24,5.7-0.17,8.55-0.08c2.32,0.07,2.82-0.85,2.44-2.65c-0.53-2.49-2.02-4.03-4.99-4.35c-4.06-0.43-6.85,0.52-7.82,3.2
		c-0.71,1.99-2.23,2.08-3.76,1.6c-1.86-0.6-0.74-1.99-0.35-2.98c1.6-4.07,6.75-6.15,12.98-5.34c4.87,0.63,8.02,3.66,8.22,8.04
		c0.1,2.24,0.02,4.48,0.02,6.72C189.43,204.58,189.44,204.58,189.44,204.58z M175.34,210.45c3.47-0.37,6.32-1.94,9.2-3.41
		c0.93-0.48,0.77-1.38,0.72-2.18c-0.04-0.72-0.51-1.22-1.32-1.21c-3.32,0.04-6.69-0.52-9.95,0.37c-2.21,0.6-2.88,2.14-2.48,4.03
		C171.9,209.91,173.6,210.26,175.34,210.45z" />
		<path class="st5" d="M379.05,203.58c-2.14,0-4.28,0.08-6.41-0.02c-2.46-0.12-2.74,1.04-2.27,2.71c0.69,2.46,2.58,3.84,5.35,4.15
		c2.89,0.33,5.76,0.3,7.66-2.16c0.39-0.51,0.53-1.23,1.02-1.62c0.81-0.65,1.96-0.58,2.89-0.27c1.14,0.38,0.82,1.35,0.59,2.1
		c-0.71,2.36-2.64,3.78-5.05,4.73c-8.67,3.45-16.87-1.14-16.88-9.45c0-1.79-0.07-3.59,0.1-5.37c0.47-5.01,4.74-8.44,10.58-8.61
		c6.17-0.18,10.56,2.87,11.47,7.98c1.03,5.75,0.95,5.84-5.7,5.84C381.29,203.58,380.17,203.58,379.05,203.58z M376.92,200.2
		c1.73,0,3.46-0.05,5.19,0.01c1.8,0.06,2.32-0.58,1.98-2.13c-0.55-2.54-2.52-4.36-5.45-4.76c-3.53-0.49-6.66,0.83-7.93,3.32
		c-1.38,2.7-0.78,3.54,2.55,3.56C374.47,200.21,375.7,200.21,376.92,200.2z" />
		<path class="st5" d="M310.46,203.58c-2.24,0-4.48,0.06-6.71-0.01c-1.98-0.07-2.47,0.76-2.22,2.32c0.4,2.59,2.23,3.94,4.94,4.49
		c3.69,0.75,7.23-0.15,8.29-2.46c0.86-1.86,2.35-2.14,3.81-1.49c1.8,0.81,0.48,2.25-0.07,3.25c-1.89,3.46-7.56,5.2-13.14,4.19
		c-4.71-0.86-7.87-3.85-8.17-7.94c-0.16-2.14-0.11-4.3-0.05-6.45c0.15-5.57,4.17-9.33,10.33-9.72c6.27-0.4,10.77,2.67,11.94,8.17
		c0.06,0.26,0.11,0.53,0.14,0.8c0.61,4.75,0.52,4.85-4.82,4.85C313.31,203.58,311.88,203.58,310.46,203.58z M308.05,200.2
		c1.53,0,3.06,0.02,4.58,0c2.63-0.04,3.21-0.76,2.43-2.98c-0.87-2.51-3.47-4-6.88-3.94c-3.38,0.06-5.77,1.64-6.6,4.26
		c-0.56,1.76-0.24,2.82,2.19,2.69C305.2,200.14,306.63,200.21,308.05,200.2z" />
		<path class="st5" d="M238.26,203.58c-2.34,0-4.69,0.06-7.03-0.02c-1.61-0.05-2.22,0.47-2.02,1.9c0.35,2.51,2.36,4.45,5.26,4.96
		c3.75,0.66,7.12-0.22,8.23-2.59c0.89-1.9,2.49-2.01,3.88-1.37c1.46,0.67,0.5,2.1-0.03,3.09c-1.87,3.49-7.46,5.3-13.1,4.32
		c-4.92-0.85-8.2-3.97-8.34-8.07c-0.09-2.51-0.13-5.03,0.04-7.53c0.3-4.58,4.68-8.17,10.14-8.48c5.92-0.33,10.65,2.5,11.77,7.05
		c1.49,6.04,0.87,6.74-6.05,6.75C240.09,203.58,239.18,203.58,238.26,203.58z M236.47,200.21c1.43,0,2.87-0.1,4.28,0.02
		c2.39,0.21,2.83-0.79,2.37-2.57c-0.77-2.94-3.86-4.71-7.72-4.37c-3.42,0.3-5.99,2.57-6.23,5.39c-0.1,1.27,0.58,1.55,1.8,1.53
		C232.8,200.18,234.64,200.2,236.47,200.21z" />
		<path class="st6" d="M15.07,196.95c0-4.75,0.07-9.51-0.04-14.26c-0.04-1.67,0.34-2.39,2.49-2.34c6.11,0.13,12.23,0.09,18.34,0.02
		c1.71-0.02,2.32,0.44,2.34,1.98c0.01,1.55-0.81,1.75-2.25,1.74c-4.58-0.04-9.17,0.03-13.76-0.04c-1.69-0.03-2.4,0.45-2.33,2
		c0.1,2.33,0.12,4.67-0.01,6.99c-0.1,1.82,0.82,2.31,2.73,2.27c3.97-0.09,7.95,0,11.92-0.05c1.64-0.02,2.37,0.43,2.39,2.01
		c0.02,1.71-0.96,1.87-2.48,1.85c-3.97-0.05-7.95,0.06-11.92-0.05c-1.99-0.05-2.71,0.54-2.65,2.31c0.12,3.32-0.06,6.64,0.07,9.95
		c0.07,1.84-0.58,2.51-2.76,2.55c-2.3,0.04-2.1-1.11-2.1-2.4C15.07,206.63,15.07,201.79,15.07,196.95z" />
		<path class="st3" d="M491,201.96c-0.04-7.15,2.44-10.59,8.56-11.94c7.17-1.58,13.46,2.11,14.47,8.51c0.35,2.23,0.37,4.48,0.05,6.7
		c-0.85,5.96-5.15,9.07-12.18,8.9c-6.42-0.15-10.47-3.67-10.89-9.49C490.94,203.76,491,202.86,491,201.96z M509.85,202.03
		c0-0.8,0.05-1.61-0.01-2.41c-0.27-3.71-2.87-6.07-6.87-6.3c-3.95-0.22-6.88,1.92-7.55,5.57c-0.41,2.22-0.4,4.45,0.09,6.66
		c0.68,3.08,2.92,4.84,6.47,5.04c3.74,0.21,6.38-1.33,7.48-4.32C509.97,204.89,509.84,203.45,509.85,202.03z" />
		<path class="st7" d="M422.28,201.89c0-3.23,0.01-6.45,0-9.68c0-1.04,0-2.05,1.61-2.11c1.38-0.06,2.71-0.12,2.68,1.68
		c-0.03,1.43,0.9,1.08,1.78,0.57c1.8-1.04,3.67-1.94,5.8-2.34c4.93-0.92,9.09,1.58,9.66,5.94c0.7,5.36,0.13,10.75,0.32,16.12
		c0.05,1.45-0.77,1.8-2.28,1.8c-1.56-0.01-2.22-0.51-2.21-1.89c0.04-4.48,0.06-8.97,0.02-13.45c-0.04-4.37-3.02-5.95-7.48-3.96
		c-1.27,0.56-2.4,1.36-3.68,1.91c-1.49,0.64-1.93,1.59-1.9,3.01c0.1,4.12,0.01,8.25,0.05,12.37c0.01,1.24-0.2,2.05-1.97,2.02
		c-1.65-0.03-2.45-0.5-2.43-2.03c0.05-3.32,0.02-6.63,0.02-9.95C422.27,201.89,422.27,201.89,422.28,201.89z" />
		<path class="st4" d="M473.33,202.67c0.41,4.07-0.64,8.14-5.91,10.51c-7.88,3.54-16.89-1.09-17.13-8.84
		c-0.05-1.52-0.05-3.05-0.01-4.57c0.17-6.08,4.78-10.03,11.68-10.01c6.96,0.02,11.29,3.88,11.37,10.15
		C473.34,200.63,473.33,201.35,473.33,202.67z M469.35,202.08c-0.09-1.05-0.14-2.12-0.3-3.19c-0.53-3.51-3.33-5.65-7.25-5.59
		c-3.98,0.06-6.74,2.19-7.07,5.74c-0.2,2.13-0.2,4.31,0.1,6.42c0.44,3.19,3.27,5.14,7.01,5.17c3.78,0.03,6.52-1.87,7.17-5.04
		C469.24,204.44,469.24,203.27,469.35,202.08z" />
		<path class="st4" d="M119.58,202.03c0,3.22,0.01,6.45-0.01,9.67c-0.01,0.96,0.19,2.09-1.54,2.11c-1.25,0.02-2.51,0.11-2.71-1.44
		c-0.19-1.43-1.05-1.22-2.11-0.66c-2.09,1.1-4.19,2.18-6.75,2.25c-4.67,0.13-8.09-2.1-8.37-6.17c-0.36-5.35-0.15-10.74-0.22-16.11
		c-0.02-1.35,0.87-1.6,2.17-1.63c1.48-0.03,2.27,0.35,2.25,1.82c-0.06,4.21-0.05,8.42-0.02,12.62c0.01,1.96-0.26,4.1,2.21,5.19
		c2.27,1.01,4.23,0,6.33-0.82c3.49-1.36,5.07-3.29,4.62-6.81c-0.41-3.18-0.03-6.44-0.11-9.66c-0.04-1.5,0.29-2.36,2.3-2.35
		c2.06,0,1.97,1.1,1.96,2.32C119.57,195.58,119.57,198.81,119.58,202.03z" />
		<path class="st3" d="M70.16,201.8c0-1.08-0.01-2.15,0-3.23c0.05-4.45,2.74-7.44,7.63-8.52c5.32-1.17,10.89,0.63,13.04,4.25
		c0.37,0.63,0.68,1.32,0.82,2.01c0.19,0.98,0.88,2.29-1.06,2.54c-1.41,0.18-2.94,0.34-3.24-1.51c-0.38-2.28-2.13-3.34-4.53-3.78
		c-5.05-0.92-8.16,1.2-8.31,5.74c-0.07,2.06-0.1,4.13,0.04,6.18c0.2,2.9,2.13,4.63,5.33,4.99c3.64,0.41,6.59-0.95,7.36-3.78
		c0.52-1.91,1.83-1.98,3.39-1.71c2.1,0.37,1.22,1.84,0.96,2.83c-1.2,4.47-6.07,6.81-12.61,6.19c-5.09-0.48-8.65-3.76-8.82-8.16
		C70.12,204.49,70.16,203.14,70.16,201.8z" />
		<path class="st5" d="M394.3,201.88c0-0.81,0.04-1.62-0.01-2.42c-0.2-3.69,1.01-6.8,4.99-8.52c4.33-1.87,8.69-1.68,12.83,0.53
		c2.22,1.18,3.33,3.1,3.77,5.3c0.18,0.89,0.32,1.95-1.15,2.06c-1.22,0.09-2.58,0.49-3.21-1.19c-1.27-3.42-3.68-4.66-7.57-4.21
		c-3.49,0.4-5.22,2.14-5.44,5.79c-0.14,2.32-0.26,4.67,0.25,6.97c0.6,2.73,2.5,4.11,5.75,4.28c3.55,0.18,6.28-1.08,6.85-3.71
		c0.47-2.17,1.99-2.14,3.53-1.76c1.89,0.47,1.03,1.89,0.71,2.94c-1.33,4.38-5.97,6.62-12.41,6.04c-5.06-0.46-8.55-3.49-8.86-7.81
		c-0.1-1.43-0.02-2.87-0.02-4.3C394.33,201.88,394.31,201.88,394.3,201.88z" />
		<path class="st4" d="M349.84,198.72c0-4.21-0.06-8.42,0.03-12.62c0.03-1.48-0.47-2.12-2.24-2.05c-2.33,0.1-4.68-0.03-7.02,0.04
		c-1.5,0.04-1.94-0.54-1.88-1.78c0.06-1.1,0.19-1.93,1.79-1.93c7.73,0.02,15.46,0.02,23.19,0c1.63-0.01,1.71,0.86,1.76,1.94
		c0.06,1.23-0.39,1.82-1.9,1.77c-2.13-0.07-4.28,0.11-6.4-0.05c-2.23-0.16-2.72,0.66-2.7,2.47c0.09,8.15,0.04,16.29,0.04,24.44
		c0,1.42,0.35,2.89-2.27,2.93c-2.55,0.03-2.42-1.28-2.41-2.8C349.86,206.95,349.84,202.83,349.84,198.72z" />
		<path class="st5" d="M131.5,197.24c0,4.66-0.02,9.33,0.02,13.99c0.01,1.48-0.04,2.64-2.34,2.62c-2.34-0.02-2.3-1.28-2.3-2.7
		c0.01-9.51,0.03-19.02-0.02-28.53c-0.01-1.55,0.43-2.29,2.38-2.3c2.05-0.01,2.3,0.91,2.29,2.37
		C131.46,187.56,131.49,192.4,131.5,197.24z" />
		<path class="st7" d="M480.05,196.99c0-4.74,0.03-9.48-0.02-14.22c-0.01-1.4,0.11-2.38,2.2-2.44c2.25-0.07,2.13,1.08,2.12,2.4
		c-0.02,9.57-0.01,19.14,0,28.71c0,1.28,0.22,2.5-2.07,2.44c-2.06-0.05-2.27-0.96-2.26-2.4
		C480.08,206.65,480.05,201.82,480.05,196.99z" />
		<path class="st5" d="M553.44,202.09c0,3.22-0.03,6.44,0.02,9.66c0.02,1.38-0.3,2.16-2.18,2.12c-1.8-0.03-2.25-0.71-2.24-2.13
		c0.04-6.53,0.04-13.06-0.01-19.59c-0.01-1.44,0.47-2.09,2.25-2.12c1.88-0.03,2.19,0.74,2.17,2.13
		C553.4,195.47,553.44,198.78,553.44,202.09z" />
		<path class="st7" d="M548.64,182.85c-0.04-1.59,0.69-2.61,2.63-2.65c1.83-0.04,2.57,1.01,2.6,2.4c0.04,1.5-0.66,2.71-2.64,2.66
		C549.57,185.22,548.6,184.4,548.64,182.85z" />
		<path class="st8" d="M216.01,115.73c1.33,3.85-1.28,6.04-5.75,7.85c-7.37,2.99-14.08,7.23-21.99,9.24
		c-3.74,0.95-7.56,1.43-11.46,1.19c-6.65-0.4-11.26-3.82-12.23-9.09c-1.21-6.57,1.82-11.91,7.97-14.23
		c3.64-1.37,7.45-1.78,11.34-1.78c9.47-0.02,18.95,0.09,28.42-0.06c2.88-0.05,4.18,0.57,3.72,3.23
		C215.87,113.04,216.01,114.04,216.01,115.73z" />
		<path class="st8" d="M404.17,91.51c-7.64,0-15.29-0.14-22.92,0.07c-3.16,0.08-3.7-0.97-3.56-3.43
		c0.87-15.19,11.86-23.34,29.84-22.09c15.63,1.09,23.38,10.02,23.22,23.48c-0.02,1.83-1.11,1.99-2.73,1.98
		C420.06,91.49,412.11,91.5,404.17,91.51C404.17,91.51,404.17,91.51,404.17,91.51z" />
		<path class="st8" d="M530.77,193.38c5.2,0.03,7.2,1.24,7.3,3.99c0.06,1.67-0.64,3.18-2.39,3.7c-3.2,0.96-6.56,1.36-9.62-0.42
		c-1.78-1.04-1.74-2.77-1.28-4.36C525.71,193.13,528.82,193.64,530.77,193.38z" />
		<path class="st8" d="M531.65,211.58c1.83,0.11,3.97-0.26,6.04,0.4c2.51,0.8,3.56,3.2,1.84,4.89c-2.44,2.4-5.8,2.18-9.05,1.85
		c-2.85-0.29-4.48-1.75-5.17-4.2c-0.61-2.16-0.06-3.25,2.73-2.95C529.13,211.68,530.26,211.58,531.65,211.58z" />
		<path class="st8" d="M142.2,201.93c0-1.25-0.08-2.51,0.01-3.75c0.25-3.41,2.87-5.1,6.69-4.37c2.55,0.48,4.56,1.92,6.76,3
		c0.83,0.4,0.87,1.14,0.86,1.88c-0.01,1.07-0.01,2.15-0.01,3.22c0,4.9-2.69,7.62-8.33,8.43c-3.16,0.45-5.66-1.34-5.96-4.38
		C142.1,204.62,142.21,203.27,142.2,201.93z" />
		<path class="st8" d="M271.92,201.88c0-1.34-0.11-2.7,0.03-4.03c0.32-3.14,2.88-4.76,6.4-4.11c2.54,0.47,4.6,1.86,6.84,2.91
		c0.79,0.37,1.06,1.03,1.04,1.81c-0.02,1.07,0,2.15,0,3.22c0.02,5.11-2.37,7.65-8.13,8.63c-3.2,0.54-5.86-1.2-6.15-4.15
		C271.8,204.75,271.92,203.31,271.92,201.88z" />
		<path class="st8" d="M199.82,201.98c0-1.43-0.14-2.87,0.03-4.29c0.32-2.69,2.42-4.25,5.36-4.06c3.29,0.21,5.8,2.02,8.49,3.42
		c0.64,0.33,0.68,1.06,0.66,1.71c-0.02,0.8-0.01,1.61-0.01,2.41c0,5.74-1.39,7.38-7.65,8.96c-3.6,0.91-6.56-0.83-6.87-4.14
		c-0.13-1.33-0.02-2.68-0.02-4.02C199.81,201.98,199.81,201.98,199.82,201.98z" />
		<path class="st8" d="M572.67,203.59c1.02,0,2.03-0.01,3.05,0c0.92,0.02,1.94,0,2.13,1.07c0.17,0.97,0.31,1.99-0.96,2.58
		c-2.52,1.16-4.93,2.55-7.77,3.05c-2.59,0.46-4.64-0.53-4.94-2.44c-0.35-2.23,0.8-3.67,3.33-4.04c1.69-0.24,3.43-0.23,5.15-0.34
		C572.67,203.53,572.67,203.56,572.67,203.59z" />
		<path class="st8" d="M54.09,203.6c1.11,0,2.23-0.02,3.34,0.01c0.89,0.02,1.96-0.13,2.2,0.94c0.22,0.97,0.31,2.02-0.88,2.62
		c-2.54,1.28-5.02,2.73-7.97,3.16c-2.34,0.34-4.3-0.21-4.91-2.5c-0.52-1.95,1.06-3.71,3.68-4.07c1.49-0.21,3.02-0.14,4.53-0.2
		C54.09,203.56,54.09,203.58,54.09,203.6z" />
		<path class="st8" d="M175.34,210.45c-1.74-0.19-3.43-0.55-3.82-2.4c-0.4-1.88,0.27-3.43,2.48-4.03c3.26-0.89,6.63-0.33,9.95-0.37
		c0.81-0.01,1.28,0.49,1.32,1.21c0.04,0.79,0.21,1.7-0.72,2.18C181.65,208.52,178.81,210.08,175.34,210.45z" />
		<path class="st8" d="M376.92,200.2c-1.22,0-2.44,0.01-3.66,0c-3.33-0.02-3.92-0.86-2.55-3.56c1.27-2.49,4.4-3.81,7.93-3.32
		c2.92,0.4,4.9,2.22,5.45,4.76c0.33,1.55-0.18,2.19-1.98,2.13C380.38,200.16,378.65,200.2,376.92,200.2z" />
		<path class="st8" d="M308.05,200.2c-1.43,0-2.86-0.06-4.28,0.02c-2.43,0.13-2.75-0.92-2.19-2.69c0.83-2.62,3.22-4.21,6.6-4.26
		c3.41-0.06,6.01,1.43,6.88,3.94c0.77,2.22,0.19,2.95-2.43,2.98C311.11,200.22,309.58,200.2,308.05,200.2z" />
		<path class="st8" d="M236.47,200.2c-1.83,0-3.67-0.02-5.5,0.01c-1.22,0.02-1.9-0.27-1.8-1.53c0.23-2.81,2.8-5.09,6.23-5.39
		c3.86-0.33,6.95,1.43,7.72,4.37c0.46,1.78,0.02,2.78-2.37,2.57C239.34,200.1,237.9,200.21,236.47,200.2z" />
		<path class="st8" d="M509.85,202.03c-0.01,1.43,0.12,2.86-0.39,4.26c-1.1,2.99-3.74,4.53-7.48,4.32c-3.55-0.2-5.79-1.96-6.47-5.04
		c-0.49-2.22-0.5-4.44-0.09-6.66c0.68-3.65,3.6-5.79,7.55-5.57c4,0.22,6.6,2.59,6.87,6.3C509.9,200.42,509.85,201.22,509.85,202.03z
		" />
		<path class="st8" d="M469.35,202.08c-0.11,1.19-0.11,2.36-0.34,3.5c-0.64,3.18-3.39,5.07-7.17,5.04c-3.74-0.03-6.57-1.98-7.01-5.17
		c-0.29-2.12-0.29-4.3-0.1-6.42c0.33-3.55,3.09-5.68,7.07-5.74c3.92-0.06,6.72,2.08,7.25,5.59
		C469.21,199.95,469.26,201.03,469.35,202.08z" />
	</g>
</svg>