<?xml version="1.0" encoding="utf-8"?>
<!-- Generator: Adobe Illustrator 25.2.1, SVG Export Plug-In . SVG Version: 6.00 Build 0)  -->
<svg version="1.1" id="Camada_1" xmlns="http://www.w3.org/2000/svg" xmlns:xlink="http://www.w3.org/1999/xlink" x="0px" y="0px"
	 viewBox="0 0 507.24 503.82" style="enable-background:new 0 0 507.24 503.82;" xml:space="preserve">
<style type="text/css">
	.st0{fill:none;}
	.st1{fill:#010101;}
</style>
<g>
	<path class="st0" d="M4.66,485.04c0-157.55,0.01-315.11-0.08-472.66C4.58,9,5,7.84,8.85,7.84c161.06,0.12,322.13,0.12,483.19,0.01
		c3.46,0,4.17,0.71,4.16,4.16c-0.11,161.06-0.11,322.13,0.01,483.19c0,3.85-1.16,4.27-4.54,4.27
		c-157.87-0.09-315.74-0.08-473.62-0.08c0.18-0.24,0.32-0.63,0.55-0.69c38.94-9.67,77.88-19.35,116.84-28.93
		c3.54-0.87,6.42-2.46,8.99-5.04c88.38-88.42,176.79-176.82,265.26-265.15c2.38-2.38,2.8-3.55,0.13-6.19
		c-33.19-32.96-66.26-66.06-99.26-99.22c-2.23-2.25-3.33-2.68-5.82-0.18c-88.66,88.82-177.41,177.55-266.17,266.27
		c-2.11,2.11-3.45,4.52-4.16,7.37c-7.06,28.44-14.03,56.89-21.25,85.29C10.48,463.67,8.58,474.63,4.66,485.04z M411.98,9.47
		c-14.32,0.12-26.93,4.69-37.22,14.79c-11.73,11.51-23.24,23.26-34.95,34.79c-1.81,1.78-1.73,2.73,0.01,4.46
		c33.57,33.47,67.1,66.96,100.53,100.57c2.31,2.33,3.32,1.59,5.16-0.27c11.1-11.24,22.4-22.29,33.46-33.57
		c21.69-22.14,21.73-54.01,0.1-76.26c-9.57-9.84-19.34-19.48-29.1-29.13C439.45,14.45,426.66,9.57,411.98,9.47z"/>
	<path d="M4.66,480.21c3.92-10.41,5.82-21.37,8.55-32.09c7.21-28.4,14.19-56.85,21.25-85.29c0.71-2.85,2.04-5.26,4.16-7.37
		C127.37,266.74,216.12,178,304.78,89.19c2.49-2.5,3.59-2.06,5.82,0.18c33,33.16,66.07,66.25,99.26,99.22
		c2.67,2.65,2.25,3.82-0.13,6.19c-88.47,88.33-176.88,176.72-265.26,265.15c-2.58,2.58-5.46,4.17-8.99,5.04
		c-38.96,9.58-77.9,19.26-116.84,28.93c-0.23,0.06-0.37,0.45-0.55,0.69c-1.6,0-3.19,0-4.79,0c-4.27-1.47-7.27-4.23-8.62-8.62
		C4.66,484.05,4.66,482.13,4.66,480.21z"/>
	<path class="st0" d="M3.64,493.92c1.35,4.39,4.35,7.15,8.62,8.62c-2.87,0-6.87,1.12-8.31-0.32C2.52,500.79,3.64,496.8,3.64,493.92z
		"/>
	<path class="st1" d="M411.98,9.47c14.69,0.11,27.47,4.98,37.97,15.37c9.76,9.65,19.54,19.29,29.1,29.13
		c21.63,22.25,21.59,54.12-0.1,76.26c-11.06,11.29-22.36,22.33-33.46,33.57c-1.84,1.86-2.84,2.6-5.16,0.27
		c-33.43-33.61-66.96-67.1-100.53-100.57c-1.74-1.73-1.81-2.68-0.01-4.46c11.71-11.53,23.22-23.28,34.95-34.79
		C385.05,14.15,397.66,9.59,411.98,9.47z"/>
</g>
</svg>
