<?xml version="1.0" encoding="utf-8"?>
<!-- Generator: Adobe Illustrator 25.2.1, SVG Export Plug-In . SVG Version: 6.00 Build 0)  -->
<svg version="1.1" id="Camada_1" xmlns="http://www.w3.org/2000/svg" xmlns:xlink="http://www.w3.org/1999/xlink" x="0px" y="0px"
	 viewBox="0 0 591.63 218.12" style="enable-background:new 0 0 591.63 218.12;" xml:space="preserve">
<style type="text/css">
	.st0{fill:#292827;}
	.st1{fill:#2C2B2B;}
	.st2{fill:#D31922;}
	.st3{fill:none;}
	.st4{fill:#333233;}
	.st5{fill:#3A393B;}
	.st6{fill:#4C4B4E;}
	.st7{fill:none;stroke:url(#SVGID_1_);stroke-miterlimit:10;}
	.st8{fill:#434344;}
	.st9{fill:#E7E6E8;}
	.st10{fill:#CBCACE;}
	.st11{fill:#59585A;}
	.st12{fill:#3E51A0;}
</style>
<g>
	<path class="st0" d="M535.53,161.7c-19.25,0.03-35.32-11.72-38.13-27.88c-4.07-23.37,15.84-42.8,41.69-40.7
		c22.91,1.86,38.14,19.03,34.98,39.42C571.44,149.51,555.37,161.67,535.53,161.7z M554.07,127.6c0.03-10.2-8.02-18.1-18.45-18.1
		c-10.41,0-18.43,7.78-18.39,17.82c0.04,10.06,8.02,17.84,18.38,17.9C546.19,145.28,554.04,137.8,554.07,127.6z"/>
	<path class="st0" d="M187.01,92.88c22.07,0.02,38.37,13.86,39.1,33.52c0.53,14.3-8.57,27.07-24.01,32.72
		c-16.84,6.17-37.01,0.95-47.14-12.39c-14.38-18.94-4.12-45.66,20.04-52.22C179.08,93.41,183.23,92.74,187.01,92.88z M187.13,109.38
		c-10.5,0.03-18.31,7.68-18.24,17.87c0.07,10.17,8.18,17.86,18.76,17.8c10.28-0.06,18.14-7.74,18.14-17.73
		C205.79,117.2,197.63,109.35,187.13,109.38z"/>
	<path class="st0" d="M369.68,115.7c0-6.28,0.12-12.57-0.06-18.85c-0.06-2.17,0.67-2.61,2.87-2.54c4.93,0.15,9.88,0.16,14.81-0.01
		c2.33-0.08,2.85,0.61,2.83,2.64c-0.1,11.74-0.09,23.47-0.03,35.21c0.03,5.08,1.6,9.51,7.1,11.87c8.93,3.83,18.19-0.77,19.1-9.73
		c0.82-8.01,0.19-16.07,0.29-24.1c0.06-4.62,0.08-9.24-0.03-13.86c-0.04-1.59,0.53-2.04,2.23-2.01c5.34,0.09,10.68,0.09,16.02,0.01
		c1.58-0.02,2.03,0.41,2.02,1.87c-0.08,12.47,0.2,24.96-0.16,37.42c-0.29,10.08-3.71,19.24-14.27,24.03
		c-13.03,5.91-26.54,5.94-39.42-0.45c-9.42-4.67-12.59-13.13-13.15-22.37c-0.39-6.36-0.07-12.75-0.07-19.12
		C369.73,115.7,369.71,115.7,369.68,115.7z"/>
	<path class="st0" d="M114.85,148.51c-3.93,0-7.85,0.06-11.78-0.03c-1.63-0.04-2.54,0.34-3.1,1.88c-1.03,2.79-2.41,5.46-3.54,8.22
		c-0.49,1.19-1.15,1.73-2.63,1.71c-5.64-0.08-11.28-0.09-16.91,0c-2.27,0.04-1.91-0.8-1.28-2.14c9.06-19.58,18.27-39.11,26.97-58.83
		c1.97-4.47,4.26-6.41,9.53-5.71c3.35,0.45,6.83,0.15,10.25,0.06c1.62-0.04,2.49,0.38,3.16,1.85c9.56,20.89,19.19,41.76,28.85,62.61
		c0.76,1.64,0.67,2.22-1.51,2.17c-5.64-0.12-11.28-0.08-16.91-0.02c-1.5,0.02-2.38-0.29-2.88-1.75c-0.7-2.01-1.75-3.92-2.63-5.87
		c-1.87-4.16-1.86-4.16-6.83-4.16C120.69,148.51,117.77,148.51,114.85,148.51z M114.8,115.42c-2.7,6.28-5.13,11.97-7.58,17.65
		c-0.4,0.92,0.13,1.15,0.98,1.15c4.31,0,8.63-0.02,12.94,0c1.29,0,1.58-0.49,1.13-1.54C119.86,127.15,117.48,121.62,114.8,115.42z"
		/>
	<path class="st0" d="M345.1,97.34c6.3,13.75,12.61,27.51,18.91,41.26c3.3,7.19,6.6,14.38,10.05,21.89c-6.98,0-13.59-0.03-20.2,0.02
		c-1.4,0.01-1.59-0.88-1.96-1.72c-1.17-2.65-2.39-5.27-3.47-7.95c-0.59-1.47-1.36-2.16-3.26-2.13c-7.85,0.12-15.71,0.08-23.56,0.02
		c-1.51-0.01-2.38,0.3-2.86,1.75c-0.64,1.93-1.61,3.77-2.44,5.65c-1.92,4.35-1.92,4.35-6.92,4.35c-5.2,0-10.4,0-15.97,0
		c9-19.55,17.84-38.77,26.85-58.33c-5.57,0.57-10.72,1.09-15.87,1.62c-0.35-1.68-0.81-3.34-0.67-5.07
		c7.27-0.97,14.53-1.94,21.8-2.91c0,2.09,0.29,4.84,2.88,4.61c4.11-0.37,8.56-0.16,12.25-2.53C342.15,97.7,343.62,97.52,345.1,97.34
		z M325.47,134.39c5.06,0,9.68-0.01,14.3,0.01c1.06,0,1.86-0.1,1.32-1.36c-2.4-5.59-4.81-11.19-7.5-17.45
		C330.73,122.21,328.16,128.16,325.47,134.39z"/>
	<path class="st0" d="M46.44,161.45c-11.01-0.39-21.2-2.98-30.12-9.2c-1.75-1.22-2.4-2-0.59-3.75c2.83-2.74,5.44-5.69,7.95-8.69
		c1.17-1.4,1.92-1.25,3.32-0.31c6.41,4.32,13.56,6.75,21.6,6.7c0.9-0.01,1.84,0.03,2.71-0.14c2.52-0.5,5.01-1.17,5.4-4.02
		c0.39-2.82-1.82-4.05-4.15-4.72c-5.84-1.66-11.78-3.05-17.66-4.59c-1.44-0.38-2.85-0.9-4.24-1.42
		c-7.93-2.97-13.04-7.97-13.25-16.18c-0.22-8.52,3.77-14.99,12.07-18.95c12.09-5.76,33.65-3.42,44.17,4.59
		c1.15,0.88,1.11,1.43,0.29,2.44c-2.62,3.27-5.23,6.55-7.66,9.94c-0.98,1.37-1.65,1.34-3.04,0.53c-5.79-3.35-12-5.6-19.01-5.43
		c-1.11,0.03-2.18,0.1-3.25,0.51c-1.78,0.68-3.16,1.56-3.33,3.52c-0.18,2.06,0.98,3.3,2.85,4.13c2.92,1.29,6.06,1.95,9.19,2.59
		c4.81,0.99,9.57,2.11,14.11,3.9c7.96,3.12,13.13,8.16,13.17,16.53c0.03,8.76-4.17,15.21-12.89,19.02
		C58.5,160.89,52.54,161.5,46.44,161.45z"/>
	<path class="st0" d="M301.85,104.47c3.8,6.33,4.97,13.09,2.85,20.02c-3.21,10.5-11.93,14.9-22.9,16.59
		c-4.9,0.75-9.83,0.5-14.75,0.46c-1.86-0.02-2.41,0.47-2.37,2.17c0.12,4.89-0.04,9.78,0.08,14.67c0.04,1.71-0.47,2.19-2.35,2.15
		c-5.23-0.12-10.46-0.08-15.69-0.02c-1.51,0.02-2.1-0.31-2.09-1.83c0.02-11.81-0.06-23.62-0.07-35.43c0-1.08,0.32-2.17,0.48-3.25
		c1.4-2.71,2.29-5.69,4.81-7.83c1.14,0.81,2.32,2.25,3.82,1.27c2.63-1.7,5.76-2.4,8.41-3.98c1,0.05,2,0.1,3,0.15
		c-0.86,5.42-0.16,10.87-0.37,16.3c-0.03,0.91,0.41,1.37,1.43,1.33c4.01-0.16,8.08,0.47,12.04-0.45c5.06-1.17,7.69-4.29,7.52-8.73
		c-0.17-4.43-3.09-7.24-8.29-8.09c-4.11-0.66-8.24-0.34-12.36-0.34c0.06-1.13,0.9-1.25,1.88-1.27c1.31-0.04,2.55-0.32,3.62-1.06
		c2.41-0.18,4.78-0.82,7.23-0.63c4.24-0.54,8.47-1.07,12.71-1.61C294.32,105.61,298.03,104.1,301.85,104.47z"/>
	<path class="st0" d="M441.56,127.31c0-10.15,0.08-20.31-0.06-30.46c-0.03-2.14,0.67-2.62,2.87-2.55c4.83,0.15,9.66,0.15,14.49,0.01
		c2.16-0.06,2.67,0.61,2.66,2.51c-0.08,14.96,0.02,29.91-0.11,44.87c-0.02,2.37,0.74,2.87,3.19,2.83
		c9.66-0.13,19.33,0.04,28.99-0.11c2.5-0.04,3.03,0.71,2.93,2.8c-0.17,3.69-0.12,7.39-0.02,11.08c0.04,1.58-0.26,2.26-2.27,2.25
		c-16.81-0.08-33.62-0.08-50.43,0c-1.96,0.01-2.29-0.59-2.28-2.2C441.6,147.99,441.56,137.65,441.56,127.31z"/>
	<path class="st1" d="M213.69,189.12c0-5.59,0.08-11.08-0.05-16.57c-0.05-1.92,0.26-2.75,2.71-2.67c5.05,0.18,5.06,0.03,5.06,4.66
		c0,8.4-0.07,16.8,0.05,25.2c0.03,2.02-0.48,2.61-2.79,2.71c-2.96,0.12-4.78-0.81-6.48-2.98c-4.45-5.67-9.17-11.16-13.8-16.76
		c-1.12,0.68-0.67,1.59-0.68,2.33c-0.05,4.98-0.08,9.97,0.02,14.95c0.03,1.68-0.31,2.44-2.45,2.42c-5.23-0.05-5.23,0.06-5.23-4.77
		c0-8.49,0.06-16.98-0.05-25.47c-0.02-1.86,0.64-2.11,2.51-2.31c3.44-0.35,5.49,0.88,7.41,3.38c3.75,4.9,7.85,9.58,11.82,14.34
		C212.2,188.13,212.48,188.87,213.69,189.12z"/>
	<path class="st1" d="M225.16,186.19c0.03-9.53,8.07-16.67,18.79-16.69c10.67-0.02,18.72,7.21,18.67,16.77
		c-0.05,9.43-8.3,16.81-18.82,16.84C233.28,203.14,225.13,195.74,225.16,186.19z M243.68,176.07c-5.91,0.05-10.47,4.39-10.53,10.01
		c-0.06,5.75,4.86,10.44,10.87,10.38c5.98-0.06,10.52-4.57,10.45-10.35C254.4,180.36,249.73,176.02,243.68,176.07z"/>
	<path class="st1" d="M319.44,186.19c0.02-9.49,8.13-16.67,18.82-16.68c10.65-0.01,18.76,7.26,18.7,16.76
		c-0.06,9.39-8.4,16.84-18.86,16.83C327.57,203.08,319.42,195.7,319.44,186.19z M348.75,186.15c-0.03-5.76-4.66-10.12-10.72-10.08
		c-6.04,0.04-10.62,4.5-10.52,10.26c0.1,5.71,4.83,10.16,10.78,10.15C344.25,196.46,348.78,191.99,348.75,186.15z"/>
	<path class="st1" d="M70.41,169.51c10.52,0,18.61,7.17,18.68,16.54c0.07,9.47-8.46,17.14-18.95,17.06
		c-10.54-0.08-18.73-7.54-18.63-16.97C51.6,176.65,59.73,169.51,70.41,169.51z M80.9,186.2c-0.01-5.74-4.67-10.14-10.69-10.13
		c-6.09,0.02-10.65,4.41-10.58,10.2c0.06,5.72,4.79,10.21,10.73,10.2C76.36,196.45,80.92,192.02,80.9,186.2z"/>
	<path class="st1" d="M537.09,186.16c0.06-9.59,8.04-16.68,18.77-16.66c10.65,0.02,18.75,7.3,18.66,16.8
		c-0.08,9.38-8.51,17.09-18.87,16.77C542.8,202.68,536.7,194.01,537.09,186.16z M566.25,186.24c0.01-5.88-4.44-10.17-10.55-10.18
		c-6.03-0.01-10.67,4.42-10.65,10.16c0.02,5.65,4.78,10.2,10.7,10.25C561.73,196.52,566.24,192.13,566.25,186.24z"/>
	<path class="st1" d="M187.27,202.35c-3.02,0-5.51-0.04-7.99,0.02c-1.15,0.03-1.53-0.68-2.03-1.37c-1.45-2-3.18-3.86-4.32-6
		c-1.38-2.6-3.44-3.19-6.32-2.98c-1.49,0.11-2.16,0.35-2.07,1.85c0.12,2.12-0.09,4.26,0.07,6.37c0.13,1.77-0.65,2.15-2.44,2.16
		c-5.3,0.03-5.3,0.09-5.3-4.73c0-8.41,0.09-16.82-0.06-25.22c-0.04-2.13,0.64-2.68,2.86-2.54c5.81,0.37,11.68-0.59,17.45,0.59
		c5.36,1.09,8.22,3.79,9.08,8.43c0.84,4.5-1.17,8.77-5.56,11.03c-1.69,0.87-1.59,1.45-0.63,2.68
		C182.38,195.69,184.64,198.81,187.27,202.35z M169.75,176.55c-5.19-0.1-5.19-0.1-5.19,4.66c0,1.11,0.02,2.22,0,3.33
		c-0.01,0.91,0.4,1.36,1.43,1.33c2.81-0.09,5.65,0.27,8.44-0.3c2.61-0.54,3.93-2.17,4.02-4.54c0.08-2.3-1.78-4.13-4.48-4.45
		C172.58,176.42,171.15,176.55,169.75,176.55z"/>
	<path class="st1" d="M283.2,185.95c0-4.71-0.01-9.41,0.01-14.12c0-0.88-0.3-1.95,1.35-1.88c5.71,0.24,11.45-0.51,17.14,0.57
		c8.74,1.67,14.46,8.37,14.06,16.56c-0.39,7.86-6.9,14.33-15.62,15.03c-4.99,0.4-10.05,0.13-15.07,0.27
		c-1.77,0.05-1.9-0.77-1.89-2.04C283.23,195.54,283.2,190.74,283.2,185.95z M295.53,176.46c-4.55-0.02-4.55-0.02-4.55,4.2
		c0,3.5,0,7.01,0,10.51c0,4.9,0,4.9,5.37,4.83c7.65-0.09,11.67-4.12,11.08-11.1C306.97,179.49,302.74,176.49,295.53,176.46z"/>
	<path class="st1" d="M500.76,185.98c0-4.61,0.06-9.23-0.03-13.84c-0.03-1.56,0.2-2.36,2.24-2.23c5.4,0.33,10.83-0.43,16.22,0.58
		c8.77,1.65,14.35,8.16,14,16.54c-0.32,7.87-6.56,14.29-15.17,15.04c-5.19,0.45-10.45,0.17-15.67,0.3c-1.75,0.04-1.6-0.96-1.6-1.99
		C500.76,195.58,500.76,190.78,500.76,185.98z M508.6,186.16c0,1.56,0,3.13,0,4.69c0,5.32,0,5.32,5.94,5.15
		c6.48-0.18,10.61-3.96,10.61-9.69c0-5.9-4.19-9.73-10.78-9.84c-1.3-0.02-2.61,0.07-3.91-0.02c-1.43-0.1-1.94,0.36-1.89,1.7
		C508.67,180.82,508.6,183.49,508.6,186.16z"/>
	<path class="st1" d="M47.89,191.03c0,0.74-0.14,1.5,0.02,2.21c0.98,4.34-1.69,6.37-5.59,7.83c-7.95,2.97-15.59,2.93-22.36-2.36
		c-5.94-4.64-7.44-12.67-4.12-19.56c3.2-6.64,10.87-10.37,19.66-9.58c3.48,0.31,6.61,1.4,9.51,3.21c1.34,0.83,1.51,1.57,0.29,2.55
		c-0.15,0.12-0.24,0.29-0.37,0.44c-2.86,3.21-2.86,3.21-6.77,1.42c-4.81-2.21-10.3-1.23-13.4,2.38c-3.38,3.93-3.22,10.19,0.35,13.83
		c3.24,3.31,9.64,4.15,13.94,1.88c2.16-1.14,1.08-2.98,1.11-4.49c0.04-1.47-1.5-0.74-2.36-0.86c-0.79-0.11-1.63-0.13-2.41-0.01
		c-2.55,0.39-3.04-0.58-3.17-2.83c-0.18-2.91,0.88-3.58,3.82-3.36c3.3,0.24,6.64,0.11,9.97,0.03c1.44-0.03,1.98,0.37,1.91,1.72
		C47.81,187.33,47.89,189.18,47.89,191.03z"/>
	<path class="st2" d="M244.43,56.26c1.02-11.83,8.35-19.67,21.23-22.75c4.96-1.18,10.02-1.81,15.09-2.29
		c0.36-0.01,0.72-0.02,1.09-0.03c0.41-0.02,0.82-0.05,1.23-0.07c0.1,1.55,0.21,3.11,0.31,4.66c-0.3,2.03-0.32,4.06-0.04,6.09
		c0.01,1.88,0.03,3.75,0.04,5.63c-0.33,2.04-0.32,4.09-0.02,6.13c-0.08,1.81-0.16,3.63-0.24,5.44c-6.45,1.07-13.09,1.33-19.28,3.6
		c-0.19,0.07-0.38,0.14-0.57,0.22c-0.2,0.06-0.4,0.12-0.61,0.18c-0.23,0.11-0.46,0.23-0.69,0.34c-0.19-0.05-0.36-0.01-0.5,0.12
		c-4.98,1.83-9.36,4.36-12.21,8.7c-1.04,0.53-1.4,1.53-1.93,2.4c-0.82,1.32-0.98,3.04-2.74,3.79c-0.06-2.4-0.12-4.8-0.18-7.19
		c0-0.37,0-0.73,0-1.1c0-1.29,0-2.58,0-3.87c0-0.19,0-0.38,0.01-0.57c0-0.74,0-1.48,0-2.22c0-0.37,0-0.74,0-1.11
		c0-1.48,0-2.96,0.01-4.44C244.43,57.36,244.43,56.81,244.43,56.26z M271.76,45.48c0.02-5.37-3.93-9-8.83-8.12
		c-7.98,1.43-14.78,10.14-13.71,17.55c0.7,4.81,4.95,7.35,10.03,5.98C265.95,59.08,271.74,51.95,271.76,45.48z M276.84,49.48
		c-0.21,1.77-1.67,2.06-2.97,2.53c0.77,1.08,1.77,2.1,1.22,2.89c0.12-1.36,2.89,1.15,3.69-1.39
		C279.54,51.08,276.53,51.25,276.84,49.48z M275.3,39.11c2.62,0.33,3.87-0.84,4.03-2.62c0.09-1.07-2.27-0.71-2.31-2.13
		c-0.71,0.94-1.42,1.88-2.14,2.83C275.86,37.67,275.35,38.66,275.3,39.11z M248.42,62.41c-2.25,2.57-1.15,5.18-1.71,7.24
		C247.97,67.74,248.9,65.52,248.42,62.41z"/>
	<path class="st1" d="M377.3,185.91c0-4.71,0.06-9.42-0.03-14.13c-0.03-1.45,0.45-1.88,2.04-1.86c7.45,0.07,14.9,0.08,22.36,0
		c1.74-0.02,2.41,0.48,2.17,2.02c-0.03,0.18,0,0.37,0,0.55c-0.07,4.69,0.42,3.83-4.09,3.89c-4.13,0.05-8.26,0.08-12.39-0.02
		c-1.8-0.04-2.64,0.43-2.41,2.17c0.11,0.82,0.09,1.67,0,2.49c-0.16,1.45,0.49,1.94,2.05,1.91c4.03-0.07,8.06,0.08,12.08-0.07
		c2.17-0.08,2.93,0.6,2.62,2.51c-0.09,0.54-0.09,1.12,0.01,1.66c0.38,2.05-0.68,2.43-2.69,2.36c-3.92-0.14-7.86,0.06-11.78-0.09
		c-1.94-0.07-2.32,0.53-2.31,2.18c0.02,4.58-0.06,4.58,4.86,4.58c4.03,0,8.06,0.06,12.08-0.03c1.63-0.04,2.48,0.3,2.26,1.96
		c-0.12,0.91-0.08,1.85,0,2.77c0.1,1.2-0.42,1.62-1.72,1.61c-7.75-0.04-15.51-0.06-23.26,0c-1.79,0.02-1.89-0.8-1.88-2.06
		C377.32,195.52,377.29,190.71,377.3,185.91z"/>
	<path class="st1" d="M126.54,186.04c0-4.71,0.07-9.42-0.04-14.12c-0.03-1.58,0.49-2.02,2.2-2.01c7.34,0.08,14.69,0.11,22.04-0.01
		c2.1-0.04,2.66,0.66,2.42,2.38c-0.09,0.64-0.09,1.3,0,1.93c0.24,1.69-0.48,2.25-2.35,2.21c-4.63-0.11-9.26,0.05-13.88-0.08
		c-2.04-0.06-2.84,0.38-2.75,2.4c0.22,5.04-0.52,4.08,4.41,4.15c3.32,0.05,6.64,0.07,9.96-0.01c1.62-0.04,2.5,0.32,2.27,1.98
		c-0.11,0.82-0.12,1.67-0.01,2.49c0.23,1.57-0.41,2.07-2.14,2.03c-4.02-0.11-8.05,0.04-12.07-0.07c-1.74-0.05-2.44,0.26-2.42,2.07
		c0.04,4.68-0.07,4.68,5.04,4.68c3.92,0,7.85,0.08,11.77-0.04c1.82-0.06,2.63,0.39,2.38,2.14c-0.12,0.82-0.09,1.67,0,2.49
		c0.14,1.36-0.5,1.73-1.91,1.72c-7.65-0.05-15.3-0.07-22.94,0.01c-1.69,0.02-2.01-0.57-1.99-1.95
		C126.59,195.64,126.54,190.84,126.54,186.04z"/>
	<path class="st1" d="M464.64,202.36c-4.45,0-4.47-0.01-2.94-3.32c4.16-9,8.5-17.93,12.42-27.01c1.35-3.12,3.78-1.87,5.93-2.2
		c1.99-0.3,2.77,0.68,3.47,2.22c4.27,9.35,8.61,18.67,12.99,27.98c0.76,1.61,0.99,2.64-1.52,2.32c-0.2-0.02-0.4,0-0.6,0
		c-4.93,0.03-5.13,0.09-6.76-4.17c-0.94-2.46-2.32-3.24-5.05-3.03c-3,0.23-6.04,0.12-9.06,0.03c-1.62-0.05-2.72,0.27-3.1,1.89
		c-0.16,0.71-0.77,1.33-0.92,2.03C468.9,201.87,467.21,203.03,464.64,202.36z M474.08,188.83c2.69,0,4.95-0.06,7.21,0.02
		c1.56,0.06,1.99-0.4,1.37-1.74c-1.26-2.73-2.47-5.48-3.93-8.71C477.1,182.08,475.68,185.27,474.08,188.83z"/>
	<path class="st1" d="M422.69,202.81c-4.8,0.07-9.08-1.28-13.03-3.74c-1.5-0.93-1.93-1.75-0.41-2.95c0.45-0.36,0.89-0.79,1.17-1.26
		c1.2-2.03,2.5-1.99,4.46-0.65c2.73,1.86,5.94,2.74,9.39,2.33c1.74-0.21,3.38-0.77,3.69-2.7c0.3-1.86-1.08-2.73-2.63-3.23
		c-2.65-0.86-5.38-1.48-8.06-2.26c-6.04-1.75-8.39-4.73-7.87-9.89c0.48-4.75,4.05-7.98,9.69-8.7c4.87-0.63,9.37,0.36,13.61,2.59
		c1.6,0.84,2.23,1.72,0.71,3.16c-0.62,0.59-1.13,1.31-1.54,2.04c-0.72,1.27-1.46,1.43-2.83,0.59c-2.56-1.57-5.41-2.41-8.57-2.12
		c-1.77,0.16-3.2,0.78-3.48,2.5c-0.27,1.64,0.93,2.59,2.46,3.07c3.04,0.95,6.17,1.66,9.17,2.7c5.59,1.93,7.68,4.98,7.06,9.9
		c-0.58,4.58-4.28,7.82-9.67,8.44C424.91,202.75,423.8,202.75,422.69,202.81z"/>
	<path class="st1" d="M124.6,88.65c-4.7-0.13-8.99-1.81-13.41-3.02c-4.67-1.27-5.58-1.01-8.23,2.64c-0.4,0.55-0.65,1.11-1.6,0.86
		c-2.51-0.66-5.05-1.23-7.57-1.86c-1.08-0.27-0.62-1-0.47-1.58c0.76-2.78,1.66-5.52,3.35-7.95c2.71-3.91,6.77-5.44,11.98-4.59
		c3.77,0.62,7.36,1.84,10.99,2.91c4.26,1.26,5.62,0.81,8.07-2.56c0.33-0.45,0.49-1.17,1.23-1c2.63,0.61,5.24,1.3,7.85,1.97
		c0.8,0.21,0.75,0.8,0.6,1.35c-1.12,4.04-2.33,8.06-6.04,10.88C129.43,88.17,127.1,88.7,124.6,88.65z"/>
	<path class="st3" d="M283.36,53.64c-0.3-2.05-0.31-4.09,0.02-6.13c0.56-0.07,1.12-0.13,1.68-0.2c4.44-0.4,8.88-0.79,13.31-1.19
		c10.36-0.92,20.59-2.56,30.82-4.28c3.7-0.43,7.38-0.99,10.91-2.14c4.24-0.47,8.23-1.68,12.09-3.33c4.81-1.27,8.71-3.96,12.51-6.8
		c0.87,0.05,1.8,0.19,2.27-0.72c0.28-0.54-0.18-0.78-0.64-0.97c0.44-0.56,0.88-1.11,1.32-1.67c0.48,0.03,0.96,0.06,1.44,0.09
		c0,1.17,0,2.33,0,3.5c-0.54,0.71-1.08,1.42-1.61,2.13c-1.31-0.12-1.43,0.66-1.41,1.55c-3.66,4.86-9,7.54-14.81,9.62
		c-2.74,0.8-5.47,1.6-8.21,2.4c-3.42,0.7-6.84,1.4-10.26,2.1c-11.07,1.61-22.15,3.22-33.22,4.83c-1.2,0.06-2.4,0.11-3.61,0.17
		c-0.5-0.19-0.89-0.03-1.24,0.29c-1.4,0.1-2.8,0.19-4.2,0.29C288.13,53.34,285.75,53.49,283.36,53.64z"/>
	<path class="st1" d="M87.37,170.04c8.56-0.32,8.53-0.32,11.27,6.58c1.99,5.02,4.06,10.02,6.1,15.03c0.07,0.16,0.23,0.29,0.6,0.73
		c1.74-4.26,3.42-8.34,5.08-12.42c1.05-2.59,2.17-5.16,3.08-7.79c0.56-1.63,1.38-2.46,3.4-2.25c1.78,0.18,3.61,0.04,5.92,0.04
		c-1.61,3.66-3.1,7.04-4.58,10.43c-2.99,6.84-6.06,13.66-8.91,20.55c-0.66,1.59-1.63,1.98-3.15,1.71c-1.85-0.32-4.39,1.19-5.33-1.64
		c-0.09-0.26-0.2-0.52-0.31-0.78C96.18,190.23,91.82,180.23,87.37,170.04z"/>
	<path class="st0" d="M452.73,169.95c4.03,0,8.06,0.08,12.09-0.04c1.79-0.05,2.43,0.32,2.42,2.1c-0.03,4.53,0.08,4.53-4.9,4.53
		c-5.91,0-5.91,0-5.91,5.51c0,5.91-0.11,11.83,0.06,17.74c0.06,2.1-0.61,2.66-2.86,2.6c-4.87-0.13-4.88-0.01-4.88-4.58
		c0-6.37-0.06-12.75,0.04-19.12c0.03-1.71-0.56-2.35-2.4-2.17c-1.1,0.11-2.21,0.02-3.32,0.02c-5.37,0-5.28,0-5.16-4.84
		c0.04-1.57,0.68-1.8,2.14-1.78C444.27,170,448.5,169.95,452.73,169.95z"/>
	<path class="st4" d="M296.57,29.87c10.09-1.22,20.19-2.44,30.28-3.67c2.82-0.35,5.44-1.66,8.38-1.47c0.63,1.56,0.84,3.13,0,4.69
		c-0.76,0.23-1.51,0.55-2.29,0.68c-13.04,2.13-26.15,3.85-39.35,4.91c-0.96-2.34-1.91-4.68,2.53-4.47
		C296.25,30.53,296.42,30.1,296.57,29.87z"/>
	<path class="st5" d="M244.55,116.14c-0.18-2.8,0.09-5.56,0.57-8.32c2.05-3.96,4.35-7.77,7.96-10.76c1.89-0.97,3.16-2.81,5.43-3.25
		c2.46-0.81,4.93-1.61,7.39-2.42c-0.73,1.81-0.8,3.58,0.39,5.27c-2.69,0.82-5.5,1.37-7.82,3.02c-2.44,0.87-4.48,2.27-6.2,4.07
		c-0.52,0.42-1.07,0.81-1.55,1.26C247.43,108.14,246.13,112.21,244.55,116.14z"/>
	<path class="st5" d="M351.25,43.1c5.81-2.08,11.15-4.76,14.81-9.62c0.85-0.23,1.13-0.88,1.41-1.55c0.54-0.71,1.08-1.42,1.61-2.13
		c1.06,2.44,0.66,4.77-0.63,7.04c-1.25,1.46-2.5,2.92-3.75,4.38c-4.09,3.15-8.5,5.8-13.62,7.35c-0.84-0.49-0.59-1.12-0.42-1.86
		C350.94,45.52,351.67,44.38,351.25,43.1z"/>
	<path class="st5" d="M369.15,53.14c0.92,2.42,0.62,4.75-0.67,6.99c-1.67,1.82-3.34,3.64-5.01,5.46c-3.44,2.3-6.87,4.62-11.02,5.79
		c-1.05-1.32-1.63-2.83-2.24-4.34c1-0.42,2.01-0.84,3.01-1.26c5.75-2.41,10.91-5.49,14.33-10.56
		C368.08,54.53,368.61,53.84,369.15,53.14z"/>
	<path class="st5" d="M367.65,26.21c-0.44,0.56-0.88,1.11-1.32,1.67c-0.54,0.56-1.09,1.13-1.63,1.69c-3.8,2.83-7.7,5.52-12.51,6.8
		c-1.27-1.31-1.37-2.88-1.23-4.51c5.87-2.59,11.72-5.22,15.58-10.36c1.41-0.8,1.51-2.62,3.07-3.3c-0.07,2.09,0.34,4.22-0.62,6.23
		C368.27,24.86,367.95,25.53,367.65,26.21z"/>
	<path class="st5" d="M369.66,41.91c-0.21,1.93,0.32,3.94-0.69,5.8c-1.26,1.58-2.52,3.16-3.78,4.75c-4.18,3.45-8.83,6.19-14.21,7.81
		c-0.38-2,0.43-3.77,1.19-5.56c0.79-0.38,1.58-0.77,2.37-1.14c5.21-2.43,9.96-5.35,13.04-10.08
		C368.38,43.06,368.3,41.69,369.66,41.91z"/>
	<path class="st5" d="M244.58,92.84c-0.24-2.79,0.01-5.56,0.57-8.31c1.55-3.1,3.3-6.1,5.59-8.8c2.83-2.32,5.6-4.7,9.39-5.68
		c2.59,1.02,0.77,3.17,1.44,4.68c-1.43,0.73-2.87,1.45-4.3,2.18c-3.62,1.81-6.63,4.21-8.58,7.6
		C246.21,86.83,245.92,90.05,244.58,92.84z"/>
	<path class="st4" d="M353.08,19.53c6.24-3.15,12.26-6.54,16.09-13.14c0.74,2.96,0.52,5.1-0.73,7.15c-1.08,1.32-2.15,2.63-3.23,3.95
		c-3.01,1.75-5.48,4.22-8.82,5.53C355.3,21.86,354.19,20.7,353.08,19.53z"/>
	<path class="st4" d="M244.63,101.15c-0.49-1.52,0.32-2.95,0.39-4.44c1.57-3.57,3.64-6.86,6.2-9.91c1.82-1.28,3.63-2.56,5.45-3.84
		c0.79-0.26,1.57-0.52,2.36-0.77c-0.18,1.7,0.33,3.23,1.3,4.66c-0.84,0.49-1.68,0.99-2.51,1.48c-2.03,0.33-3.24,1.83-4.82,2.8
		c-2.84,2.33-4.92,5.16-6.5,8.33C246.11,100.22,246.1,101.38,244.63,101.15z"/>
	<path class="st5" d="M301.85,104.47c-3.82-0.38-7.52,1.14-11.35,0.59c-0.16-1.7-0.88-3.35-0.62-5.09
		c4.61-0.58,9.21-1.16,13.87-1.27c-0.15,1.73,0.32,3.39,0.67,5.07C303.56,104.01,302.7,104.24,301.85,104.47z"/>
	<path class="st5" d="M369.65,76.85c0.34,5.86-3.43,9.36-8.2,12.44c-2.11,1.36-3.88,3.16-6.42,3.92c-2.45-1.67,0.81-3.19,0.15-4.81
		c4.92-2.83,9.94-5.55,12.76-10.51C368.58,77.65,368.69,76.66,369.65,76.85z"/>
	<path class="st4" d="M369.66,65.2c-0.22,1.93,0.27,3.94-0.69,5.8c-1.43,1.73-2.87,3.46-4.3,5.19c-2.85,1.57-4.96,4.13-8.25,5.1
		c-0.63-1.53-1.02-3.1-0.67-4.75c3.96-2.16,7.75-4.52,10.5-8.02C367.69,67.68,367.81,65.69,369.66,65.2z"/>
	<path class="st6" d="M296.57,29.87c-0.15,0.23-0.32,0.66-0.46,0.66c-4.44-0.21-3.49,2.12-2.53,4.47c-3.4,0.26-6.8,0.52-10.2,0.79
		c-0.1-1.55-0.21-3.11-0.31-4.66C287.57,30.7,292.07,30.28,296.57,29.87z"/>
	<path class="st3" d="M244.63,101.15c1.47,0.23,1.48-0.93,1.86-1.69c1.58-3.16,3.66-5.99,6.5-8.33c-0.22,1.98-1.22,3.96,0.09,5.92
		c-3.61,2.99-5.91,6.8-7.96,10.76C243.24,105.7,243.67,103.44,244.63,101.15z"/>
	<path class="st6" d="M340.08,23.58c3.02-0.88,6.04-1.77,9.06-2.65c0.2,1.61,0.4,3.22,0.59,4.82c-2.9,1.26-6.01,1.92-9.08,2.67
		C340.54,26.79,341.06,25.11,340.08,23.58z"/>
	<path class="st3" d="M244.55,116.14c1.58-3.94,2.88-8.01,6.18-11.14c0.48-0.45,1.03-0.84,1.55-1.26c0.82,1.74-1.71,3.67,0.34,5.34
		c-0.92,1.03-1.84,2.06-2.77,3.09c-2.52,2.14-3.41,5.12-4.81,7.83C244.08,118.8,243.44,117.57,244.55,116.14z"/>
	<path class="st6" d="M345.1,97.34c-1.48,0.18-2.96,0.36-4.44,0.54c0.11-1.61-1.02-2.95-1.2-4.49c3.02-0.85,6.05-1.71,9.07-2.56
		c-0.06,1.59-0.06,3.18,0.57,4.71C347.78,96.14,346.44,96.74,345.1,97.34z"/>
	<path class="st3" d="M251.21,86.81c-2.56,3.04-4.63,6.34-6.2,9.91c-0.47-1.26-1.76-2.44-0.43-3.87c1.34-2.78,1.63-6.01,4.1-8.33
		C250.36,84.5,250.63,85.8,251.21,86.81z"/>
	<linearGradient id="SVGID_1_" gradientUnits="userSpaceOnUse" x1="245.9048" y1="79.6166" x2="254.1927" y2="79.6166">
		<stop  offset="0" style="stop-color:#FFFFFF"/>
		<stop  offset="1" style="stop-color:#000000"/>
	</linearGradient>
	<path class="st7" d="M253.28,76.86c-2.29,2.71-4.04,5.7-5.59,8.8c-1.68-1.93-1.56-3.99-0.55-6.12c1.76-0.75,1.92-2.46,2.74-3.79
		c0.53-0.86,0.89-1.87,1.93-2.4C252.37,74.5,251.01,76.32,253.28,76.86z"/>
	<path class="st8" d="M349.11,95.54c-0.63-1.52-0.63-3.11-0.57-4.71c2.21-0.81,4.43-1.61,6.64-2.42c0.66,1.62-2.6,3.14-0.15,4.81
		C353.19,94.27,351.25,95.12,349.11,95.54z"/>
	<path class="st8" d="M349.74,25.75c-0.2-1.61-0.4-3.22-0.59-4.82c1.31-0.46,2.62-0.93,3.94-1.39c1.11,1.16,2.21,2.33,3.32,3.49
		C354.4,24.38,352.1,25.12,349.74,25.75z"/>
	<path class="st5" d="M340.08,23.58c0.97,1.53,0.46,3.22,0.58,4.84c-1.85,0.14-3.52,1.13-5.43,1c0.84-1.56,0.63-3.13,0-4.69
		C336.85,24.34,338.47,23.96,340.08,23.58z"/>
	<path class="st3" d="M369.66,65.2c-1.85,0.49-1.97,2.48-3.42,3.32c-0.69-1.16-0.13-3.32-2.78-2.92c1.67-1.82,3.34-3.64,5.01-5.46
		C369.6,61.68,368.84,63.59,369.66,65.2z"/>
	<path class="st3" d="M365.22,17.49c1.08-1.32,2.15-2.63,3.23-3.95c1.03,1.42,0.63,3.13,1.15,4.65c-1.55,0.68-1.66,2.5-3.07,3.3
		C364.67,20.55,365.9,18.76,365.22,17.49z"/>
	<path class="st3" d="M369.66,41.91c-1.35-0.22-1.28,1.16-2.07,1.57c-1.98,0.35-1.07-2.42-2.88-2.26c1.25-1.46,2.5-2.92,3.75-4.38
		C369.6,38.38,368.85,40.3,369.66,41.91z"/>
	<path class="st3" d="M365.19,52.45c1.26-1.58,2.52-3.16,3.78-4.75c0.06,1.81,0.12,3.62,0.17,5.43c-0.53,0.69-1.07,1.39-1.6,2.08
		C366.08,54.79,365.87,53.45,365.19,52.45z"/>
	<path class="st3" d="M364.67,76.19c1.43-1.73,2.87-3.46,4.3-5.19c0.19,1.96-0.06,3.95,0.68,5.86c-0.96-0.19-1.07,0.79-1.71,1.05
		C366.38,78.09,366.18,76.09,364.67,76.19z"/>
	<path class="st9" d="M367.65,26.21c0.3-0.68,0.62-1.35,1.33-1.78c0.04,0.62,0.07,1.25,0.11,1.87
		C368.6,26.27,368.13,26.24,367.65,26.21z"/>
	<path class="st10" d="M244.43,56.26c0,0.55,0,1.1-0.01,1.64C243.85,57.36,243.82,56.81,244.43,56.26z"/>
	<path class="st6" d="M281.84,31.19c-0.37,0.01-0.73,0.02-1.09,0.03C281.12,31.21,281.48,31.2,281.84,31.19z"/>
	<path class="st10" d="M244.42,70.12c0,0.37,0,0.73,0,1.1C243.92,70.86,243.91,70.49,244.42,70.12z"/>
	<path class="st10" d="M244.42,62.35c0,0.37,0,0.74,0,1.11C243.91,63.09,243.92,62.72,244.42,62.35z"/>
	<path class="st10" d="M244.43,65.68c0,0.19,0,0.38-0.01,0.57c-0.07-0.13-0.15-0.27-0.19-0.41
		C244.22,65.81,244.36,65.74,244.43,65.68z"/>
	<path class="st3" d="M554.07,127.6c-0.03,10.2-7.88,17.68-18.47,17.62c-10.35-0.06-18.34-7.84-18.38-17.9
		c-0.04-10.05,7.99-17.82,18.39-17.82C546.05,109.49,554.1,117.4,554.07,127.6z"/>
	<path class="st3" d="M187.13,109.38c10.5-0.03,18.66,7.81,18.66,17.94c0,10-7.86,17.67-18.14,17.73
		c-10.58,0.06-18.69-7.63-18.76-17.8C168.82,117.07,176.63,109.41,187.13,109.38z"/>
	<path class="st3" d="M114.8,115.42c2.68,6.2,5.06,11.74,7.46,17.27c0.46,1.05,0.16,1.54-1.13,1.54c-4.31-0.02-8.63,0-12.94,0
		c-0.85,0-1.37-0.24-0.98-1.15C109.67,127.39,112.1,121.7,114.8,115.42z"/>
	<path class="st3" d="M364.67,76.19c1.51-0.1,1.71,1.9,3.27,1.71c-2.82,4.96-7.84,7.69-12.76,10.51c-2.21,0.81-4.43,1.61-6.64,2.42
		c-3.02,0.85-6.05,1.71-9.07,2.56c-4.64,0.8-9.29,1.61-13.93,2.41c-7.27,0.97-14.53,1.94-21.8,2.91c-4.66,0.11-9.27,0.69-13.87,1.27
		c-3.47,0.18-6.95,0.29-10.38,0.91c-3.64,0.41-7.33,0.52-10.85,1.6c-2.27,0.38-4.57,0.65-6.61,1.73c-1.17,0.39-2.34,0.79-3.51,1.18
		c-0.02-1.91-0.03-3.82-0.05-5.72c2.31-1.64,5.13-2.2,7.82-3.02c5.45-0.89,10.89-1.78,16.34-2.67c4.47,0.29,8.86-0.74,13.32-0.68
		c1.18-0.18,2.35-0.44,3.54-0.54c11.19-0.95,22.29-2.46,33.32-4.45c3.88-0.71,7.79-1.34,11.5-2.66c2.95-0.58,5.84-1.33,8.47-2.75
		c1.31-0.35,2.62-0.72,3.64-1.63C359.71,80.32,361.82,77.75,364.67,76.19z"/>
	<path class="st3" d="M325.47,134.39c2.69-6.23,5.26-12.18,8.12-18.8c2.69,6.27,5.1,11.86,7.5,17.45c0.54,1.25-0.26,1.36-1.32,1.36
		C335.15,134.38,330.53,134.39,325.47,134.39z"/>
	<path class="st5" d="M325.54,95.8c4.64-0.8,9.29-1.61,13.93-2.41c0.18,1.55,1.31,2.88,1.2,4.49c-3.69,2.37-8.14,2.16-12.25,2.53
		C325.83,100.64,325.54,97.89,325.54,95.8z"/>
	<path class="st3" d="M265.05,109.64c4.12,0,8.25-0.32,12.36,0.34c5.2,0.84,8.13,3.66,8.29,8.09c0.17,4.44-2.46,7.56-7.52,8.73
		c-3.97,0.92-8.03,0.29-12.04,0.45c-1.03,0.04-1.47-0.42-1.43-1.33c0.2-5.43-0.49-10.88,0.37-16.3
		C265.07,109.62,265.05,109.64,265.05,109.64z"/>
	<path class="st6" d="M279.49,100.88c3.43-0.62,6.91-0.73,10.38-0.91c-0.26,1.74,0.46,3.39,0.62,5.09
		c-4.24,0.54-8.47,1.07-12.71,1.61C278.13,104.69,280.2,103.13,279.49,100.88z"/>
	<path class="st5" d="M258.52,105.39c1.17-0.39,2.34-0.79,3.51-1.18c-0.2,1.75-1.19,3.51,0.05,5.25c-2.65,1.58-5.79,2.28-8.41,3.99
		c-1.5,0.97-2.68-0.46-3.82-1.27c0.92-1.03,1.84-2.06,2.77-3.09C254.58,107.85,256.55,106.62,258.52,105.39z"/>
	<path class="st11" d="M279.49,100.88c0.7,2.25-1.36,3.81-1.71,5.79c-2.45-0.19-4.82,0.45-7.23,0.63c-0.84-1.54-1.6-3.11-1.91-4.82
		C272.16,101.4,275.85,101.3,279.49,100.88z"/>
	<path class="st6" d="M268.64,102.48c0.31,1.72,1.06,3.28,1.91,4.82c-1.07,0.74-2.31,1.02-3.62,1.06c-0.98,0.03-1.82,0.14-1.88,1.27
		c0,0,0.02-0.02,0.02-0.02c-1-0.05-2-0.1-3-0.15c-1.24-1.74-0.24-3.5-0.05-5.25C264.08,103.14,266.37,102.86,268.64,102.48z"/>
	<path class="st3" d="M243.68,176.07c6.05-0.05,10.72,4.29,10.79,10.04c0.08,5.79-4.47,10.3-10.45,10.35
		c-6.02,0.06-10.93-4.63-10.87-10.38C233.21,180.46,237.77,176.12,243.68,176.07z"/>
	<path class="st3" d="M348.75,186.15c0.03,5.84-4.5,10.31-10.45,10.32c-5.95,0.01-10.68-4.44-10.78-10.15
		c-0.1-5.75,4.48-10.22,10.52-10.26C344.1,176.03,348.73,180.39,348.75,186.15z"/>
	<path class="st3" d="M80.9,186.2c0.02,5.82-4.54,10.25-10.55,10.27c-5.95,0.01-10.67-4.47-10.73-10.2
		c-0.06-5.78,4.5-10.18,10.58-10.2C76.23,176.05,80.89,180.46,80.9,186.2z"/>
	<path class="st3" d="M566.25,186.24c-0.01,5.88-4.52,10.28-10.5,10.23c-5.92-0.05-10.68-4.61-10.7-10.25
		c-0.02-5.74,4.63-10.16,10.65-10.16C561.82,176.08,566.26,180.36,566.25,186.24z"/>
	<path class="st3" d="M169.75,176.55c1.41,0,2.84-0.13,4.22,0.03c2.7,0.31,4.56,2.14,4.48,4.45c-0.08,2.37-1.4,4.01-4.02,4.54
		c-2.78,0.57-5.62,0.21-8.44,0.3c-1.03,0.03-1.45-0.42-1.43-1.33c0.02-1.11,0-2.22,0-3.33
		C164.55,176.45,164.55,176.45,169.75,176.55z"/>
	<path class="st3" d="M295.53,176.46c7.21,0.03,11.44,3.03,11.9,8.44c0.6,6.98-3.43,11.01-11.08,11.1
		c-5.37,0.06-5.37,0.06-5.37-4.83c0-3.5,0-7.01,0-10.51C290.98,176.44,290.98,176.44,295.53,176.46z"/>
	<path class="st3" d="M508.6,186.16c0-2.67,0.07-5.34-0.03-8.01c-0.05-1.34,0.47-1.8,1.89-1.7c1.3,0.09,2.61,0,3.91,0.02
		c6.59,0.11,10.77,3.94,10.78,9.84c0,5.74-4.13,9.51-10.61,9.69c-5.94,0.17-5.94,0.17-5.94-5.15
		C508.6,189.29,508.6,187.72,508.6,186.16z"/>
	<path class="st3" d="M364.7,41.22c1.81-0.16,0.9,2.6,2.88,2.26c-3.08,4.74-7.83,7.66-13.04,10.08c-0.8,0.37-1.58,0.76-2.37,1.14
		c-3.26,0.97-6.51,1.94-9.77,2.91c-2.99,0.65-5.99,1.29-8.98,1.94c-0.6,0.06-1.2,0.12-1.8,0.18c-0.41,0.14-0.81,0.27-1.22,0.41
		c-11.89,1.48-23.78,2.96-35.67,4.44c-3.25-0.11-6.45,0.32-9.65,0.73c-0.48-0.09-0.93-0.08-1.25,0.33c-1.4,0.07-2.79,0.15-4.19,0.22
		c-3.3,0.15-6.55,0.58-9.7,1.5c-3.43-0.04-6.45,1.44-9.66,2.23c-3.32-1.51-3.38-2.55-0.33-4.5c0.63-0.4,1.49-0.66,1.52-1.57
		c0.14-0.13,0.31-0.17,0.5-0.12c0.23-0.11,0.46-0.23,0.69-0.34c0.2-0.06,0.4-0.12,0.61-0.18c0.19-0.07,0.38-0.14,0.57-0.22
		c6.19-2.27,12.83-2.52,19.28-3.6c2.09,0.16,4.14-0.05,6.16-0.58c3.7,0.27,7.29-0.59,10.94-0.83c4.37-0.47,8.75-0.91,13.12-1.43
		c6.95-0.81,13.88-1.7,20.68-3.31c2.32,0.03,4.47-0.69,6.64-1.31c3.6-0.68,7.1-1.6,10.43-3.06C356.2,47.02,360.61,44.37,364.7,41.22
		z"/>
	<path class="st3" d="M365.22,17.49c0.68,1.27-0.55,3.06,1.31,4c-3.86,5.14-9.7,7.77-15.58,10.36c-3.74,1.03-7.47,2.07-11.21,3.1
		c-3.32,0.65-6.64,1.3-9.96,1.95c-10.07,1.28-20.15,2.56-30.22,3.85c-5.04,0.45-10.07,0.89-15.11,1.34
		c-0.37-0.07-0.75-0.14-1.12-0.22c-0.28-2.03-0.26-4.06,0.04-6.09c3.4-0.26,6.8-0.52,10.2-0.79c13.2-1.06,26.31-2.78,39.35-4.91
		c0.78-0.13,1.53-0.45,2.29-0.68c1.91,0.13,3.58-0.86,5.43-1c3.08-0.75,6.18-1.41,9.08-2.67c2.35-0.63,4.66-1.37,6.66-2.72
		C359.74,21.71,362.21,19.24,365.22,17.49z"/>
	<path class="st3" d="M271.76,45.48c-0.02,6.47-5.81,13.6-12.51,15.41c-5.07,1.37-9.33-1.17-10.03-5.98
		c-1.07-7.42,5.73-16.12,13.71-17.55C267.84,36.48,271.78,40.11,271.76,45.48z M258.06,43.88c-0.89-1.22-1.43-0.2-1.79,0.22
		c-1.25,1.47-2.95,2.66-3.35,4.69c-0.11,0.56-1,1.05-0.44,1.71c0.58,0.68,1.3,0.42,2.15,0.19c2.58-0.73,6.5,2.23,6.15,4.54
		c-0.09,0.61-1.7,1.34,0.08,1.8c1.31,0.34,1.37-0.86,1.71-1.51c1.85-3.54,4.67-6.61,5.63-10.59c0.33-1.39,0.45-2.38-1.29-2.04
		c-2.69,0.53-5.73-1.79-8.11,0.9C258.67,43.92,258.27,43.86,258.06,43.88z"/>
	<path class="st3" d="M261.48,63.53c-0.03,0.91-0.9,1.17-1.52,1.57c-3.06,1.95-2.99,2.99,0.33,4.5c-0.05,0.15-0.1,0.3-0.15,0.45
		c-3.79,0.98-6.56,3.36-9.39,5.68c-2.28-0.54-0.91-2.36-1.47-3.5C252.12,67.89,256.5,65.36,261.48,63.53z"/>
	<path class="st6" d="M289.28,58.5c-2.01,0.53-4.06,0.74-6.16,0.58c0.08-1.81,0.16-3.63,0.24-5.44c2.38-0.15,4.77-0.3,7.15-0.45
		C290.01,54.95,288.81,56.56,289.28,58.5z"/>
	<path class="st3" d="M276.84,49.48c-0.31,1.77,2.7,1.6,1.94,4.02c-0.8,2.54-3.57,0.03-3.69,1.39c0.55-0.79-0.45-1.81-1.22-2.89
		C275.16,51.54,276.62,51.25,276.84,49.48z"/>
	<path class="st3" d="M275.3,39.11c0.05-0.45,0.56-1.44-0.42-1.93c0.71-0.94,1.42-1.88,2.14-2.83c0.04,1.43,2.41,1.07,2.31,2.13
		C279.17,38.27,277.92,39.44,275.3,39.11z"/>
	<path class="st3" d="M248.42,62.41c0.48,3.12-0.44,5.33-1.71,7.24C247.26,67.58,246.16,64.98,248.42,62.41z"/>
	<path class="st6" d="M283.34,41.87c0.37,0.07,0.75,0.14,1.12,0.22c1.41,1.62,1.1,3.41,0.6,5.21c-0.56,0.07-1.12,0.13-1.68,0.2
		C283.37,45.63,283.35,43.75,283.34,41.87z"/>
	<path class="st9" d="M262.67,63.07c-0.23,0.11-0.46,0.23-0.69,0.34C262.21,63.3,262.44,63.19,262.67,63.07z"/>
	<path class="st9" d="M263.84,62.68c-0.19,0.07-0.38,0.14-0.57,0.22C263.47,62.82,263.65,62.75,263.84,62.68z"/>
	<path class="st3" d="M474.08,188.83c1.59-3.56,3.02-6.75,4.66-10.42c1.45,3.23,2.67,5.98,3.93,8.71c0.62,1.34,0.19,1.79-1.37,1.74
		C479.03,188.77,476.77,188.83,474.08,188.83z"/>
	<path class="st4" d="M334.02,52.94c-6.8,1.6-13.73,2.5-20.68,3.31c-4.37,0.51-8.75,0.95-13.12,1.43c-0.22-1.74-0.44-3.49-0.66-5.23
		c11.07-1.61,22.15-3.22,33.22-4.83C332.53,49.52,333.69,51.15,334.02,52.94z"/>
	<path class="st4" d="M299.57,40.75c10.07-1.28,20.15-2.56,30.22-3.85c0.3,1.69-0.46,3.28-0.6,4.93
		c-10.22,1.72-20.46,3.37-30.82,4.28C297.17,44.03,299.03,42.51,299.57,40.75z"/>
	<path class="st8" d="M299.57,40.75c-0.53,1.76-2.39,3.28-1.2,5.37c-4.44,0.4-8.88,0.79-13.31,1.19c0.5-1.81,0.82-3.59-0.6-5.21
		C289.49,41.64,294.53,41.2,299.57,40.75z"/>
	<path class="st6" d="M339.74,34.96c3.74-1.03,7.47-2.07,11.21-3.1c-0.14,1.63-0.03,3.2,1.23,4.51c-3.85,1.65-7.85,2.86-12.09,3.33
		C339.43,38.15,341.84,36.41,339.74,34.96z"/>
	<path class="st5" d="M299.57,52.44c0.22,1.74,0.44,3.49,0.66,5.23c-3.65,0.24-7.25,1.1-10.94,0.83c-0.46-1.94,0.73-3.55,1.24-5.3
		c1.4-0.1,2.8-0.19,4.2-0.29c0.67,0.81,1.01,0.45,1.24-0.29C297.16,52.55,298.36,52.5,299.57,52.44z"/>
	<path class="st5" d="M339.74,34.96c2.1,1.45-0.32,3.19,0.36,4.74c-3.54,1.15-7.21,1.71-10.91,2.14c0.15-1.65,0.9-3.24,0.6-4.93
		C333.11,36.25,336.43,35.61,339.74,34.96z"/>
	<path class="st8" d="M334.02,52.94c-0.34-1.79-1.5-3.42-1.24-5.32c3.42-0.7,6.84-1.4,10.26-2.1c-0.55,2.12-0.28,4.51-2.38,6.12
		C338.49,52.25,336.35,52.97,334.02,52.94z"/>
	<path class="st6" d="M340.66,51.63c2.1-1.61,1.84-4,2.38-6.12c2.74-0.8,5.47-1.6,8.21-2.4c0.42,1.28-0.32,2.42-0.59,3.6
		c-0.17,0.74-0.42,1.37,0.42,1.86C347.77,50.03,344.26,50.95,340.66,51.63z"/>
	<path class="st9" d="M364.69,29.57c0.54-0.56,1.09-1.13,1.63-1.69c0.47,0.18,0.92,0.43,0.64,0.97
		C366.49,29.75,365.56,29.62,364.69,29.57z"/>
	<path class="st9" d="M367.47,31.93c-0.28,0.67-0.56,1.32-1.41,1.55C366.04,32.59,366.17,31.81,367.47,31.93z"/>
	<path class="st6" d="M295.96,52.61c-0.23,0.75-0.57,1.1-1.24,0.29C295.07,52.58,295.46,52.42,295.96,52.61z"/>
	<path class="st3" d="M363.46,65.6c2.65-0.4,2.08,1.76,2.78,2.92c-2.75,3.5-6.54,5.86-10.5,8.02c-1.79,0.67-3.58,1.35-5.38,2.02
		c-2.43,0.75-4.85,1.5-7.28,2.25c-3.22,0.7-6.44,1.39-9.66,2.09c-6.73,0.91-13.47,1.83-20.2,2.72c-5.14,0.69-10.29,1.35-15.44,2.02
		c-5.05,0.42-10.11,0.84-15.16,1.27c-5.62,0.53-11.28,0.9-16.71,2.49c-2.46,0.81-4.93,1.61-7.39,2.42c-0.08-1.84,0.08-3.71-0.7-5.47
		c0.84-0.49,1.68-0.99,2.51-1.48c2.6-0.79,5.2-1.57,7.8-2.36c4.13-0.57,8.26-1.13,12.39-1.7c0.49-0.05,0.97-0.11,1.46-0.16
		c0.5,0.16,0.95,0.15,1.27-0.31c4.06-0.11,8.11-0.24,12.13-0.82c12.97-1.2,25.93-2.54,38.68-5.16c2.71-0.24,5.28-1,7.87-1.69
		c3.62-0.79,7.23-1.61,10.52-3.26C356.59,70.22,360.02,67.9,363.46,65.6z"/>
	<path class="st11" d="M265.9,91.39c5.44-1.59,11.09-1.96,16.71-2.49c0,1.7,0.01,3.39,0.01,5.09c-5.45,0.89-10.89,1.78-16.34,2.67
		C265.11,94.96,265.18,93.2,265.9,91.39z"/>
	<path class="st3" d="M258.52,105.39c-1.97,1.23-3.94,2.46-5.91,3.69c-2.05-1.68,0.48-3.6-0.34-5.34c1.72-1.8,3.76-3.2,6.2-4.07
		C258.49,101.58,258.5,103.49,258.52,105.39z"/>
	<path class="st3" d="M257.81,88.33c0.78,1.76,0.63,3.63,0.7,5.47c-2.27,0.44-3.54,2.28-5.43,3.25c-1.31-1.96-0.31-3.94-0.09-5.92
		C254.57,90.17,255.78,88.66,257.81,88.33z"/>
	<path class="st3" d="M365.19,52.45c0.68,1,0.89,2.34,2.35,2.77c-3.42,5.07-8.58,8.15-14.33,10.56c-1,0.42-2.01,0.84-3.01,1.26
		c-2.79,0.81-5.57,1.61-8.36,2.42c-2.65,0.44-5.35,0.64-7.83,1.72c-12.89,1.68-25.79,3.36-38.68,5.03
		c-5.04,0.33-10.12,0.34-15.07,1.45c-4.58-0.15-8.99,0.74-13.35,1.89c-2.74,0.61-5.62,0.87-7.89,2.64
		c-0.79,0.26-1.57,0.52-2.36,0.77c-0.41-2.07,0.77-4.01,0.6-6.05c1.43-0.73,2.87-1.45,4.3-2.18c2.82-0.73,5.64-1.47,8.46-2.2
		c3.2-0.49,6.41-0.99,9.61-1.48c5.47-0.14,10.88-0.84,16.31-1.45c1.6-0.07,3.21-0.15,4.81-0.22c0.49,0.1,0.91,0.02,1.23-0.36
		c11.01-0.72,21.87-2.31,32.64-4.48c2.3-0.26,4.56-0.65,6.72-1.43c3.33-0.62,6.59-1.43,9.64-2.85
		C356.36,58.64,361.01,55.91,365.19,52.45z"/>
	<path class="st6" d="M341.85,69.46c2.79-0.81,5.57-1.61,8.36-2.42c0.61,1.51,1.19,3.03,2.24,4.34c-3.3,1.65-6.91,2.48-10.52,3.27
		C341.72,72.93,343.8,71.17,341.85,69.46z"/>
	<path class="st6" d="M350.98,60.27c-3.05,1.42-6.31,2.23-9.64,2.85c0.09-1.88,1.26-3.58,1.06-5.5c3.26-0.97,6.51-1.94,9.77-2.91
		C351.42,56.49,350.6,58.27,350.98,60.27z"/>
	<path class="st6" d="M270.02,72.53c-2.82,0.73-5.64,1.47-8.46,2.2c-0.66-1.51,1.15-3.67-1.44-4.68c0.05-0.15,0.1-0.3,0.15-0.45
		c3.21-0.79,6.22-2.27,9.66-2.23C269.96,69.09,269.99,70.81,270.02,72.53z"/>
	<path class="st3" d="M257.26,76.91c0.17,2.05-1.01,3.99-0.6,6.05c-1.82,1.28-3.63,2.56-5.45,3.84c-0.58-1.01-0.86-2.3-2.54-2.29
		C250.63,81.12,253.64,78.72,257.26,76.91z"/>
	<path class="st8" d="M259.02,82.19c2.27-1.78,5.16-2.03,7.89-2.64c0.4,1.65,0.8,3.3,1.2,4.94c-2.6,0.79-5.2,1.57-7.8,2.36
		C259.36,85.42,258.85,83.89,259.02,82.19z"/>
	<path class="st5" d="M350.37,78.56c1.79-0.67,3.58-1.35,5.38-2.02c-0.34,1.65,0.05,3.21,0.67,4.75c-1.02,0.91-2.32,1.28-3.64,1.63
		C351.38,81.74,350.61,80.27,350.37,78.56z"/>
	<path class="st4" d="M297.78,87.63c5.15-0.67,10.29-1.33,15.44-2.02c6.74-0.9,13.47-1.82,20.2-2.72c-0.21,1.81-0.41,3.62-0.62,5.43
		c-11.02,1.99-22.13,3.5-33.32,4.45c-1.19,0.1-2.36,0.36-3.54,0.54C296.31,91.35,296.47,89.33,297.78,87.63z"/>
	<path class="st8" d="M297.78,87.63c-1.31,1.7-1.47,3.72-1.83,5.68c-4.46-0.06-8.85,0.97-13.32,0.68c0-1.7-0.01-3.39-0.01-5.09
		C287.67,88.48,292.73,88.05,297.78,87.63z"/>
	<path class="st8" d="M332.8,88.32c0.21-1.81,0.41-3.62,0.62-5.43c3.22-0.7,6.44-1.39,9.66-2.09c0.1,1.68,1.79,3.03,1.22,4.85
		C340.59,86.98,336.68,87.6,332.8,88.32z"/>
	<path class="st6" d="M344.31,85.66c0.57-1.83-1.12-3.17-1.22-4.85c2.43-0.75,4.85-1.5,7.28-2.25c0.25,1.71,1.02,3.18,2.41,4.36
		C350.15,84.32,347.26,85.07,344.31,85.66z"/>
	<path class="st4" d="M334.63,64.55c-10.77,2.16-21.63,3.76-32.64,4.48c-0.74-0.82-1.05-0.41-1.23,0.36
		c-1.6,0.07-3.21,0.15-4.81,0.22c-0.65-1.62-1.63-3.17-1.22-5.01c11.89-1.48,23.78-2.96,35.67-4.44c0.78,0.79,1.06,0.33,1.22-0.41
		c0.6-0.06,1.2-0.12,1.8-0.18C333.79,61.23,335.06,62.71,334.63,64.55z"/>
	<path class="st8" d="M294.73,64.59c-0.42,1.84,0.57,3.39,1.22,5.01c-5.42,0.61-10.83,1.32-16.31,1.45c0-1.73,0-3.46,0-5.19
		c1.4-0.07,2.79-0.15,4.19-0.22c0.71,0.83,1.04,0.45,1.25-0.33C288.28,64.91,291.48,64.48,294.73,64.59z"/>
	<path class="st11" d="M279.64,65.87c0,1.73,0,3.46,0,5.19c-3.2,0.49-6.41,0.99-9.61,1.48c-0.03-1.72-0.06-3.44-0.09-5.16
		C273.09,66.45,276.34,66.02,279.64,65.87z"/>
	<path class="st8" d="M334.63,64.55c0.44-1.83-0.84-3.32-1.2-4.99c2.99-0.65,5.99-1.29,8.98-1.94c0.2,1.92-0.97,3.62-1.06,5.5
		C339.19,63.9,336.92,64.29,334.63,64.55z"/>
	<path class="st8" d="M331.62,59.74c-0.16,0.74-0.44,1.2-1.22,0.41C330.81,60.01,331.22,59.88,331.62,59.74z"/>
	<path class="st11" d="M285.08,65.32c-0.21,0.78-0.54,1.16-1.25,0.33C284.15,65.24,284.6,65.23,285.08,65.32z"/>
	<path class="st12" d="M258.06,43.88c0.21-0.03,0.61,0.03,0.73-0.11c2.38-2.68,5.43-0.36,8.11-0.9c1.74-0.35,1.62,0.64,1.29,2.04
		c-0.95,3.98-3.78,7.06-5.63,10.59c-0.34,0.65-0.4,1.85-1.71,1.51c-1.78-0.46-0.17-1.19-0.08-1.8c0.35-2.3-3.57-5.27-6.15-4.54
		c-0.84,0.24-1.56,0.5-2.15-0.19c-0.56-0.66,0.33-1.15,0.44-1.71c0.4-2.02,2.1-3.22,3.35-4.69
		C256.63,43.68,257.16,42.66,258.06,43.88z"/>
	<path class="st4" d="M295.33,76.22c12.89-1.68,25.79-3.36,38.68-5.03c-0.05,1.72,0.9,3.43,0.03,5.15
		c-12.75,2.63-25.7,3.96-38.68,5.16C295.49,79.74,294.36,77.99,295.33,76.22z"/>
	<path class="st8" d="M295.33,76.22c-0.97,1.77,0.16,3.52,0.04,5.28c-4.02,0.59-8.07,0.72-12.13,0.82c-0.67-0.74-1.03-0.4-1.27,0.31
		c-0.49,0.05-0.97,0.11-1.46,0.16c0.89-1.75-0.69-3.4-0.25-5.14C285.22,76.56,290.29,76.55,295.33,76.22z"/>
	<path class="st11" d="M280.26,77.67c-0.44,1.73,1.14,3.38,0.25,5.14c-4.13,0.57-8.26,1.13-12.39,1.7c-0.4-1.65-0.8-3.3-1.2-4.94
		C271.28,78.41,275.68,77.52,280.26,77.67z"/>
	<path class="st8" d="M334.05,76.34c0.87-1.72-0.08-3.44-0.03-5.15c2.48-1.08,5.19-1.28,7.83-1.72c1.95,1.71-0.13,3.46,0.07,5.19
		C339.33,75.35,336.75,76.1,334.05,76.34z"/>
	<path class="st11" d="M281.97,82.64c0.24-0.72,0.6-1.06,1.27-0.31C282.92,82.79,282.47,82.8,281.97,82.64z"/>
	<path class="st8" d="M300.75,69.38c0.19-0.77,0.5-1.18,1.23-0.36C301.66,69.4,301.24,69.49,300.75,69.38z"/>
</g>
</svg>
