<?xml version="1.0" encoding="utf-8"?>
<!-- Generator: Adobe Illustrator 25.2.1, SVG Export Plug-In . SVG Version: 6.00 Build 0)  -->
<svg version="1.1" id="Camada_1" xmlns="http://www.w3.org/2000/svg" xmlns:xlink="http://www.w3.org/1999/xlink" x="0px" y="0px"
	 viewBox="0 0 367.4 367.5" style="enable-background:new 0 0 367.4 367.5;" xml:space="preserve">
<style type="text/css">
	.st0{stroke:#FFFFFF;stroke-width:3;stroke-miterlimit:10;}
</style>
<path class="st0" d="M330.3,367.1c-87.1,0-174.2,0-261.3,0c-0.7-1.3-2.1-1-3.1-1.2c-21.6-5-36.4-23.6-36.4-45.8
	c0-91.1,0-182.1,0-273.1c0-5.2,0.8-10.3,2.5-15.1C38.8,12.5,56.3,0.5,77.7,0.5c82.7,0,165.4,0,248.1,0c1.1,0,2.2-0.1,3.2,0.1
	c3.5,0.4,6.2,2.2,7.8,5.5c1.1,2.2,0.9,4.7,0.9,7c0,88.2-0.1,176.4,0.1,264.5c0,13.3-4.1,15.6-15.8,15.6c-80.8,0-161.6,0-242.3,0
	c-2,0-4.1,0-6.1,0.2c-5,0.3-9.5,2.1-13.5,5.1c-9.5,7.2-13.5,19.1-10.1,29.8c3.7,11.5,13.3,19,25.5,19.4c5.8,0.2,11.7,0.1,17.5,0.1
	c74,0,148,0,221.9,0.1c2.8,0,3.6-0.6,3.5-3.5c-0.2-7.4-0.1-14.8-0.1-22.2c0-4.4,1.6-8,5.8-9.9c6.4-2.9,13.3,1.5,13.5,8.9
	c0.2,11.2-0.1,22.4,0.1,33.6C337.9,360.7,336,364.9,330.3,367.1z M82.6,145.1c0,29.6,0,59.2,0,88.8c0,3.3-0.1,6.7,0.1,10
	c0.4,7,7.6,11.2,13.8,8.1c4.3-2.1,5.6-5.8,5.5-10.3c0-64.3,0-128.6,0-192.9c0-0.8,0-1.7-0.1-2.5c-0.6-5.2-4.8-8.9-10-8.7
	c-5.6,0.2-9.3,4.4-9.3,10.9C82.6,80.7,82.6,112.9,82.6,145.1z"/>
</svg>
