<?xml version="1.0" encoding="utf-8"?>
<!-- Generator: Adobe Illustrator 25.2.1, SVG Export Plug-In . SVG Version: 6.00 Build 0)  -->
<svg version="1.1" id="Camada_1" xmlns="http://www.w3.org/2000/svg" xmlns:xlink="http://www.w3.org/1999/xlink" x="0px" y="0px"
	 viewBox="0 0 313 374.4" style="enable-background:new 0 0 313 374.4;" xml:space="preserve">
<style type="text/css">
	.st0{fill:#FFFFFF;}
	.st1{fill:#FEFEFE;}
</style>
<g>
	<path d="M300.8,374.4c-87.1,0-174.2,0-261.3,0c-0.7-1.3-2.1-1-3.1-1.2C14.8,368.2,0,349.6,0,327.4c0-91.1,0-182.1,0-273.1
		C0,49.1,0.8,44,2.5,39.2C9.3,19.8,26.8,7.8,48.2,7.8c82.7,0,165.4,0,248.1,0c1.1,0,2.2-0.1,3.2,0.1c3.5,0.4,6.2,2.2,7.8,5.5
		c1.1,2.2,0.9,4.7,0.9,7c0,88.2-0.1,176.4,0.1,264.5c0,13.3-4.1,15.6-15.8,15.6c-80.8,0-161.6,0-242.3,0c-2,0-4.1,0-6.1,0.2
		c-5,0.3-9.5,2.1-13.5,5.1c-9.5,7.2-13.5,19.1-10.1,29.8c3.7,11.5,13.3,19,25.5,19.4c5.8,0.2,11.7,0.1,17.5,0.1
		c74,0,148,0,221.9,0.1c2.8,0,3.6-0.6,3.5-3.5c-0.2-7.4-0.1-14.8-0.1-22.2c0-4.4,1.6-8,5.8-9.9c6.4-2.9,13.3,1.5,13.5,8.9
		c0.2,11.2-0.1,22.4,0.1,33.6C308.4,368,306.5,372.2,300.8,374.4z M53.1,152.4c0,29.6,0,59.2,0,88.8c0,3.3-0.1,6.7,0.1,10
		c0.4,7,7.6,11.2,13.8,8.1c4.3-2.1,5.6-5.8,5.5-10.3c0-64.3,0-128.6,0-192.9c0-0.8,0-1.7-0.1-2.5c-0.6-5.2-4.8-8.9-10-8.7
		c-5.6,0.2-9.3,4.4-9.3,10.9C53.1,88,53.1,120.2,53.1,152.4z"/>
	<path class="st0" d="M300.8,374.4c5.6-2.2,7.6-6.3,7.5-12.2c-0.3-11.2,0-22.4-0.1-33.6c-0.1-7.4-7-11.8-13.5-8.9
		c-4.2,1.9-5.8,5.5-5.8,9.9c0,7.4-0.2,14.8,0.1,22.2c0.1,2.8-0.8,3.5-3.5,3.5c-74-0.1-148-0.1-221.9-0.1c-5.9,0-11.7,0.1-17.5-0.1
		c-12.2-0.5-21.8-7.9-25.5-19.4c-3.4-10.7,0.6-22.7,10.1-29.8c4-3,8.5-4.7,13.5-5.1c2-0.1,4.1-0.2,6.1-0.2c80.8,0,161.6,0,242.3,0
		c11.7,0,15.8-2.4,15.8-15.6c-0.2-88.2-0.1-176.4-0.1-264.5c0-2.4,0.2-4.8-0.9-7c-1.6-3.3-4.3-5-7.8-5.5c-1.1-0.1-2.1-0.1-3.2-0.1
		c-82.7,0-165.4,0-248.1,0c-21.4,0-38.8,12-45.7,31.4C0.8,44,0,49.1,0,54.3c0,91.1,0,182.1,0,273.1c0,22.2,14.8,40.8,36.4,45.8
		c1.1,0.2,2.4-0.1,3.1,1.2c-22.3,0-44.6,0-66.9,0.1c-2.1,0-2.6-0.4-2.6-2.5c0.1-120.7,0.1-241.5,0-362.2c0-2.4,0.7-2.7,2.8-2.7
		C93.4,7.1,214,7.1,334.6,7c2.1,0,2.8,0.3,2.8,2.7c-0.1,120.7-0.1,241.5,0,362.2c0,2.2-0.5,2.6-2.6,2.5
		C323.5,374.3,312.2,374.4,300.8,374.4z"/>
	<path class="st1" d="M53.1,152.4c0-32.2,0-64.4,0-96.6c0-6.5,3.6-10.7,9.3-10.9c5.2-0.2,9.4,3.5,10,8.7c0.1,0.8,0.1,1.7,0.1,2.5
		c0,64.3,0,128.6,0,192.9c0,4.5-1.3,8.2-5.5,10.3c-6.2,3-13.3-1.2-13.8-8.1c-0.2-3.3-0.1-6.7-0.1-10C53.1,211.5,53.1,182,53.1,152.4
		z"/>
</g>
</svg>
