<?xml version="1.0" encoding="utf-8"?>
<!-- Generator: Adobe Illustrator 25.2.1, SVG Export Plug-In . SVG Version: 6.00 Build 0)  -->
<svg version="1.1" id="Camada_1" xmlns="http://www.w3.org/2000/svg" xmlns:xlink="http://www.w3.org/1999/xlink" x="0px" y="0px"
	 viewBox="0 0 576 514.93" style="enable-background:new 0 0 576 514.93;" xml:space="preserve">
<style type="text/css">
	.st0{fill:none;}
	.st1{fill:#222222;}
	.st2{fill:#0984E3;}
	.st3{fill:#272626;}
	.st4{fill:#262626;}
	.st5{fill:#242424;}
	.st6{fill:#DEDEDE;}
	.st7{fill:#BABABA;}
	.st8{fill:#FDFDFD;}
	.st9{fill:#FCFBFB;}
	.st10{fill:#FCFCFC;}
	.st11{fill:#F5F5F5;}
	.st12{fill:#EE5C23;}
	.st13{fill:#F05F26;}
	.st14{fill:#2F2F2F;}
</style>
<g>
	<path class="st0" d="M294.64-77.9c156.95,0,313.91,0.01,470.86-0.05c2.22,0,2.72,0.46,2.72,2.51c-0.06,217-0.06,434,0,651
		c0,2.05-0.5,2.51-2.72,2.51c-313.91-0.05-627.81-0.05-941.72,0c-2.22,0-2.72-0.46-2.72-2.51c0.06-217,0.06-434,0-651
		c0-2.05,0.5-2.51,2.72-2.51C-19.27-77.9,137.69-77.9,294.64-77.9z M282.27,131.48c-1.45-2.08-1.61-3.67,0.31-6.04
		c5.99-7.41,8.95-16.31,13.05-24.63c1.44-2.93-0.42-6.01-3.6-7.48c-3.06-1.41-8.54-0.63-10.89,1.74c-1.91,1.93-3.57,4.08-5.43,6.06
		c-0.52,0.56-0.88,1.69-1.94,1.35c-0.69-0.22-0.78-1.14-1.04-1.81c-4.52-11.83-9.06-23.66-13.6-35.48
		c-1.8-4.68-8.01-7.12-13.26-5.21c-3.91,1.43-5.58,6.94-3.91,11.29c2.19,5.72,3.98,11.57,5.9,17.38c0.2,0.59,0.3,1.38-0.82,1.3
		c-2.88-0.2-5.7-0.04-8.54,1.41c0-18.82,0-37.12,0-55.43c0-6.21-2.97-9-9.6-9c-67.06,0-134.12,0-201.18,0c-7.32,0-9.6,2.08-9.6,8.77
		c-0.01,33.97,0.03,67.94-0.07,101.9c-0.01,2.71,0.85,3.22,3.61,3.22c70.21-0.07,140.43-0.02,210.64-0.14
		c4.51-0.01,8.28,0.18,10.01,4.69c-2.84,1.69-1.98,4.82-3.15,7.17c-0.23,0.46-1.18,1.49-0.36,2.13c0.75,0.59,1.67-0.08,2.47-0.34
		c8.46-2.78,16.92-5.56,25.37-8.36c7.98-2.65,15.96-5.32,23.94-7.96c0.78-0.26,2.36-0.57,1.25-1.38
		C288.94,134.49,286.87,130.89,282.27,131.48z M509.85,75.82c-6.27-2.16-9.81,2.41-14.76,4.79c0.82,0.41,1.11,0.62,1.44,0.72
		c17.78,5.2,35.55,10.41,53.34,15.58c2,0.58,2.96-0.33,2.33-2.26c-1.03-3.18-2.2-6.32-3.32-9.48c4.58-2.93,8.49-6.4,10.93-11.14
		c2.26-4.39,2.86-9.1,3.65-13.82c1.95-11.65,4.25-23.26,6.3-34.9c0.97-5.51-2.23-8.53-8.3-8.06c-1.21,0.09-1.82-0.15-1.68-1.42
		c0.17-1.6-0.35-3.1-1.47-4.29c-2.62-2.78-7.42-3.81-11.02-2.48c-3.17,1.17-5.66,5.05-5.84,8.6c-0.21,4.2-1.54,8.29-1.64,12.52
		c-0.02,0.74-0.79,1.42-1.64,1.18c-3.46-0.97-7.04-0.36-10.55-0.73c-5.66-0.6-11.39-0.73-17.09-0.76c-4.13-0.03-6.76,2.66-6.74,6.48
		c0.01,1.62-0.85,1.88-2.19,1.57c-0.88-0.2-1.72-0.25-2.61-0.2c-8.94,0.53-17.9,0.79-26.85,1.29c-14.65,0.81-29.33,1.15-44,1.75
		c-1.57,0.06-2.86-0.27-4.09-1.12c-15.07-10.42-31.93-14.36-50.5-11.46c-21.5,3.35-37.36,14.14-47.44,31.92
		c-4.77,8.4-7.14,17.44-7.09,27.05c0.03,4.76,0.09,9.55,1.24,14.1c2.45,9.68,7.03,18.45,14.11,26.17
		c11.98,13.08,26.94,20.44,45.47,21.44c15.81,0.85,30.23-2.82,43.16-11.43c29.33-19.52,35.9-58.61,14.32-85.51
		c-0.6-0.75-1.62-1.33-1.6-1.81c13.08,0,26.09-0.06,39.09,0.02c7,0.04,14,0.29,21,0.51c0.8,0.03,2.52-0.73,1.99,1.28
		c-0.61,2.29,0.34,4.26,1.42,6.25C502.5,64.2,505.98,70.11,509.85,75.82z M467.5,148.26c-2.74-0.72-5.48-1.45-8.22-2.16
		c-9.71-2.5-18.31,1.45-21.85,10.15c-0.48,1.17-1.1,1.76-2.33,2.14c-4.27,1.35-8.51,2.81-12.77,4.18c-0.91,0.29-2.04,0.52-2.11,1.45
		c-0.07,0.94,0.91,1.38,1.85,1.8c3.75,1.69,7.4,3.57,11.16,5.24c1.21,0.54,1.55,1.17,1.76,2.39c0.41,2.49-0.94,4.75-0.68,7.19
		c0.41,3.86-1,7.66-0.59,11.53c-3.23,1.82-2.94,5.21-3.88,7.94c-0.87,2.5-2.13,3.29-4.9,3.28c-33.83-0.1-67.67-0.11-101.5-0.06
		c-2.08,0-2.97-0.71-3.62-2.34c-4.83-12.07-9.71-24.12-14.58-36.17c-3.21-7.94-6.45-15.86-9.63-23.81
		c-0.59-1.48-1.28-1.99-3.03-1.25c-2.19,0.93-4.55,1.51-6.82,2.26c-14.79,4.86-29.57,9.72-44.36,14.58
		c-1.68,0.55-2.55,1.1-1.85,3.26c3.09,9.57,5.78,19.25,8.69,28.86c2.58,8.53,5.3,17.02,7.88,25.54c0.94,3.11,1.64,6.29,2.44,9.43
		c-1.81-0.12-3.35,0.91-5.06,1.1c-7.3,0.82-14.62,1.53-21.93,2.27c-7.8,0.79-15.59,1.57-23.39,2.35c-1.31,0.13-2.15,0.47-2.38,1.97
		c-0.83,5.47-1.04,10.98-1.58,16.48c-0.32,3.28-0.67,6.56-1.02,9.83c-0.28,2.55-0.75,5.1-0.83,7.66c-0.09,2.85-0.36,5.73-0.73,8.51
		c-0.43,3.26-0.08,6.62-1.09,9.8c-0.62,1.97,0.4,4.52-2.45,5.73c-7.17,3.04-14.31,6.13-21.46,9.21
		c-11.52,4.97-23.03,9.93-34.54,14.92c-20.07,8.7-40.15,17.39-60.2,26.13c-5.09,2.22-5.07,2.3-2.96,6.79
		c0.28,0.61,0.66,1.19,0.1,1.74c-0.45,0.44-1.08,0.14-1.66,0.06c-3.47-0.52-6.97-0.9-10.42-1.5c-3.64-0.63-7.44-0.61-11.13-1.88
		c1.32-1.59,2.54-2.88,3.53-4.31c0.99-1.44,1.94-2.94,2.59-4.53c1.72-4.22,0.67-7.44-3.29-9.95c-1.94-1.22-4.11-2.31-6.57-1.12
		c-2.31,1.12-2.31,3.19-2.54,5.27c-0.28,2.58,0.84,5.04,0.61,7.84c-2.05-0.95-3.01-2.53-4.19-3.88
		c-5.82-6.69-11.4-13.57-17.49-20.05c-5.33-5.68-12.41-7.13-20.31-5.63c-2.63,0.5-2.86,0.93-1.55,3.06
		c3.37,5.49,6.6,11.05,9.89,16.57c2.31,3.88,4.62,7.76,6.96,11.63c3.74,6.19,7.52,12.36,11.23,18.56
		c3.54,5.91,6.96,11.87,10.53,17.76c3.42,5.65,7.04,11.2,10.44,16.86c3.96,6.59,7.74,13.28,11.67,19.88
		c4.31,7.24,8.78,14.41,13.02,21.69c1.14,1.96,2.48,1.37,3.8,0.69c7.63-3.94,15.28-7.87,22.79-11.99
		c8.03-4.4,16.81-7.05,25.44-10.14c8.93-3.2,17.95-6.22,26.85-9.5c4.33-1.6,8.91-2.68,13.13-4.49c5.19-2.23,10.73-3.53,15.91-5.73
		c1.13-0.48,2.08-0.11,1.55,1.24c-0.88,2.29-0.85,4.73-1,7.04c-0.32,5.15-0.99,10.29-1.37,15.43c-0.19,2.65,0.06,5.4-0.63,8.01
		c-1.19,4.52-1.01,9.17-1.69,13.73c-0.52,3.52-0.21,7.1-1.12,10.6c-1.18,4.53-0.88,4.81,4.32,4.81c3.95,0,7.89-0.01,11.84,0.01
		c0.88,0,2.39-0.1,1.27,1.29c-4.01,4.97-8.16,9.85-12.28,14.75c-0.95,1.13-1.31,0.84-1.83-0.46c-0.76-1.93-1.8-3.79-2.96-5.55
		c-3.28-5-7.87-6.45-12.86-4.34c-2.34,0.99-4.36,2.54-4.43,4.77c-0.07,2.35,2.2,3.9,4.38,4.97c2.63,1.28,5.45,2.22,8.79,3.05
		c-0.94,0.39-1.43,0.72-1.96,0.81c-9.65,1.51-19.28,3.2-28.97,4.43c-8.99,1.14-15.47,4.92-18.64,13.04
		c-1.31,3.34-1.03,3.91,2.82,3.91c50.11,0,100.22-0.02,150.33,0.06c2.86,0,3.48-0.9,3.46-3.31c-0.1-11.66,0-23.32-0.09-34.98
		c-0.01-1.84,0.42-2.77,2.57-2.46c0.58,0.08,1.19-0.06,1.77,0.02c2.51,0.36,3.3-0.41,3.29-2.91c-0.12-24.59-0.07-49.19-0.07-73.78
		c0-0.97,0-1.94,0-3.14c3.04,1.09,5.46,2.61,8.03,3.82c12.26,5.77,24.34,11.86,36.52,17.77c1.39,0.67,1.9,1.4,1.86,2.87
		c-0.13,4.1,0.11,8.2-0.1,12.29c-0.11,2.24,0.8,2.74,3,2.78c6.01,0.1,12.02,0.4,18.03,0.62c0.97,0.78,1.96,0.78,2.95,0.05
		c11.04,0.01,22.08,0.07,33.12-0.02c2.27-0.02,1.97,1.15,1.97,2.42c-0.01,16.75-0.05,33.5,0.06,50.25c0.01,2.22-0.87,2.47-2.9,2.45
		c-10.74-0.08-21.49-0.04-32.24-0.04c-0.79,0-1.58,0.03-2.36,0.06c-0.89,0.03-1.13,0.48-1.1,1.25c0.02,0.72,0.41,0.96,1.07,1
		c0.89,0.04,1.77,0.06,2.66,0.07c11.14,0.03,22.28,0.05,33.42,0.07c0.08,0.18,0.15,0.36,0.23,0.54c-3.09,3.98-6.2,7.96-9.28,11.95
		c-1.97,2.55-3.95,5.09-5.81,7.71c-0.49,0.69-0.96,1.85,0.13,2.4c0.87,0.43,1.71-0.01,2.39-0.93c4.87-6.63,9.84-13.19,14.75-19.8
		c1.02-1.38,2.21-2,4.13-1.98c11.14,0.09,22.28,0.04,33.42,0.04c0.69,0,1.38,0.01,2.07-0.01c0.92-0.02,1.85-0.06,1.8-1.26
		c-0.04-1.03-0.87-1.07-1.67-1.1c-0.69-0.03-1.38-0.01-2.07-0.01c-11.04,0-22.08-0.04-33.12,0.04c-2.05,0.02-2.9-0.26-2.89-2.46
		c0.11-16.84,0.09-33.68,0.02-50.52c-0.01-1.81,0.52-2.54,2.49-2.11c0.8,0.69,1.59,0.68,2.36-0.05c11.13-0.92,22.37-0.84,33.32-3.29
		c2.42-0.54,4.93-0.8,7.21-1.88c8.96-4.24,14.09-11.49,18.04-19.61c6.92-14.23,10.09-29.38,12.72-44.66c0.24-1.4-0.52-1.09-1.19-1.1
		c-2.46-0.04-4.94-0.14-7.39,0.02c-2.05,0.14-2.26-0.55-1.8-2.16c1.2-4.27,2.35-8.55,3.38-12.85c2.16-9.09,5.26-17.97,6.93-27.17
		c0.17-0.8,0.28-1.62,0.54-2.39c3.36-10.08,6.57-20.21,10.16-30.23c8.03-22.39,16.27-44.7,24.38-67.06
		c12.11-33.39,24.17-66.8,36.24-100.21c0.49-1.35,1.1-2.44-1.33-3.12c-17.44-4.88-34.83-9.91-52.2-14.99
		c-1.85-0.54-2.52-0.2-3.18,1.41C484.89,106.29,476.18,127.27,467.5,148.26z M99.99,263.77c25.74,0,51.48-0.04,77.22,0.06
		c3,0.01,3.83-0.78,3.82-3.54c-0.1-30.51-0.06-61.02-0.06-91.53c0-6.31-2.98-9.02-9.9-9.02c-47.44,0.01-94.88,0.07-142.32-0.02
		c-6.07-0.01-9.65,2.21-9.61,8.91c0.17,30.6,0.11,61.2,0.02,91.81c-0.01,2.58,0.68,3.41,3.6,3.4
		C48.51,263.73,74.25,263.77,99.99,263.77z"/>
	<path class="st1" d="M362.11,414.57c-6.01-0.22-12.02-0.52-18.03-0.62c-2.2-0.04-3.12-0.54-3-2.78c0.21-4.09-0.03-8.2,0.1-12.29
		c0.05-1.47-0.47-2.2-1.86-2.87c-12.18-5.91-24.26-11.99-36.52-17.77c-2.56-1.21-4.99-2.72-8.03-3.82c0,1.21,0,2.17,0,3.14
		c0,24.59-0.05,49.19,0.07,73.78c0.01,2.5-0.78,3.27-3.29,2.91c-0.58-0.08-1.19,0.06-1.77-0.02c-2.16-0.31-2.59,0.61-2.57,2.46
		c0.08,11.66-0.01,23.32,0.09,34.98c0.02,2.41-0.6,3.31-3.46,3.31c-50.11-0.08-100.22-0.06-150.33-0.06c-3.85,0-4.12-0.57-2.82-3.91
		c3.18-8.12,9.65-11.89,18.64-13.04c9.69-1.23,19.32-2.92,28.97-4.43c0.54-0.08,1.03-0.41,1.96-0.81c-3.34-0.83-6.15-1.77-8.79-3.05
		c-2.18-1.06-4.45-2.62-4.38-4.97c0.07-2.23,2.09-3.78,4.43-4.77c4.98-2.1,9.57-0.65,12.86,4.34c1.16,1.76,2.2,3.62,2.96,5.55
		c0.51,1.3,0.88,1.59,1.83,0.46c4.12-4.9,8.27-9.78,12.28-14.75c1.12-1.39-0.39-1.28-1.27-1.29c-3.95-0.02-7.89-0.01-11.84-0.01
		c-5.2,0-5.5-0.28-4.32-4.81c0.91-3.5,0.6-7.08,1.12-10.6c0.68-4.57,0.5-9.21,1.69-13.73c0.69-2.62,0.43-5.37,0.63-8.01
		c0.37-5.15,1.05-10.28,1.37-15.43c0.14-2.31,0.11-4.75,1-7.04c0.52-1.36-0.43-1.72-1.55-1.24c-5.18,2.2-10.73,3.5-15.91,5.73
		c-4.22,1.81-8.79,2.89-13.13,4.49c-8.9,3.28-17.91,6.3-26.85,9.5c-8.63,3.09-17.41,5.74-25.44,10.14
		c-7.52,4.12-15.16,8.05-22.79,11.99c-1.32,0.68-2.66,1.27-3.8-0.69c-4.24-7.28-8.71-14.45-13.02-21.69
		c-3.93-6.61-7.71-13.29-11.67-19.88c-3.4-5.66-7.02-11.21-10.44-16.86c-3.57-5.89-6.99-11.86-10.53-17.76
		c-3.71-6.2-7.49-12.37-11.23-18.56c-2.34-3.87-4.65-7.75-6.96-11.63c-3.29-5.53-6.52-11.09-9.89-16.57
		c-1.31-2.13-1.08-2.56,1.55-3.06c7.91-1.5,14.98-0.05,20.31,5.63c6.09,6.48,11.67,13.36,17.49,20.05c1.18,1.36,2.14,2.93,4.19,3.88
		c0.23-2.8-0.89-5.26-0.61-7.84c0.23-2.08,0.24-4.15,2.54-5.27c2.46-1.19,4.63-0.1,6.57,1.12c3.97,2.51,5.02,5.72,3.29,9.95
		c-0.65,1.59-1.59,3.1-2.59,4.53c-0.99,1.43-2.21,2.72-3.53,4.31c3.69,1.28,7.49,1.25,11.13,1.88c3.45,0.6,6.95,0.98,10.42,1.5
		c0.58,0.09,1.2,0.38,1.66-0.06c0.57-0.54,0.19-1.13-0.1-1.74c-2.11-4.49-2.14-4.57,2.96-6.79c20.05-8.74,40.13-17.43,60.2-26.13
		c11.51-4.99,23.02-9.95,34.54-14.92c7.15-3.08,14.29-6.17,21.46-9.21c2.85-1.21,1.83-3.76,2.45-5.73c1.01-3.19,0.66-6.54,1.09-9.8
		c0.37-2.78,0.64-5.66,0.73-8.51c0.08-2.56,0.55-5.1,0.83-7.66c0.35-3.28,0.7-6.55,1.02-9.83c0.53-5.49,0.74-11,1.58-16.48
		c0.23-1.5,1.07-1.84,2.38-1.97c7.8-0.78,15.59-1.56,23.39-2.35c7.31-0.74,14.63-1.46,21.93-2.27c1.71-0.19,3.25-1.21,5.06-1.1
		c1.04,0.5,2.13,0.94,3.12,1.52c15.68,9.21,31.34,18.45,47.02,27.65c9.04,5.3,18.11,10.53,27.17,15.8c0.62,0.44,1.2,0.92,1.85,1.3
		c10.66,6.3,21.3,12.63,32.02,18.85c3.8,2.2,7.37,4.77,11.5,6.47c2.25,0.21,4.49,0.48,6.74,0.63c12.56,0.81,25.13,1.56,37.69,2.38
		c17.76,1.16,35.51,2.35,53.26,3.53c-1.67,9.2-4.77,18.08-6.93,27.17c-1.02,4.31-2.17,8.59-3.38,12.85c-0.45,1.61-0.25,2.3,1.8,2.16
		c2.45-0.16,4.93-0.06,7.39-0.02c0.67,0.01,1.43-0.3,1.19,1.1c-2.63,15.29-5.8,30.43-12.72,44.66c-3.95,8.12-9.09,15.37-18.04,19.61
		c-2.28,1.08-4.79,1.34-7.21,1.88c-10.94,2.45-22.19,2.37-33.32,3.29c-0.79-0.23-1.58-0.2-2.36,0.05c-1.96-0.43-2.49,0.3-2.49,2.11
		c0.07,16.84,0.09,33.68-0.02,50.52c-0.01,2.2,0.84,2.48,2.89,2.46c11.04-0.08,22.08-0.04,33.12-0.04c0.69,0,1.38-0.02,2.07,0.01
		c0.8,0.03,1.63,0.07,1.67,1.1c0.05,1.2-0.88,1.24-1.8,1.26c-0.69,0.02-1.38,0.01-2.07,0.01c-11.14,0-22.28,0.05-33.42-0.04
		c-1.92-0.02-3.11,0.61-4.13,1.98c-4.91,6.61-9.88,13.17-14.75,19.8c-0.67,0.92-1.52,1.36-2.39,0.93c-1.09-0.55-0.62-1.71-0.13-2.4
		c1.86-2.62,3.84-5.16,5.81-7.71c3.08-3.99,6.19-7.97,9.28-11.95c0.08-0.18,0.15-0.35,0.23-0.53c-0.15-0.01-0.31-0.01-0.46-0.02
		c-11.14-0.02-22.28-0.04-33.42-0.07c-0.89,0-1.77-0.02-2.66-0.07c-0.66-0.03-1.05-0.28-1.07-1c-0.02-0.77,0.22-1.23,1.1-1.25
		c0.79-0.02,1.58-0.06,2.36-0.06c10.75,0,21.49-0.05,32.24,0.04c2.03,0.02,2.91-0.23,2.9-2.45c-0.11-16.75-0.06-33.5-0.06-50.25
		c0-1.27,0.3-2.44-1.97-2.42c-11.04,0.1-22.08,0.03-33.12,0.02C364.09,414.36,363.1,414.33,362.11,414.57z M57.85,354.49
		c-0.06-0.25-0.11-0.49-0.17-0.74c-0.08,0.1-0.22,0.2-0.22,0.31c0,0.24,0.02,0.54,0.45,0.38c-0.39,2.52,0.8,5.02,0.06,7.57
		c-0.79,2.7-2.58,3.77-5.49,3.09c-5.83-1.36-8.48-5.76-6.68-11.09c0.98-2.91,2.79-5.41,4.74-7.82c0.81-0.99,1.11-1.67,0.12-2.8
		c-8.14-9.26-16.06-18.68-24.34-27.82c-4.23-4.67-9.99-5.91-16.63-4.69c0.29,0.62,0.42,0.96,0.6,1.27
		c23.81,39.68,47.63,79.36,71.4,119.07c0.93,1.55,1.68,1.46,3.17,0.69c9.01-4.69,18.02-9.36,27.15-13.84
		c2.12-1.04,1.87-1.9,1.05-3.53c-9.8-19.55-19.64-39.08-29.18-58.73c-1.69-3.47-3.61-5.49-7.87-5.39c-1.74,0.04-3.5-0.49-5.25-0.72
		c-4.3-0.57-8.59-1.13-13.43-1.76c2.53,4.21,4.78,7.94,7.01,11.67c1.48,2.47,2.93,4.94,4.4,7.42c0.44,0.74,0.42,1.4-0.46,1.85
		c-0.8,0.41-1.32-0.06-1.71-0.6c-0.44-0.6-0.76-1.27-1.17-1.89C62.79,362.45,60.9,358.15,57.85,354.49z M197.78,474.2
		c2.31,1.36,4.9,2,7.05,3.46c2.87,1.94,3.05,4.39,0.54,6.68c-4.14,3.78-9.29,3.73-13.32-0.14c-2.21-2.13-3.84-4.64-5.02-7.35
		c-0.71-1.63-1.43-2.11-3.44-1.78c-12.02,2.01-24.07,3.82-36.11,5.73c-5.83,0.92-10.13,3.82-12.78,8.73
		c-1.55,2.87-1.52,2.89,1.88,2.89c26.53,0,53.05,0,79.58,0c21.89,0,43.78-0.03,65.67,0.05c2.17,0.01,2.83-0.44,2.8-2.53
		c-0.12-11.11-0.11-22.22-0.01-33.33c0.02-1.96-0.64-2.39-2.66-2.39c-24.55,0.06-49.11,0.05-73.66,0.01c-1.55,0-2.53,0.46-3.45,1.59
		c-3.84,4.74-7.78,9.4-11.64,14.12c-0.42,0.51-1.32,0.95-0.68,1.91c7.26,0,14.55-0.01,21.84,0.01c1.03,0,2.5-0.24,2.48,1.18
		c-0.02,1.41-1.48,1.15-2.52,1.16C208.83,474.2,203.3,474.2,197.78,474.2z M379.82,400.78c14.98-0.99,29.91-1.85,44.8-3.64
		c12.57-1.5,22.05-6.83,28.17-17.1c1.76-2.95,3.5-5.91,5.09-8.93c0.53-1.01,2.01-2.5,0.24-3.31c-1.9-0.87-2.02,1.18-2.55,2.2
		c-2.65,5.1-5.57,10.04-9.42,14.47c-3.75,4.33-8.39,7.39-14.29,8.69c-4.61,1.01-9.26,1.78-13.96,2.29
		c-18.15,1.97-36.38,2.48-54.63,2.77c-1.14,0.02-2.75-0.25-2.76,1.27c-0.01,1.53,1.58,1.28,2.74,1.28
		C368.77,400.78,374.29,400.78,379.82,400.78z M189.26,475.32c1.31,2.99,2.77,5.54,5.12,7.56c2.53,2.17,4.9,2.34,7.77,0.66
		c3.08-1.8,3.09-3-0.09-4.56C198.12,477.03,193.82,476.17,189.26,475.32z M54.62,342.23c2.54-2.46,4.21-4.86,5.15-7.65
		c1-2.97,0.08-5.09-2.78-6.69c-3.03-1.68-4.32-1.07-4.43,2.16C52.42,334.07,53.51,337.92,54.62,342.23z M52.76,347.59
		c-2.21,2.57-3.73,4.86-4.55,7.5c-1.04,3.34,0.07,5.62,3.43,7.12c2.75,1.23,3.86,0.67,3.89-2.1
		C55.58,355.92,54.2,351.99,52.76,347.59z M184.92,471.1c-0.92-3.02-2.28-5.39-4.24-7.43c-2.65-2.76-5.96-2.94-9.13-0.67
		c-1.51,1.08-1.81,2.15-0.14,3.23C175.4,468.82,179.98,469.98,184.92,471.1z"/>
	<path class="st2" d="M335.85,268.7c-9.06-5.26-18.14-10.5-27.17-15.8c-15.69-9.2-31.34-18.44-47.02-27.65
		c-0.99-0.58-2.08-1.02-3.12-1.52c-0.81-3.15-1.5-6.32-2.44-9.43c-2.57-8.53-5.3-17.02-7.88-25.54c-2.91-9.62-5.6-19.29-8.69-28.86
		c-0.7-2.16,0.17-2.7,1.85-3.26c14.78-4.87,29.57-9.73,44.36-14.58c2.28-0.75,4.64-1.33,6.82-2.26c1.76-0.74,2.44-0.23,3.03,1.25
		c3.18,7.95,6.42,15.87,9.63,23.81c4.87,12.05,9.75,24.1,14.58,36.17c0.65,1.63,1.55,2.34,3.62,2.34
		c33.83-0.05,67.67-0.04,101.5,0.06c2.78,0.01,4.04-0.77,4.9-3.28c0.95-2.74,0.65-6.12,3.88-7.94c0.9,0.74,1.92,0.39,2.91,0.26
		c13.21,0.26,26.43,0.39,39.65,0.2c2.41,1.04,2.61-0.26,2.6-2c-0.03-9.1-0.31-18.22,0.07-27.31c0.37-8.81-4.47-13.23-11.45-15.07
		c8.69-20.99,17.39-41.98,26.02-62.98c0.66-1.61,1.33-1.95,3.18-1.41c17.37,5.08,34.76,10.11,52.2,14.99
		c2.43,0.68,1.81,1.77,1.33,3.12c-12.08,33.4-24.14,66.81-36.24,100.21c-8.11,22.36-16.35,44.68-24.38,67.06
		c-3.59,10.01-6.8,20.15-10.16,30.23c-0.26,0.77-0.36,1.59-0.54,2.39c-17.75-1.18-35.51-2.37-53.26-3.53
		c-12.56-0.82-25.12-1.57-37.69-2.38c-2.25-0.14-4.49-0.42-6.74-0.63c1.87-8.1,3.74-16.19,5.59-24.29c0.27-1.19,0.93-2.49-1.56-2.47
		C368.79,268.66,352.32,268.67,335.85,268.7z"/>
	<path class="st3" d="M509.85,75.82c-3.87-5.71-7.35-11.62-10.62-17.64c-1.08-1.99-2.03-3.97-1.42-6.25
		c0.53-2.01-1.19-1.25-1.99-1.28c-7-0.23-14-0.47-21-0.51c-13-0.08-26.01-0.02-39.09-0.02c-0.01,0.48,1,1.06,1.6,1.81
		c21.59,26.89,15.01,65.98-14.32,85.51c-12.93,8.61-27.35,12.28-43.16,11.43c-18.53-1-33.49-8.37-45.47-21.44
		c-7.08-7.72-11.66-16.49-14.11-26.17c-1.15-4.55-1.21-9.34-1.24-14.1c-0.06-9.62,2.32-18.65,7.09-27.05
		c10.09-17.78,25.94-28.57,47.44-31.92c18.57-2.9,35.42,1.04,50.5,11.46c1.23,0.85,2.51,1.18,4.09,1.12
		c14.67-0.6,29.35-0.94,44-1.75c8.95-0.49,17.91-0.76,26.85-1.29c0.89-0.05,1.73,0,2.61,0.2c1.33,0.3,2.2,0.04,2.19-1.57
		c-0.03-3.82,2.61-6.51,6.74-6.48c5.7,0.04,11.43,0.17,17.09,0.76c3.52,0.37,7.09-0.24,10.55,0.73c0.86,0.24,1.63-0.44,1.64-1.18
		c0.09-4.23,1.42-8.32,1.64-12.52c0.18-3.54,2.66-7.43,5.84-8.6c3.6-1.32,8.4-0.3,11.02,2.48c1.12,1.19,1.65,2.69,1.47,4.29
		c-0.14,1.27,0.47,1.51,1.68,1.42c6.06-0.47,9.26,2.55,8.3,8.06c-2.05,11.64-4.35,23.25-6.3,34.9c-0.79,4.73-1.39,9.44-3.65,13.82
		c-2.44,4.74-6.35,8.21-10.93,11.14c-1.16-0.25-2.32-0.51-3.48-0.76c0.37-0.28,0.72-0.62,1.13-0.84
		c7.66-4.09,12.14-10.15,13.47-18.25c0.94-5.75,2.05-11.49,3.07-17.23c1.42-7.99,2.83-15.98,4.23-23.97
		c0.36-2.06-0.52-3.61-2.56-4.44c-2.17-0.89-3.55,0.29-4.67,1.83c-1.18,1.62-1.71,3.43-2.04,5.35c-0.93,5.39-1.94,10.77-2.93,16.15
		c-0.18,0.97-0.2,2.25-1.77,1.96c-1.29-0.24-1.08-1.29-0.86-2.23c0.23-0.98,0.35-1.97,0.53-2.96c1.29-7.09,2.62-14.17,3.86-21.26
		c0.32-1.85,0.89-3.94-0.72-5.46c-1.68-1.58-3.79-2.63-6.4-1.97c-2.65,0.66-4.23,2.26-4.74,4.71c-0.46,2.23-0.8,4.49-1.15,6.74
		c-0.87,5.68-1.67,11.36-2.59,17.03c-0.17,1.03,0.16,2.9-1.66,2.68c-2.03-0.25-0.98-2.03-0.95-3.16c0.04-1.27,0.29-2.53,0.52-3.79
		c0.2-1.05,0.11-1.64-1.36-1.71c-8.56-0.43-17.12-1-25.68-1.45c-2.64-0.14-4.66,0.96-5.43,3.36c-0.79,2.45,0.4,4.22,2.72,5.45
		c2.75,1.46,5.72,2.41,8.68,3.42c2.82,0.97,6.84,0.63,8.24,2.92c1.38,2.26-0.25,5.51-0.97,8.2c-1.07,3.96-0.76,7.25,3.19,9.68
		c0.39,0.24,0.68,0.66,0.92,1.05c0.26,0.42,0.18,0.89-0.2,1.25c-0.45,0.43-1.02,0.62-1.58,0.21c-0.61-0.45-1.18-0.96-1.74-1.47
		c-4.81-4.44-9.23-9.23-14.28-13.46c-2.08-1.74-4.15-2.58-7.03-1.52c2.47,3.67,4.05,7.54,1.99,11.8c-0.65,1.34-0.47,2.33,0.32,3.51
		c2.28,3.39,4.46,6.84,6.68,10.27C512.3,76.73,511.03,76.42,509.85,75.82z M421.67,40.86c-0.68-0.42-0.93-0.55-1.17-0.72
		c-19.73-13.53-49.89-13.97-70.1-1.09c-1.48,0.95-1.48,1.47-0.32,2.62c5.62,5.62,11.19,11.28,16.67,17.01
		c1.17,1.23,2.07,1.2,3.51,0.55c5.15-2.32,10.65-3.32,16.35-2.9c20.61,1.52,34.31,17.16,31.91,36.36c-0.15,1.19-0.07,1.85,1.44,2.05
		c8.09,1.07,16.18,2.19,24.26,3.36c1.68,0.24,2.4-0.03,2.64-1.81c2.04-14.78-1.44-28.32-10.07-40.9c-3.09-4.51-6.61-7.51-12.79-6.44
		c-0.38,0.07-0.79-0.02-1.18-0.01c-2.56,0.09-4.56-0.73-5.05-3.22C417.28,43.29,418.69,41.76,421.67,40.86z M384.6,117.42
		c17.57,0,31.72-13.16,31.64-29.44c-0.08-16.18-14.16-29.23-31.57-29.24c-17.54-0.02-31.69,13.17-31.63,29.45
		C353.09,104.38,367.17,117.42,384.6,117.42z M321.82,86.72c0.13,11.25,2.55,20.61,7.68,29.35c0.76,1.29,1.34,1.64,2.89,0.95
		c7.35-3.3,14.75-6.51,22.16-9.69c1.45-0.62,1.82-1.11,0.92-2.6c-9.22-15.2-6.05-30.78,8.52-42c1.38-1.07,1.57-1.71,0.29-2.99
		c-5.36-5.34-10.68-10.71-15.86-16.19c-1.58-1.67-2.62-1.51-4.28-0.15C329.54,55.25,322.24,70.18,321.82,86.72z M522.14,58.79
		c0.59-3.36,1.07-6.26,1.63-9.16c0.23-1.18-0.63-1.33-1.48-1.59c-2.61-0.78-5.2-1.62-7.83-2.31c-0.83-0.22-2.38-1.26-2.44-0.34
		c-0.1,1.43-2.05,2.96-0.04,4.45C515.43,52.39,518.46,55.35,522.14,58.79z M500.73,51.34c-1.32,4.36,1.91,6.87,3.54,10.66
		C505.47,57.17,504.45,54.31,500.73,51.34z"/>
	<path class="st4" d="M242.29,145.35c-1.73-4.51-5.51-4.7-10.01-4.69c-70.21,0.12-140.43,0.07-210.64,0.14
		c-2.77,0-3.62-0.51-3.61-3.22c0.11-33.97,0.07-67.94,0.07-101.9c0-6.69,2.29-8.77,9.6-8.77c67.06,0,134.12,0,201.18,0
		c6.63,0,9.6,2.79,9.6,9c0,18.3,0,36.6,0,55.43c2.84-1.44,5.66-1.61,8.54-1.41c1.12,0.08,1.02-0.71,0.82-1.3
		c-1.93-5.81-3.71-11.66-5.9-17.38c-1.67-4.35,0-9.87,3.91-11.29c5.25-1.91,11.46,0.52,13.26,5.21c4.54,11.82,9.08,23.65,13.6,35.48
		c0.26,0.67,0.36,1.6,1.04,1.81c1.07,0.34,1.42-0.79,1.94-1.35c1.86-1.98,3.52-4.12,5.43-6.06c2.34-2.36,7.83-3.15,10.89-1.74
		c3.18,1.47,5.05,4.54,3.6,7.48c-4.1,8.33-7.06,17.23-13.05,24.63c-1.91,2.37-1.75,3.96-0.31,6.04c-0.53,0.83-1.44,0.99-2.36,1.12
		c-0.59-1.25-1.17-2.5-1.79-3.74c-0.5-1.01-0.45-1.89,0.49-2.7c4.44-3.88,6.29-9.16,8.8-14.07c0.22-0.42,0.56-0.82,0.16-1.46
		c-3.98-6.38-3.24-8.98,3.49-12.77c0.53-0.3,1.59-0.36,1.25-1.2c-0.2-0.51-0.91-0.95-1.49-1.22c-2.3-1.05-6.23-0.02-8.25,2.21
		c-2.53,2.79-4.97,5.65-7.44,8.48c-1.47,1.68-2.53,1.47-3.26-0.56c-0.47-1.29-1-2.56-1.49-3.85c-4.5-11.73-9-23.47-13.51-35.2
		c-1.32-3.44-5.31-5.62-8.52-4.72c-3.32,0.94-4.82,4.28-3.65,8.12c0.13,0.44,0.23,0.88,0.38,1.32c4.13,12.71,8.37,25.38,13.12,37.9
		c0.39,1.03,1.82,2.64-0.21,3.22c-1.97,0.57-1.86-1.52-2.26-2.55c-1.78-4.53-3.39-9.1-5.08-13.66c-1.26-3.41-4.6-4.79-8.52-3.52
		c-3.53,1.14-5.41,4.41-4.28,7.53c1.78,4.91,3.59,9.81,5.39,14.72c0.34,0.93,1.1,2.09-0.33,2.59c-1.65,0.57-1.82-0.91-2.18-1.88
		c-1.79-4.81-3.54-9.64-5.33-14.45c-1.21-3.25-4.67-4.7-8.61-3.66c-3.64,0.97-5.5,3.74-4.3,7.17c3.27,9.33,6.17,18.78,10.19,27.88
		c1.04,2.36,2.6,4.65,5.23,5.27c3.96,0.93,5.3,3.64,6.65,6.57C243.97,145.02,243.08,145.09,242.29,145.35z M233.7,138.26
		c-2.35-2.27-3.28-4.37-4.2-6.47c-3.59-8.19-5.98-16.74-9.17-25.05c-1.36-3.55-1.38-6.86,1.75-9.57c3.29-2.85,7.25-3.24,11.26-1.56
		c1.97,0.83,2.2-0.12,2.47-1.35c0.13-0.61,0.06-1.27,0.06-1.91c0-14.21-0.05-28.42,0.06-42.62c0.02-2.21-0.51-2.91-3.04-2.91
		c-69.73,0.07-139.46,0.07-209.19,0c-2.49,0-3.07,0.66-3.06,2.88c0.08,28.42,0.11,56.83-0.03,85.25c-0.01,2.89,0.92,3.36,3.78,3.36
		c68.45-0.07,136.9-0.06,205.34-0.06C230.78,138.26,231.84,138.26,233.7,138.26z M30.69,33.32c-2.56-0.01-4.72,1.97-4.69,4.3
		c0.03,2.36,2.17,4.26,4.77,4.21c2.44-0.05,4.47-1.9,4.54-4.14C35.37,35.37,33.22,33.33,30.69,33.32z M66.14,37.66
		c0.05-2.34-2.06-4.33-4.62-4.35c-2.42-0.02-4.52,1.81-4.65,4.05c-0.14,2.34,1.92,4.39,4.48,4.46
		C63.93,41.9,66.08,40.03,66.14,37.66z M50.52,37.52c-0.04-2.39-2.18-4.29-4.75-4.21c-2.45,0.07-4.42,1.92-4.46,4.2
		c-0.04,2.41,1.99,4.32,4.59,4.32C48.51,41.83,50.56,39.93,50.52,37.52z M289.1,108.75c1.44-3.06,2.72-5.78,4.23-9
		C287.79,102.01,286.7,104.43,289.1,108.75z"/>
	<path class="st5" d="M99.99,263.77c-25.74,0-51.48-0.04-77.22,0.06c-2.92,0.01-3.61-0.83-3.6-3.4c0.09-30.6,0.15-61.2-0.02-91.81
		c-0.04-6.7,3.54-8.92,9.61-8.91c47.44,0.09,94.88,0.03,142.32,0.02c6.92,0,9.9,2.71,9.9,9.02c0,30.51-0.04,61.02,0.06,91.53
		c0.01,2.76-0.82,3.55-3.82,3.54C151.48,263.73,125.74,263.77,99.99,263.77z M122.59,261.23c2.02,0.53,2.75-0.05,2.74-2.1
		c-0.09-11.38-0.06-22.77-0.03-34.16c0.01-3.05,0.96-3.93,4.19-3.97c4.14-0.04,8.29-0.02,12.43-0.01c4.07,0.01,4.83,0.71,4.84,4.48
		c0.01,11.11,0.06,22.22-0.04,33.34c-0.02,1.99,0.44,2.66,2.74,2.63c8.68-0.13,17.36-0.12,26.04,0c2.2,0.03,2.82-0.49,2.82-2.57
		c-0.07-30.24-0.04-60.48-0.06-90.72c0-4.25-1.91-6-6.45-6.02c-5.92-0.03-11.84-0.01-17.75-0.01c-41.72,0-83.44,0-125.16,0
		c-4.91,0-7.04,1.71-7.05,5.79c-0.02,30.42,0.01,60.84-0.06,91.26c0,1.87,0.66,2.26,2.52,2.24c8.38-0.08,16.77-0.15,25.15,0.03
		c2.95,0.06,3.98-0.49,3.93-3.48c-0.21-12.57-0.1-25.14-0.08-37.71c0.01-3.58,1.09-4.55,4.93-4.57c3.75-0.03,7.5-0.02,11.24,0
		c4.11,0.02,5.05,0.88,5.06,4.64c0.01,12.66,0,25.32,0,37.98c0,0.64,0.02,1.28,0,1.91c-0.02,0.79,0.34,1.15,1.23,1.16
		c0.95,0.01,1.51-0.28,1.48-1.24c-0.02-0.64,0-1.28,0-1.91c0-21.04-0.01-42.08,0.01-63.12c0-3.62,0.98-4.51,4.89-4.54
		c3.35-0.03,6.71-0.01,10.06-0.01c5.68,0,6.24,0.52,6.24,5.8c0,20.77,0.03,41.53-0.04,62.3c-0.01,2.03,0.34,3.22,2.89,2.6
		C108.39,261.48,115.49,261.55,122.59,261.23z"/>
	<path class="st3" d="M436.63,192.44c-0.99,0.13-2.01,0.48-2.91-0.26c-0.41-3.87,1-7.67,0.59-11.53c-0.26-2.44,1.1-4.7,0.68-7.19
		c-0.2-1.22-0.54-1.85-1.76-2.39c-3.76-1.68-7.41-3.55-11.16-5.24c-0.94-0.42-1.93-0.86-1.85-1.8c0.07-0.93,1.2-1.16,2.11-1.45
		c4.26-1.37,8.5-2.83,12.77-4.18c1.23-0.39,1.86-0.98,2.33-2.14c3.54-8.7,12.15-12.65,21.85-10.15c2.74,0.71,5.48,1.44,8.22,2.16
		c6.98,1.84,11.82,6.27,11.45,15.07c-0.38,9.09-0.1,18.21-0.07,27.31c0.01,1.74-0.19,3.04-2.6,2c0.01-10.46-0.02-20.93,0.05-31.39
		c0.01-2.05-0.45-3.12-3.08-3.14c-7.65-0.06-15.01-1.58-22.06-4.38c-1.89-0.75-3.88-1.3-5.83-1.94c-0.76-0.25-1.5-0.45-2.16,0.23
		c-1.38,1.41-2.65,2.86-3,4.97c2.89,0.05,5.64-0.13,8.3,0.69c2.48,0.77,4.2,2.13,4.12,4.68c-0.08,2.68-1.94,4.02-4.61,4.58
		c-2.74,0.58-5.47,0.56-8.2-0.01s-5.13-1.52-5.5-4.52c-0.11-0.94-0.58-1.01-1.38-0.73c-2.36,0.83-4.72,1.66-7.59,2.66
		c3.93,1.84,7.33,3.43,10.73,5.05c0.94,0.45,2.14,0.74,2.18,1.98c0.06,1.58,1.1,1.19,2.04,0.92c1.11-0.32,2.51-1.74,3.18,0.03
		c0.62,1.65-1.44,1.81-2.58,2.36c-0.42,0.21-0.95,0.37-1.41,0.35c-1.31-0.07-1.59,0.51-1.66,1.62
		C437.48,181.92,437.04,187.18,436.63,192.44z M438.07,163.47c3.47,1.72,6.98,1.78,10.52,0.7c1.17-0.36,1.54-1.35,1.24-2.46
		c-0.38-1.4-6.43-3.14-7.6-2.17c-0.17,0.14-0.25,0.47-0.22,0.69C442.39,163.07,440.33,163.27,438.07,163.47z"/>
	<path class="st2" d="M509.85,75.82c1.18,0.6,2.45,0.92,3.79,0.98c10.59,2.53,21.18,5.07,31.77,7.6c1.16,0.25,2.32,0.51,3.48,0.76
		c1.11,3.16,2.29,6.3,3.32,9.48c0.62,1.94-0.33,2.85-2.33,2.26c-17.79-5.17-35.56-10.38-53.34-15.58c-0.33-0.1-0.63-0.31-1.44-0.72
		C500.05,78.22,503.58,73.65,509.85,75.82z"/>
	<path class="st2" d="M279.91,132.6c0.92-0.14,1.82-0.3,2.36-1.12c4.6-0.59,6.67,3.01,9.55,5.12c1.11,0.81-0.47,1.12-1.25,1.38
		c-7.98,2.65-15.96,5.32-23.94,7.96c-8.45,2.8-16.91,5.59-25.37,8.36c-0.8,0.26-1.72,0.93-2.47,0.34c-0.82-0.64,0.13-1.67,0.36-2.13
		c1.16-2.35,0.31-5.48,3.15-7.17c0.79-0.26,1.68-0.33,2.26-0.99c0.39-0.02,0.81,0.04,1.16-0.08
		C257.12,140.4,268.51,136.5,279.91,132.6z"/>
	<path class="st6" d="M362.11,414.57c0.99-0.24,1.97-0.21,2.95,0.05C364.07,415.35,363.08,415.35,362.11,414.57z"/>
	<path class="st6" d="M405.34,414.63c0.78-0.25,1.57-0.29,2.36-0.05C406.93,415.31,406.14,415.32,405.34,414.63z"/>
	<path class="st7" d="M398.76,472.12c0.15,0.01,0.31,0.01,0.46,0.02c-0.08,0.18-0.15,0.35-0.23,0.53
		C398.91,472.49,398.83,472.3,398.76,472.12z"/>
	<path class="st8" d="M197.78,474.2c5.52,0,11.04,0.01,16.56-0.01c1.04,0,2.5,0.26,2.52-1.16c0.02-1.43-1.45-1.18-2.48-1.18
		c-7.29-0.02-14.59-0.01-21.84-0.01c-0.65-0.96,0.26-1.41,0.68-1.91c3.86-4.72,7.81-9.38,11.64-14.12c0.92-1.13,1.9-1.59,3.45-1.59
		c24.55,0.04,49.11,0.05,73.66-0.01c2.02,0,2.68,0.43,2.66,2.39c-0.1,11.11-0.12,22.22,0.01,33.33c0.02,2.1-0.63,2.54-2.8,2.53
		c-21.89-0.08-43.78-0.05-65.67-0.05c-26.53,0-53.05,0-79.58,0c-3.41,0-3.43-0.02-1.88-2.89c2.65-4.91,6.95-7.8,12.78-8.73
		c12.04-1.91,24.09-3.72,36.11-5.73c2.01-0.34,2.73,0.15,3.44,1.78c1.18,2.7,2.8,5.22,5.02,7.35c4.03,3.88,9.18,3.92,13.32,0.14
		c2.51-2.29,2.32-4.73-0.54-6.68C202.68,476.19,200.09,475.55,197.78,474.2z"/>
	<path class="st9" d="M57.84,354.49c3.05,3.67,4.94,7.96,7.55,11.87c0.41,0.62,0.73,1.29,1.17,1.89c0.39,0.54,0.91,1.01,1.71,0.6
		c0.88-0.45,0.9-1.11,0.46-1.85c-1.47-2.47-2.92-4.95-4.4-7.42c-2.23-3.73-4.48-7.45-7.01-11.67c4.83,0.63,9.13,1.19,13.43,1.76
		c1.75,0.23,3.51,0.77,5.25,0.72c4.25-0.1,6.18,1.91,7.87,5.39c9.55,19.65,19.38,39.18,29.18,58.73c0.82,1.63,1.07,2.49-1.05,3.53
		c-9.13,4.48-18.14,9.15-27.15,13.84c-1.49,0.77-2.24,0.87-3.17-0.69c-23.77-39.7-47.59-79.38-71.4-119.07
		c-0.18-0.31-0.31-0.64-0.6-1.27c6.64-1.22,12.4,0.03,16.63,4.69c8.28,9.14,16.2,18.56,24.34,27.82c0.99,1.13,0.69,1.81-0.12,2.8
		c-1.95,2.4-3.76,4.9-4.74,7.82c-1.8,5.33,0.85,9.73,6.68,11.09c2.91,0.68,4.7-0.39,5.49-3.09c0.74-2.55-0.45-5.04-0.06-7.57
		L57.84,354.49z"/>
	<path class="st10" d="M335.85,268.7c16.47-0.03,32.94-0.04,49.4-0.14c2.49-0.02,1.83,1.28,1.56,2.47
		c-1.85,8.1-3.72,16.19-5.59,24.29c-4.13-1.71-7.7-4.27-11.5-6.47C359,282.63,348.36,276.3,337.7,270
		C337.05,269.62,336.47,269.14,335.85,268.7z"/>
	<path class="st11" d="M379.82,400.78c-5.52,0-11.04,0-16.56,0c-1.16,0-2.75,0.25-2.74-1.28c0.01-1.52,1.63-1.26,2.76-1.27
		c18.25-0.29,36.48-0.81,54.63-2.77c4.7-0.51,9.35-1.28,13.96-2.29c5.9-1.3,10.54-4.36,14.29-8.69c3.84-4.44,6.77-9.37,9.42-14.47
		c0.53-1.02,0.65-3.07,2.55-2.2c1.77,0.81,0.29,2.3-0.24,3.31c-1.59,3.02-3.34,5.98-5.09,8.93c-6.13,10.28-15.6,15.6-28.17,17.1
		C409.73,398.93,394.79,399.79,379.82,400.78z"/>
	<path class="st11" d="M189.26,475.32c4.57,0.86,8.87,1.72,12.8,3.66c3.18,1.57,3.17,2.76,0.09,4.56c-2.87,1.68-5.24,1.5-7.77-0.66
		C192.03,480.85,190.56,478.3,189.26,475.32z"/>
	<path class="st11" d="M54.62,342.23c-1.11-4.31-2.2-8.16-2.06-12.18c0.11-3.23,1.4-3.84,4.43-2.16c2.86,1.59,3.78,3.71,2.78,6.69
		C58.83,337.38,57.16,339.77,54.62,342.23z"/>
	<path class="st11" d="M52.76,347.59c1.44,4.4,2.82,8.33,2.77,12.52c-0.03,2.78-1.14,3.33-3.89,2.1c-3.36-1.5-4.47-3.79-3.43-7.12
		C49.03,352.44,50.55,350.15,52.76,347.59z"/>
	<path class="st11" d="M184.92,471.1c-4.95-1.12-9.52-2.29-13.51-4.87c-1.68-1.09-1.38-2.15,0.14-3.23
		c3.18-2.27,6.48-2.08,9.13,0.67C182.65,465.72,184.01,468.08,184.92,471.1z"/>
	<path class="st9" d="M57.9,354.43c-0.43,0.16-0.45-0.13-0.45-0.38c0-0.1,0.14-0.2,0.22-0.31c0.06,0.25,0.11,0.49,0.17,0.74
		C57.84,354.49,57.9,354.43,57.9,354.43z"/>
	<path class="st9" d="M436.63,192.44c0.41-5.26,0.85-10.52,1.19-15.79c0.07-1.11,0.35-1.69,1.66-1.62c0.47,0.02,0.99-0.14,1.41-0.35
		c1.13-0.55,3.2-0.71,2.58-2.36c-0.67-1.77-2.07-0.35-3.18-0.03c-0.94,0.27-1.99,0.66-2.04-0.92c-0.04-1.24-1.25-1.53-2.18-1.98
		c-3.39-1.62-6.8-3.2-10.73-5.05c2.87-1.01,5.23-1.83,7.59-2.66c0.79-0.28,1.26-0.21,1.38,0.73c0.36,3,2.76,3.95,5.5,4.52
		c2.73,0.57,5.47,0.58,8.2,0.01c2.67-0.56,4.53-1.91,4.61-4.58c0.08-2.55-1.64-3.92-4.12-4.68c-2.66-0.82-5.41-0.64-8.3-0.69
		c0.35-2.1,1.62-3.56,3-4.97c0.67-0.68,1.41-0.48,2.16-0.23c1.95,0.64,3.93,1.19,5.83,1.94c7.05,2.8,14.41,4.32,22.06,4.38
		c2.62,0.02,3.09,1.09,3.08,3.14c-0.07,10.46-0.04,20.93-0.05,31.39C463.06,192.83,449.85,192.71,436.63,192.44z M468.31,171.36
		c-0.04-3.47-1.76-6.07-4.88-7.91c-0.91-0.54-2.02-1.19-2.79,0.05c-0.71,1.15,0.51,1.52,1.29,2.03c3.44,2.25,4.56,5.36,3.07,8.48
		c-1.44,3.02-4.69,4.48-8.56,3.74c-1.09-0.21-2.29-0.75-2.58,0.72c-0.27,1.36,1.11,1.48,2.13,1.75
		C462.08,181.77,468.29,177.3,468.31,171.36z"/>
	<path class="st10" d="M421.67,40.86c-2.98,0.9-4.39,2.43-3.91,4.87c0.5,2.48,2.49,3.31,5.05,3.22c0.39-0.01,0.8,0.07,1.18,0.01
		c6.18-1.07,9.7,1.93,12.79,6.44c8.62,12.58,12.1,26.11,10.07,40.9c-0.25,1.78-0.96,2.06-2.64,1.81
		c-8.08-1.16-16.17-2.28-24.26-3.36c-1.51-0.2-1.58-0.85-1.44-2.05c2.41-19.2-11.3-34.84-31.91-36.36c-5.7-0.42-11.2,0.57-16.35,2.9
		c-1.44,0.65-2.33,0.68-3.51-0.55c-5.48-5.74-11.05-11.39-16.67-17.01c-1.16-1.16-1.17-1.68,0.32-2.62
		c20.21-12.88,50.38-12.43,70.1,1.09C420.74,40.3,420.99,40.44,421.67,40.86z"/>
	<path class="st8" d="M384.6,117.42c-17.42,0-31.5-13.04-31.56-29.23c-0.06-16.29,14.1-29.47,31.63-29.45
		c17.41,0.02,31.5,13.06,31.57,29.24C416.32,104.26,402.17,117.42,384.6,117.42z"/>
	<path class="st9" d="M545.41,84.39c-10.59-2.53-21.18-5.07-31.77-7.6c-2.22-3.43-4.4-6.88-6.68-10.27
		c-0.79-1.18-0.97-2.17-0.32-3.51c2.06-4.26,0.48-8.13-1.99-11.8c2.88-1.06,4.95-0.22,7.03,1.52c5.05,4.23,9.46,9.02,14.28,13.46
		c0.56,0.51,1.12,1.02,1.74,1.47c0.56,0.41,1.13,0.22,1.58-0.21c0.38-0.36,0.46-0.83,0.2-1.25c-0.24-0.39-0.53-0.81-0.92-1.05
		c-3.94-2.44-4.25-5.72-3.19-9.68c0.72-2.69,2.35-5.95,0.97-8.2c-1.4-2.29-5.42-1.95-8.24-2.92c-2.96-1.01-5.93-1.96-8.68-3.42
		c-2.32-1.23-3.51-3-2.72-5.45c0.78-2.4,2.79-3.5,5.43-3.36c8.56,0.45,17.12,1.02,25.68,1.45c1.47,0.07,1.56,0.66,1.36,1.71
		c-0.23,1.25-0.48,2.52-0.52,3.79c-0.03,1.13-1.08,2.91,0.95,3.16c1.82,0.23,1.49-1.65,1.66-2.68c0.93-5.67,1.73-11.35,2.59-17.03
		c0.34-2.25,0.68-4.51,1.15-6.74c0.51-2.45,2.09-4.04,4.74-4.71c2.62-0.66,4.72,0.39,6.4,1.97c1.61,1.52,1.05,3.6,0.72,5.46
		c-1.24,7.09-2.57,14.18-3.86,21.26c-0.18,0.99-0.31,1.98-0.53,2.96c-0.22,0.94-0.43,2,0.86,2.23c1.57,0.29,1.59-0.99,1.77-1.96
		c0.98-5.38,2-10.76,2.93-16.15c0.33-1.91,0.86-3.73,2.04-5.35c1.12-1.54,2.5-2.72,4.67-1.83c2.04,0.84,2.92,2.38,2.56,4.44
		c-1.4,7.99-2.81,15.98-4.23,23.97c-1.02,5.74-2.12,11.48-3.07,17.23c-1.33,8.1-5.81,14.16-13.47,18.25
		C546.13,83.78,545.79,84.11,545.41,84.39z"/>
	<path class="st12" d="M321.82,86.72c0.42-16.54,7.72-31.47,22.31-43.33c1.67-1.35,2.7-1.52,4.28,0.15
		c5.19,5.48,10.5,10.86,15.86,16.19c1.28,1.27,1.09,1.92-0.29,2.99c-14.57,11.23-17.74,26.81-8.52,42c0.91,1.49,0.53,1.98-0.92,2.6
		c-7.41,3.19-14.81,6.39-22.16,9.69c-1.55,0.7-2.13,0.34-2.89-0.95C324.37,107.33,321.95,97.97,321.82,86.72z"/>
	<path class="st11" d="M522.14,58.79c-3.68-3.44-6.72-6.41-10.17-8.95c-2.01-1.48-0.06-3.02,0.04-4.45
		c0.06-0.92,1.62,0.12,2.44,0.34c2.63,0.7,5.22,1.54,7.83,2.31c0.85,0.25,1.7,0.4,1.48,1.59C523.21,52.53,522.73,55.44,522.14,58.79
		z"/>
	<path class="st6" d="M500.73,51.34c3.72,2.97,4.74,5.83,3.54,10.66C502.64,58.22,499.41,55.71,500.73,51.34z"/>
	<path class="st10" d="M233.7,138.26c-1.87,0-2.92,0-3.98,0c-68.45,0-136.9-0.02-205.34,0.06c-2.86,0-3.79-0.47-3.78-3.36
		c0.14-28.42,0.11-56.83,0.03-85.25c-0.01-2.22,0.57-2.89,3.06-2.88c69.73,0.06,139.46,0.06,209.19,0c2.54,0,3.06,0.7,3.04,2.91
		c-0.11,14.21-0.05,28.42-0.06,42.62c0,0.64,0.07,1.29-0.06,1.91c-0.27,1.23-0.5,2.17-2.47,1.35c-4-1.68-7.96-1.29-11.26,1.56
		c-3.13,2.71-3.11,6.02-1.75,9.57c3.19,8.31,5.58,16.87,9.17,25.05C230.43,133.89,231.35,135.99,233.7,138.26z M117.53,92.4
		c6.88,6.13,13.75,12.27,20.64,18.39c2.54,2.26,2.77,2.23,4.39-0.58c5.73-9.95,11.48-19.9,17.14-29.88c0.9-1.59,1.45-2.27,3.24-0.73
		c6.86,5.88,13.83,11.66,20.79,17.44c1,0.83,1.3,1.51,0.74,2.78c-1.29,2.92-0.48,5.57,2.04,7.66c2.44,2.02,5.34,2.45,8.23,1.09
		c1.5-0.7,2.22-0.35,3.26,0.56c3.35,2.95,6.78,5.83,10.2,8.71c0.76,0.64,1.63,1.74,2.72,0.68c1.06-1.03-0.06-1.8-0.84-2.47
		c-3.33-2.84-6.6-5.74-10.04-8.47c-1.37-1.09-1.78-2.02-1.17-3.67c0.93-2.56,0.01-4.87-2.06-6.7c-2.18-1.93-4.89-2.58-7.64-1.52
		c-1.8,0.69-2.78,0.3-4.07-0.79c-7.26-6.15-14.58-12.25-21.92-18.32c-2.79-2.3-3.05-2.19-4.85,0.94
		c-5.63,9.8-11.34,19.55-16.83,29.42c-1.23,2.21-1.93,1.72-3.42,0.37c-6.13-5.53-12.35-10.97-18.54-16.45
		c1.68-3.92,1.1-6.73-1.78-8.41c-2.54-1.48-5.05-0.95-7.54,0.18c-5.22-4.7-10.49-9.36-15.62-14.14c-1.86-1.73-2.92-1.32-4.39,0.43
		c-7.73,9.2-15.58,18.32-23.4,27.45c-0.55,0.64-0.85,1.63-2.17,1.69c0-0.72-0.02-1.35,0-1.98c0.36-10.46,0.74-20.92,1.1-31.39
		c0.03-0.73,0.04-1.46-0.03-2.18c-0.06-0.62-0.52-0.98-1.19-0.99c-0.67-0.01-1.14,0.36-1.24,0.95c-0.12,0.71-0.13,1.45-0.15,2.17
		c-0.4,11.19-0.85,22.38-1.14,33.57c-0.05,2.02-0.65,2.72-2.88,2.57c-2.65-0.18-5.32-0.04-7.98-0.04c-0.85,0-1.66,0.17-1.74,1.09
		c-0.1,1.12,0.8,1.31,1.76,1.32c2.46,0.01,4.94,0.16,7.39-0.03c2.41-0.19,3.29,0.42,3.08,2.79c-0.33,3.71-0.29,7.46-0.37,11.19
		c-0.02,0.93-0.45,2.29,1.15,2.37c1.83,0.1,1.43-1.39,1.48-2.41c0.19-3.64,0.55-7.28,0.39-10.91c-0.12-2.65,0.99-3.07,3.53-3.04
		c9.95,0.12,19.91,0.06,29.87,0.03c1.08,0,2.76,0.43,2.74-1.2c-0.02-1.61-1.69-1.18-2.77-1.19c-9.36-0.03-18.73-0.01-28.09-0.04
		c-0.81,0-1.75,0.37-2.6-0.47c8.23-9.65,16.48-19.27,24.65-28.95c1.17-1.39,1.73-0.41,2.46,0.23c4.84,4.28,9.66,8.57,14.49,12.86
		C107.15,91.01,110.7,94.17,117.53,92.4z"/>
	<path class="st9" d="M279.91,132.6c-11.4,3.9-22.79,7.8-34.2,11.69c-0.35,0.12-0.77,0.05-1.16,0.08c-1.35-2.93-2.69-5.64-6.65-6.57
		c-2.63-0.62-4.19-2.91-5.23-5.27c-4.02-9.1-6.92-18.55-10.19-27.88c-1.2-3.43,0.65-6.21,4.3-7.17c3.94-1.05,7.4,0.41,8.61,3.66
		c1.79,4.81,3.54,9.64,5.33,14.45c0.36,0.97,0.53,2.46,2.18,1.88c1.43-0.5,0.67-1.66,0.33-2.59c-1.8-4.91-3.61-9.81-5.39-14.72
		c-1.13-3.12,0.75-6.39,4.28-7.53c3.92-1.26,7.26,0.11,8.52,3.52c1.68,4.56,3.3,9.14,5.08,13.66c0.41,1.03,0.29,3.12,2.26,2.55
		c2.04-0.59,0.61-2.19,0.21-3.22c-4.76-12.52-9-25.19-13.12-37.9c-0.14-0.44-0.24-0.88-0.38-1.32c-1.18-3.84,0.32-7.18,3.65-8.12
		c3.21-0.9,7.19,1.28,8.52,4.72c4.51,11.73,9.01,23.46,13.51,35.2c0.49,1.28,1.03,2.56,1.49,3.85c0.73,2.03,1.79,2.25,3.26,0.56
		c2.47-2.83,4.91-5.69,7.44-8.48c2.02-2.23,5.95-3.26,8.25-2.21c0.59,0.27,1.29,0.71,1.49,1.22c0.34,0.85-0.72,0.9-1.25,1.2
		c-6.73,3.8-7.47,6.39-3.49,12.77c0.4,0.64,0.06,1.04-0.16,1.46c-2.51,4.91-4.36,10.19-8.8,14.07c-0.94,0.82-0.99,1.69-0.49,2.7
		C278.74,130.1,279.32,131.35,279.91,132.6z M250.4,71.89c3.25,0.05,5.66-1.83,5.32-4.14c-0.1-0.65-0.24-1.27-1.12-1.37
		c-0.81-0.09-1.16,0.29-1.48,0.97c-1.15,2.44-2.08,2.59-4.56,0.75c-0.61-0.45-1.12-0.71-1.79-0.21c-0.63,0.47-0.66,1.03-0.31,1.68
		C247.27,71.1,248.53,71.93,250.4,71.89z"/>
	<path class="st11" d="M30.69,33.32c2.53,0.01,4.68,2.05,4.62,4.37c-0.07,2.25-2.09,4.1-4.54,4.14c-2.59,0.05-4.74-1.84-4.77-4.21
		C25.97,35.29,28.13,33.31,30.69,33.32z"/>
	<path class="st11" d="M66.14,37.66c-0.06,2.37-2.21,4.24-4.8,4.17c-2.56-0.07-4.62-2.12-4.48-4.46c0.13-2.24,2.23-4.07,4.65-4.05
		C64.08,33.33,66.19,35.32,66.14,37.66z"/>
	<path class="st11" d="M50.52,37.52c0.04,2.4-2.01,4.31-4.62,4.31c-2.6,0-4.63-1.91-4.59-4.32c0.04-2.28,2.01-4.13,4.46-4.2
		C48.34,33.24,50.49,35.13,50.52,37.52z"/>
	<path class="st11" d="M289.1,108.75c-2.39-4.33-1.3-6.74,4.23-9C291.82,102.97,290.54,105.69,289.1,108.75z"/>
	<path class="st10" d="M101.28,261.27c-2.54,0.62-2.89-0.57-2.89-2.6c0.06-20.77,0.04-41.53,0.04-62.3c0-5.28-0.56-5.8-6.24-5.8
		c-3.35,0-6.71-0.02-10.06,0.01c-3.91,0.03-4.88,0.92-4.89,4.54c-0.01,21.04-0.01,42.08-0.01,63.12c0,0.64-0.02,1.28,0,1.91
		c0.03,0.96-0.53,1.25-1.48,1.24c-0.89-0.01-1.25-0.37-1.23-1.16c0.02-0.64,0-1.28,0-1.91c0-12.66,0.01-25.32,0-37.98
		c0-3.77-0.94-4.63-5.06-4.64c-3.75-0.02-7.5-0.02-11.24,0c-3.84,0.03-4.92,1-4.93,4.57c-0.02,12.57-0.13,25.14,0.08,37.71
		c0.05,2.99-0.98,3.54-3.93,3.48c-8.38-0.18-16.77-0.11-25.15-0.03c-1.86,0.02-2.52-0.37-2.52-2.24
		c0.07-30.42,0.04-60.84,0.06-91.26c0-4.08,2.14-5.79,7.05-5.79c41.72,0,83.44,0,125.16,0c5.92,0,11.84-0.02,17.75,0.01
		c4.54,0.02,6.45,1.78,6.45,6.02c0.02,30.24-0.01,60.48,0.06,90.72c0.01,2.07-0.62,2.6-2.82,2.57c-8.68-0.12-17.36-0.13-26.04,0
		c-2.3,0.03-2.76-0.64-2.74-2.63c0.1-11.11,0.06-22.22,0.04-33.34c0-3.77-0.77-4.46-4.84-4.48c-4.14-0.02-8.29-0.03-12.43,0.01
		c-3.24,0.03-4.19,0.91-4.19,3.97c-0.03,11.39-0.06,22.77,0.03,34.16c0.02,2.05-0.71,2.63-2.74,2.1c-0.01-1.18-0.03-2.37-0.03-3.55
		c0-24.03,0-48.05,0-72.08c0-4.84-0.65-5.42-6-5.43c-2.86,0-5.72,0-8.57,0c-6.1,0-6.64,0.48-6.64,6.01
		C101.32,211.22,101.3,236.24,101.28,261.27z"/>
	<path class="st13" d="M101.28,261.27c0.02-25.03,0.04-50.05,0.06-75.08c0-5.53,0.54-6.01,6.64-6.01c2.86,0,5.72,0,8.57,0
		c5.35,0,6,0.59,6,5.43c0,24.03,0,48.05,0,72.08c0,1.18,0.02,2.37,0.03,3.55C115.49,261.55,108.39,261.48,101.28,261.27z"/>
	<path class="st11" d="M438.07,163.47c2.27-0.2,4.32-0.4,3.95-3.25c-0.03-0.22,0.05-0.55,0.22-0.69c1.16-0.97,7.22,0.77,7.6,2.17
		c0.3,1.11-0.07,2.1-1.24,2.46C445.05,165.25,441.54,165.19,438.07,163.47z"/>
	<path class="st14" d="M468.31,171.36c-0.02,5.94-6.23,10.41-12.3,8.85c-1.02-0.26-2.4-0.38-2.13-1.75
		c0.29-1.47,1.49-0.93,2.58-0.72c3.87,0.74,7.12-0.72,8.56-3.74c1.49-3.12,0.37-6.23-3.07-8.48c-0.78-0.51-2-0.88-1.29-2.03
		c0.77-1.25,1.88-0.59,2.79-0.05C466.56,165.28,468.27,167.89,468.31,171.36z"/>
	<path class="st14" d="M108.52,84.39c-4.83-4.29-9.66-8.58-14.5-12.86c-0.72-0.64-1.28-1.62-2.46-0.23
		c-8.17,9.68-16.41,19.3-24.65,28.95c0.85,0.84,1.79,0.46,2.6,0.47c9.36,0.03,18.73,0.01,28.09,0.04c1.08,0,2.76-0.43,2.77,1.19
		c0.02,1.63-1.67,1.2-2.74,1.2c-9.96,0.03-19.91,0.09-29.87-0.03c-2.54-0.03-3.65,0.39-3.53,3.04c0.16,3.63-0.21,7.27-0.39,10.91
		c-0.05,1.01,0.35,2.5-1.48,2.41c-1.59-0.08-1.17-1.44-1.15-2.37c0.07-3.73,0.04-7.47,0.37-11.19c0.21-2.37-0.67-2.98-3.08-2.79
		c-2.45,0.19-4.92,0.04-7.39,0.03c-0.96,0-1.86-0.19-1.76-1.32c0.08-0.92,0.88-1.09,1.74-1.09c2.66,0,5.33-0.15,7.98,0.04
		c2.23,0.15,2.82-0.55,2.88-2.57c0.29-11.19,0.74-22.38,1.14-33.57c0.03-0.73,0.03-1.46,0.15-2.17c0.1-0.59,0.57-0.96,1.24-0.95
		c0.67,0.01,1.13,0.37,1.19,0.99c0.07,0.72,0.06,1.45,0.03,2.18c-0.36,10.46-0.73,20.92-1.1,31.39c-0.02,0.63,0,1.26,0,1.98
		c1.33-0.06,1.62-1.05,2.17-1.69c7.83-9.13,15.67-18.26,23.4-27.45c1.48-1.76,2.53-2.17,4.39-0.43c5.13,4.78,10.4,9.44,15.62,14.14
		C109.63,83.2,109.08,83.79,108.52,84.39z"/>
	<path class="st14" d="M119.51,90.83c6.19,5.48,12.41,10.92,18.54,16.45c1.49,1.35,2.19,1.85,3.42-0.37
		c5.49-9.86,11.2-19.62,16.83-29.42c1.8-3.14,2.07-3.24,4.85-0.94c7.35,6.07,14.66,12.16,21.92,18.32c1.29,1.09,2.27,1.48,4.07,0.79
		c2.75-1.05,5.46-0.4,7.64,1.52c2.07,1.84,3,4.15,2.06,6.7c-0.6,1.65-0.2,2.58,1.17,3.67c3.43,2.73,6.71,5.63,10.04,8.47
		c0.79,0.67,1.9,1.44,0.84,2.47c-1.09,1.06-1.96-0.04-2.72-0.68c-3.42-2.88-6.85-5.76-10.2-8.71c-1.04-0.91-1.76-1.26-3.26-0.56
		c-2.88,1.36-5.79,0.93-8.23-1.09c-2.52-2.09-3.33-4.74-2.04-7.66c0.56-1.27,0.26-1.95-0.74-2.78
		c-6.96-5.78-13.93-11.56-20.79-17.44c-1.79-1.53-2.34-0.86-3.24,0.73c-5.66,9.99-11.41,19.93-17.14,29.88
		c-1.62,2.81-1.86,2.84-4.39,0.58c-6.88-6.13-13.76-12.26-20.63-18.39C118.19,91.88,118.85,91.36,119.51,90.83z M196.44,102.36
		c0.05-2.51-2.03-4.57-4.72-4.67c-2.73-0.11-5.14,2.07-5.11,4.62c0.03,2.48,2.23,4.5,4.9,4.51
		C194.23,106.82,196.4,104.86,196.44,102.36z"/>
	<path class="st13" d="M119.51,90.83c-0.66,0.52-1.32,1.04-1.99,1.56c-6.83,1.78-10.38-1.38-9.01-8.01
		c0.56-0.59,1.12-1.19,1.68-1.78c2.48-1.13,5-1.65,7.54-0.18C120.62,84.11,121.19,86.91,119.51,90.83z"/>
	<path class="st14" d="M250.4,71.89c-1.87,0.04-3.13-0.79-3.94-2.31c-0.35-0.66-0.32-1.21,0.31-1.68c0.67-0.5,1.18-0.24,1.79,0.21
		c2.48,1.84,3.4,1.69,4.56-0.75c0.32-0.68,0.67-1.07,1.48-0.97c0.87,0.1,1.02,0.71,1.12,1.37C256.06,70.05,253.65,71.93,250.4,71.89
		z"/>
	<path class="st11" d="M196.44,102.36c-0.05,2.51-2.22,4.47-4.93,4.45c-2.68-0.01-4.88-2.04-4.9-4.51
		c-0.03-2.55,2.38-4.72,5.11-4.62C194.41,97.79,196.49,99.85,196.44,102.36z"/>
</g>
</svg>
