<?xml version="1.0" encoding="utf-8"?>
<!-- Generator: Adobe Illustrator 25.2.1, SVG Export Plug-In . SVG Version: 6.00 Build 0)  -->
<svg version="1.1" id="Camada_1" xmlns="http://www.w3.org/2000/svg" xmlns:xlink="http://www.w3.org/1999/xlink" x="0px" y="0px"
	 viewBox="0 0 595.28 454" style="enable-background:new 0 0 595.28 454;" xml:space="preserve">
<style type="text/css">
	.st0{fill:none;}
	.st1{fill:#222222;}
	.st2{fill:#0984E3;}
	.st3{fill:#262626;}
	.st4{fill:#FDFCFC;}
	.st5{fill:#FEFDFD;}
	.st6{fill:#FCFCFC;}
	.st7{fill:#FBFBFB;}
	.st8{fill:#FAFAFA;}
	.st9{fill:#F8F8F8;}
	.st10{fill:#2D2D2D;}
	.st11{fill:#313131;}
</style>
<g>
	<path class="st0" d="M311.5,573.95c-138.7,0-277.4,0-416.1,0.05c-1.96,0-2.4-0.44-2.4-2.4c0.05-228.4,0.05-456.8,0-685.2
		c0-1.96,0.44-2.4,2.4-2.4c277.4,0.05,554.8,0.05,832.2,0c1.96,0,2.4,0.44,2.4,2.4c-0.05,228.4-0.05,456.8,0,685.2
		c0,1.96-0.44,2.4-2.4,2.4C588.9,573.95,450.2,573.95,311.5,573.95z M309.88,106.16c-2.82,2.48-2.85,3.28-0.9,6.28
		c1.23,1.9,2.58,3.69,4.05,5.39c0.87,1.01,0.97,1.78-0.46,2.34c-1.82,0.72-2.7,2.43-3.78,3.86c-5.67,7.53-11.34,15.06-16.83,22.72
		c-1.67,2.33-3.68,4.41-5.09,6.88c-0.81,1.42-1.81,2.18-3.3,2.64c-4.61,1.41-9.23,2.86-13.83,4.25
		c-10.19,3.07-20.19,6.81-30.53,9.39c-0.62-6.08-3.87-9.54-8.72-9.32c-4.82,0.22-4.88,0.28-4.8,5.09c0.02,0.87,0.19,1.74,0.12,2.6
		c-0.28,3.83,1.84,7.1,2.43,10.73c-0.58,0.08-1.15,0.15-1.73,0.23c-3.49-5.33-3.07-11.41-3.14-17.45c-1.39,0.2-2.59,0.35-3.78,0.56
		c-7.75,1.36-15.59,2.19-23.21,4.28c-1.31,0.36-2.44,0.53-3.23-1.39c-1.23-3-3.61-5.6-6.62-6.53c-2.85-0.88-3.2-2.3-3.23-4.78
		c-0.55-46.59-1.16-93.19-1.75-139.78c-0.04-3.29-0.29-3.56-3.45-2.86c-6.4,1.42-12.91,2.19-19.31,3.81
		c-9.81,2.48-19.95,3.43-29.82,5.83c-10.68,2.6-21.69,3.58-32.39,6.28c-9.64,2.43-19.61,3.27-29.31,5.69
		c-9.98,2.49-20.29,3.5-30.34,5.88c-8.29,1.96-16.76,3.13-25.15,4.61c-1.95,0.34-3.09,0.98-2.19,3.27
		c4.33,11.15,8.6,22.33,12.91,33.49c4.4,11.4,8.8,22.81,13.21,34.21c7.89,20.37,15.78,40.75,23.67,61.12
		c1.69,4.37,3.83,8.62,5.01,13.12c3.65,13.9,4.27,28.03,1.83,42.19c-1.53,8.9-3.73,17.69-5.25,26.59
		c-4.73,27.79-8.41,55.72-11.68,83.72c-0.4,3.46-0.4,3.46,3.04,3.46c34.85,0,69.69,0,104.54,0c3.74,0,3.75,0,4.25-3.77
		c1.77-13.28,3.53-26.56,5.29-39.84c3.35-25.27,6.7-50.53,10.06-75.8c0.43-3.23,0.89-6.46,1.43-10.34c2.42,3.3,4.42,6.08,6.5,8.8
		c0.62,0.81,0.51,1.6,0.43,2.46c-0.67,7.2-1.32,14.39-1.99,21.59c-1.81,19.33-3.63,38.65-5.44,57.98
		c-1.28,13.6-2.54,27.21-3.82,40.81c-1.53,16.29-3.1,32.59-4.59,48.88c-0.13,1.44-0.6,2.63-1.31,3.86
		c-3.09,5.31-6.16,10.63-9.12,16.01c-1.87,3.39-4.11,5.92-8.29,6.58c-4.28,0.67-8.46,1.98-12.68,3.04
		c-7.68,1.93-13.08,6.26-15.3,14.16c-0.94,3.34-1.08,3.31,2.4,3.31c26.31,0,52.62-0.09,78.92,0.11c3.55,0.03,5.36-1.5,7.16-3.99
		c3.88-5.39,7.88-10.7,11.82-16.05c0.54-0.74,1.04-1.28,2.15-0.83c1.29,0.53,0.98,1.39,0.82,2.34c-0.92,5.32-1.77,10.64-2.74,15.95
		c-0.34,1.83,0.15,2.52,2.09,2.5c7.84-0.07,15.68-0.09,23.52,0.01c2.35,0.03,2.66-0.87,2.06-2.84c-0.66-2.18-1.16-4.4-1.89-7.23
		c4.78,2.48,9.3,3.81,13.54,6.04c3.83,2.01,7.81,4.07,12.53,3.97c9.67-0.2,19.34-0.06,29.01-0.06c92.25,0.01,184.5,0.03,276.76,0.04
		c5.3,0,8.07-2.05,8.87-6.53c0.79-4.45-1.12-7.43-5.96-9.29c-0.65-0.25-1.38-1.34-1.98-0.35c-0.95,1.55-2.33,1.28-3.69,1.28
		c-27.88,0.01-55.75-0.01-83.63,0.05c-2.21,0-3.65-0.57-4.24-2.92c1,0,1.95,0,2.89,0c28.05,0,56.1-0.02,84.15,0.04
		c1.99,0,2.73-0.32,2.4-2.54c-0.79-5.33-1.16-10.73-1.98-16.05c-2.37-15.52-6.67-30.5-12.97-44.89
		c-4.39-10.02-9.76-19.52-16.02-28.47c-7.44-10.64-16.09-20.29-25.66-29.06c-4.83-4.42-10.07-8.4-15.2-12.48
		c-1.21-0.96-0.7-1.22,0.15-2.02c3.26-3.07,7-5.54,10.4-8.44c7.12-6.08,13.68-12.68,19.77-19.74c3.67-4.25,7.2-8.66,10.38-13.28
		c7.23-10.5,13.38-21.62,18.09-33.49c3.3-8.32,5.95-16.85,8-25.57c2.48-10.53,4.08-21.18,4.78-31.97c0.08-1.23,0.37-1.98,1.82-1.82
		c2.16,0.24,3.93-0.5,5.6-1.99c2.66-2.37,3.75-5.58,2.63-8.93c-1.27-3.8-3.55-5.53-7.49-5.63c-1.69-0.04-3.38-0.01-5.36-0.01
		c1.56-3.46,2.95-6.52,4.31-9.6c1.7-3.85,1.92-7.82-0.92-11.05c-2.98-3.39-7.1-4.35-11.46-2.92c-1.63,0.53-1.88,0.05-2.51-1.32
		c-1.82-3.97-8.15-8.78-12.96-6.78c-3.2,1.33-5.44,0.28-8.04-0.78c-0.56-0.23-1.14-0.43-1.72-0.63c-4.89-1.66-9.33-0.39-12.5,3.63
		c-1.02,1.29-1.98,2.63-2.97,3.95c-7.6-5.68-15.03-11.59-22.58-17.34c-4.33-3.3-8.63-6.66-13.02-9.89
		c-2.91-2.15-5.96-4.19-8.62-6.63c-1.25-1.15-2.28-1.6-3.84-1.45c-4.38,0.42-8.75,0.99-13.11,1.43c-22.2,2.27-44.54,2.97-66.7,5.86
		c-5.43,0.71-10.94,0.74-16.39,1.29c-4.79,0.48-9.87-0.14-14.05,3.07c-3.54,2.71-7.7,4.26-11.56,6.38
		c-0.62,0.34-1.19,0.77-1.97,1.27c-1.76-4.68-3.45-9.23-5.17-13.76c-1.79-4.7-2.53-4.92-6.65-2.14c-0.36,0.24-0.76,0.41-1.14,0.61
		c-3.38-6.82-6.77-13.63-10.13-20.46c-2.39-4.86-5.16-9.17-11.54-8.78c-0.12,0.01-0.24-0.21-0.42-0.37c0.23-0.53,0.52-1.07,0.7-1.63
		c1.46-4.52,0.24-8.71-3.32-10.45c-1.67-0.81-2.32-1.3-1.61-3.39c0.83-2.44,0.34-5.05-1.84-6.9c-2.05-1.74-4.37-1.99-6.84-1
		c-1.13,0.46-2.22,1.04-3.38,1.36c-3.83,1.04-5.06,5.94-3.75,9.53c0.65,1.79,3.33,2.13,3.29,3.85c-0.05,1.67-1.48,3.21-1.58,5.12
		c-0.23,4.14,2.51,6.34,5.4,8.57c-6.26,3.55-9.94,9.05-11.34,15.81c-1.46,7-0.97,14.21-1.24,21.34c-0.07,1.8,0.86,2.06,2.35,1.42
		c1.76-0.75,3.61-1.31,5.3-2.18c1.82-0.94,2.54-0.31,3.12,1.43C307.06,98.5,308.5,102.32,309.88,106.16z"/>
	<path class="st1" d="M527.44,112.67c0.99-1.32,1.94-2.66,2.96-3.95c3.18-4.02,7.61-5.29,12.5-3.63c0.58,0.2,1.15,0.4,1.72,0.63
		c2.59,1.06,4.84,2.12,8.04,0.78c4.8-2,11.14,2.81,12.96,6.78c0.63,1.37,0.88,1.85,2.51,1.32c4.36-1.43,8.48-0.47,11.46,2.92
		c2.84,3.23,2.62,7.2,0.92,11.05c-1.36,3.08-2.75,6.14-4.31,9.6c1.98,0,3.67-0.04,5.36,0.01c3.94,0.1,6.22,1.83,7.49,5.63
		c1.12,3.35,0.03,6.56-2.63,8.93c-1.67,1.49-3.43,2.22-5.6,1.99c-1.45-0.16-1.74,0.59-1.82,1.82c-0.7,10.79-2.3,21.44-4.78,31.97
		c-2.05,8.72-4.7,17.25-8,25.57c-4.71,11.87-10.85,23-18.09,33.49c-3.18,4.62-6.72,9.03-10.38,13.28
		c-6.09,7.06-12.65,13.66-19.77,19.74c-3.4,2.9-7.14,5.37-10.4,8.44c-0.85,0.8-1.35,1.06-0.15,2.02c5.13,4.09,10.37,8.06,15.2,12.48
		c9.57,8.76,18.22,18.42,25.66,29.06c6.26,8.95,11.63,18.45,16.02,28.47c6.3,14.38,10.6,29.37,12.97,44.89
		c0.81,5.33,1.19,10.72,1.98,16.05c0.33,2.22-0.41,2.54-2.4,2.54c-28.05-0.06-56.1-0.04-84.15-0.04c-0.94,0-1.89,0-2.89,0
		c0.59,2.35,2.04,2.93,4.24,2.92c27.88-0.06,55.75-0.04,83.63-0.05c1.35,0,2.74,0.27,3.69-1.28c0.6-0.99,1.33,0.1,1.98,0.35
		c4.84,1.85,6.75,4.84,5.96,9.29c-0.8,4.48-3.57,6.53-8.87,6.53c-92.25-0.01-184.5-0.02-276.76-0.04c-9.67,0-19.34-0.14-29.01,0.06
		c-4.72,0.1-8.7-1.96-12.53-3.97c-4.23-2.23-8.76-3.56-13.54-6.04c0.73,2.82,1.22,5.05,1.89,7.23c0.6,1.97,0.29,2.87-2.06,2.84
		c-7.84-0.1-15.68-0.08-23.52-0.01c-1.94,0.02-2.42-0.66-2.09-2.5c0.97-5.31,1.82-10.63,2.74-15.95c0.16-0.95,0.48-1.81-0.82-2.34
		c-1.11-0.45-1.61,0.09-2.15,0.83c-3.95,5.35-7.94,10.66-11.82,16.05c-1.8,2.5-3.61,4.02-7.16,3.99
		c-26.31-0.21-52.62-0.11-78.92-0.11c-3.48,0-3.34,0.03-2.4-3.31c2.21-7.89,7.62-12.23,15.3-14.16c4.22-1.06,8.4-2.37,12.68-3.04
		c4.19-0.66,6.43-3.19,8.29-6.58c2.96-5.38,6.03-10.7,9.12-16.01c0.71-1.22,1.18-2.42,1.31-3.86c1.5-16.3,3.06-32.59,4.59-48.88
		c1.28-13.6,2.54-27.21,3.82-40.81c1.81-19.33,3.63-38.65,5.44-57.98c0.67-7.2,1.32-14.39,1.99-21.59c0.08-0.87,0.19-1.66-0.43-2.46
		c-2.08-2.72-4.07-5.5-6.5-8.8c-0.54,3.88-1.01,7.11-1.43,10.34c-3.36,25.26-6.71,50.53-10.06,75.8
		c-1.76,13.28-3.53,26.56-5.29,39.84c-0.5,3.77-0.51,3.77-4.25,3.77c-34.85,0-69.69,0-104.54,0c-3.44,0-3.44,0-3.04-3.46
		c3.27-27.99,6.95-55.93,11.68-83.72c1.52-8.9,3.72-17.69,5.25-26.59c2.44-14.17,1.81-28.3-1.83-42.19
		c-1.18-4.5-3.32-8.75-5.01-13.12c-7.91-20.39-15.8-40.76-23.69-61.14c-4.41-11.4-8.81-22.8-13.21-34.21
		c-4.3-11.16-8.57-22.34-12.91-33.49c-0.89-2.29,0.24-2.93,2.19-3.27c8.4-1.48,16.87-2.65,25.15-4.61
		c10.05-2.37,20.35-3.38,30.34-5.88c9.69-2.42,19.66-3.26,29.31-5.69c10.7-2.7,21.71-3.68,32.39-6.28
		c9.87-2.41,20.01-3.35,29.82-5.83c6.39-1.62,12.9-2.39,19.31-3.81c3.16-0.7,3.41-0.44,3.45,2.86c0.6,46.59,1.21,93.19,1.75,139.78
		c0.03,2.48,0.37,3.9,3.23,4.78c3.02,0.93,5.39,3.53,6.62,6.53c0.79,1.92,1.91,1.75,3.23,1.39c7.62-2.09,15.46-2.93,23.21-4.28
		c1.19-0.21,2.39-0.36,3.78-0.56c0.08,6.04-0.35,12.13,3.14,17.45c-1.02,0.21-2.03,0.48-3.05,0.61c-6.47,0.8-12.95,1.58-19.42,2.36
		c-1.45,0.17-2.25,0.38-1.26,2.2c2.53,4.65,4.88,9.39,7.2,14.15c3.08,6.31,6.19,12.61,9.03,19.03c0.89,2.01,1.82,2.8,4.03,2.58
		c12.51-1.25,25.09-1.42,37.6-2.94c11.55-1.41,23.25-1.61,34.89-2.36c11.81-0.76,23.61-1.54,35.41-2.31
		c6.12-0.14,12.12-1.46,18.21-1.83c0.86,0.04,1.73,0.11,2.59,0.11c22.95,0.02,45.89,0.03,68.84,0.04c1.56,0,3.12-0.07,4.68-0.11
		c0.69,0.08,1.38,0.21,2.07,0.24c12.59,0.4,25.17,0.5,37.76,1.01c20.96,0.86,41.96,0.81,62.94,1.14
		c11.23,0.18,22.46,0.36,33.69,0.53c1.01,0.02,2.08,0.3,2.56-1.12c1.38-4.11,2.93-8.17,4.24-12.3c4.39-13.81,6.81-28,8.13-42.41
		c0.22-2.42-0.05-3.21-2.77-3.2c-52.6,0.09-105.19,0.07-157.79,0.07c-0.96,0-1.91,0.07-2.87,0.1c-0.69-0.03-1.39-0.08-2.08-0.1
		c-3.75-0.12-7.37-3.3-7.8-7.06c-0.6-5.24,2.34-9.59,8.53-9.58c32.64,0.08,65.28,0,97.92,0.09c2.93,0.01,5.27-0.08,5.61-3.7
		c0.05-0.56,0.5-1.1,0.81-1.62c2.3-3.97,4.76-7.86,6.86-11.94C524.53,118.16,526.65,115.76,527.44,112.67z M538.57,136.02
		c-1.82,2.69-2.84,5.78-4.34,8.63c-0.53,1.02-0.39,1.6,0.68,2c0.65,0.24,1.3,0.51,1.9,0.86c5.8,3.32,12.38,0.83,14.58-5.5
		c0.23-0.65,0.56-1.27,0.83-1.91c2.99-6.84,6.61-13.33,10.53-19.67c1.19-1.93,2.05-3.68,0.68-6.18c-2.03-3.7-5.17-5.02-8.96-5.21
		c-2.53-0.13-4.38,1.14-5.43,3.67c-1.46,3.52-3.22,6.91-4.74,10.41c-1.89,4.34-4.27,8.45-5.78,12.95L538.57,136.02z M148.38,173.79
		c-1.38-2.06-2.54-3.76-3.97-5.29c-1.8-1.93-1.39-3.08,1.22-3.68c4.58-1.05,9.16-2.09,13.75-3.09c6.33-1.38,12.39-3.95,18.86-4.58
		c2.57-0.25,2.92-1.02,2.88-3.33c-0.55-33.35-1-66.7-1.46-100.06c-0.18-12.63-0.4-25.25-0.46-37.88c-0.01-2.14-0.64-2.4-2.54-2.06
		c-1.62,0.29-3.03,1.09-4.61,1.42c-9.75,2.02-19.63,3.28-29.33,5.63c-10.85,2.63-22.03,3.63-32.89,6.37
		c-9.56,2.41-19.44,3.22-29.05,5.64c-9.89,2.49-20.08,3.64-30.07,5.8c-12.27,2.66-24.7,4.56-36.97,7.26
		c-1.09,0.24-1.74,0.23-1.16,1.71c5.84,15.03,11.59,30.1,17.4,45.14c4.06,10.52,8.2,21.01,12.27,31.53
		c5.82,15.04,11.6,30.08,17.39,45.13c2.4,6.23,5.33,12.32,7.06,18.73c3.92,14.56,4.33,29.41,1.64,44.26c-2.18,12.06-5,24-6.87,36.12
		c-3.64,23.64-6.83,47.34-9.7,71.09c-0.29,2.36,0.23,2.71,2.4,2.7c30.4-0.07,60.8-0.04,91.2-0.04c3.66,0,7.32-0.06,10.97,0.03
		c1.56,0.04,2.36-0.26,2.47-2.05c0.17-2.77,0.66-5.52,1.03-8.28c2.2-16.38,4.42-32.76,6.62-49.14c3.08-22.93,6.13-45.87,9.22-68.8
		c0.17-1.28,0.02-2.36-0.78-3.41c-2-2.61-4.02-5.22-5.9-7.92c-3.16-4.54-6.32-9.1-9.25-13.79c-0.71-1.14-1.31-1.35-2.43-1.25
		c-2.66,0.25-5.2,1.02-7.81,1.53c-3.41,0.66-6.92,0.82-10.33,1.49c-2.78,0.55-5.27-0.1-7.44-1.56c-1.3-0.87-2.65-1.54-4.03-2.19
		c-2.4-1.12-2.65-3.39-0.49-4.99c1.82-1.35,3.95-2.38,5.45-4.01c1.51-1.64,3.22-2.06,5.2-2.36
		C141.27,175.09,144.67,174.45,148.38,173.79z M426.82,215.41c0,0.95-0.01,1.9,0,2.85c0.27,20.37,0.55,40.74,0.82,61.11
		c0.02,1.21,0.06,2.41-0.29,3.62c-3.85,13.61-7.66,27.23-11.49,40.84c-4.02,14.29-8.03,28.58-12.12,42.84
		c-0.59,2.05,0.1,2.34,1.92,2.3c5.14-0.09,10.28-0.18,15.41,0.03c2.61,0.11,3.9-0.88,4.82-3.19c3.85-9.67,8.72-18.85,14.41-27.55
		c6.82-10.43,14.77-20,23.68-28.69c5.74-5.6,11.65-11.05,18.23-15.74c1.89-1.35,3.72-2.9,5.77-4.57
		C460.59,270.27,440.2,245.81,426.82,215.41z M440.42,388.22c-4.91-5.64-9.54-10.94-14.15-16.27c-0.78-0.91-1.48-0.86-2.48-0.35
		c-2.14,1.08-4.17,2.44-6.3,3.42c-5.66,2.61-10.88,6.04-16.6,8.51c-3.26,1.4-5.96,3.79-9.32,4.96c-0.94,0.33-1.13,0.81-0.46,1.73
		c1.48,2.02,2.84,4.13,4.25,6.21c6.29,9.31,12.56,18.62,18.86,27.92c3.01,4.44,6.23,8.75,8.99,13.34c1.06,1.77,2.02,2.4,4.01,2.39
		c23.6-0.06,47.2-0.04,70.8-0.06c0.72,0,1.53,0.3,2.27-0.3c-1.89-3.13-5.08-4.95-7.3-7.65c-2.28-2.78-4.88-5.25-8.04-6.67
		c-6.63-2.98-12.83-6.8-19.56-9.56c-0.56-0.23-1.13-0.46-1.66-0.75c-9.65-5.27-19.45-10.24-29.67-14.35
		c-3.18-1.27-6.67-1.77-9.52-3.9c-0.6-0.45-1.57-0.51-1.46-1.55c0.12-1.15,1.19-1.2,1.96-1.43
		C430.14,392.34,434.77,389.58,440.42,388.22z M490.01,325.03c-0.18,0-0.37,0-0.55,0c0-10.53,0.01-21.07-0.02-31.6
		c0-0.54,0.37-1.27-0.37-1.61c-0.21-0.09-0.69,0.13-0.89,0.35c-2.78,3.1-6.53,4.98-9.66,7.67c-6.48,5.57-12.73,11.32-18.58,17.56
		c-6.7,7.14-12.63,14.83-18.04,22.98c-5.53,8.34-9.92,17.24-13.93,26.37c-0.75,1.7-0.53,2.23,1.47,2.22
		c17.15-0.07,34.31-0.03,51.46-0.05c0.64,0,1.24,0.1,1.92-0.42c4.86-3.74,7.41-8.41,7.24-14.75
		C489.82,344.19,490.01,334.61,490.01,325.03z M503.6,291.64c0,0.98,0,1.92,0,2.85c0.03,19.51,0.15,39.02,0.04,58.52
		c-0.04,6.18,2.16,11.11,6.54,15.29c0.62,0.59,1.14,0.63,1.8,0.63c16.98,0.01,33.97-0.01,50.95,0.03c1.57,0,2.01-0.3,1.35-1.9
		c-6-14.67-13.92-28.22-23.66-40.7c-4.62-5.92-9.65-11.53-15.08-16.7C518.75,303.21,511.79,296.91,503.6,291.64z M271.4,440.25
		c0.15,0.03,0.29,0.07,0.44,0.1c1.58-4.53,3.21-9.04,4.72-13.59c6.03-18.1,12.02-36.22,18.04-54.32
		c4.41-13.24,8.92-26.46,13.29-39.72c6.76-20.51,14.51-40.66,22.02-60.9c1.69-4.55,3.33-9.11,5-13.67c0.31-0.84,0.64-1.78-0.57-2.15
		c-0.99-0.3-1.38,0.5-1.66,1.25c-2.25,6.02-4.49,12.03-6.71,18.06c-4.09,11.06-8.15,22.12-12.26,33.17
		c-0.21,0.58-0.23,1.57-1.17,1.5c-2.12-0.16-3.97,0.96-6.07,1.07c-8,0.4-15.99,1.04-23.98,1.48c-1.47,0.08-1.91,0.59-2.01,1.98
		c-1.24,17.8-2.5,35.6-3.79,53.4c-1.1,15.19-2.25,30.38-3.36,45.57C272.67,422.41,272.04,431.33,271.4,440.25z M124.51,439.87
		c0.58,0.08,0.84,0.14,1.1,0.14c26.38,0.01,52.76,0,79.14,0.05c1.43,0,2.4-0.49,2.94-1.66c0.33-0.73,0.78-1.34,1.24-1.95
		c3.75-4.97,7.5-9.94,11.31-14.86c0.98-1.27,1.05-1.97-0.62-2.67c-3.96-1.66-7.99-3.14-11.79-5.23c-3.9-2.15-8.15-3.69-12.24-5.46
		c-7.37-3.19-14.54-6.86-22.04-9.78c-1.76-0.69-2.57-0.4-3.46,1.19c-3.96,7.1-8.03,14.13-12.03,21.2c-0.6,1.06-1.35,1.77-2.56,1.98
		c-6.82,1.2-13.26,3.81-19.97,5.44C129.56,429.7,126.36,433.97,124.51,439.87z M160.42,173.45c0.54,0.9,0.94,1.45,1.23,2.06
		c1.45,3.04,2.63,6.29,1.15,9.5c-1.11,2.4-0.52,4.02,0.94,5.78c0.77,0.94,1.5,1.92,2.15,2.95c6.98,11.02,15.14,21.18,22.98,31.58
		c1.11,1.48,2.13,1.52,3.74,1.06c7.38-2.12,14.44-5.27,21.94-6.98c2.58-0.59,2.18-1.67,1.31-3.41c-2.69-5.42-5.25-10.91-7.94-16.33
		c-2.42-4.89-4.95-9.72-7.42-14.58c-0.62-1.22-1.5-2.45-2.92-1.95c-3.09,1.08-6.31,0.98-9.46,1.46c-1.65,0.25-3.24,0.37-4.38,1.87
		c-0.91,1.2-1.89,0.94-2.78-0.15c-2.84-3.47-6.09-6.57-9.55-9.38C168.41,174.49,164.95,172.84,160.42,173.45z M539.08,106.68
		c-3.84,0.31-6.57,2.5-8.39,5.65c-3.34,5.76-6.56,11.6-9.89,17.36c-1.54,2.66-3.49,5.18-4.02,8.39c-0.53,3.22,0.65,6.29,3.15,7.65
		c3.33,1.81,9.15,1.91,10.95,0.13c0.47-0.46,0.74-1.15,1.03-1.77c2.77-5.87,5.55-11.73,8.29-17.62c2.34-5.02,4.65-10.06,6.97-15.1
		c0.23-0.51,0.87-1.3,0-1.52C544.35,109.15,542.27,106.54,539.08,106.68z M562.28,147.37c3.61,0.64,6.84-0.73,8.6-4.7
		c0.57-1.28,1.37-2.4,1.97-3.64c1.95-4.06,4.01-8.06,5.83-12.18c1.33-3.01,0.7-6.78-1.44-8.44c-2.61-2.03-5.63-2.62-8.86-1.47
		c-0.96,0.34-1.6,0.97-2.1,1.84c-1.83,3.23-3.71,6.44-5.53,9.68c-2.84,5.06-5.46,10.22-7.61,15.62c-0.6,1.52,0.02,1.81,1.1,2.2
		C556.66,147.15,559.18,147.27,562.28,147.37z M148.87,169.46c-0.1,0.91,0.81,1.12,1.04,1.75c0.84,2.29,2.13,2.74,4.35,1.5
		c4.03-2.27,8.29-3.31,12.78-1.22c0.27,0.13,0.42,0.1,0.65,0.04c6.99-1.72,14.15-2.46,21.22-3.68c2.59-0.45,2.86-1.02,1.18-3.24
		c-2.78-3.67-7.04-4.29-11.13-5.22c-1.57-0.36-2.64,1.01-4.08,1.3c-4.42,0.88-8.8,1.99-13.21,2.95c-1.93,0.42-3.85,0.6-4.45,3.11
		c-0.24,1.01-1.47,1.64-2.5,2.16C152.84,169.85,150.83,169.38,148.87,169.46z M228.09,423.02c-0.89,5.28-1.73,10.4-2.62,15.52
		c-0.21,1.2,0.25,1.51,1.37,1.51c6.61-0.03,13.22-0.02,19.83-0.01c0.97,0,1.48-0.17,1.15-1.33c-0.69-2.42-1.31-4.85-1.92-7.29
		c-0.15-0.58-0.54-0.91-1.03-1.07C239.14,428.46,234.06,425.06,228.09,423.02z M160.09,185.51c1.52-3.71,0.43-8.87-1.9-10.88
		c-1.45-1.25-2.61,0.05-3.77,0.53c-1.6,0.66-0.07,1.48,0.21,1.99C156.14,179.95,158.54,182.13,160.09,185.51z M150.31,166.86
		c1.69,0.39,3.46,0.61,4.85-1.79C153.2,165.79,151.76,166.32,150.31,166.86z"/>
	<path class="st2" d="M330.94,212.56c-11.8,0.77-23.61,1.55-35.41,2.31c-11.63,0.75-23.33,0.96-34.89,2.36
		c-12.51,1.52-25.09,1.69-37.6,2.94c-2.21,0.22-3.14-0.57-4.03-2.58c-2.84-6.42-5.95-12.72-9.03-19.03
		c-2.32-4.76-4.67-9.5-7.2-14.15c-0.99-1.82-0.19-2.03,1.26-2.2c6.48-0.77,12.95-1.55,19.42-2.36c1.03-0.13,2.04-0.4,3.05-0.61
		c0.58-0.08,1.15-0.15,1.73-0.23c5.91,0.85,10.44-3.49,10.97-9.1c10.34-2.58,20.33-6.32,30.53-9.39c4.61-1.39,9.22-2.84,13.83-4.25
		c1.49-0.45,2.49-1.22,3.3-2.64c1.41-2.47,3.42-4.56,5.09-6.88c5.49-7.66,11.16-15.19,16.83-22.72c1.08-1.43,1.97-3.14,3.78-3.86
		c1.43-0.57,1.33-1.33,0.46-2.34c-1.47-1.71-2.81-3.5-4.05-5.39c-1.95-3-1.92-3.8,0.9-6.28c0.83-0.25,1.48-0.75,2-1.43
		c2.28-0.81,3.69-2.79,5.57-4.15c4.41-3.2,9.04-6.18,13.13-9.75c3.25-2.84,7.32-4.63,10.05-8.08c0.82-0.23,1.44-0.76,1.99-1.37
		c0.38-0.2,0.78-0.38,1.14-0.62c4.12-2.78,4.86-2.56,6.65,2.14c1.73,4.53,3.42,9.08,5.17,13.76c0.77-0.5,1.35-0.93,1.97-1.27
		c3.86-2.12,8.02-3.67,11.56-6.38c4.18-3.2,9.26-2.59,14.05-3.07c5.45-0.55,10.97-0.58,16.39-1.29c22.16-2.89,44.5-3.59,66.7-5.86
		c4.36-0.45,8.73-1.01,13.11-1.43c1.56-0.15,2.6,0.31,3.84,1.45c2.66,2.44,5.71,4.48,8.62,6.63c4.39,3.23,8.69,6.59,13.02,9.89
		c7.55,5.75,14.97,11.66,22.58,17.34c-0.79,3.09-2.91,5.49-4.33,8.25c-2.1,4.08-4.56,7.96-6.86,11.94c-0.3,0.53-0.75,1.06-0.81,1.62
		c-0.34,3.62-2.68,3.71-5.61,3.7c-32.64-0.08-65.28-0.01-97.92-0.09c-6.19-0.01-9.13,4.33-8.53,9.58c0.43,3.75,4.05,6.94,7.8,7.06
		c0.69,0.02,1.39,0.06,2.08,0.1c0.52,3.35,1.02,6.7,1.57,10.05c2.55,15.51,4.82,31.08,10.45,45.89c-1.56,0.04-3.12,0.11-4.68,0.11
		c-22.95,0-45.89-0.02-68.84-0.04c-0.87,0-1.73-0.07-2.59-0.11c-5.35-14.43-13.18-27.68-19.63-41.58c-0.37-0.79-0.88-1.71-1.97-1.07
		c-1.06,0.63-0.46,1.5-0.08,2.28c4.64,9.4,9.25,18.82,13.95,28.2c0.85,1.7,1,2.82-0.68,4.2c-3,2.47-5.72,5.28-8.63,7.88
		C331.49,211.2,331.21,211.85,330.94,212.56z"/>
	<path class="st3" d="M311.88,104.73c-0.52,0.68-1.18,1.18-2,1.43c-1.38-3.84-2.82-7.66-4.11-11.53c-0.58-1.74-1.3-2.37-3.12-1.43
		c-1.69,0.88-3.54,1.43-5.3,2.18c-1.5,0.64-2.42,0.38-2.35-1.42c0.27-7.12-0.22-14.34,1.24-21.34c1.41-6.76,5.09-12.27,11.34-15.81
		c-2.89-2.23-5.63-4.42-5.4-8.57c0.11-1.91,1.54-3.45,1.58-5.12c0.05-1.71-2.64-2.06-3.29-3.85c-1.3-3.59-0.07-8.48,3.75-9.53
		c1.17-0.32,2.26-0.9,3.38-1.36c2.47-1,4.79-0.75,6.84,1c2.18,1.86,2.67,4.46,1.84,6.9c-0.71,2.08-0.05,2.57,1.61,3.39
		c3.56,1.74,4.79,5.93,3.32,10.45c-0.18,0.57-0.47,1.1-0.7,1.63c0.18,0.16,0.31,0.37,0.42,0.37c6.38-0.39,9.15,3.92,11.54,8.78
		c3.36,6.83,6.75,13.64,10.13,20.46c-0.56,0.62-1.17,1.15-1.99,1.38c-1.76-3.57-3.56-7.12-5.26-10.72
		c-0.83-1.76-2.05-2.94-3.91-3.56c-4.21-1.4-8.38,0.67-9.73,4.91c-0.37,1.17-0.66,2.54-2.35,1.87c-1.89-0.75-2.5,0.39-3.31,1.73
		c-2.88,4.76-7.48,6.85-12.46,5.96c-1.64-0.29-2.2-0.91-1.85-2.62c0.83-4.02,2.96-7.11,6.25-9.48c0.46-0.33,1.72-0.5,0.62-1.37
		c-2.04-1.62-3.18-5.45-5.33-5.23c-2.52,0.25-2.87,4.11-4.09,6.44c-0.28,0.53-0.42,1.14-0.55,1.73c-1.42,6.26-0.84,12.65-1.22,18.98
		c-0.05,0.85,0.13,1.41,1.16,0.98c1.68-0.71,3.61-1.1,4.98-2.19c1.8-1.44,2.66-1.26,3.21,0.86c0.48,1.89,1.51,1.83,2.83,0.89
		c0.78-0.55,1.5-1.1,1.76-2.15c0.18-0.72,0.85-1.16,1.64-0.78c0.76,0.36,0.84,1.11,0.58,1.8c-0.63,1.75-1.93,2.95-3.62,3.53
		c-1.52,0.52-1.5,1.37-1.04,2.58C309.95,99.52,310.91,102.13,311.88,104.73z M307.42,80.41c3.35-0.52,7.2-4.12,7.9-7.1
		c0.31-1.33-0.2-1.57-1.43-1.65c-2.27-0.14-3.85,1.17-5.55,2.27c-0.82,0.53-1.18,0.94-0.31,1.96
		C309.26,77.33,309.01,78.92,307.42,80.41z"/>
	<path class="st3" d="M239.21,169.92c-0.53,5.61-5.06,9.95-10.97,9.1c-0.58-3.63-2.71-6.9-2.43-10.73c0.06-0.86-0.11-1.73-0.12-2.6
		c-0.08-4.81-0.02-4.87,4.8-5.09C235.35,160.38,238.59,163.84,239.21,169.92z"/>
	<path class="st4" d="M148.38,173.79c-3.71,0.65-7.11,1.3-10.52,1.83c-1.98,0.31-3.69,0.73-5.2,2.36c-1.5,1.63-3.64,2.66-5.45,4.01
		c-2.16,1.6-1.91,3.87,0.49,4.99c1.38,0.65,2.73,1.31,4.03,2.19c2.18,1.46,4.66,2.1,7.44,1.56c3.41-0.67,6.92-0.83,10.33-1.49
		c2.6-0.51,5.15-1.28,7.81-1.53c1.12-0.1,1.72,0.1,2.43,1.25c2.93,4.69,6.09,9.25,9.25,13.79c1.88,2.7,3.89,5.31,5.9,7.92
		c0.8,1.05,0.95,2.13,0.78,3.41c-3.09,22.93-6.15,45.87-9.22,68.8c-2.2,16.38-4.41,32.76-6.62,49.14c-0.37,2.76-0.86,5.51-1.03,8.28
		c-0.11,1.8-0.92,2.09-2.47,2.05c-3.66-0.09-7.32-0.03-10.97-0.03c-30.4,0-60.8-0.02-91.2,0.04c-2.17,0-2.68-0.34-2.4-2.7
		c2.88-23.75,6.06-47.45,9.7-71.09c1.87-12.12,4.68-24.06,6.87-36.12c2.69-14.84,2.28-29.69-1.64-44.26
		c-1.72-6.41-4.66-12.5-7.06-18.73c-5.79-15.05-11.58-30.09-17.39-45.13c-4.07-10.52-8.2-21.01-12.27-31.53
		c-5.81-15.04-11.56-30.11-17.4-45.14c-0.57-1.48,0.08-1.47,1.16-1.71c12.27-2.7,24.71-4.6,36.97-7.26
		c9.99-2.16,20.18-3.31,30.07-5.8c9.6-2.42,19.49-3.24,29.05-5.64c10.86-2.74,22.05-3.74,32.89-6.37
		c9.71-2.35,19.59-3.61,29.33-5.63c1.58-0.33,2.99-1.13,4.61-1.42c1.91-0.34,2.53-0.07,2.54,2.06c0.06,12.63,0.28,25.25,0.46,37.88
		c0.47,33.35,0.91,66.71,1.46,100.06c0.04,2.31-0.31,3.08-2.88,3.33c-6.46,0.63-12.53,3.21-18.86,4.58c-4.59,1-9.17,2.04-13.75,3.09
		c-2.61,0.6-3.02,1.75-1.22,3.68C145.84,170.04,147,171.74,148.38,173.79z M75.47,57.76c-6.96-1.91-13.18-1.18-17.89,4.98
		c-1.31-0.34-1.73-1.61-2.53-2.47c-0.81-0.87-1.41-1.02-2.22,0.1c-2.68,3.7-2.72,3.68-0.04,7.25c0.36,0.48,0.77,0.93,1.15,1.4
		c-0.13,0.22-0.3,0.43-0.38,0.67c-2.38,7.79-1.18,15.07,3.95,21.33c3.7,4.51,10.8,7.29,15.55,5.65c7.98-2.76,12.74-8.46,13.75-16.86
		c0.75-6.31-0.33-12.29-5.02-17.11c1.94-5.66,3.83-11.33,5.84-16.96c1.63-4.58,1.64-4.42-2.86-6.02c-2.19-0.78-3-0.28-3.69,1.87
		C79.34,47.01,77.35,52.37,75.47,57.76z M68.78,123.35c-1.29,2.8-1.93,5.76-1.99,8.82c-0.13,6.79,2.27,12.63,7.38,17.07
		c5.07,4.4,15.77,5.3,22.16-2.43c7.14-8.64,6.54-22.76-1.81-30.2c2.05-5.98,4.03-11.99,6.17-17.94c1.73-4.8,1.78-4.67-3.08-6.31
		c-1.83-0.62-2.62-0.27-3.22,1.54c-2.1,6.33-4.33,12.63-6.51,18.93c-6.02-1.65-10.78,0.87-15.18,4.59c-0.99-0.84-1.92-1.76-2.97-2.5
		c-1.08-0.76-1.31-2.72-2.61-2.67c-1.49,0.06-1.33,2.18-2.39,3.08c-1.21,1.03-1.27,1.94-0.07,3.4
		C65.99,120.32,67.63,121.62,68.78,123.35z M113.12,324.73c7.58,0,15.16-0.14,22.73,0.05c4.6,0.11,7.42-3.01,7.58-7.44
		c0.19-5.22,0.1-10.45,0.03-15.67c-0.07-4.99-2.65-7.53-7.65-7.54c-14.98-0.03-29.96-0.03-44.94,0c-4.99,0.01-7.54,2.56-7.6,7.59
		c-0.07,5.14-0.09,10.28,0.01,15.41c0.09,4.46,2.96,7.8,7.64,7.66C98.31,324.57,105.71,324.73,113.12,324.73z M124.24,221.09
		c0,0.12,0,0.25,0,0.37c-12.28,0-24.55,0.02-36.83-0.02c-1.69-0.01-2.72,0.22-2.91,2.3c-1.53,16.98-3.15,33.95-4.78,50.92
		c-0.17,1.8,0.43,2.49,2.3,2.49c24.12-0.04,48.24-0.04,72.36,0.01c1.86,0,2.41-0.76,2.56-2.42c0.22-2.51,0.6-5.01,0.91-7.51
		c1.82-14.41,3.61-28.82,5.48-43.22c0.3-2.33-0.43-2.99-2.78-2.97C148.45,221.15,136.35,221.09,124.24,221.09z M79.42,182.73
		c0.05,8.41,2.72,14.75,8.91,18.58c8.65,5.35,17.55,2.16,22.55-6.13c5.56-9.22,3.38-23-5.79-29.07c-4.11-2.72-12.02-3.15-15.5-0.95
		C82.78,169.46,79.42,175.75,79.42,182.73z M106.67,67.84c2.41-0.16,4.71-0.98,7.06-1.31c15.53-2.22,31.21-3.35,46.66-6.24
		c0.99-0.18,2.4,0.01,2.15-1.53c-0.21-1.31-1.43-0.93-2.37-0.79c-8.91,1.3-17.93,1.7-26.76,3.66c-4.48,0.99-9.14,1.15-13.71,1.7
		c-4.32,0.52-8.63,1.04-12.95,1.57c-1.03,0.12-1.88,0.36-1.69,1.74C105.21,67.63,105.76,67.94,106.67,67.84z M114.48,133.85
		c0.3-0.04,0.9-0.13,1.5-0.2c9.81-1.09,19.56-2.56,29.31-4.01c7.13-1.06,14.32-1.74,21.47-2.69c1.18-0.16,3.31,0.31,3-1.88
		c-0.32-2.19-2.24-1.05-3.41-0.95c-2.39,0.2-4.73,0.81-7.08,1.27c-4.42,0.86-8.97,1.09-13.45,1.7c-10.55,1.44-21.21,2.1-31.66,4.32
		c-0.83,0.18-1.94,0.19-1.94,1.33C112.25,133.93,113.26,133.93,114.48,133.85z M107.98,75.91c0.61-0.06,1.21-0.1,1.82-0.19
		c8.64-1.27,17.33-2.07,25.95-3.58c8.38-1.46,16.89-2.12,25.34-3.16c1.08-0.13,2.45-0.07,2.26-1.8c-0.2-1.84-1.6-1.28-2.61-1.12
		c-3.91,0.6-7.8,1.38-11.72,1.93c-13.64,1.92-27.42,2.78-40.95,5.49c-0.93,0.19-2.4-0.06-2.21,1.53
		C106,76.22,107.14,75.92,107.98,75.91z M165.93,115.54c-0.6,0.06-1.12,0.09-1.63,0.17c-10.19,1.52-20.47,2.25-30.62,4.13
		c-6.82,1.26-13.79,1.75-20.69,2.6c-1.08,0.13-2.45,0.09-2.09,1.85c0.34,1.65,1.6,1.26,2.65,1.05c1.08-0.22,2.02-0.79,3.17-0.93
		c16.43-2.03,32.92-3.7,49.25-6.49c0.94-0.16,2.46,0.13,2.37-1.37C168.25,114.99,166.82,115.59,165.93,115.54z"/>
	<path class="st5" d="M425.26,210.77c-5.63-14.81-7.9-30.38-10.45-45.89c-0.55-3.34-1.05-6.7-1.57-10.05
		c0.96-0.04,1.91-0.1,2.87-0.1c52.6-0.01,105.19,0.02,157.79-0.07c2.71,0,2.99,0.78,2.77,3.2c-1.33,14.41-3.75,28.6-8.13,42.41
		c-1.31,4.13-2.86,8.18-4.24,12.3c-0.47,1.42-1.55,1.14-2.56,1.12c-11.23-0.17-22.46-0.35-33.69-0.53
		c-20.98-0.33-41.98-0.29-62.94-1.14c-12.59-0.51-25.18-0.62-37.76-1.01C426.64,210.98,425.95,210.85,425.26,210.77z"/>
	<path class="st0" d="M426.82,215.41c13.38,30.4,33.77,54.87,61.16,73.85c-2.05,1.67-3.88,3.22-5.77,4.57
		c-6.57,4.69-12.49,10.14-18.23,15.74c-8.91,8.7-16.86,18.27-23.68,28.69c-5.69,8.7-10.56,17.88-14.41,27.55
		c-0.92,2.31-2.22,3.3-4.82,3.19c-5.13-0.21-10.27-0.12-15.41-0.03c-1.82,0.03-2.5-0.26-1.92-2.3c4.1-14.26,8.1-28.56,12.12-42.84
		c3.83-13.61,7.64-27.23,11.49-40.84c0.34-1.21,0.3-2.41,0.29-3.62c-0.27-20.37-0.55-40.74-0.82-61.11
		C426.81,217.31,426.82,216.36,426.82,215.41z"/>
	<path class="st6" d="M440.42,388.22c-5.65,1.36-10.28,4.12-15.39,5.65c-0.77,0.23-1.84,0.28-1.96,1.43
		c-0.11,1.04,0.86,1.1,1.46,1.55c2.84,2.12,6.34,2.62,9.52,3.9c10.22,4.1,20.02,9.07,29.67,14.35c0.53,0.29,1.1,0.52,1.66,0.75
		c6.73,2.76,12.93,6.57,19.56,9.56c3.16,1.42,5.76,3.89,8.04,6.67c2.22,2.7,5.41,4.52,7.3,7.65c-0.74,0.6-1.54,0.3-2.27,0.3
		c-23.6,0.02-47.2,0-70.8,0.06c-1.98,0.01-2.94-0.62-4.01-2.39c-2.75-4.59-5.98-8.9-8.99-13.34c-6.3-9.3-12.57-18.61-18.86-27.92
		c-1.4-2.08-2.77-4.19-4.25-6.21c-0.67-0.91-0.48-1.4,0.46-1.73c3.36-1.18,6.07-3.56,9.32-4.96c5.71-2.46,10.94-5.89,16.6-8.51
		c2.13-0.98,4.16-2.34,6.3-3.42c1-0.51,1.7-0.56,2.48,0.35C430.88,377.28,435.51,382.58,440.42,388.22z"/>
	<path class="st7" d="M490.01,325.03c0,9.57-0.19,19.15,0.07,28.72c0.17,6.34-2.38,11.01-7.24,14.75c-0.68,0.52-1.28,0.42-1.92,0.42
		c-17.15,0.02-34.31-0.01-51.46,0.05c-2,0.01-2.22-0.53-1.47-2.22c4.01-9.13,8.4-18.03,13.93-26.37
		c5.4-8.16,11.34-15.84,18.04-22.98c5.85-6.23,12.1-11.99,18.58-17.56c3.13-2.69,6.88-4.57,9.66-7.67c0.2-0.22,0.68-0.45,0.89-0.35
		c0.73,0.33,0.36,1.07,0.37,1.61c0.03,10.53,0.02,21.07,0.02,31.6C489.64,325.03,489.82,325.03,490.01,325.03z"/>
	<path class="st7" d="M503.6,291.64c8.19,5.27,15.15,11.58,21.94,18.04c5.43,5.17,10.46,10.78,15.08,16.7
		c9.74,12.47,17.66,26.03,23.66,40.7c0.65,1.6,0.22,1.9-1.35,1.9c-16.98-0.04-33.97-0.02-50.95-0.03c-0.66,0-1.18-0.04-1.8-0.63
		c-4.38-4.19-6.57-9.12-6.54-15.29c0.11-19.51-0.01-39.01-0.04-58.52C503.6,293.55,503.6,292.61,503.6,291.64z"/>
	<path class="st0" d="M271.4,440.25c0.64-8.92,1.27-17.84,1.92-26.76c1.11-15.19,2.26-30.38,3.36-45.57
		c1.29-17.8,2.56-35.6,3.79-53.4c0.1-1.39,0.54-1.9,2.01-1.98c8-0.44,15.98-1.08,23.98-1.48c2.1-0.11,3.95-1.23,6.07-1.07
		c0.94,0.07,0.96-0.92,1.17-1.5c4.11-11.05,8.18-22.11,12.26-33.17c2.23-6.02,4.47-12.04,6.71-18.06c0.28-0.75,0.68-1.55,1.66-1.25
		c1.21,0.37,0.87,1.3,0.57,2.15c-1.66,4.56-3.31,9.12-5,13.67c-7.51,20.24-15.26,40.39-22.02,60.9
		c-4.37,13.26-8.88,26.47-13.29,39.72c-6.03,18.1-12.01,36.22-18.04,54.32c-1.52,4.55-3.15,9.06-4.72,13.59
		C271.69,440.32,271.55,440.28,271.4,440.25z"/>
	<path class="st7" d="M124.51,439.87c1.85-5.9,5.06-10.17,11.03-11.62c6.71-1.63,13.15-4.24,19.97-5.44
		c1.21-0.21,1.96-0.93,2.56-1.98c4-7.07,8.07-14.1,12.03-21.2c0.89-1.59,1.69-1.88,3.46-1.19c7.5,2.92,14.66,6.59,22.04,9.78
		c4.09,1.77,8.34,3.31,12.24,5.46c3.8,2.09,7.82,3.57,11.79,5.23c1.67,0.7,1.6,1.4,0.62,2.67c-3.81,4.92-7.55,9.9-11.31,14.86
		c-0.46,0.61-0.91,1.22-1.24,1.95c-0.53,1.17-1.51,1.66-2.94,1.66C178.38,440,152,440.01,125.62,440
		C125.35,440.01,125.09,439.95,124.51,439.87z"/>
	<path class="st6" d="M160.42,173.45c4.53-0.61,7.98,1.04,10.98,3.47c3.46,2.81,6.71,5.9,9.55,9.38c0.89,1.09,1.87,1.35,2.78,0.15
		c1.13-1.49,2.73-1.62,4.38-1.87c3.15-0.47,6.37-0.38,9.46-1.46c1.43-0.5,2.31,0.74,2.92,1.95c2.47,4.86,5,9.69,7.42,14.58
		c2.69,5.42,5.24,10.91,7.94,16.33c0.86,1.74,1.27,2.83-1.31,3.41c-7.5,1.71-14.56,4.86-21.94,6.98c-1.61,0.46-2.62,0.42-3.74-1.06
		c-7.83-10.4-16-20.56-22.98-31.58c-0.65-1.03-1.38-2.01-2.15-2.95c-1.45-1.76-2.04-3.38-0.94-5.78c1.48-3.21,0.29-6.46-1.15-9.5
		C161.37,174.9,160.97,174.35,160.42,173.45z"/>
	<path class="st8" d="M539.08,106.68c3.19-0.14,5.27,2.47,8.1,3.17c0.87,0.22,0.23,1.01,0,1.52c-2.32,5.04-4.63,10.07-6.97,15.1
		c-2.74,5.88-5.52,11.75-8.29,17.62c-0.29,0.62-0.56,1.31-1.03,1.77c-1.81,1.78-7.63,1.68-10.95-0.13
		c-2.51-1.36-3.69-4.43-3.15-7.65c0.53-3.21,2.48-5.73,4.02-8.39c3.34-5.77,6.56-11.6,9.89-17.36
		C532.51,109.19,535.24,106.99,539.08,106.68z M526.01,142.65c2.56-0.05,5.57-2.88,5.27-5.05c-0.08-0.61-0.11-1.46-1-1.6
		c-0.87-0.14-0.99,0.63-1.1,1.17c-0.45,2.18-1.87,2.71-3.87,2.5c-1.96-0.21-3.33-0.94-3.41-3.16c-0.03-0.87-0.4-1.59-1.42-1.4
		c-0.85,0.16-0.92,0.92-0.93,1.65C519.47,139.64,522.83,142.7,526.01,142.65z"/>
	<path class="st8" d="M538.53,136.07c1.51-4.5,3.9-8.61,5.78-12.95c1.52-3.49,3.28-6.89,4.74-10.41c1.04-2.52,2.89-3.8,5.43-3.67
		c3.79,0.19,6.93,1.51,8.96,5.21c1.37,2.5,0.51,4.25-0.68,6.18c-3.92,6.34-7.54,12.83-10.53,19.67c-0.28,0.64-0.61,1.26-0.83,1.91
		c-2.19,6.33-8.78,8.82-14.58,5.5c-0.6-0.34-1.25-0.61-1.9-0.86c-1.07-0.4-1.22-0.99-0.68-2c1.5-2.85,2.52-5.94,4.35-8.64
		c0.72,0.71,0.17,1.63,0.39,2.46c0.71,2.58,3.24,4.51,6.1,4.7c2.8,0.18,4.7-1.97,5.37-3.97c0.26-0.78,0.36-1.63-0.54-2.05
		c-1.01-0.46-1.45,0.3-1.65,1.1c-0.57,2.27-2.32,2.01-3.97,1.89c-1.63-0.12-2.91-0.83-3.02-2.64
		C541.13,135.41,540.04,135.41,538.53,136.07z"/>
	<path class="st9" d="M562.28,147.37c-3.1-0.1-5.62-0.22-8.03-1.09c-1.08-0.39-1.71-0.68-1.1-2.2c2.15-5.4,4.77-10.56,7.61-15.62
		c1.82-3.24,3.7-6.45,5.53-9.68c0.49-0.87,1.14-1.5,2.1-1.84c3.23-1.15,6.24-0.56,8.86,1.47c2.14,1.67,2.77,5.44,1.44,8.44
		c-1.82,4.11-3.88,8.12-5.83,12.18c-0.6,1.24-1.4,2.36-1.97,3.64C569.12,146.63,565.89,148,562.28,147.37z M563.79,144.06
		c3.03-0.02,4.68-1.31,5.16-4.05c0.14-0.78,0.27-1.66-0.75-1.93c-0.82-0.22-1.26,0.32-1.44,1.1c-0.43,1.85-1.82,2.11-3.42,2.01
		c-1.78-0.1-3.27-0.61-3.66-2.62c-0.16-0.83-0.39-1.67-1.41-1.46c-1.17,0.25-0.95,1.29-0.83,2.13
		C557.87,142.37,560.17,144.08,563.79,144.06z"/>
	<path class="st9" d="M148.87,169.46c1.96-0.08,3.97,0.39,5.85-0.56c1.03-0.52,2.26-1.15,2.5-2.16c0.6-2.51,2.52-2.69,4.45-3.11
		c4.41-0.97,8.79-2.07,13.21-2.95c1.43-0.29,2.5-1.65,4.08-1.3c4.08,0.93,8.35,1.55,11.13,5.22c1.69,2.23,1.41,2.79-1.18,3.24
		c-7.07,1.23-14.23,1.96-21.22,3.68c-0.24,0.06-0.38,0.09-0.65-0.04c-4.49-2.09-8.75-1.05-12.78,1.22c-2.22,1.25-3.51,0.79-4.35-1.5
		C149.68,170.58,148.76,170.36,148.87,169.46z"/>
	<path class="st9" d="M228.09,423.02c5.97,2.04,11.05,5.44,16.78,7.33c0.49,0.16,0.88,0.49,1.03,1.07c0.62,2.44,1.23,4.88,1.92,7.29
		c0.33,1.16-0.19,1.34-1.15,1.33c-6.61-0.02-13.22-0.02-19.83,0.01c-1.12,0.01-1.58-0.31-1.37-1.51
		C226.36,433.42,227.2,428.29,228.09,423.02z"/>
	<path class="st9" d="M330.94,212.56c0.27-0.71,0.55-1.36,1.18-1.92c2.91-2.6,5.63-5.41,8.63-7.88c1.68-1.38,1.53-2.5,0.68-4.2
		c-4.7-9.37-9.31-18.79-13.95-28.2c-0.38-0.78-0.99-1.65,0.08-2.28c1.08-0.64,1.6,0.28,1.97,1.07
		c6.45,13.91,14.29,27.16,19.63,41.58C343.06,211.1,337.06,212.42,330.94,212.56z"/>
	<path class="st9" d="M160.09,185.51c-1.55-3.38-3.95-5.56-5.46-8.35c-0.27-0.51-1.81-1.33-0.21-1.99c1.16-0.48,2.32-1.78,3.77-0.53
		C160.52,176.64,161.61,181.8,160.09,185.51z"/>
	<path class="st9" d="M150.31,166.86c1.45-0.54,2.9-1.07,4.85-1.79C153.77,167.47,151.99,167.25,150.31,166.86z"/>
	<path class="st8" d="M311.88,104.73c-0.97-2.6-1.93-5.21-2.93-7.8c-0.46-1.21-0.48-2.06,1.04-2.58c1.69-0.58,2.99-1.78,3.62-3.53
		c0.25-0.7,0.18-1.44-0.58-1.8c-0.8-0.38-1.47,0.05-1.64,0.78c-0.26,1.05-0.98,1.6-1.76,2.15c-1.32,0.94-2.35,1-2.83-0.89
		c-0.54-2.12-1.4-2.3-3.21-0.86c-1.37,1.09-3.3,1.48-4.98,2.19c-1.03,0.43-1.21-0.13-1.16-0.98c0.38-6.33-0.2-12.72,1.22-18.98
		c0.13-0.59,0.27-1.2,0.55-1.73c1.22-2.33,1.57-6.18,4.09-6.44c2.15-0.22,3.29,3.61,5.33,5.23c1.09,0.87-0.17,1.04-0.62,1.37
		c-3.29,2.37-5.42,5.46-6.25,9.48c-0.35,1.7,0.21,2.32,1.85,2.62c4.98,0.89,9.59-1.2,12.46-5.96c0.81-1.34,1.41-2.48,3.31-1.73
		c1.69,0.67,1.97-0.7,2.35-1.87c1.35-4.24,5.52-6.31,9.73-4.91c1.86,0.62,3.08,1.8,3.91,3.56c1.7,3.6,3.5,7.15,5.26,10.72
		c-2.74,3.44-6.8,5.24-10.05,8.08c-4.09,3.58-8.71,6.55-13.13,9.75C315.58,101.93,314.17,103.92,311.88,104.73z"/>
	<path class="st9" d="M307.42,80.41c1.59-1.49,1.84-3.08,0.61-4.52c-0.87-1.02-0.51-1.43,0.31-1.96c1.7-1.1,3.29-2.41,5.55-2.27
		c1.23,0.07,1.74,0.32,1.43,1.65C314.62,76.29,310.77,79.89,307.42,80.41z"/>
	<path class="st2" d="M113.12,324.73c-7.4,0-14.81-0.16-22.21,0.06c-4.68,0.14-7.55-3.2-7.64-7.66c-0.1-5.14-0.08-10.28-0.01-15.41
		c0.07-5.03,2.61-7.58,7.6-7.59c14.98-0.03,29.96-0.03,44.94,0c5,0.01,7.58,2.55,7.65,7.54c0.07,5.22,0.16,10.45-0.03,15.67
		c-0.16,4.43-2.98,7.55-7.58,7.44C128.27,324.59,120.69,324.73,113.12,324.73z M118.51,311.85c-1.03,1.11-2.15,2.29-3.22,3.51
		c-0.59,0.67-0.67,1.46-0.04,2.12c0.74,0.77,1.54,0.32,2-0.32c1.53-2.14,3.67-3.66,5.47-5.51c0.91-0.94,1.05-2.12,0.08-3.02
		c-2.28-2.1-4.66-4.09-7.02-6.09c-0.56-0.48-1.28-0.72-1.87-0.11c-0.6,0.63-0.15,1.2,0.22,1.84c0.96,1.69,2.9,2.36,4.64,4.7
		c-4.54,0-8.39-0.02-12.25,0.01c-1.18,0.01-2.75-0.23-2.6,1.63c0.13,1.62,1.58,1.25,2.67,1.25
		C110.56,311.85,114.55,311.85,118.51,311.85z"/>
	<path class="st10" d="M124.24,221.09c12.1,0,24.21,0.06,36.31-0.05c2.35-0.02,3.08,0.65,2.78,2.97
		c-1.87,14.4-3.66,28.81-5.48,43.22c-0.32,2.5-0.69,5-0.91,7.51c-0.15,1.66-0.7,2.42-2.56,2.42c-24.12-0.06-48.24-0.05-72.36-0.01
		c-1.87,0-2.47-0.69-2.3-2.49c1.63-16.97,3.25-33.94,4.78-50.92c0.19-2.08,1.22-2.31,2.91-2.3c12.28,0.04,24.55,0.02,36.83,0.02
		C124.24,221.34,124.24,221.21,124.24,221.09z M118.3,274.25c11.15,0,22.29-0.07,33.44,0.06c2.21,0.02,2.97-0.57,3.24-2.79
		c1.79-14.94,3.67-29.87,5.65-44.78c0.3-2.3-0.13-2.92-2.56-2.89c-22.64,0.23-45.28,0.38-67.92,0.39c-2.72,0-3.43,0.81-3.66,3.39
		c-1.26,14.73-2.68,29.46-4.13,44.17c-0.19,1.92,0.17,2.53,2.24,2.51C95.83,274.2,107.06,274.25,118.3,274.25z"/>
	<path class="st2" d="M87.89,112.82c2.18-6.31,4.4-12.6,6.51-18.93c0.6-1.81,1.39-2.15,3.22-1.54c4.86,1.64,4.81,1.51,3.08,6.31
		c-2.14,5.95-4.12,11.96-6.17,17.94c-0.74,0.85-0.82,1.89-0.86,2.95c-0.34,0.69-0.75,1.36-1.01,2.08c-1.7,4.64-3.39,9.27-5.01,13.94
		c-0.54,1.55-1.42,2.6-3.08,2.74c-1.58,0.13-2.59-0.72-3.72-1.86c-3.51-3.54-6.24-7.85-10.44-10.71c0.02-1.18-0.74-1.83-1.63-2.39
		c-1.15-1.73-2.79-3.03-4.11-4.63c-1.2-1.46-1.14-2.37,0.07-3.4c1.06-0.9,0.9-3.02,2.39-3.08c1.31-0.05,1.53,1.91,2.61,2.67
		c1.06,0.74,1.99,1.66,2.97,2.5c0.55,0.73,1.1,1.46,1.64,2.19c2.24,2.37,4.85,4.37,6.84,7c0.99,1.32,1.81,1.37,2.36-0.46
		c1.07-3.54,2.26-7.04,3.4-10.56C87.59,114.77,87.9,113.85,87.89,112.82z"/>
	<path class="st2" d="M53.94,69.02c-0.39-0.47-0.79-0.92-1.15-1.4c-2.67-3.57-2.64-3.54,0.04-7.25c0.81-1.12,1.41-0.96,2.22-0.1
		c0.8,0.86,1.22,2.13,2.53,2.47c0.28,0.8,0.9,1.25,1.64,1.57c2.9,4.09,7.05,6.98,10.4,11.32c1.79-5.5,3.42-10.5,5.04-15.5
		c0.38-0.75,0.81-1.49,0.8-2.38c1.88-5.39,3.87-10.75,5.6-16.19c0.68-2.14,1.49-2.65,3.69-1.87c4.51,1.6,4.49,1.45,2.86,6.02
		c-2.01,5.63-3.9,11.31-5.84,16.96c-0.6,0.73-0.79,1.62-0.99,2.5c-0.22,0.56-0.45,1.12-0.66,1.68c-2.09,5.57-3.62,11.36-6.17,16.76
		c-1.06,2.24-3.92,2.93-5.29,1.12c-1.77-2.36-4.07-4.16-5.89-6.47c-2.1-2.68-4.72-4.96-7.11-7.41
		C55.38,69.99,54.74,69.42,53.94,69.02z"/>
	<path class="st10" d="M79.42,182.73c-0.01-6.98,3.35-13.27,10.17-17.57c3.48-2.2,11.39-1.77,15.5,0.95
		c9.17,6.07,11.34,19.85,5.79,29.07c-5,8.28-13.9,11.47-22.55,6.13C82.14,197.48,79.47,191.14,79.42,182.73z M81.76,183.51
		c0.27,9.26,4.1,13.96,10.96,17.23c4.23,2.01,12.8-1.32,15.48-5.72c3.49-5.74,4.51-11.89,2.18-18.21
		c-2.7-7.33-8.63-11.76-16.85-10.02C86.65,168.24,81.8,175.17,81.76,183.51z"/>
	<path class="st11" d="M68.78,123.35c0.89,0.56,1.65,1.21,1.63,2.39c-1.45,3.77-1.58,7.65-0.7,11.54
		c1.65,7.31,8.13,13.84,15.79,12.87c5.9-0.75,9.3-4.46,11.72-9.42c3.39-6.97,1.85-16-3.54-21.18c0.04-1.06,0.11-2.1,0.86-2.95
		c8.35,7.44,8.94,21.56,1.8,30.2c-6.39,7.73-17.09,6.83-22.16,2.43c-5.11-4.43-7.51-10.27-7.38-17.07
		C66.85,129.11,67.49,126.15,68.78,123.35z"/>
	<path class="st11" d="M53.94,69.02c0.81,0.41,1.45,0.97,1.75,1.85c-0.63,1.56-0.69,3.23-0.79,4.87c-0.37,5.97,1.6,11.21,5.96,15.18
		c5.66,5.15,15.11,3.6,19.5-1.82c5.18-6.4,5.63-17.7,0.44-23.9c0.2-0.89,0.39-1.78,0.99-2.5c4.69,4.82,5.78,10.8,5.02,17.11
		c-1,8.4-5.77,14.1-13.75,16.86c-4.75,1.64-11.85-1.14-15.55-5.65c-5.13-6.25-6.34-13.53-3.95-21.33
		C53.63,69.45,53.81,69.24,53.94,69.02z"/>
	<path class="st11" d="M106.67,67.84c-0.91,0.11-1.46-0.21-1.61-1.21c-0.19-1.37,0.66-1.61,1.69-1.74
		c4.32-0.52,8.63-1.05,12.95-1.57c4.58-0.55,9.24-0.71,13.71-1.7c8.84-1.96,17.85-2.36,26.76-3.66c0.94-0.14,2.16-0.52,2.37,0.79
		c0.25,1.54-1.16,1.35-2.15,1.53c-15.45,2.89-31.12,4.02-46.66,6.24C111.39,66.86,109.08,67.67,106.67,67.84z"/>
	<path class="st11" d="M114.48,133.85c-1.22,0.08-2.23,0.08-2.24-1.1c-0.01-1.14,1.1-1.16,1.94-1.33
		c10.45-2.23,21.11-2.89,31.66-4.32c4.48-0.61,9.02-0.83,13.45-1.7c2.35-0.46,4.69-1.08,7.08-1.27c1.17-0.1,3.1-1.24,3.41,0.95
		c0.32,2.19-1.81,1.73-3,1.88c-7.15,0.95-14.34,1.62-21.47,2.69c-9.76,1.46-19.51,2.92-29.31,4.01
		C115.38,133.72,114.78,133.81,114.48,133.85z"/>
	<path class="st11" d="M107.98,75.91c-0.84,0.01-1.98,0.31-2.11-0.88c-0.18-1.59,1.28-1.35,2.21-1.53
		c13.53-2.72,27.31-3.57,40.95-5.49c3.92-0.55,7.81-1.34,11.72-1.93c1.01-0.15,2.41-0.72,2.61,1.12c0.19,1.73-1.18,1.67-2.26,1.8
		c-8.45,1.04-16.97,1.7-25.34,3.16c-8.62,1.5-17.31,2.31-25.95,3.58C109.2,75.82,108.59,75.85,107.98,75.91z"/>
	<path class="st11" d="M165.93,115.54c0.89,0.05,2.32-0.55,2.42,1c0.09,1.51-1.43,1.21-2.37,1.37c-16.33,2.79-32.81,4.46-49.25,6.49
		c-1.16,0.14-2.1,0.72-3.17,0.93c-1.06,0.21-2.32,0.6-2.65-1.05c-0.36-1.76,1.01-1.71,2.09-1.85c6.9-0.85,13.87-1.34,20.69-2.6
		c10.15-1.88,20.43-2.61,30.62-4.13C164.81,115.63,165.33,115.6,165.93,115.54z"/>
	<path class="st10" d="M59.22,64.32c-0.74-0.32-1.36-0.77-1.64-1.57c4.71-6.16,10.93-6.89,17.89-4.98c0.01,0.88-0.42,1.62-0.8,2.38
		C68.48,57.71,63.52,59.79,59.22,64.32z"/>
	<path class="st11" d="M74.36,119.6c-0.55-0.73-1.1-1.46-1.64-2.19c4.4-3.72,9.16-6.24,15.18-4.59c0.01,1.03-0.31,1.95-0.93,2.76
		C82.08,114.78,77.69,115.54,74.36,119.6z"/>
	<path class="st11" d="M526.01,142.65c-3.18,0.06-6.53-3.01-6.47-5.9c0.02-0.73,0.08-1.49,0.93-1.65c1.02-0.19,1.39,0.53,1.42,1.4
		c0.08,2.22,1.46,2.95,3.41,3.16c2,0.21,3.42-0.32,3.87-2.5c0.11-0.54,0.23-1.31,1.1-1.17c0.89,0.14,0.91,0.99,1,1.6
		C531.58,139.76,528.57,142.6,526.01,142.65z"/>
	<path class="st11" d="M538.53,136.07c1.51-0.65,2.6-0.65,2.72,1.44c0.11,1.81,1.38,2.52,3.02,2.64c1.65,0.12,3.41,0.38,3.97-1.89
		c0.2-0.8,0.65-1.56,1.65-1.1c0.9,0.41,0.8,1.26,0.54,2.05c-0.67,2.01-2.57,4.16-5.37,3.97c-2.86-0.19-5.39-2.12-6.1-4.7
		c-0.23-0.83,0.33-1.75-0.39-2.46C538.57,136.02,538.53,136.07,538.53,136.07z"/>
	<path class="st10" d="M563.79,144.06c-3.62,0.03-5.91-1.69-6.35-4.8c-0.12-0.85-0.35-1.89,0.83-2.13c1.02-0.21,1.25,0.63,1.41,1.46
		c0.39,2.01,1.88,2.52,3.66,2.62c1.6,0.09,2.98-0.17,3.42-2.01c0.19-0.79,0.62-1.32,1.44-1.1c1.02,0.27,0.88,1.15,0.75,1.93
		C568.47,142.74,566.82,144.03,563.79,144.06z"/>
	<path class="st9" d="M118.51,311.85c-3.96,0-7.94,0-11.93,0c-1.09,0-2.55,0.38-2.67-1.25c-0.15-1.86,1.43-1.62,2.6-1.63
		c3.86-0.03,7.71-0.01,12.25-0.01c-1.74-2.34-3.68-3.01-4.64-4.7c-0.37-0.64-0.81-1.22-0.22-1.84s1.31-0.37,1.87,0.11
		c2.36,2.01,4.75,3.99,7.02,6.09c0.97,0.9,0.83,2.08-0.08,3.02c-1.8,1.86-3.94,3.37-5.47,5.51c-0.46,0.65-1.26,1.09-2,0.32
		c-0.63-0.65-0.55-1.45,0.04-2.12C116.36,314.14,117.48,312.96,118.51,311.85z"/>
	<path class="st6" d="M118.3,274.25c-11.23,0-22.47-0.06-33.7,0.05c-2.07,0.02-2.43-0.59-2.24-2.51
		c1.45-14.72,2.87-29.44,4.13-44.17c0.22-2.58,0.94-3.39,3.66-3.39c22.64,0,45.28-0.15,67.92-0.39c2.43-0.03,2.86,0.59,2.56,2.89
		c-1.98,14.91-3.86,29.84-5.65,44.78c-0.27,2.23-1.03,2.81-3.24,2.79C140.59,274.19,129.44,274.25,118.3,274.25z"/>
	<path class="st7" d="M93.67,119.56c5.39,5.18,6.93,14.21,3.54,21.18c-2.41,4.96-5.82,8.67-11.72,9.42
		c-7.66,0.97-14.14-5.56-15.79-12.87c-0.88-3.89-0.75-7.77,0.7-11.54c4.2,2.86,6.93,7.17,10.44,10.71c1.13,1.14,2.14,1.99,3.72,1.86
		c1.66-0.13,2.54-1.19,3.08-2.74c1.62-4.66,3.32-9.3,5.01-13.94C92.93,120.92,93.33,120.25,93.67,119.56z"/>
	<path class="st9" d="M74.36,119.6c3.33-4.07,7.72-4.82,12.61-4.02c-1.14,3.52-2.33,7.02-3.4,10.56c-0.56,1.83-1.37,1.78-2.36,0.46
		C79.22,123.97,76.61,121.97,74.36,119.6z"/>
	<path class="st8" d="M80.8,65.19c5.19,6.2,4.75,17.51-0.44,23.9c-4.39,5.42-13.84,6.97-19.5,1.82c-4.36-3.97-6.34-9.21-5.96-15.18
		c0.1-1.64,0.16-3.31,0.79-4.87c2.39,2.45,5.01,4.73,7.11,7.41c1.81,2.31,4.12,4.12,5.89,6.47c1.37,1.82,4.23,1.12,5.29-1.12
		c2.55-5.4,4.08-11.18,6.17-16.76C80.35,66.31,80.58,65.75,80.8,65.19z"/>
	<path class="st8" d="M59.22,64.32c4.3-4.53,9.27-6.61,15.45-4.18c-1.63,5-3.25,10-5.04,15.5C66.26,71.3,62.12,68.41,59.22,64.32z"
		/>
	<path class="st6" d="M81.76,183.51c0.04-8.34,4.89-15.27,11.77-16.72c8.22-1.73,14.16,2.7,16.85,10.02
		c2.33,6.32,1.31,12.47-2.18,18.21c-2.68,4.4-11.25,7.73-15.48,5.72C85.86,197.47,82.03,192.76,81.76,183.51z"/>
</g>
</svg>
