<?xml version="1.0" encoding="utf-8"?>
<!-- Generator: Adobe Illustrator 25.2.1, SVG Export Plug-In . SVG Version: 6.00 Build 0)  -->
<svg version="1.1" id="Camada_1" xmlns="http://www.w3.org/2000/svg" xmlns:xlink="http://www.w3.org/1999/xlink" x="0px" y="0px"
	 viewBox="0 0 595.28 361" style="enable-background:new 0 0 595.28 361;" xml:space="preserve">
<style type="text/css">
	.st0{fill:none;}
	.st1{fill:#222222;}
	.st2{fill:#0984E3;}
	.st3{fill:#232323;}
	.st4{fill:#242424;}
	.st5{fill:#2B2A2A;}
	.st6{fill:#2F2F2F;}
	.st7{fill:#FDFDFD;}
	.st8{fill:#FCFCFC;}
	.st9{fill:#FAFAFA;}
	.st10{fill:#FBFBFB;}
	.st11{fill:#F9F8F8;}
</style>
<g>
	<path class="st0" d="M294.35,445.96c-124.84,0-249.67,0-374.5,0.04c-1.76,0-2.17-0.36-2.16-1.97c0.05-170.1,0.05-340.2,0-510.3
		c0-1.6,0.39-1.97,2.16-1.97c249.67,0.05,499.33,0.05,749,0c1.76,0,2.17,0.36,2.16,1.97c-0.05,170.1-0.05,340.2,0,510.3
		c0,1.6-0.39,1.97-2.16,1.97C544.01,445.96,419.19,445.96,294.35,445.96z M381.28,129.09c-0.96,1.87-2.04,3.69-2.85,5.61
		c-0.66,1.54-1.31,1.66-2.86,0.81c-9.41-5.1-18.87-10.14-28.37-15.1c-1.59-0.83-2.05-1.74-2.05-3.35
		c0.07-15.39,0.05-30.79,0.01-46.17c0-0.76,0.69-2-1.07-2.07c1.74-13.74,3.5-27.48,5.24-41.22c0.64-5.02,1.27-10.04,1.88-15.07
		c0.53-4.39-2.91-7.14-7.6-6.03c-3.36,0.79-5.67,2.65-6.6,5.77c-1.26,4.19-2.58,8.37-3.69,12.6c-0.48,1.85-1.21,2.33-3.33,1.89
		c-6.02-1.27-12.09-2.35-18.18-3.35c-3.01-0.49-5.85,0.2-7.81,2.49c-1.85,2.16-1.98,4.64-0.44,7.01c0.6,0.93,0.17,1.08-0.58,1.54
		c-3.11,1.89-4.16,5.67-2.14,8.44c0.9,1.24,0.52,1.61-0.56,2.37c-4.93,3.47-4.09,10.27,1.5,12.7c2.05,0.88,4.09,1.81,6.19,2.58
		c1.23,0.45,1.64,1.03,1.45,2.25c-0.44,2.9-0.73,5.81-1.09,8.71c-4.7,0.89-5.07,1.24-5.76,5.65c-0.29,1.82-0.47,3.66-0.7,5.5
		c-0.94,7.18-1.89,14.37-2.83,21.56c-14.6-2.25-29.2-4.49-43.8-6.75c-5.87-0.91-11.75-1.8-17.6-2.79c-2.08-0.36-3.1,0.24-3.38,2.14
		c-0.22,1.41-0.79,2.78-0.94,4.18c-0.19,1.77-0.86,1.83-2.52,1.19c-12.04-4.65-24.12-9.21-36.19-13.78
		c-7.15-2.71-14.31-5.4-21.66-8.18c-1.45,7.46-2.88,14.73-4.35,22.26c-5.59-3.35-10.95-6.56-16.31-9.76
		c-0.56-0.34-0.82-0.84-1.09-1.36c-3.5-6.69-6.97-13.4-10.55-20.06c-0.68-1.26-0.36-1.63,0.98-2.07c6.27-2.04,12.51-4.16,18.73-6.3
		c2.79-0.96,4.14-2.94,3.77-5.27c-0.37-2.37-2.22-3.88-5.16-4.18c-3.82-0.4-7.63-0.82-11.45-1.17c-1.85-0.16-3.14-0.94-3.69-2.52
		c-0.58-1.7,0.1-3.08,1.65-4.12c1.32-0.89,2.65-1.77,3.97-2.68c2.41-1.68,3.12-3.43,2.3-5.53c-0.84-2.15-2.79-3.17-5.82-3.05
		c-1.49,0.05-2.97,0.12-4.47,0.2c-2.11,0.12-3.95-0.27-4.85-2.24c-0.92-2,0.14-3.42,1.76-4.65c1.08-0.82,2.17-1.65,3.15-2.57
		c1.64-1.53,2.08-3.37,1.1-5.31c-0.92-1.83-2.56-2.85-4.86-2.79c-1.17,0.04-2.35,0.1-3.53,0.19c-10.63,0.83-21.25,1.7-31.88,2.48
		c-9.48,0.69-16.83,4.52-21.92,11.88c-3.22,4.65-6.6,9.21-9.73,13.89c-1.07,1.6-1.79,1.53-3.32,0.52
		c-5.53-3.63-11.53-6.41-18.42-7.06c-18.32-1.73-34.99,7.15-42.08,22.59C2.17,71.8,1.36,82.19,7.76,92.2
		c4.43,6.94,10.39,12.71,17.7,17.23c13.88,8.59,29.65,7.93,42.67-1.72c6.66-4.94,11.85-10.98,15.69-17.96
		c0.54-0.98,1.21-1.53,2.32-1.9c11.39-3.8,22.77-7.65,34.16-11.47c2.69-0.9,2.7-0.9,2.65,1.7c-0.48,24.98-0.93,49.97-1.48,74.96
		c-0.04,1.79,0.57,2.47,2.44,2.9c10.25,2.35,20.45,4.88,30.71,7.24c1.77,0.41,2.14,1.07,1.79,2.62c-0.86,3.84-1.47,7.73-2.35,11.57
		c-0.37,1.6,0.05,2.18,1.86,2.46c13.67,2.12,27.33,4.33,40.99,6.52c4.83,0.77,9.66,1.57,14.96,2.43
		c-29.14,25.71-57.94,51.11-86.89,76.65c14.55,6.91,28.83,13.69,43.11,20.46c-0.36,0.89-1.12,1.19-1.71,1.62
		c-4.29,3.12-8.63,6.18-12.89,9.33c-1.17,0.88-2.36,1.19-3.87,1.18c-9.02-0.05-18.07,0.32-27.06-0.13
		c-7.78-0.39-13.42,2.52-18.27,7.54c-1.01,1.05-0.91,1.7,0.47,2.27c1.72,0.7,3.41,1.46,5.1,2.18
		c29.04,12.32,58.07,24.63,87.08,36.99c1.9,0.81,2.99,0.66,4.3-0.9c3.46-4.15,7-8.25,10.72-12.2c6.29-6.68,11.51-14.15,18.68-20.19
		c10.93-9.21,21.57-18.72,32.38-28.05c1.2-1.04,1.34-1.79,0.53-3.08c-2.19-3.46-4.25-6.99-6.25-10.55
		c-0.49-0.88-2.12-2.11-0.51-2.87c1.59-0.74,1.77,1.19,2.31,2.06c2.14,3.4,4.15,6.87,6.4,10.64c2.14-4.35,4.07-8.32,6.04-12.27
		c0.36-0.72,0.57-1.92,1.86-1.39c1.36,0.56,0.37,1.49,0.04,2.18c-2.01,4.18-4.03,8.35-6.14,12.5c-0.65,1.28-0.4,1.77,1.18,1.88
		c3.83,0.27,7.65,0.68,11.47,1.01c32.79,2.78,65.59,5.55,98.37,8.32c8.53,0.72,13.35-1.87,16.91-9.04c3.8-7.67,7.63-15.32,11.38-23
		c0.66-1.34,1.17-1.99,2.81-0.98c1.48,0.92,3.13,1.61,4.75,2.33c5.75,2.58,12.07,0.9,15.22-4.17c6.17-9.93,12.27-19.9,18.4-29.85
		c5.33,1.15,10.67,2.28,16,3.45c4.29,0.95,8.13,0.28,11.24-2.69c3.16-3.03,3.75-6.63,2.4-10.54c-1.45-4.22-2.98-8.41-4.4-12.64
		c-1.84-5.52-4.11-10.92-5.56-16.55c1.57-4.18,2.81-8.45,3.85-12.75c0.99-4.1-0.34-7.73-4.02-10.28c-3.16-2.19-6.66-3.96-10.02-5.92
		c-0.56-1.48-1.17-2.93-1.67-4.42c-1.74-5.17-5.43-8.29-11.32-9.3c-8.59-1.46-17.16-3.04-25.75-4.46c-1.42-0.24-1.85-0.7-1.66-1.94
		c0.2-1.33,0.23-2.69,0.35-4.04c7.94-1.09,14.83-3.96,19.15-10.38c5.43-8.1,8.78-16.92,8.8-26.5c0.02-12.23-3.8-22.83-16.28-29.38
		c-1.83-0.96-3.66-1.96-5.6-2.69c-1.61-0.6-2.04-1.21-1.46-2.83c2.02-5.7,3.83-11.46,5.69-17.2c0.32-0.97,0.56-1.72,1.91-2.1
		c1.68-0.46,2.29-3.2,1.3-4.65c-0.84-1.24-2.8-1.67-4.15-0.9c-1.83,1.04-2.75,3.34-1.54,4.53c0.9,0.87,0.73,1.58,0.43,2.49
		c-1.9,5.73-3.84,11.46-5.63,17.22c-0.47,1.49-1,1.81-2.72,1.37c-8.89-2.33-17.42-1.67-25.15,3.29
		c-11.88,7.61-20.2,17.67-24.08,30.47c-3.25,10.69-0.12,19.72,9.63,26.65C378.75,127.41,380.03,128.24,381.28,129.09z
		 M502.04,347.21c1.04-0.05,2.85-0.05,4.63-0.24c9.29-0.97,17.32-4.05,22.47-11.58c3.66-5.36,6.15-11.2,7.91-17.31
		c0.29-0.99,0.12-1.8-0.46-2.62c-2.45-3.47-6.19-3.82-10.17-3.42c-4.87,0.49-9.56,1.78-14,3.54c-7.09,2.82-13.84,2.06-20.7-0.58
		c-6.44-2.48-12.38-5.81-18.57-8.73c-2.5-1.18-5.12-1.78-7.94-1.51c-6.5,0.6-12.44,3.07-18.44,5.09c-4.81,1.61-9.24,4.19-13.74,6.5
		c-7.45,3.82-14.79,7.81-21,13.25c-6.45,5.64-7.29,9.86-3.75,17.29c3.29,6.91,10.88,12.35,21.74,7.63
		c11.94-5.2,23.85-10.44,35.71-15.8c1.39-0.63,2.3-0.54,3.6,0.15C479.21,344.07,489.81,347.01,502.04,347.21z M539.43,302.58
		c0.76,1.7,1.81,1.32,3.05,0.72c9.61-4.66,19.24-9.28,28.85-13.94c2.63-1.28,5.31-2.51,7.55-4.31c5.21-4.18,7.93-9.35,5.85-15.65
		c-1.96-5.92-6.64-9.39-13.47-10.13c-4.17-0.45-8.29,0.15-12.36,0.98c-12.94,2.67-25.03,7.27-36.53,13.22
		c-1.25,0.65-2.17,0.66-3.41-0.03c-2.81-1.57-5.83-2.77-8.94-3.75c-12.81-4.03-24.49-2.37-34.99,5.65
		c-6.93,5.3-12.64,11.47-17.11,18.61c-0.83,1.32-1.53,2.72-2.5,4.48c3.64-0.67,6.8-1.12,9.9-1.82c6.78-1.53,12.82-0.52,18.26,3.65
		c3.41,2.62,7.2,4.78,11.25,6.56c5.87,2.58,11.6,2.59,17.32-0.32c2.39-1.21,4.78-2.45,7.26-3.5c6.15-2.59,12.37-4.79,19.11-0.82
		c-0.38-5.43-2-10.23-4.16-14.91c-2.34-5.06-6.73-8.46-11.42-11.67c0.26-0.26,0.39-0.45,0.58-0.55c9.51-4.89,19.48-8.83,29.97-11.58
		c5.89-1.55,11.84-2.81,18.05-2.21c7.36,0.72,12.79,7.28,11.5,13.91c-0.97,4.98-4.43,8.25-9.06,10.6
		c-6.29,3.19-12.65,6.28-19.01,9.37C549.81,297.67,544.6,300.11,539.43,302.58z M498.09,37.79c-0.09,0.05-0.19,0.1-0.27,0.15
		c2.67,9.15,5.3,18.31,8.06,27.44c0.38,1.23,0.11,1.95-0.84,2.78c-4.83,4.18-9.62,8.4-14.39,12.63c-0.38,0.34-1.14,0.55-0.86,1.31
		c6.65-0.62,13.28-1.2,19.9-1.89c1.16-0.12,1.89,0.13,2.61,0.94c3.26,3.66,6.56,7.28,9.86,10.91c1.61,1.78,3.26,3.54,5.08,5.52
		c0.08-0.57,0.14-0.77,0.13-0.97c-0.39-5.2-0.71-10.4-1.21-15.59c-0.67-7.03-0.71-7.02,4.21-12.4c3.2-3.5,6.37-7.01,9.9-10.89
		c-6.94,1.03-13.33,1.94-19.71,2.94c-1.69,0.26-2.86,0.07-3.98-1.33c-3-3.75-6.21-7.36-9.35-11
		C504.17,44.84,501.13,41.32,498.09,37.79z M106.42,214.44c-0.3-0.94-1.12-1.17-1.71-1.56c-4.47-3.01-8.95-6.02-13.49-8.94
		c-1.21-0.78-1.7-1.43-1.33-2.93c1.97-8.1,3.74-16.24,5.57-24.37c-0.78,0.49-1.29,1.11-1.78,1.74c-5.1,6.5-10.25,12.97-15.25,19.53
		c-1.08,1.41-2.22,1.87-4.03,1.85c-6.19-0.05-12.39,0.03-18.58,0.09c-0.54,0.01-1.24-0.31-1.74,0.42c4.9,3.68,9.77,7.37,14.68,11.01
		c0.94,0.69,1.39,1.36,1.17,2.53c-0.41,2.25-0.61,4.53-0.89,6.8c-0.57,4.64-1.14,9.28-1.8,14.58c0.99-1.01,1.49-1.51,1.97-2.02
		c4.76-5.02,9.54-10.03,14.26-15.09c0.82-0.87,1.66-1.31,2.95-1.44C93.02,215.96,99.63,215.19,106.42,214.44z M559.45,157.6
		c-0.53,0.12-0.74,0.11-0.81,0.19c-5.37,6.49-10.73,12.98-16.05,19.5c-0.74,0.91-1.46,1.23-2.75,1.04c-2.78-0.42-5.6-0.64-8.4-0.93
		c-3.21-0.33-6.43-0.65-10.31-1.05c4.23,4.06,7.96,7.69,11.75,11.25c0.92,0.86,1.2,1.61,0.84,2.83c-1.23,4.2-2.33,8.43-3.39,12.66
		c-0.4,1.59-1.1,3.16-1.07,5.2c4.92-4.06,9.63-7.82,14.13-11.77c2.01-1.76,4.04-2.51,6.86-2.39c5.05,0.22,10.11,0.06,15.23,0.06
		c-0.16-0.9-0.94-1.21-1.47-1.67c-3.41-2.94-6.82-5.91-10.32-8.76c-1.13-0.92-1.46-1.7-1.03-3.11
		C554.99,173.06,557.16,165.45,559.45,157.6z M62.21,298.98c-6.03,0.87-11.38,1.57-16.7,2.44c-1.62,0.26-2.54-0.11-3.51-1.3
		c-4.79-5.92-9.68-11.77-14.55-17.63c-0.38-0.46-0.56-1.11-1.5-1.29c2.33,7.96,4.57,15.82,6.95,23.64c0.45,1.49,0.26,2.46-0.99,3.55
		c-3.36,2.9-6.57,5.93-9.83,8.91c-0.9,0.82-1.78,1.66-3.11,2.91c5.79-0.51,10.86-0.88,15.91-1.45c2.08-0.24,3.43,0.18,4.75,1.79
		c3.73,4.54,7.71,8.91,11.6,13.36c0.53-0.42,0.34-0.79,0.31-1.12c-0.43-5.48-0.79-10.97-1.37-16.44c-0.23-2.19,0.15-3.9,1.8-5.64
		C55.41,307.05,58.57,303.17,62.21,298.98z"/>
	<path class="st1" d="M447.8,229.24c-6.13,9.95-12.21,19.92-18.4,29.85c-3.15,5.07-9.47,6.75-15.22,4.17
		c-1.61-0.73-3.27-1.42-4.75-2.33c-1.63-1.02-2.16-0.36-2.81,0.98c-3.74,7.69-7.58,15.34-11.38,23c-3.56,7.17-8.38,9.76-16.91,9.04
		c-32.79-2.77-65.59-5.54-98.37-8.32c-3.83-0.33-7.65-0.73-11.47-1.01c-1.59-0.12-1.84-0.6-1.18-1.88c2.1-4.14,4.13-8.31,6.14-12.5
		c0.33-0.69,1.32-1.63-0.04-2.18c-1.29-0.53-1.5,0.68-1.86,1.39c-1.97,3.96-3.9,7.92-6.04,12.27c-2.25-3.76-4.26-7.23-6.4-10.64
		c-0.54-0.87-0.72-2.8-2.31-2.06c-1.62,0.76,0.01,2,0.51,2.87c2,3.55,4.06,7.08,6.25,10.55c0.82,1.29,0.68,2.04-0.53,3.08
		c-10.83,9.32-21.46,18.83-32.38,28.05c-7.17,6.04-12.39,13.51-18.68,20.19c-3.72,3.96-7.26,8.06-10.72,12.2
		c-1.3,1.56-2.38,1.71-4.3,0.9c-29.01-12.37-58.04-24.67-87.08-36.99c-1.71-0.72-3.4-1.48-5.1-2.18c-1.38-0.57-1.48-1.23-0.47-2.27
		c4.85-5.02,10.5-7.93,18.27-7.54c9,0.45,18.04,0.08,27.06,0.13c1.49,0.01,2.68-0.31,3.87-1.18c4.26-3.15,8.59-6.22,12.89-9.33
		c0.59-0.43,1.35-0.73,1.71-1.62c-14.28-6.78-28.56-13.55-43.11-20.46c28.96-25.55,57.75-50.95,86.89-76.65
		c-5.3-0.87-10.13-1.66-14.96-2.43c-13.66-2.19-27.31-4.39-40.99-6.52c-1.8-0.28-2.22-0.86-1.86-2.46
		c0.88-3.84,1.49-7.73,2.35-11.57c0.35-1.54-0.02-2.21-1.79-2.62c-10.24-2.36-20.45-4.88-30.71-7.24c-1.87-0.43-2.48-1.11-2.44-2.9
		c0.54-24.98,1-49.97,1.48-74.96c0.05-2.61,0.04-2.61-2.65-1.7c-11.38,3.83-22.76,7.67-34.16,11.47c-1.1,0.36-1.77,0.92-2.32,1.9
		c-3.85,6.98-9.03,13.02-15.69,17.96c-13.01,9.65-28.79,10.31-42.67,1.72c-7.3-4.52-13.27-10.29-17.7-17.23
		C1.38,82.2,2.19,71.81,6.9,61.52c7.08-15.45,23.75-24.34,42.08-22.59c6.9,0.66,12.89,3.44,18.42,7.06c1.54,1,2.25,1.08,3.32-0.52
		c3.13-4.69,6.51-9.25,9.73-13.89c5.1-7.36,12.45-11.19,21.92-11.88c10.63-0.77,21.25-1.65,31.88-2.48
		c1.17-0.09,2.35-0.15,3.53-0.19c2.3-0.06,3.93,0.96,4.86,2.79c0.99,1.95,0.54,3.79-1.1,5.31c-0.99,0.92-2.07,1.75-3.15,2.57
		c-1.62,1.24-2.68,2.65-1.76,4.65c0.91,1.97,2.74,2.36,4.85,2.24c1.49-0.08,2.97-0.15,4.47-0.2c3.04-0.12,4.97,0.9,5.82,3.05
		c0.83,2.11,0.11,3.86-2.3,5.53c-1.3,0.91-2.65,1.79-3.97,2.68c-1.54,1.05-2.22,2.42-1.65,4.12c0.54,1.59,1.84,2.36,3.69,2.52
		c3.82,0.34,7.64,0.77,11.45,1.17c2.94,0.3,4.79,1.81,5.16,4.18c0.37,2.32-0.99,4.31-3.77,5.27c-6.23,2.14-12.47,4.26-18.73,6.3
		c-1.33,0.44-1.65,0.8-0.98,2.07c3.58,6.66,7.05,13.37,10.55,20.06c0.27,0.52,0.53,1.02,1.09,1.36c5.36,3.2,10.71,6.42,16.31,9.76
		c1.47-7.53,2.9-14.8,4.35-22.26c7.35,2.78,14.51,5.47,21.66,8.18c12.07,4.58,24.15,9.13,36.19,13.78c1.66,0.64,2.34,0.57,2.52-1.19
		c0.15-1.41,0.73-2.78,0.94-4.18c0.29-1.9,1.3-2.5,3.38-2.14c5.85,0.99,11.73,1.89,17.6,2.79c14.6,2.26,29.2,4.5,43.8,6.75
		c1.59,0.79,2.22,1.86,1.82,3.63c-1.3,5.72-2.37,11.49-3.65,17.22c-0.37,1.66-0.05,2.93,1.03,4.33
		c9.35,12.17,18.62,24.38,27.88,36.6c0.47,0.62,1.26,1.13,1.13,2.03c-0.29,0-0.6,0.06-0.87,0c-5.87-1.53-10.69-0.05-14.88,3.94
		c-4.92,4.68-8.51,10.19-12.51,15.46c-0.85,1.13-0.43,1.37,0.83,1.57c3.31,0.53,6.63,1.08,9.89,1.81c1.46,0.34,2.3-0.04,3.23-0.97
		c2.18-2.17,3.87-4.65,5.69-7.05c3.37-4.48,7.03-8.73,11.48-12.37c0.24,0.04,0.49,0.07,0.73,0.1l-0.06-0.04
		c0.85,1.16-0.08,1.83-0.82,2.56c-4.54,4.52-8.92,9.14-12.12,14.58l0.02-0.02c-1.18,1.23-2.36,2.47-3.76,3.93
		c2.73,0.6,5.1,1.12,7.49,1.65c0.19,0,0.38,0.01,0.55,0.01c0.77,0.11,1.55,0.15,2.29,0.34c1.14,0.28,1.84,0.01,2.5-0.93
		c4.09-5.75,9.35-10.61,14.57-15.49c0.68,0.2,1.28,0.49,1.67,1.05c-4.08,4.12-8.5,7.97-12.16,12.43c-2.97,3.64-2.98,3.64,1.8,4.42
		c0.35,0.05,0.69,0.12,1.18,0.2c-1.51-1.65-1.86-2.51-1.58-3.53c0.15-0.53,0.4-0.96,1.04-0.98c0.68-0.02,0.85,0.43,0.99,0.97
		c0.64,2.44,2.04,2.83,4.33,1.24c0.46-0.32,0.91-0.62,1.45-0.22c0.51,0.37,0.38,0.87,0.21,1.37c-0.32,0.9-1.5,1.12-1.69,2.21
		c5.48-3.33,10.42-7.28,15.63-10.93c0.8,0.11,1.34,0.5,1.64,1.18c-4.47,3.3-8.93,6.6-13.78,10.19c2.5,0.46,4.46,0.98,6.44,1.16
		c2.23,0.21,2.57,1.1,1.98,2.89c-0.66,1.97-1.01,4.03-1.58,6.02c-0.26,0.93-0.14,1.44,1.03,1.64c7.15,1.23,14.29,2.51,21.43,3.77
		c8.72,1.95,17.46,3.88,26.18,5.85c9.17,2.07,18.35,4.17,27.52,6.25c-5.33,10.76-10.64,21.54-16.02,32.28
		c-0.65,1.29-0.61,2,0.94,2.61c1.72,0.67,3.3,1.62,4.98,2.39c4.6,2.08,9.73,0.86,12.24-3.16c6.14-9.83,12.14-19.74,18.19-29.62
		C446.33,228.93,447.06,229.08,447.8,229.24z M237.61,96.65c-1.55-0.52-1.32,0.89-1.49,1.63c-5.74,24.47-11.42,48.96-17.2,73.43
		c-0.37,1.53,0.2,1.78,1.54,2.01c19.75,3.56,39.5,7.15,59.23,10.75c1.26,0.23,1.78,0.03,2.05-1.23c0.89-4.2,1.95-8.37,2.95-12.55
		c4.93-20.76,9.85-41.53,14.85-62.28c0.42-1.75-0.03-2.23-1.9-2.52c-11.29-1.69-22.56-3.49-33.84-5.23
		C255.14,99.34,246.49,98.02,237.61,96.65z M84.97,76.67c0.03-2.36-0.24-4.7-0.83-7C81.21,58.26,72.74,51,62.21,45.21
		c-9.57-5.26-19.64-5.87-30.07-2.75C12.4,48.36,0.28,69.54,7.29,86.62c4.17,10.18,12.36,17.65,22.62,22.99
		c11.31,5.9,22.71,5.19,33.56-1.2c8.36-4.92,14.32-11.87,18.7-19.94C84.17,84.77,85.11,80.82,84.97,76.67z M106.57,306.28
		c0.68,0.32,1.28,0.63,1.9,0.89c7.88,3.34,15.76,6.68,23.64,10.03c18.03,7.65,36.07,15.28,54.07,22.99
		c1.53,0.66,2.42,0.49,3.61-0.54c2.04-1.77,4.21-3.44,6.48-4.95c4.99-3.31,10.27-6.07,16.68-6.29c1.03-0.04,1.52-0.62,2.05-1.23
		c3.47-3.96,6.88-7.97,10.46-11.85c1.24-1.34,0.98-1.8-0.6-2.55c-17.67-8.33-35.31-16.7-52.93-25.12c-1.22-0.58-1.91-0.36-2.87,0.34
		c-4.33,3.18-8.73,6.29-13.08,9.45c-0.53,0.38-1.29,0.58-1.41,1.41c5.26,2.17,10.54,4.33,15.8,6.54c0.89,0.37,2.63,0.5,1.9,1.86
		c-0.7,1.33-1.96,0.16-2.83-0.18c-5.31-2.11-10.59-4.29-15.85-6.52c-1.17-0.5-2.34-0.7-3.62-0.7c-9.73,0.03-19.46,0.17-29.19-0.05
		C114.73,299.69,110.35,302.1,106.57,306.28z M125.38,61.18c-0.35,18.4-0.67,36.67-1.06,54.93c-0.02,1.08,0.57,1.23,1.41,1.53
		c6.38,2.32,10.82,6.44,13.41,12.2c3.84,8.55,3.59,17.44,2.43,26.36c-0.18,1.4,0,2.01,1.64,2.34c3.97,0.82,7.91,1.79,11.81,2.83
		c1.7,0.46,2.21,0.13,2.52-1.51c3.33-17.64,6.75-35.26,10.24-52.87c0.36-1.79,0.08-2.79-1.7-3.79c-4.93-2.78-9.7-5.79-14.56-8.67
		c-1.02-0.61-1.73-1.35-2.25-2.36c-3.7-7.15-7.66-14.21-11.14-21.46C135.66,65.53,131.51,62.6,125.38,61.18z M280.54,188.22
		c0.36-1.55-1.12-1.25-1.9-1.4c-18.14-3.49-36.31-6.95-54.46-10.38c-1.96-0.37-4.47-1.68-5.76-0.73c-1.26,0.91-1.07,3.41-1.62,5.19
		c-0.42,1.36,0.03,1.81,1.57,2.11c10.56,2.04,21.09,4.24,31.65,6.31c8.87,1.74,17.77,3.41,26.66,5.04c0.85,0.15,2.21,1.05,2.6-0.69
		C279.67,191.84,280.11,190.04,280.54,188.22z M348.52,200.65c0.13-0.98-1.13-0.69-1.8-0.82c-7.5-1.48-15.01-2.89-22.52-4.32
		c-13.18-2.52-26.37-4.99-39.53-7.56c-1.4-0.27-1.97-0.13-2.15,1.25c-0.19,1.48-0.53,2.97-1.04,4.38c-0.49,1.34-0.05,1.67,1.37,1.9
		c7.39,1.26,14.76,2.62,22.13,3.94c13.37,2.39,26.74,4.77,40.11,7.13c0.66,0.12,1.59,0.79,1.93-0.37
		C347.53,204.46,347.95,202.72,348.52,200.65z M124.29,119.17c-0.23,11.4-0.46,22.52-0.71,33.63c-0.02,0.8,0.35,1.15,1.14,1.33
		c4.47,1.03,8.94,2.07,13.4,3.15c0.92,0.23,1.24,0.08,1.35-0.8c0.9-7.19,1.27-14.37-0.63-21.47
		C136.9,127.79,132.65,122.19,124.29,119.17z M190.18,341.82c2.81,1.21,5.28,2.25,7.72,3.34c0.99,0.44,1.41-0.14,1.9-0.71
		c3.86-4.39,7.72-8.77,11.58-13.16c0.2-0.23,0.57-0.47,0.19-0.94C202.99,331.69,196.67,336.5,190.18,341.82z"/>
	<path class="st2" d="M447.8,229.24c-0.73-0.15-1.47-0.3-2.2-0.46c-6.72-1.7-13.49-3.19-20.32-4.48
		c-9.17-2.09-18.34-4.18-27.52-6.25c-8.72-1.97-17.46-3.9-26.18-5.85c-3.47-6.65-6.88-13.34-10.45-19.95
		c-1.19-2.21-2.75-4.28-5.07-5.73c-0.29-0.68-0.83-1.08-1.64-1.18c-3.33-2.92-7.3-5.02-11.21-7.2c-0.39-0.57-0.99-0.86-1.67-1.05
		c-3.4-2.44-6.9-4.73-10.71-6.63l0.06,0.04c-0.23-0.17-0.47-0.34-0.7-0.51c-0.53-0.86-1.72-0.89-2.35-1.6
		c-0.18-0.15-0.37-0.31-0.54-0.46l0.03,0.08c0.13-0.9-0.67-1.41-1.13-2.03c-9.27-12.21-18.54-24.44-27.88-36.6
		c-1.08-1.4-1.4-2.67-1.03-4.33c1.28-5.73,2.35-11.49,3.65-17.22c0.4-1.77-0.22-2.83-1.82-3.63c0.95-7.18,1.9-14.37,2.83-21.56
		c0.24-1.83,0.42-3.67,0.7-5.5c0.69-4.41,1.07-4.76,5.76-5.65c0.71-0.02,1.43-0.04,2.14-0.05c3.74-0.27,7.5-0.52,11.24-0.83
		c6.71-0.55,13.41-1.13,20.11-1.7c0.75-0.03,1.5-0.06,2.25-0.09c1.76,0.07,1.07,1.32,1.07,2.07c0.04,15.39,0.06,30.79-0.01,46.17
		c-0.01,1.61,0.46,2.52,2.05,3.35c9.5,4.96,18.96,10,28.37,15.1c1.55,0.84,2.21,0.73,2.86-0.81c0.82-1.92,1.89-3.75,2.85-5.61
		c1.89,0.86,3.79,1.68,5.66,2.57c9.49,4.58,19.57,6.48,30.27,5.51c-0.11,1.35-0.14,2.7-0.35,4.04c-0.19,1.24,0.24,1.7,1.66,1.94
		c8.59,1.43,17.17,3,25.75,4.46c5.89,1,9.59,4.13,11.32,9.3c0.5,1.49,1.11,2.94,1.67,4.42c0.03,1.04,0.55,1.95,0.94,2.9
		c2.6,7.59,5.07,15.23,8,22.73c0.17,1.18,0.51,2.32,1.25,3.34c1.45,5.63,3.72,11.03,5.56,16.55c1.41,4.23,2.94,8.42,4.4,12.64
		c1.35,3.91,0.77,7.51-2.4,10.54c-3.11,2.96-6.94,3.63-11.24,2.69C458.47,231.51,453.13,230.38,447.8,229.24z M415.44,181.35
		c-1.2-0.17-1.96-0.26-2.71-0.4c-4.83-0.87-9.66-1.77-14.49-2.62c-0.88-0.15-2.15-0.61-2.44,0.49c-0.35,1.34,1.15,1.28,2.06,1.44
		c5.9,1.09,11.81,2.13,17.72,3.2c2.53,0.46,2.94,0.07,2.12-2.09c-1.99-5.25-4.02-10.48-6.02-15.72c-0.13-0.34-0.26-0.67-0.42-0.99
		c-0.25-0.53-0.71-0.78-1.31-0.6c-0.61,0.19-0.79,0.67-0.63,1.21c0.16,0.55,0.38,1.08,0.58,1.62
		C411.7,171.59,413.5,176.29,415.44,181.35z"/>
	<path class="st3" d="M502.04,347.21c-12.23-0.19-22.84-3.14-32.7-8.37c-1.3-0.69-2.22-0.77-3.6-0.15
		c-11.86,5.35-23.76,10.6-35.71,15.8c-10.85,4.72-18.44-0.72-21.74-7.63c-3.55-7.42-2.7-11.64,3.75-17.29
		c6.22-5.44,13.56-9.43,21-13.25c4.5-2.31,8.94-4.89,13.74-6.5c6.01-2.01,11.94-4.48,18.44-5.09c2.81-0.26,5.43,0.34,7.94,1.51
		c6.19,2.91,12.13,6.25,18.57,8.73c6.86,2.64,13.6,3.4,20.7,0.58c4.44-1.76,9.13-3.05,14-3.54c3.98-0.4,7.72-0.06,10.17,3.42
		c0.58,0.83,0.75,1.62,0.46,2.62c-1.76,6.11-4.26,11.95-7.91,17.31c-5.14,7.54-13.18,10.63-22.47,11.58
		C504.89,347.16,503.08,347.16,502.04,347.21z M451.45,309.62c-4.75,2.26-9.29,4.34-13.74,6.55c-8.53,4.26-17.02,8.58-24.15,14.72
		c-5.92,5.1-6.62,8.6-3.28,15.29c3.84,7.69,10.36,9.95,18.82,6.49c11.86-4.86,23.46-10.17,35.1-15.44c0.38-0.17,0.95-0.2,0.92-0.77
		C453.11,327.39,451.33,323.93,451.45,309.62z"/>
	<path class="st4" d="M539.43,302.58c5.17-2.47,10.38-4.91,15.54-7.43c6.35-3.09,12.71-6.18,19.01-9.37
		c4.62-2.35,8.09-5.61,9.06-10.6c1.29-6.63-4.15-13.19-11.5-13.91c-6.21-0.61-12.17,0.66-18.05,2.21
		c-10.51,2.75-20.47,6.69-29.97,11.58c-0.19,0.1-0.32,0.29-0.58,0.55c4.7,3.21,9.09,6.6,11.42,11.67c2.16,4.68,3.78,9.48,4.16,14.91
		c-6.73-3.98-12.96-1.77-19.11,0.82c-2.49,1.05-4.87,2.29-7.26,3.5c-5.72,2.91-11.45,2.89-17.32,0.32
		c-4.05-1.78-7.83-3.95-11.25-6.56c-5.43-4.17-11.48-5.19-18.26-3.65c-3.1,0.7-6.26,1.16-9.9,1.82c0.98-1.75,1.68-3.14,2.5-4.48
		c4.47-7.14,10.18-13.32,17.11-18.61c10.51-8.02,22.17-9.68,34.99-5.65c3.12,0.98,6.14,2.19,8.94,3.75
		c1.24,0.69,2.16,0.67,3.41,0.03c11.5-5.94,23.59-10.55,36.53-13.22c4.07-0.84,8.19-1.43,12.36-0.98
		c6.83,0.74,11.52,4.2,13.47,10.13c2.08,6.3-0.64,11.47-5.85,15.65c-2.24,1.8-4.93,3.04-7.55,4.31
		c-9.61,4.66-19.24,9.27-28.85,13.94C541.24,303.9,540.19,304.27,539.43,302.58z"/>
	<path class="st5" d="M417.22,137.16c-10.7,0.98-20.78-0.93-30.27-5.51c-1.86-0.89-3.77-1.71-5.66-2.57
		c-1.26-0.85-2.53-1.68-3.77-2.55c-9.76-6.92-12.87-15.95-9.63-26.65c3.88-12.8,12.21-22.86,24.08-30.47
		c7.73-4.96,16.26-5.61,25.15-3.29c1.73,0.46,2.25,0.14,2.72-1.37c1.79-5.76,3.73-11.48,5.63-17.22c0.3-0.91,0.47-1.6-0.43-2.49
		c-1.21-1.18-0.3-3.5,1.54-4.53c1.35-0.77,3.3-0.34,4.15,0.9c0.99,1.45,0.38,4.19-1.3,4.65c-1.36,0.37-1.6,1.13-1.91,2.1
		c-1.87,5.74-3.68,11.49-5.69,17.2c-0.57,1.61-0.15,2.22,1.46,2.83c1.94,0.72,3.77,1.73,5.6,2.69c12.48,6.55,16.3,17.15,16.28,29.38
		c-0.01,9.59-3.36,18.4-8.8,26.5C432.05,133.21,425.15,136.07,417.22,137.16z M412.94,111.34l0.05,0.05
		c0.83-0.88-0.26-1.21-0.67-1.62c-2.57-2.6-5.27-5.09-7.81-7.73c-0.99-1.03-1.75-1.05-2.96-0.38c-5.74,3.15-8.38,8.09-9.8,13.78
		c-0.26,1.06,0.19,1.38,1.26,1.5c1.31,0.15,2.61,0.47,3.92,0.71c0.71,0.13,1.2,0.45,1.07,1.15c-0.14,0.76-0.83,0.79-1.46,0.69
		c-1.77-0.28-3.54-0.66-5.32-0.88c-1.58-0.21-2.11-0.85-1.8-2.32c0.87-4.19,2.37-8.12,5.23-11.57c0.34-0.41,1.01-0.71,0.76-1.5
		c-1.21-0.12-2.05,0.41-2.77,1.22c-1.15,1.29-1.89,2.78-2.42,4.37c-1.97,5.79-3.9,11.58-5.98,17.34c-0.49,1.37-0.17,1.99,1.14,2.7
		c7.6,4.07,15.76,6.23,24.58,6.41c5.49,0.11,5.49,0.14,5.92-4.78c0.03-0.28,0.08-0.57,0.08-0.86c-0.01-2.06,0.46-3.24,3.37-2.85
		c3.21,0.43,5.92-2.01,6.24-4.92c0.29-2.73-2-5.63-5.04-5.75c-1.94-0.08-2.95-0.9-3.98-2.09c-0.78-0.89-1.66-1.71-2.52-2.54
		C413.72,111.18,413.38,110.7,412.94,111.34z M399.73,98.25c-3.3-4.26-2.99-7.95,0.89-10.1c1.17-0.65,1.35-0.98,0.77-2.19
		c-1.79-3.73,1.45-7.54,5.94-7.14c1.09,0.1,2.17,0.31,3.25,0.47c2.46,0.37,4.53,1.25,5.29,3.64c0.73,2.32-0.04,4.27-2.19,5.63
		c-1.25,0.79-0.15,1.12,0.23,1.58c2.2,2.72,1.87,6.09-0.88,8.27c-0.62,0.49-1.35,0.87-2.05,1.31c5.96,4.27,8.3,7.48,8.62,12.19
		c0.09,1.43,0.53,2.02,2.14,2.39c3.72,0.86,6.01,3.88,5.91,7.33c-0.09,3.36-2.67,6.61-6.44,6.89c-3.09,0.23-3.41,1.63-3.43,3.74
		c0,0.5-0.02,1-0.11,1.49c-0.23,1.16,0.34,1.35,1.43,1.13c5.35-1.06,10.4-2.91,13.64-7c8.33-10.56,11.97-22.36,9.61-35.35
		c-1.1-6.06-3.32-11.76-8.66-15.99c-4.79-3.8-10.19-6.63-16.26-8.36c-9.77-2.79-18.7-1.43-26.77,4.42
		c-7.35,5.34-13.11,11.82-17.32,19.48c-2.37,4.32-3.91,8.84-4.42,13.66c-0.87,8.37,4.83,17.71,12.92,20.94
		c2.07-6.06,4.19-12.1,6.21-18.17C389.83,103.17,393.6,99.72,399.73,98.25z"/>
	<path class="st4" d="M498.09,37.79c3.04,3.53,6.08,7.05,9.11,10.57c3.14,3.65,6.35,7.25,9.35,11c1.13,1.4,2.3,1.59,3.98,1.33
		c6.38-1,12.77-1.91,19.71-2.94c-3.53,3.88-6.7,7.39-9.9,10.89c-4.93,5.39-4.88,5.38-4.21,12.4c0.49,5.19,0.82,10.39,1.21,15.59
		c0.02,0.19-0.05,0.39-0.13,0.97c-1.83-1.99-3.46-3.75-5.08-5.52c-3.3-3.63-6.6-7.25-9.86-10.91c-0.72-0.81-1.44-1.06-2.61-0.94
		c-6.61,0.68-13.25,1.27-19.9,1.89c-0.27-0.77,0.48-0.98,0.86-1.31c4.78-4.23,9.57-8.45,14.39-12.63c0.96-0.83,1.21-1.55,0.84-2.78
		c-2.75-9.13-5.38-18.29-8.06-27.44C497.9,37.89,498,37.85,498.09,37.79z"/>
	<path class="st4" d="M106.42,214.44c-6.79,0.75-13.4,1.51-20.02,2.18c-1.28,0.13-2.13,0.57-2.95,1.44
		c-4.72,5.06-9.49,10.07-14.26,15.09c-0.49,0.51-0.99,1.01-1.97,2.02c0.66-5.3,1.23-9.94,1.8-14.58c0.28-2.27,0.49-4.55,0.89-6.8
		c0.22-1.17-0.23-1.84-1.17-2.53c-4.92-3.65-9.78-7.34-14.68-11.01c0.5-0.73,1.18-0.42,1.74-0.42c6.19-0.06,12.39-0.15,18.58-0.09
		c1.81,0.02,2.96-0.44,4.03-1.85c5-6.56,10.15-13.03,15.25-19.53c0.49-0.63,0.99-1.24,1.78-1.74c-1.84,8.13-3.6,16.27-5.57,24.37
		c-0.37,1.5,0.12,2.15,1.33,2.93c4.54,2.93,9.02,5.93,13.49,8.94C105.29,213.29,106.11,213.51,106.42,214.44z"/>
	<path class="st6" d="M310.49,71.42c-0.71,0.02-1.43,0.04-2.14,0.05c0.35-2.91,0.64-5.81,1.09-8.71c0.19-1.21-0.23-1.8-1.45-2.25
		c-2.1-0.77-4.14-1.7-6.19-2.58c-5.59-2.42-6.43-9.22-1.5-12.7c1.08-0.76,1.46-1.13,0.56-2.37c-2.02-2.77-0.98-6.55,2.14-8.44
		c0.75-0.46,1.18-0.61,0.58-1.54c-1.54-2.38-1.4-4.85,0.44-7.01c1.95-2.28,4.79-2.98,7.81-2.49c6.09,0.99,12.16,2.09,18.18,3.35
		c2.13,0.45,2.85-0.04,3.33-1.89c1.1-4.23,2.43-8.4,3.69-12.6c0.93-3.12,3.24-4.98,6.6-5.77c4.69-1.1,8.13,1.63,7.6,6.03
		c-0.61,5.02-1.24,10.04-1.88,15.07c-1.74,13.74-3.5,27.49-5.24,41.22c-0.75,0.03-1.5,0.06-2.25,0.09c0.13-0.63,0.31-1.26,0.38-1.9
		c1.91-15.24,3.82-30.48,5.73-45.73c0.09-0.71,0.04-1.31-0.54-1.96c-2.78-3.11-2.81-5.13-0.41-8.52c0.38-0.55,1.44-1.04,0.92-1.77
		c-0.58-0.8-1.7-0.98-2.77-0.82c-3.13,0.46-5.33,1.9-6.18,4.83c-1.35,4.68-2.87,9.33-4.1,14.05c-0.52,2.01-1.57,2.3-3.51,1.87
		c-2.39-0.54-4.83-0.89-7.59-1.39c0.82,1.07,1.77,1.24,2.56,1.65c2.17,1.13,4.56,1.91,6.31,3.65c2.64,2.62,2.61,6.51-0.17,8.84
		c-0.83,0.69-1.88,1.18-2.82,1.76c3.66,4.37,3.18,7.34-1.79,10c-1.14,0.61-0.58,1.06-0.28,1.68c1.35,2.82,0.75,5.39-1.57,7.47
		c-2.24,2.02-5.06,2.48-8.06,1.49c-1.62-0.53-3.25-1.08-4.78-1.77c-1.3-0.58-1.63-0.11-1.74,0.97
		C311.16,66.04,310.82,68.73,310.49,71.42z M326.8,44.53c0.2-0.38-0.17-0.39-0.4-0.49c-6.49-2.79-12.98-5.59-19.48-8.37
		c-0.6-0.26-1.23-0.12-1.83,0.05c-3.19,0.86-4.14,4.68-1.74,6.97c1.34,1.28,3.12,1.87,4.82,2.59c4.29,1.8,8.58,3.58,13.08,5.45
		c-1.07-3.76,0.72-7.18,5.2-6.73c-0.17,0.36,0.12,0.43,0.4,0.49c0.08,0.94,0,1.6-1.43,1.62c-2.19,0.03-3.02,1.8-1.74,3.49
		c0.37,0.48,0.81,0.87,0.4,1.5c-0.71,1.1,0.38,1,0.95,1.06c2,0.19,4.27-1.37,4.7-3.14C330.22,46.97,329.2,45.39,326.8,44.53z
		 M320.27,62.6c3.23-0.05,5.12-1.39,5.71-3.74c0.56-2.23-0.62-4.26-3.14-5.31c-5.68-2.4-11.35-4.78-17.04-7.15
		c-2.09-0.87-3.84-0.44-5.24,1.29c-2.5,3.06-1.46,6.88,2.33,8.57c5.13,2.28,10.51,4.05,15.78,6.02
		C319.29,62.51,320.01,62.55,320.27,62.6z M330.19,33.24c-5.69-2.66-10.84-5.16-16.1-7.45c-1.19-0.52-2.69-0.71-4.15-0.57
		c-2.85,0.27-4.73,1.57-5.16,3.65c-0.42,2.04,0.8,4.2,3.21,5.22c5.89,2.5,11.81,4.93,17.74,7.35c1.96,0.8,3.72,0.07,5.19-1.06
		c1.51-1.16,1.89-2.75,1.32-4.48c-0.43-1.3-0.73-1.36-1.95-0.61c-0.28,0.17-0.73,0.18-1.1,0.18c-2.47,0.01-3.5,1.42-2.37,3.37
		c0.31,0.55,0.7,0.99,0.07,1.49c-0.73,0.57-1.32,0.15-1.81-0.34c-0.9-0.9-1.24-1.95-0.86-3.16
		C324.92,34.54,326.56,33.43,330.19,33.24z M348.91,11.79c-1.35,1.95-2.05,3.46-0.53,5.42C348.67,15.42,349.07,13.91,348.91,11.79z"
		/>
	<path class="st4" d="M559.45,157.6c-2.29,7.85-4.45,15.47-6.77,23.05c-0.43,1.42-0.1,2.19,1.03,3.11c3.5,2.86,6.9,5.81,10.32,8.76
		c0.53,0.46,1.31,0.77,1.47,1.67c-5.11,0-10.18,0.15-15.23-0.06c-2.81-0.12-4.85,0.64-6.86,2.39c-4.5,3.95-9.21,7.7-14.13,11.77
		c-0.03-2.03,0.68-3.6,1.07-5.2c1.06-4.24,2.16-8.47,3.39-12.66c0.36-1.21,0.08-1.97-0.84-2.83c-3.8-3.56-7.51-7.18-11.75-11.25
		c3.88,0.39,7.1,0.71,10.31,1.05c2.81,0.29,5.62,0.51,8.4,0.93c1.29,0.19,2-0.12,2.75-1.04c5.32-6.53,10.69-13.01,16.05-19.5
		C558.7,157.71,558.91,157.72,559.45,157.6z"/>
	<path class="st4" d="M62.21,298.98c-3.63,4.19-6.8,8.08-10.26,11.74c-1.65,1.74-2.04,3.45-1.8,5.64
		c0.58,5.47,0.94,10.96,1.37,16.44c0.03,0.33,0.22,0.69-0.31,1.12c-3.89-4.45-7.86-8.82-11.6-13.36c-1.32-1.6-2.67-2.01-4.75-1.79
		c-5.05,0.57-10.12,0.94-15.91,1.45c1.33-1.25,2.21-2.09,3.11-2.91c3.26-2.99,6.48-6.02,9.83-8.91c1.26-1.08,1.45-2.07,0.99-3.55
		c-2.37-7.83-4.63-15.69-6.95-23.64c0.94,0.17,1.13,0.83,1.5,1.29c4.87,5.86,9.77,11.71,14.55,17.63c0.97,1.19,1.89,1.57,3.51,1.3
		C50.84,300.55,56.18,299.84,62.21,298.98z"/>
	<path class="st6" d="M467.46,190.27c-0.74-1.01-1.08-2.15-1.25-3.34c1.5-3.38,2.38-6.94,3.1-10.49c0.64-3.18-0.67-5.96-3.59-7.87
		c-2.41-1.58-5-2.93-7.51-4.37c-0.38-0.95-0.9-1.85-0.94-2.9c3.35,1.96,6.86,3.74,10.02,5.92c3.68,2.54,5,6.18,4.02,10.28
		C470.27,181.82,469.03,186.1,467.46,190.27z"/>
	<path class="st7" d="M237.61,96.65c8.88,1.37,17.54,2.69,26.19,4.03c11.28,1.75,22.54,3.55,33.84,5.23
		c1.88,0.28,2.33,0.77,1.9,2.52c-5,20.75-9.92,41.52-14.85,62.28c-0.99,4.18-2.05,8.35-2.95,12.55c-0.26,1.26-0.79,1.46-2.05,1.23
		c-19.74-3.61-39.49-7.19-59.23-10.75c-1.34-0.25-1.9-0.48-1.54-2.01c5.78-24.47,11.45-48.95,17.2-73.43
		C236.29,97.54,236.06,96.13,237.61,96.65z M256.95,132.95c-5.12,1.38-8.95,5.8-8.81,9.93c0.1,3.03,3.18,5.62,7.67,6.48
		c4.02,0.77,7.1-0.36,8.64-3.16c2.69-4.89,1.79-8.6-3.08-12.42c1.1-1.11,2.2-2.21,3.3-3.33c0.45-0.46,0.75-0.98,0.15-1.49
		c-0.58-0.51-1.13-0.25-1.65,0.16c-0.79,0.62-1.29,1.56-2.5,1.98c0.11-0.94,0.22-1.71,0.3-2.49c0.07-0.61-0.05-1.21-0.82-1.33
		c-0.77-0.13-1.1,0.37-1.24,1c-0.16,0.73-0.35,1.45-0.54,2.26c-0.93-0.64-1.08-1.54-1.52-2.26c-0.4-0.65-0.89-1.07-1.68-0.67
		c-0.7,0.35-0.53,0.99-0.27,1.51C255.53,130.36,256.2,131.55,256.95,132.95z"/>
	<path class="st0" d="M84.97,76.67c0.13,4.15-0.81,8.09-2.81,11.79c-4.38,8.08-10.34,15.02-18.7,19.94
		c-10.84,6.39-22.24,7.1-33.56,1.2c-10.24-5.35-18.43-12.81-22.62-23C0.28,69.54,12.4,48.36,32.15,42.46
		c10.43-3.12,20.5-2.52,30.07,2.75c10.53,5.79,19,13.06,21.92,24.46C84.73,71.98,85,74.31,84.97,76.67z"/>
	<path class="st8" d="M106.57,306.28c3.78-4.17,8.16-6.59,14.24-6.45c9.72,0.21,19.46,0.07,29.19,0.05c1.29,0,2.44,0.2,3.62,0.7
		c5.25,2.22,10.54,4.4,15.85,6.52c0.86,0.35,2.12,1.51,2.83,0.18c0.72-1.36-1.01-1.49-1.9-1.86c-5.25-2.21-10.54-4.37-15.8-6.54
		c0.11-0.83,0.89-1.03,1.41-1.41c4.35-3.16,8.74-6.27,13.08-9.45c0.96-0.7,1.64-0.92,2.87-0.34c17.62,8.42,35.26,16.79,52.93,25.12
		c1.58,0.75,1.84,1.21,0.6,2.55c-3.58,3.87-6.99,7.89-10.46,11.85c-0.53,0.61-1.02,1.19-2.05,1.23c-6.41,0.22-11.69,2.98-16.68,6.29
		c-2.28,1.51-4.45,3.18-6.48,4.95c-1.19,1.03-2.08,1.19-3.61,0.54c-18-7.71-36.04-15.34-54.07-22.99
		c-7.88-3.34-15.76-6.68-23.64-10.03C107.85,306.91,107.25,306.6,106.57,306.28z"/>
	<path class="st8" d="M125.38,61.18c6.13,1.41,10.27,4.34,12.76,9.52c3.47,7.25,7.44,14.3,11.14,21.46
		c0.53,1.02,1.23,1.76,2.25,2.36c4.86,2.88,9.63,5.89,14.56,8.67c1.77,1,2.05,2.01,1.7,3.79c-3.5,17.61-6.9,35.24-10.24,52.87
		c-0.31,1.64-0.83,1.96-2.52,1.51c-3.9-1.04-7.84-2.01-11.81-2.83c-1.64-0.34-1.83-0.94-1.64-2.34c1.15-8.92,1.41-17.81-2.43-26.36
		c-2.59-5.76-7.03-9.89-13.41-12.2c-0.83-0.3-1.43-0.45-1.41-1.53C124.71,97.85,125.04,79.58,125.38,61.18z"/>
	<path class="st8" d="M425.26,224.3c6.83,1.29,13.6,2.78,20.32,4.48c-6.05,9.88-12.05,19.8-18.19,29.62
		c-2.51,4.03-7.65,5.24-12.24,3.16c-1.68-0.76-3.26-1.7-4.98-2.39c-1.54-0.61-1.59-1.32-0.94-2.61
		C414.63,245.83,419.94,235.06,425.26,224.3z"/>
	<path class="st9" d="M280.54,188.22c-0.43,1.81-0.88,3.62-1.28,5.43c-0.38,1.74-1.74,0.85-2.6,0.69c-8.9-1.63-17.79-3.3-26.66-5.04
		c-10.55-2.07-21.09-4.27-31.65-6.31c-1.53-0.3-1.98-0.76-1.57-2.11c0.55-1.78,0.37-4.27,1.62-5.19c1.29-0.95,3.8,0.36,5.76,0.73
		c18.16,3.44,36.32,6.89,54.46,10.38C279.42,186.97,280.89,186.67,280.54,188.22z"/>
	<path class="st9" d="M348.52,200.65c-0.55,2.07-0.99,3.81-1.5,5.52c-0.35,1.16-1.27,0.48-1.93,0.37
		c-13.38-2.36-26.75-4.74-40.11-7.13c-7.37-1.31-14.74-2.69-22.13-3.94c-1.42-0.24-1.86-0.57-1.37-1.9c0.52-1.41,0.85-2.9,1.04-4.38
		c0.18-1.38,0.74-1.52,2.15-1.25c13.17,2.56,26.35,5.05,39.53,7.56c7.51,1.43,15.02,2.84,22.52,4.32
		C347.38,199.96,348.64,199.68,348.52,200.65z"/>
	<path class="st10" d="M124.29,119.17c8.36,3.02,12.61,8.62,14.54,15.84c1.9,7.09,1.53,14.28,0.63,21.47
		c-0.11,0.88-0.43,1.03-1.35,0.8c-4.46-1.08-8.93-2.12-13.4-3.15c-0.8-0.18-1.15-0.53-1.14-1.33
		C123.83,141.69,124.05,130.57,124.29,119.17z"/>
	<path class="st10" d="M356.04,186.52c2.32,1.45,3.87,3.52,5.07,5.73c3.57,6.61,6.98,13.29,10.45,19.95
		c-7.14-1.26-14.28-2.54-21.43-3.77c-1.17-0.2-1.29-0.71-1.03-1.64c0.56-2,0.92-4.06,1.58-6.02c0.59-1.79,0.25-2.69-1.98-2.89
		c-1.99-0.18-3.93-0.69-6.44-1.16C347.12,193.12,351.57,189.82,356.04,186.52z"/>
	<path class="st9" d="M327.79,168.38c0.64,0.71,1.84,0.75,2.35,1.6c-0.02,0.14-0.03,0.26-0.03,0.4c-4.46,3.64-8.11,7.89-11.48,12.37
		c-1.81,2.41-3.51,4.89-5.69,7.05c-0.93,0.93-1.77,1.29-3.23,0.97c-3.26-0.74-6.58-1.29-9.89-1.81c-1.27-0.2-1.69-0.44-0.83-1.57
		c4.01-5.27,7.6-10.78,12.51-15.46c4.18-3.98,9.01-5.47,14.88-3.94c0.27,0.07,0.58,0.01,0.87,0l-0.03-0.08
		C327.06,168.43,327.54,168.3,327.79,168.38z M309.44,189.29c1.03-0.04,2.17-0.54,2.89-1.7c0.36-0.58,0.68-1.2-0.09-1.69
		c-0.65-0.4-1.08-0.04-1.58,0.43c-1.73,1.62-3.56,1.26-4.24-0.82c-0.2-0.6-0.4-1.15-1.17-1.07c-0.88,0.09-1.01,0.76-1.03,1.45
		C304.18,187.78,306.35,189.32,309.44,189.29z"/>
	<path class="st11" d="M330.8,170.46c3.81,1.9,7.32,4.19,10.71,6.63c-5.21,4.89-10.47,9.74-14.57,15.49
		c-0.67,0.94-1.37,1.21-2.5,0.93c-0.74-0.18-1.53-0.23-2.29-0.34c1.08-0.96,3.03-0.54,3.81-2.01c0.34-0.65,0.89-1.3,0.05-1.89
		c-0.8-0.56-1.18,0.08-1.69,0.57c-1.12,1.09-3.81,1-3.9-0.16c-0.13-1.75-1.34-1.78-2.56-2.08c3.21-5.43,7.59-10.06,12.12-14.58
		C330.72,172.28,331.66,171.61,330.8,170.46z"/>
	<path class="st11" d="M343.2,178.13c3.91,2.18,7.87,4.27,11.21,7.2c-5.2,3.65-10.14,7.6-15.62,10.93c0.19-1.09,1.37-1.31,1.69-2.21
		c0.18-0.5,0.3-0.99-0.21-1.37c-0.54-0.4-0.99-0.11-1.45,0.22c-2.3,1.59-3.7,1.2-4.33-1.24c-0.14-0.54-0.32-0.98-0.99-0.97
		c-0.65,0.02-0.9,0.45-1.04,0.98c-0.28,1.02,0.08,1.88,1.58,3.53c-0.49-0.08-0.83-0.15-1.18-0.2c-4.78-0.78-4.78-0.78-1.8-4.42
		C334.69,186.1,339.11,182.25,343.2,178.13z"/>
	<path class="st11" d="M190.18,341.82c6.49-5.32,12.81-10.14,21.39-11.47c0.38,0.46,0.01,0.71-0.19,0.94
		c-3.86,4.39-7.72,8.77-11.58,13.16c-0.5,0.57-0.92,1.15-1.9,0.71C195.46,344.08,192.99,343.04,190.18,341.82z"/>
	<path class="st6" d="M317.86,187.59c1.22,0.3,2.42,0.33,2.56,2.08c0.09,1.17,2.79,1.26,3.9,0.16c0.5-0.49,0.89-1.13,1.69-0.57
		c0.84,0.59,0.3,1.24-0.05,1.89c-0.78,1.48-2.73,1.05-3.81,2.01c-0.19,0-0.38-0.01-0.55-0.01c0.42-1.05-0.66-0.71-1.07-0.9
		c-1.32-0.6-2.3-1.36-2.58-2.79c-0.13-0.65,0.92-1.3-0.07-1.88L317.86,187.59z"/>
	<path class="st11" d="M317.88,187.58c0.99,0.57-0.06,1.23,0.07,1.88c0.28,1.43,1.26,2.2,2.58,2.79c0.41,0.19,1.5-0.15,1.07,0.9
		c-2.38-0.52-4.77-1.05-7.49-1.65C315.51,190.04,316.69,188.81,317.88,187.58z"/>
	<path class="st11" d="M330.13,170.38c0-0.14,0.01-0.26,0.03-0.4c0.23,0.17,0.47,0.34,0.7,0.51
		C330.62,170.46,330.37,170.42,330.13,170.38z"/>
	<path class="st10" d="M310.49,71.42c0.32-2.7,0.67-5.39,0.96-8.08c0.12-1.08,0.44-1.55,1.74-0.97c1.55,0.68,3.17,1.24,4.78,1.77
		c3,0.98,5.82,0.52,8.06-1.49c2.32-2.09,2.92-4.66,1.57-7.47c-0.3-0.63-0.85-1.07,0.28-1.68c4.96-2.66,5.45-5.62,1.79-10
		c0.95-0.58,1.99-1.07,2.82-1.76c2.79-2.32,2.81-6.22,0.17-8.84c-1.75-1.74-4.15-2.52-6.31-3.65c-0.79-0.41-1.75-0.58-2.56-1.65
		c2.75,0.49,5.19,0.85,7.59,1.39c1.94,0.44,2.98,0.14,3.51-1.87c1.22-4.71,2.74-9.36,4.1-14.05c0.84-2.93,3.05-4.37,6.18-4.83
		c1.07-0.15,2.19,0.02,2.77,0.82c0.53,0.72-0.53,1.21-0.92,1.77c-2.39,3.4-2.36,5.41,0.41,8.52c0.58,0.65,0.63,1.25,0.54,1.96
		c-1.9,15.24-3.81,30.49-5.73,45.73c-0.08,0.64-0.25,1.26-0.38,1.9c-6.71,0.57-13.41,1.15-20.11,1.7
		C317.99,70.9,314.25,71.15,310.49,71.42z"/>
	<path class="st11" d="M458.21,164.21c2.51,1.45,5.1,2.8,7.51,4.37c2.92,1.9,4.23,4.68,3.59,7.87c-0.71,3.55-1.6,7.11-3.1,10.49
		C463.28,179.44,460.81,171.81,458.21,164.21z"/>
	<path class="st11" d="M415.44,181.35c-1.94-5.07-3.74-9.76-5.54-14.46c-0.21-0.54-0.42-1.08-0.58-1.62
		c-0.16-0.55,0.01-1.03,0.63-1.21c0.6-0.18,1.07,0.06,1.31,0.6c0.15,0.33,0.29,0.66,0.42,0.99c2.02,5.24,4.03,10.47,6.02,15.72
		c0.82,2.16,0.41,2.54-2.12,2.09c-5.91-1.06-11.82-2.11-17.72-3.2c-0.91-0.17-2.41-0.11-2.06-1.44c0.28-1.1,1.56-0.66,2.44-0.49
		c4.83,0.86,9.66,1.75,14.49,2.62C413.48,181.09,414.24,181.18,415.44,181.35z"/>
	<path class="st1" d="M327.79,168.38c-0.26-0.08-0.73,0.05-0.54-0.46C327.43,168.07,327.61,168.22,327.79,168.38z"/>
	<path class="st0" d="M451.45,309.62c-0.12,14.31,1.66,17.76,13.66,26.84c0.03,0.58-0.53,0.6-0.92,0.77
		c-11.63,5.27-23.25,10.59-35.1,15.44c-8.46,3.46-14.97,1.19-18.82-6.49c-3.34-6.68-2.64-10.18,3.28-15.29
		c7.13-6.14,15.62-10.47,24.15-14.72C442.16,313.96,446.7,311.88,451.45,309.62z"/>
	<path class="st8" d="M399.73,98.25c-6.14,1.48-9.91,4.91-11.69,10.28c-2.02,6.07-4.14,12.11-6.21,18.17
		c-8.09-3.24-13.79-12.58-12.92-20.94c0.51-4.82,2.05-9.34,4.42-13.66c4.2-7.65,9.96-14.14,17.32-19.48
		c8.07-5.86,17-7.21,26.77-4.42c6.07,1.73,11.46,4.56,16.26,8.36c5.34,4.23,7.55,9.92,8.66,15.99c2.35,13-1.28,24.79-9.61,35.35
		c-3.23,4.09-8.29,5.94-13.64,7c-1.09,0.22-1.66,0.02-1.43-1.13c0.1-0.49,0.11-0.99,0.11-1.49c0.02-2.11,0.35-3.5,3.43-3.74
		c3.76-0.28,6.34-3.54,6.44-6.89c0.09-3.45-2.2-6.47-5.91-7.33c-1.6-0.36-2.04-0.96-2.14-2.39c-0.32-4.71-2.66-7.92-8.62-12.19
		c0.7-0.45,1.43-0.82,2.05-1.31c2.75-2.19,3.09-5.55,0.88-8.27c-0.38-0.46-1.47-0.78-0.23-1.58c2.15-1.37,2.93-3.31,2.19-5.63
		c-0.75-2.39-2.82-3.26-5.29-3.64c-1.08-0.16-2.16-0.38-3.25-0.47c-4.48-0.4-7.73,3.41-5.94,7.14c0.58,1.21,0.4,1.54-0.77,2.19
		C396.75,90.3,396.43,93.99,399.73,98.25z"/>
	<path class="st9" d="M412.94,111.34c0.43-0.64,0.78-0.15,1.06,0.11c0.86,0.83,1.74,1.65,2.52,2.54c1.03,1.18,2.05,2.01,3.98,2.09
		c3.04,0.12,5.34,3.02,5.04,5.75c-0.32,2.92-3.03,5.35-6.24,4.92c-2.91-0.39-3.38,0.79-3.37,2.85c0,0.28-0.06,0.57-0.08,0.86
		c-0.42,4.91-0.42,4.89-5.92,4.78c-8.82-0.17-16.99-2.33-24.58-6.41c-1.31-0.7-1.64-1.33-1.14-2.7c2.07-5.76,4.01-11.56,5.98-17.34
		c0.53-1.59,1.27-3.06,2.42-4.37c0.72-0.81,1.57-1.34,2.77-1.22c0.25,0.79-0.41,1.08-0.76,1.5c-2.85,3.45-4.35,7.37-5.23,11.57
		c-0.31,1.48,0.23,2.11,1.8,2.32c1.78,0.24,3.55,0.6,5.32,0.88c0.65,0.1,1.33,0.06,1.46-0.69c0.13-0.7-0.36-1.02-1.07-1.15
		c-1.3-0.23-2.6-0.55-3.92-0.71c-1.08-0.13-1.53-0.45-1.26-1.5c1.43-5.69,4.06-10.62,9.8-13.78c1.21-0.67,1.98-0.65,2.96,0.38
		c2.52,2.63,5.23,5.13,7.81,7.73c0.4,0.4,1.5,0.73,0.67,1.62c-0.92-0.13-1.38-0.87-2.05-1.31c-4.44-2.97-10.39-2.63-14.42,0.79
		c-1.02,0.87-1.13,1.49-0.1,2.45c4.29,4.01,11.39,4.14,15.86,0.3C413.12,112.88,413.16,112.2,412.94,111.34z M396.5,122.89
		c0.31-0.02,0.63,0,0.93-0.05c0.82-0.14,1.94-0.11,1.84-1.18c-0.1-1.12-1.19-0.87-2.02-0.82c-1.27,0.08-2.5,0.02-3.6-0.61
		c-0.61-0.35-1.2-0.39-1.62,0.21c-0.53,0.76,0.08,1.18,0.69,1.54C393.86,122.64,395.14,122.91,396.5,122.89z"/>
	<path class="st11" d="M320.27,62.6c-0.25-0.05-0.98-0.09-1.61-0.33c-5.27-1.98-10.65-3.74-15.78-6.02
		c-3.79-1.69-4.83-5.5-2.33-8.57c1.42-1.73,3.15-2.17,5.24-1.29c5.69,2.38,11.36,4.76,17.04,7.15c2.52,1.07,3.71,3.09,3.14,5.31
		C325.39,61.21,323.5,62.55,320.27,62.6z M316.84,58.7c0.03,0.16-0.01,0.56,0.14,0.87c0.46,0.98,1.02,2.32,2.38,1.85
		c1.65-0.57,0.22-1.41-0.21-2.15c-0.75-1.3,0.58-3.14,2.26-3.05c0.77,0.04,1.48,0.18,1.63-0.67c0.16-0.97-0.72-1.15-1.5-1.29
		C319.29,53.8,316.9,55.98,316.84,58.7z"/>
	<path class="st11" d="M330.19,33.24c-3.63,0.18-5.27,1.29-5.99,3.6c-0.38,1.22-0.04,2.26,0.86,3.16c0.49,0.5,1.08,0.91,1.81,0.34
		c0.64-0.5,0.24-0.95-0.07-1.49c-1.13-1.95-0.09-3.36,2.37-3.37c0.38,0,0.82-0.01,1.1-0.18c1.22-0.74,1.53-0.69,1.95,0.61
		c0.56,1.72,0.19,3.32-1.32,4.48c-1.47,1.13-3.23,1.86-5.19,1.06c-5.93-2.42-11.86-4.85-17.74-7.35c-2.4-1.02-3.62-3.18-3.21-5.22
		c0.43-2.09,2.31-3.38,5.16-3.65c1.45-0.14,2.96,0.05,4.15,0.57C319.36,28.08,324.51,30.58,330.19,33.24z"/>
	<path class="st11" d="M326.44,44c-4.47-0.46-6.27,2.97-5.2,6.73c-4.49-1.87-8.79-3.65-13.08-5.45c-1.7-0.71-3.48-1.3-4.82-2.59
		c-2.39-2.29-1.44-6.12,1.74-6.97c0.61-0.16,1.23-0.3,1.83-0.05c6.49,2.78,12.98,5.58,19.48,8.37C326.39,44.04,326.44,44,326.44,44z
		"/>
	<path class="st11" d="M326.8,44.53c2.4,0.86,3.43,2.44,2.93,4.51c-0.43,1.77-2.7,3.33-4.7,3.14c-0.57-0.05-1.66,0.05-0.95-1.06
		c0.4-0.62-0.05-1.02-0.4-1.5c-1.28-1.7-0.44-3.46,1.74-3.49c1.43-0.02,1.5-0.68,1.43-1.62L326.8,44.53z"/>
	<path class="st11" d="M348.91,11.79c0.16,2.12-0.24,3.64-0.53,5.42C346.86,15.25,347.56,13.74,348.91,11.79z"/>
	<path class="st11" d="M326.84,44.49c-0.28-0.06-0.57-0.13-0.4-0.49l-0.05,0.04c0.23,0.1,0.59,0.1,0.4,0.49
		C326.8,44.53,326.84,44.49,326.84,44.49z"/>
	<path class="st6" d="M256.95,132.95c-0.75-1.4-1.43-2.6-2.05-3.83c-0.26-0.53-0.42-1.18,0.27-1.51c0.79-0.38,1.28,0.03,1.68,0.67
		c0.44,0.72,0.58,1.62,1.52,2.26c0.2-0.81,0.38-1.54,0.54-2.26c0.14-0.63,0.46-1.13,1.24-1c0.77,0.13,0.88,0.72,0.82,1.33
		c-0.08,0.77-0.19,1.55-0.3,2.49c1.21-0.43,1.72-1.37,2.5-1.98c0.53-0.41,1.07-0.67,1.65-0.16c0.6,0.52,0.3,1.04-0.15,1.49
		c-1.1,1.11-2.2,2.22-3.3,3.33c4.87,3.82,5.77,7.53,3.08,12.42c-1.54,2.8-4.62,3.93-8.64,3.16c-4.48-0.86-7.56-3.45-7.67-6.48
		C248,138.75,251.83,134.33,256.95,132.95z M263.77,141.03c-0.01-3.41-2.61-5.91-6.23-5.98c-3.15-0.07-7.35,4.3-7.31,7.6
		c0.04,2.6,3.93,5.07,7.94,5.02C261.59,147.64,263.77,145.04,263.77,141.03z"/>
	<path class="st6" d="M309.44,189.29c-3.11,0.04-5.27-1.5-5.22-3.41c0.02-0.68,0.14-1.35,1.03-1.45c0.77-0.08,0.97,0.46,1.17,1.07
		c0.68,2.09,2.52,2.44,4.24,0.82c0.49-0.46,0.92-0.83,1.58-0.43c0.78,0.48,0.46,1.1,0.09,1.69
		C311.62,188.75,310.48,189.25,309.44,189.29z"/>
	<path class="st6" d="M412.94,111.34c0.22,0.87,0.18,1.55-0.66,2.27c-4.47,3.84-11.57,3.71-15.86-0.3c-1.02-0.96-0.92-1.58,0.1-2.45
		c4.02-3.43,9.98-3.76,14.42-0.79c0.68,0.45,1.14,1.18,2.05,1.31C412.99,111.38,412.94,111.34,412.94,111.34z M402.55,114.24
		c2.76,0.47,4.97,0.05,7.02-1.19c0.76-0.46,0.97-0.85,0.11-1.39c-2.33-1.49-4.8-2.09-7.89-1.25
		C403.4,111.56,403.42,112.81,402.55,114.24z"/>
	<path class="st6" d="M396.5,122.89c-1.35,0.02-2.64-0.26-3.78-0.92c-0.6-0.35-1.22-0.77-0.69-1.54c0.42-0.6,1.01-0.56,1.62-0.21
		c1.12,0.64,2.34,0.69,3.6,0.61c0.83-0.05,1.91-0.3,2.02,0.82c0.09,1.08-1.02,1.05-1.84,1.18
		C397.13,122.9,396.81,122.88,396.5,122.89z"/>
	<path class="st6" d="M316.84,58.7c0.06-2.72,2.46-4.9,4.71-4.47c0.78,0.15,1.66,0.33,1.5,1.29c-0.14,0.87-0.85,0.72-1.63,0.67
		c-1.68-0.09-3.01,1.76-2.26,3.05c0.42,0.74,1.86,1.58,0.21,2.15c-1.36,0.47-1.92-0.87-2.38-1.85
		C316.83,59.25,316.86,58.87,316.84,58.7z"/>
	<path class="st9" d="M263.77,141.03c0.01,4.01-2.19,6.61-5.6,6.64c-4.01,0.04-7.9-2.42-7.94-5.02c-0.05-3.3,4.16-7.67,7.31-7.6
		C261.17,135.12,263.76,137.62,263.77,141.03z"/>
	<path class="st11" d="M402.55,114.24c0.87-1.43,0.85-2.67-0.76-3.84c3.09-0.84,5.56-0.25,7.89,1.25c0.85,0.55,0.65,0.94-0.11,1.39
		C407.52,114.29,405.31,114.72,402.55,114.24z"/>
</g>
</svg>
