<?xml version="1.0" encoding="utf-8"?>
<!-- Generator: Adobe Illustrator 25.2.1, SVG Export Plug-In . SVG Version: 6.00 Build 0)  -->
<svg version="1.1" id="Camada_1" xmlns="http://www.w3.org/2000/svg" xmlns:xlink="http://www.w3.org/1999/xlink" x="0px" y="0px" viewBox="0 0 595.28 841.89" style="enable-background:new 0 0 595.28 841.89;" xml:space="preserve">
	<style type="text/css">
	.st0{fill:none;}
	.st1{fill:#222222;}
	.st2{fill:#0984E3;}
	.st3{fill:#232323;}
	.st4{fill:#242424;}
	.st5{fill:#2B2A2A;}
	.st6{fill:#2F2F2F;}
	.st7{fill:#FDFDFD;}
	.st8{fill:#FCFCFC;}
	.st9{fill:#FAFAFA;}
	.st10{fill:#FBFBFB;}
	.st11{fill:#F9F8F8;}
</style>
	<g>
		<path class="st0" d="M300.55,737.41c-133.07,0-266.13,0-399.2,0.04c-1.88,0-2.31-0.4-2.3-2.16c0.05-186.63,0.05-373.26,0-559.89
		c0-1.76,0.42-2.16,2.3-2.16c266.13,0.05,532.26,0.05,798.39,0c1.88,0,2.31,0.4,2.3,2.16c-0.05,186.63-0.05,373.26,0,559.89
		c0,1.76-0.42,2.16-2.3,2.16C566.68,737.41,433.62,737.41,300.55,737.41z M393.22,389.74c-1.02,2.05-2.17,4.05-3.04,6.16
		c-0.7,1.69-1.4,1.82-3.05,0.89c-10.03-5.6-20.11-11.13-30.24-16.57c-1.7-0.91-2.19-1.91-2.18-3.68
		c0.07-16.89,0.05-33.78,0.01-50.66c0-0.83,0.74-2.19-1.14-2.27c1.86-15.08,3.73-30.15,5.59-45.23c0.68-5.51,1.35-11.02,2-16.53
		c0.57-4.82-3.1-7.83-8.1-6.62c-3.58,0.87-6.04,2.91-7.04,6.33c-1.34,4.6-2.75,9.18-3.93,13.82c-0.51,2.03-1.29,2.56-3.55,2.07
		c-6.42-1.39-12.89-2.58-19.38-3.68c-3.21-0.54-6.24,0.22-8.32,2.73c-1.97,2.37-2.11,5.09-0.47,7.69c0.64,1.02,0.18,1.19-0.62,1.69
		c-3.32,2.07-4.43,6.22-2.28,9.26c0.96,1.36,0.55,1.77-0.6,2.6c-5.25,3.81-4.36,11.27,1.6,13.93c2.18,0.97,4.36,1.99,6.6,2.83
		c1.31,0.49,1.75,1.13,1.55,2.47c-0.47,3.18-0.78,6.37-1.16,9.56c-5.01,0.98-5.4,1.36-6.14,6.2c-0.31,2-0.5,4.02-0.75,6.03
		c-1,7.88-2.01,15.77-3.02,23.65c-15.56-2.47-31.13-4.93-46.69-7.41c-6.26-1-12.52-1.97-18.76-3.06c-2.22-0.39-3.3,0.26-3.6,2.35
		c-0.23,1.55-0.84,3.05-1,4.59c-0.2,1.94-0.92,2.01-2.69,1.31c-12.83-5.1-25.71-10.1-38.58-15.12c-7.62-2.97-15.25-5.93-23.09-8.97
		c-1.55,8.18-3.07,16.16-4.64,24.42c-5.96-3.68-11.67-7.2-17.39-10.71c-0.6-0.37-0.87-0.92-1.16-1.49
		c-3.73-7.34-7.43-14.7-11.25-22.01c-0.72-1.38-0.38-1.79,1.04-2.27c6.68-2.24,13.33-4.56,19.96-6.91c2.97-1.05,4.41-3.23,4.02-5.78
		c-0.39-2.6-2.37-4.26-5.5-4.59c-4.07-0.44-8.13-0.9-12.21-1.28c-1.97-0.18-3.35-1.03-3.93-2.77c-0.62-1.86,0.11-3.38,1.76-4.52
		c1.41-0.98,2.83-1.94,4.23-2.94c2.57-1.84,3.33-3.76,2.45-6.07c-0.9-2.36-2.97-3.48-6.2-3.35c-1.59,0.06-3.17,0.13-4.76,0.22
		c-2.25,0.13-4.21-0.3-5.17-2.46c-0.98-2.19,0.15-3.75,1.88-5.1c1.15-0.9,2.31-1.81,3.36-2.82c1.75-1.68,2.22-3.7,1.17-5.83
		c-0.98-2.01-2.73-3.13-5.18-3.06c-1.25,0.04-2.51,0.11-3.76,0.21c-11.33,0.91-22.65,1.87-33.98,2.72
		c-10.1,0.76-17.94,4.96-23.37,13.04c-3.43,5.1-7.03,10.1-10.37,15.24c-1.14,1.76-1.91,1.68-3.54,0.57
		c-5.89-3.98-12.29-7.03-19.63-7.75c-19.53-1.9-37.3,7.84-44.85,24.79c-5.02,11.28-5.89,22.68,0.93,33.67
		c4.72,7.61,11.08,13.94,18.87,18.9c14.79,9.42,31.61,8.7,45.48-1.89c7.1-5.42,12.63-12.05,16.72-19.71
		c0.58-1.08,1.29-1.68,2.47-2.09c12.14-4.17,24.27-8.39,36.41-12.59c2.87-0.99,2.88-0.99,2.83,1.87
		c-0.51,27.41-0.99,54.83-1.58,82.24c-0.04,1.96,0.61,2.71,2.6,3.18c10.93,2.58,21.8,5.35,32.73,7.94c1.89,0.45,2.28,1.17,1.91,2.87
		c-0.92,4.21-1.57,8.48-2.51,12.69c-0.39,1.76,0.05,2.39,1.98,2.7c14.57,2.33,29.13,4.75,43.69,7.15c5.15,0.85,10.3,1.72,15.95,2.67
		c-31.06,28.21-61.76,56.08-92.62,84.1c15.51,7.58,30.73,15.02,45.95,22.45c-0.38,0.98-1.19,1.31-1.82,1.78
		c-4.57,3.42-9.2,6.78-13.74,10.24c-1.25,0.96-2.52,1.31-4.12,1.3c-9.62-0.05-19.26,0.35-28.84-0.14
		c-8.29-0.43-14.31,2.76-19.48,8.27c-1.08,1.15-0.97,1.87,0.5,2.49c1.83,0.77,3.63,1.6,5.44,2.39
		c30.95,13.52,61.9,27.02,92.82,40.59c2.03,0.89,3.19,0.72,4.58-0.99c3.69-4.55,7.46-9.05,11.43-13.39
		c6.7-7.33,12.27-15.52,19.91-22.15c11.65-10.11,22.99-20.54,34.52-30.78c1.28-1.14,1.43-1.96,0.56-3.38
		c-2.33-3.8-4.53-7.67-6.66-11.57c-0.52-0.96-2.26-2.32-0.54-3.15c1.69-0.81,1.89,1.31,2.46,2.26c2.28,3.73,4.42,7.54,6.82,11.67
		c2.28-4.77,4.34-9.13,6.44-13.46c0.38-0.79,0.61-2.11,1.98-1.53c1.45,0.61,0.39,1.64,0.04,2.39c-2.14,4.59-4.3,9.16-6.54,13.71
		c-0.69,1.4-0.43,1.94,1.26,2.06c4.08,0.3,8.15,0.75,12.23,1.11c34.95,3.05,69.91,6.09,104.86,9.13c9.09,0.79,14.23-2.05,18.03-9.92
		c4.05-8.41,8.13-16.81,12.13-25.24c0.7-1.47,1.25-2.18,3-1.07c1.58,1.01,3.34,1.77,5.06,2.56c6.13,2.83,12.87,0.99,16.22-4.57
		c6.58-10.89,13.08-21.83,19.61-32.75c5.68,1.26,11.37,2.5,17.05,3.79c4.57,1.04,8.67,0.31,11.98-2.95c3.37-3.32,4-7.27,2.56-11.56
		c-1.55-4.63-3.18-9.23-4.69-13.87c-1.96-6.06-4.38-11.98-5.93-18.16c1.67-4.59,2.99-9.27,4.1-13.99c1.06-4.5-0.36-8.48-4.28-11.28
		c-3.37-2.4-7.1-4.35-10.68-6.5c-0.6-1.62-1.25-3.21-1.78-4.85c-1.85-5.67-5.79-9.1-12.07-10.2c-9.16-1.6-18.29-3.33-27.45-4.89
		c-1.51-0.26-1.97-0.77-1.77-2.13c0.21-1.46,0.25-2.95,0.37-4.43c8.46-1.2,15.81-4.34,20.41-11.39c5.79-8.89,9.36-18.56,9.38-29.08
		c0.02-13.42-4.05-25.05-17.35-32.24c-1.95-1.05-3.9-2.15-5.97-2.95c-1.72-0.66-2.17-1.33-1.56-3.1c2.15-6.25,4.08-12.57,6.07-18.87
		c0.34-1.06,0.6-1.89,2.04-2.3c1.79-0.5,2.44-3.51,1.39-5.1c-0.9-1.36-2.98-1.83-4.42-0.99c-1.95,1.14-2.93,3.67-1.64,4.97
		c0.96,0.96,0.78,1.73,0.46,2.73c-2.03,6.29-4.09,12.57-6,18.89c-0.5,1.64-1.07,1.99-2.9,1.5c-9.48-2.56-18.57-1.83-26.81,3.61
		c-12.66,8.35-21.53,19.39-25.67,33.43c-3.46,11.73-0.13,21.64,10.26,29.24C390.52,387.9,391.88,388.81,393.22,389.74z
		 M521.94,629.06c1.11-0.06,3.04-0.06,4.94-0.26c9.9-1.06,18.46-4.44,23.95-12.71c3.9-5.88,6.56-12.29,8.43-18.99
		c0.31-1.09,0.13-1.97-0.49-2.88c-2.61-3.81-6.6-4.19-10.84-3.75c-5.19,0.54-10.19,1.95-14.92,3.88
		c-7.56,3.09-14.75,2.26-22.06-0.64c-6.87-2.72-13.2-6.38-19.79-9.58c-2.67-1.29-5.46-1.95-8.46-1.66
		c-6.93,0.66-13.26,3.37-19.66,5.58c-5.13,1.77-9.85,4.6-14.65,7.13c-7.94,4.19-15.77,8.57-22.39,14.54
		c-6.88,6.19-7.77,10.82-4,18.97c3.51,7.58,11.6,13.55,23.17,8.37c12.73-5.7,25.42-11.46,38.06-17.33c1.48-0.69,2.45-0.59,3.84,0.17
		C497.6,625.61,508.9,628.84,521.94,629.06z M561.79,580.09c0.81,1.86,1.93,1.45,3.25,0.79c10.24-5.11,20.51-10.18,30.75-15.29
		c2.8-1.4,5.66-2.75,8.05-4.73c5.55-4.59,8.45-10.26,6.24-17.17c-2.09-6.5-7.08-10.3-14.36-11.11c-4.45-0.49-8.84,0.16-13.18,1.08
		c-13.79,2.93-26.68,7.98-38.94,14.5c-1.33,0.71-2.31,0.72-3.63-0.03c-2.99-1.72-6.21-3.04-9.53-4.11c-13.66-4.42-26.1-2.6-37.3,6.2
		c-7.39,5.81-13.47,12.59-18.24,20.42c-0.89,1.45-1.63,2.98-2.67,4.91c3.88-0.73,7.25-1.23,10.55-2c7.23-1.68,13.67-0.57,19.46,4.01
		c3.64,2.88,7.67,5.25,11.99,7.2c6.26,2.83,12.36,2.84,18.46-0.35c2.55-1.33,5.1-2.69,7.74-3.84c6.56-2.84,13.19-5.26,20.37-0.9
		c-0.41-5.96-2.13-11.22-4.43-16.36c-2.49-5.55-7.17-9.28-12.17-12.8c0.28-0.28,0.42-0.49,0.62-0.6
		c10.14-5.37,20.76-9.69,31.95-12.71c6.28-1.7,12.62-3.08,19.24-2.42c7.85,0.79,13.63,7.99,12.26,15.26
		c-1.03,5.46-4.72,9.05-9.66,11.63c-6.71,3.5-13.48,6.89-20.26,10.28C572.86,574.7,567.3,577.38,561.79,580.09z M517.73,289.57
		c-0.1,0.05-0.2,0.11-0.29,0.16c2.85,10.04,5.65,20.09,8.59,30.11c0.4,1.35,0.12,2.14-0.9,3.05c-5.15,4.59-10.25,9.22-15.34,13.86
		c-0.41,0.37-1.21,0.6-0.92,1.44c7.09-0.68,14.16-1.32,21.21-2.07c1.24-0.13,2.01,0.14,2.78,1.03c3.47,4.02,6.99,7.99,10.51,11.97
		c1.72,1.95,3.47,3.88,5.41,6.06c0.08-0.63,0.15-0.85,0.14-1.06c-0.42-5.7-0.76-11.41-1.29-17.1c-0.71-7.71-0.76-7.7,4.49-13.61
		c3.41-3.84,6.79-7.69,10.55-11.95c-7.4,1.13-14.21,2.13-21.01,3.23c-1.8,0.29-3.05,0.08-4.24-1.46c-3.2-4.11-6.62-8.07-9.97-12.07
		C524.21,297.3,520.97,293.44,517.73,289.57z M100.23,483.39c-0.32-1.03-1.19-1.28-1.82-1.71c-4.77-3.3-9.54-6.6-14.38-9.81
		c-1.29-0.86-1.81-1.57-1.42-3.22c2.1-8.89,3.99-17.82,5.94-26.74c-0.83,0.54-1.37,1.22-1.9,1.91
		c-5.44,7.13-10.93,14.23-16.26,21.43c-1.15,1.55-2.37,2.05-4.3,2.03c-6.6-0.06-13.21,0.03-19.81,0.1
		c-0.58,0.01-1.32-0.34-1.85,0.46c5.22,4.04,10.41,8.09,15.65,12.08c1,0.76,1.48,1.49,1.25,2.78c-0.44,2.47-0.65,4.97-0.95,7.46
		c-0.61,5.09-1.22,10.18-1.92,16c1.05-1.11,1.59-1.66,2.1-2.22c5.07-5.51,10.17-11.01,15.2-16.56c0.87-0.96,1.77-1.44,3.14-1.58
		C85.95,485.05,92.99,484.21,100.23,483.39z M583.13,421.02c-0.57,0.13-0.79,0.12-0.86,0.21c-5.72,7.12-11.44,14.24-17.11,21.39
		c-0.79,1-1.56,1.35-2.93,1.14c-2.96-0.46-5.97-0.7-8.95-1.02c-3.42-0.36-6.85-0.71-10.99-1.15c4.51,4.46,8.48,8.44,12.53,12.34
		c0.98,0.94,1.28,1.77,0.9,3.1c-1.31,4.61-2.48,9.25-3.61,13.89c-0.43,1.75-1.17,3.47-1.14,5.7c5.24-4.46,10.26-8.58,15.06-12.91
		c2.14-1.93,4.31-2.75,7.31-2.62c5.38,0.24,10.78,0.07,16.23,0.07c-0.17-0.99-1-1.33-1.57-1.83c-3.64-3.23-7.27-6.48-11-9.61
		c-1.2-1.01-1.56-1.86-1.1-3.41C578.38,437.99,580.69,429.63,583.13,421.02z M53.11,576.14c-6.43,0.95-12.13,1.72-17.8,2.68
		c-1.73,0.29-2.71-0.12-3.74-1.43c-5.11-6.49-10.32-12.91-15.51-19.34c-0.4-0.5-0.6-1.22-1.6-1.41c2.48,8.73,4.87,17.36,7.41,25.94
		c0.48,1.63,0.28,2.7-1.06,3.9c-3.58,3.18-7,6.51-10.48,9.78c-0.96,0.9-1.9,1.82-3.32,3.19c6.17-0.56,11.58-0.97,16.96-1.59
		c2.22-0.26,3.66,0.2,5.06,1.96c3.98,4.98,8.22,9.78,12.36,14.66c0.56-0.46,0.36-0.87,0.33-1.23c-0.46-6.01-0.84-12.04-1.46-18.04
		c-0.25-2.4,0.16-4.28,1.92-6.19C45.86,585,49.23,580.74,53.11,576.14z" />
		<path class="st1" d="M464.12,499.62c-6.53,10.92-13.02,21.86-19.61,32.75c-3.36,5.56-10.09,7.41-16.22,4.57
		c-1.72-0.8-3.49-1.56-5.06-2.56c-1.74-1.12-2.3-0.4-3,1.07c-3.99,8.44-8.08,16.83-12.13,25.24c-3.79,7.87-8.93,10.71-18.03,9.92
		c-34.95-3.04-69.91-6.08-104.86-9.13c-4.08-0.36-8.15-0.8-12.23-1.11c-1.7-0.13-1.96-0.66-1.26-2.06c2.24-4.54,4.4-9.12,6.54-13.71
		c0.35-0.76,1.41-1.79-0.04-2.39c-1.38-0.58-1.6,0.75-1.98,1.53c-2.1,4.34-4.16,8.69-6.44,13.46c-2.4-4.13-4.54-7.93-6.82-11.67
		c-0.58-0.95-0.77-3.07-2.46-2.26c-1.73,0.83,0.01,2.19,0.54,3.15c2.13,3.9,4.33,7.77,6.66,11.57c0.87,1.42,0.72,2.24-0.56,3.38
		c-11.54,10.23-22.87,20.66-34.52,30.78c-7.64,6.63-13.21,14.82-19.91,22.15c-3.97,4.34-7.74,8.84-11.43,13.39
		c-1.39,1.71-2.54,1.88-4.58,0.99c-30.92-13.57-61.87-27.07-92.82-40.59c-1.82-0.79-3.62-1.62-5.44-2.39
		c-1.47-0.63-1.58-1.35-0.5-2.49c5.17-5.51,11.19-8.7,19.48-8.27c9.59,0.49,19.23,0.09,28.84,0.14c1.59,0.01,2.86-0.34,4.12-1.3
		c4.54-3.46,9.16-6.82,13.74-10.24c0.63-0.47,1.44-0.8,1.82-1.78c-15.22-7.44-30.44-14.87-45.95-22.45
		c30.87-28.03,61.56-55.9,92.62-84.1c-5.65-0.95-10.8-1.82-15.95-2.67c-14.56-2.4-29.11-4.82-43.69-7.15
		c-1.92-0.31-2.37-0.94-1.98-2.7c0.94-4.21,1.59-8.48,2.51-12.69c0.37-1.69-0.02-2.42-1.91-2.87c-10.92-2.59-21.8-5.35-32.73-7.94
		c-1.99-0.47-2.64-1.22-2.6-3.18c0.58-27.41,1.07-54.83,1.58-82.24c0.05-2.86,0.04-2.86-2.83-1.87
		c-12.13,4.2-24.26,8.41-36.41,12.59c-1.17,0.4-1.89,1.01-2.47,2.09c-4.1,7.66-9.63,14.29-16.72,19.71
		c-13.87,10.59-30.69,11.31-45.48,1.89c-7.78-4.96-14.15-11.29-18.87-18.9c-6.82-10.99-5.95-22.39-0.93-33.67
		c7.55-16.95,25.32-26.7,44.85-24.79c7.35,0.72,13.74,3.77,19.63,7.75c1.64,1.1,2.4,1.19,3.54-0.57
		c3.34-5.15,6.94-10.15,10.37-15.24c5.44-8.08,13.27-12.28,23.37-13.04c11.33-0.85,22.65-1.81,33.98-2.72
		c1.25-0.1,2.5-0.17,3.76-0.21c2.45-0.07,4.19,1.05,5.18,3.06c1.05,2.14,0.58,4.16-1.17,5.83c-1.05,1.01-2.21,1.92-3.36,2.82
		c-1.73,1.36-2.86,2.91-1.88,5.1c0.97,2.16,2.92,2.59,5.17,2.46c1.59-0.09,3.17-0.16,4.76-0.22c3.24-0.13,5.3,0.99,6.2,3.35
		c0.88,2.31,0.12,4.23-2.45,6.07c-1.39,1-2.82,1.96-4.23,2.94c-1.64,1.15-2.37,2.66-1.76,4.52c0.58,1.74,1.96,2.59,3.93,2.77
		c4.07,0.37,8.14,0.84,12.21,1.28c3.13,0.33,5.11,1.99,5.5,4.59c0.39,2.55-1.06,4.73-4.02,5.78c-6.64,2.35-13.29,4.67-19.96,6.91
		c-1.42,0.48-1.76,0.88-1.04,2.27c3.82,7.31,7.52,14.67,11.25,22.01c0.29,0.57,0.56,1.12,1.16,1.49
		c5.71,3.51,11.42,7.04,17.39,10.71c1.57-8.26,3.09-16.24,4.64-24.42c7.84,3.05,15.47,6,23.09,8.97
		c12.87,5.02,25.74,10.02,38.58,15.12c1.77,0.7,2.49,0.63,2.69-1.31c0.16-1.55,0.78-3.05,1-4.59c0.31-2.09,1.39-2.74,3.6-2.35
		c6.24,1.09,12.5,2.07,18.76,3.06c15.56,2.48,31.13,4.94,46.69,7.41c1.7,0.87,2.37,2.04,1.94,3.98c-1.39,6.28-2.53,12.61-3.89,18.89
		c-0.39,1.82-0.05,3.21,1.1,4.75c9.97,13.35,19.85,26.75,29.72,40.16c0.5,0.68,1.34,1.24,1.2,2.23c-0.31,0-0.64,0.07-0.93,0
		c-6.26-1.68-11.4-0.05-15.86,4.32c-5.24,5.13-9.07,11.18-13.34,16.96c-0.91,1.24-0.46,1.5,0.89,1.72
		c3.53,0.58,7.07,1.18,10.54,1.99c1.56,0.37,2.45-0.04,3.44-1.06c2.32-2.38,4.13-5.1,6.06-7.74c3.59-4.91,7.49-9.58,12.24-13.57
		c0.26,0.04,0.52,0.08,0.78,0.11l-0.06-0.04c0.91,1.27-0.09,2.01-0.87,2.81c-4.84,4.96-9.51,10.03-12.92,16l0.02-0.02
		c-1.26,1.35-2.52,2.71-4.01,4.31c2.91,0.66,5.44,1.23,7.98,1.81c0.2,0,0.4,0.01,0.59,0.01c0.82,0.12,1.65,0.17,2.44,0.37
		c1.21,0.31,1.96,0.01,2.67-1.02c4.36-6.31,9.97-11.64,15.53-17c0.72,0.22,1.36,0.54,1.78,1.15c-4.35,4.52-9.06,8.74-12.96,13.64
		c-3.17,3.99-3.18,3.99,1.92,4.85c0.37,0.06,0.74,0.13,1.26,0.22c-1.61-1.81-1.98-2.75-1.68-3.87c0.16-0.58,0.43-1.05,1.11-1.07
		c0.72-0.02,0.91,0.47,1.06,1.06c0.68,2.68,2.17,3.11,4.62,1.36c0.49-0.35,0.97-0.68,1.55-0.24c0.54,0.41,0.41,0.96,0.22,1.5
		c-0.34,0.99-1.6,1.23-1.8,2.43c5.84-3.65,11.11-7.99,16.66-11.99c0.85,0.12,1.43,0.55,1.75,1.3c-4.76,3.62-9.52,7.24-14.69,11.18
		c2.67,0.51,4.75,1.07,6.86,1.27c2.38,0.23,2.74,1.21,2.11,3.17c-0.7,2.16-1.08,4.42-1.68,6.61c-0.28,1.02-0.15,1.58,1.1,1.8
		c7.62,1.35,15.23,2.75,22.84,4.14c9.3,2.14,18.61,4.26,27.91,6.42c9.78,2.27,19.56,4.57,29.34,6.86
		c-5.68,11.81-11.34,23.63-17.08,35.42c-0.69,1.41-0.65,2.19,1,2.86c1.83,0.74,3.52,1.78,5.31,2.62c4.9,2.28,10.37,0.94,13.05-3.47
		c6.55-10.79,12.94-21.66,19.39-32.5C462.55,499.28,463.33,499.45,464.12,499.62z M240.07,354.15c-1.65-0.57-1.41,0.98-1.59,1.79
		c-6.12,26.85-12.17,53.72-18.33,80.57c-0.39,1.68,0.21,1.95,1.64,2.21c21.05,3.91,42.1,7.84,63.14,11.8
		c1.34,0.25,1.9,0.03,2.18-1.35c0.95-4.61,2.08-9.18,3.14-13.77c5.26-22.78,10.5-45.57,15.83-68.33c0.45-1.92-0.03-2.45-2.03-2.76
		c-12.03-1.85-24.05-3.83-36.07-5.74C258.76,357.1,249.54,355.65,240.07,354.15z M77.37,332.23c0.03-2.59-0.26-5.16-0.89-7.68
		c-3.12-12.52-12.15-20.49-23.37-26.84c-10.2-5.77-20.93-6.44-32.05-3.02c-21.05,6.48-33.97,29.71-26.5,48.45
		c4.45,11.17,13.18,19.36,24.11,25.22c12.06,6.47,24.21,5.69,35.77-1.32c8.91-5.4,15.26-13.02,19.93-21.88
		C76.51,341.11,77.51,336.78,77.37,332.23z M100.39,584.15c0.72,0.35,1.36,0.69,2.02,0.98c8.4,3.67,16.8,7.33,25.2,11
		c19.22,8.39,38.45,16.77,57.64,25.22c1.63,0.72,2.58,0.54,3.85-0.59c2.17-1.94,4.49-3.77,6.91-5.43c5.32-3.63,10.95-6.66,17.78-6.9
		c1.1-0.04,1.62-0.68,2.19-1.35c3.7-4.35,7.33-8.75,11.15-13c1.32-1.47,1.04-1.98-0.64-2.8c-18.83-9.14-37.64-18.32-56.42-27.56
		c-1.3-0.64-2.04-0.4-3.06,0.37c-4.62,3.49-9.31,6.9-13.94,10.37c-0.56,0.42-1.38,0.64-1.5,1.55c5.61,2.38,11.24,4.75,16.84,7.18
		c0.95,0.41,2.8,0.55,2.03,2.04c-0.75,1.46-2.09,0.18-3.02-0.2c-5.66-2.32-11.29-4.71-16.89-7.15c-1.25-0.55-2.49-0.77-3.86-0.77
		c-10.37,0.03-20.74,0.19-31.11-0.05C109.09,576.92,104.42,579.57,100.39,584.15z M120.44,315.23c-0.37,20.19-0.71,40.23-1.13,60.27
		c-0.02,1.19,0.61,1.35,1.5,1.68c6.8,2.54,11.53,7.07,14.29,13.39c4.09,9.38,3.83,19.13,2.59,28.92c-0.19,1.54,0,2.2,1.75,2.57
		c4.23,0.9,8.43,1.96,12.59,3.1c1.81,0.5,2.36,0.14,2.69-1.66c3.55-19.35,7.19-38.69,10.91-58.01c0.38-1.96,0.08-3.06-1.81-4.16
		c-5.25-3.05-10.34-6.35-15.52-9.51c-1.09-0.67-1.84-1.48-2.4-2.59c-3.94-7.85-8.17-15.59-11.87-23.55
		C131.4,320,126.97,316.79,120.44,315.23z M285.83,454.62c0.38-1.7-1.19-1.37-2.03-1.54c-19.34-3.83-38.7-7.62-58.05-11.39
		c-2.09-0.41-4.76-1.84-6.14-0.8c-1.34,1-1.14,3.74-1.73,5.69c-0.45,1.49,0.03,1.99,1.67,2.31c11.26,2.24,22.48,4.65,33.74,6.92
		c9.46,1.91,18.94,3.74,28.42,5.53c0.91,0.17,2.36,1.15,2.77-0.76C284.9,458.59,285.37,456.61,285.83,454.62z M358.29,468.26
		c0.14-1.07-1.2-0.76-1.92-0.9c-7.99-1.62-16-3.17-24.01-4.74c-14.05-2.76-28.11-5.48-42.14-8.3c-1.49-0.3-2.1-0.14-2.29,1.37
		c-0.2,1.62-0.56,3.26-1.11,4.81c-0.52,1.47-0.05,1.83,1.46,2.09c7.88,1.38,15.73,2.88,23.59,4.32c14.25,2.62,28.5,5.23,42.76,7.82
		c0.7,0.13,1.69,0.87,2.06-0.41C357.24,472.44,357.69,470.53,358.29,468.26z M119.28,378.86c-0.25,12.51-0.49,24.71-0.76,36.9
		c-0.02,0.88,0.37,1.26,1.22,1.46c4.77,1.13,9.53,2.27,14.28,3.46c0.98,0.25,1.32,0.09,1.44-0.88c0.96-7.89,1.35-15.77-0.67-23.56
		C132.72,388.32,128.19,382.17,119.28,378.86z M189.51,623.15c3,1.33,5.63,2.47,8.23,3.66c1.05,0.48,1.5-0.15,2.03-0.78
		c4.11-4.82,8.23-9.62,12.34-14.44c0.21-0.25,0.61-0.52,0.2-1.03C203.17,612.03,196.43,617.31,189.51,623.15z" />
		<path class="st2" d="M464.12,499.62c-0.78-0.17-1.57-0.33-2.35-0.5c-7.16-1.87-14.38-3.5-21.66-4.92
		c-9.78-2.29-19.55-4.59-29.34-6.86c-9.3-2.16-18.61-4.28-27.91-6.42c-3.7-7.3-7.33-14.64-11.14-21.89c-1.27-2.42-2.93-4.7-5.4-6.29
		c-0.31-0.75-0.89-1.19-1.75-1.3c-3.55-3.2-7.78-5.51-11.95-7.9c-0.42-0.62-1.06-0.94-1.78-1.15c-3.62-2.68-7.36-5.19-11.42-7.27
		c0,0,0.06,0.04,0.06,0.04c-0.25-0.19-0.5-0.37-0.75-0.56c-0.56-0.94-1.83-0.98-2.51-1.76c-0.19-0.17-0.39-0.34-0.58-0.51l0.03,0.09
		c0.14-0.99-0.71-1.55-1.2-2.23c-9.88-13.4-19.76-26.81-29.72-40.16c-1.15-1.54-1.49-2.93-1.1-4.75c1.36-6.29,2.5-12.61,3.89-18.89
		c0.43-1.94-0.23-3.1-1.94-3.98c1.01-7.88,2.02-15.77,3.02-23.65c0.26-2.01,0.45-4.03,0.75-6.03c0.74-4.84,1.14-5.22,6.14-6.2
		c0.76-0.02,1.52-0.04,2.28-0.06c3.99-0.3,7.99-0.57,11.98-0.91c7.15-0.6,14.29-1.24,21.44-1.86c0.8-0.03,1.6-0.07,2.4-0.1
		c1.88,0.08,1.14,1.45,1.14,2.27c0.04,16.89,0.06,33.78-0.01,50.66c-0.01,1.77,0.49,2.77,2.18,3.68
		c10.13,5.44,20.21,10.97,30.24,16.57c1.65,0.92,2.36,0.8,3.05-0.89c0.87-2.11,2.01-4.11,3.04-6.16c2.01,0.94,4.04,1.84,6.03,2.82
		c10.12,5.02,20.86,7.11,32.27,6.04c-0.12,1.48-0.15,2.96-0.37,4.43c-0.2,1.36,0.26,1.87,1.77,2.13c9.16,1.57,18.3,3.29,27.45,4.89
		c6.28,1.1,10.22,4.53,12.07,10.2c0.53,1.63,1.18,3.23,1.78,4.85c0.03,1.14,0.59,2.14,1,3.18c2.77,8.33,5.4,16.71,8.53,24.94
		c0.18,1.3,0.54,2.55,1.33,3.66c1.55,6.18,3.97,12.1,5.93,18.16c1.5,4.64,3.13,9.24,4.69,13.87c1.44,4.29,0.82,8.24-2.56,11.56
		c-3.31,3.25-7.4,3.98-11.98,2.95C475.49,502.12,469.8,500.88,464.12,499.62z M429.63,447.08c-1.28-0.19-2.09-0.29-2.89-0.44
		c-5.15-0.96-10.3-1.94-15.45-2.88c-0.94-0.17-2.29-0.67-2.6,0.54c-0.37,1.47,1.23,1.4,2.2,1.58c6.29,1.2,12.59,2.34,18.89,3.51
		c2.7,0.5,3.13,0.08,2.26-2.29c-2.12-5.76-4.28-11.5-6.42-17.25c-0.14-0.37-0.28-0.73-0.45-1.09c-0.27-0.58-0.76-0.86-1.4-0.66
		c-0.65,0.21-0.84,0.73-0.67,1.33c0.17,0.6,0.41,1.19,0.62,1.78C425.64,436.37,427.56,441.53,429.63,447.08z" />
		<path class="st3" d="M521.94,629.06c-13.04-0.21-24.35-3.45-34.86-9.18c-1.39-0.76-2.37-0.85-3.84-0.17
		c-12.64,5.87-25.33,11.63-38.06,17.33c-11.57,5.18-19.66-0.79-23.17-8.37c-3.78-8.14-2.88-12.77,4-18.97
		c6.63-5.97,14.45-10.35,22.39-14.54c4.8-2.53,9.53-5.36,14.65-7.13c6.41-2.21,12.73-4.92,19.66-5.58c3-0.28,5.79,0.37,8.46,1.66
		c6.6,3.19,12.93,6.86,19.79,9.58c7.31,2.9,14.5,3.73,22.06,0.64c4.73-1.93,9.73-3.35,14.92-3.88c4.24-0.44,8.23-0.07,10.84,3.75
		c0.62,0.91,0.8,1.78,0.49,2.88c-1.88,6.7-4.54,13.11-8.43,18.99c-5.48,8.27-14.05,11.66-23.95,12.71
		C524.98,629,523.05,629,521.94,629.06z M468.01,587.82c-5.06,2.48-9.9,4.76-14.65,7.19c-9.09,4.67-18.14,9.41-25.74,16.15
		c-6.31,5.6-7.06,9.44-3.5,16.78c4.09,8.44,11.04,10.92,20.06,7.12c12.64-5.33,25.01-11.16,37.41-16.94
		c0.41-0.19,1.01-0.22,0.98-0.85C469.78,607.31,467.88,603.52,468.01,587.82z" />
		<path class="st4" d="M561.79,580.09c5.51-2.71,11.06-5.39,16.57-8.15c6.77-3.39,13.55-6.78,20.26-10.28
		c4.93-2.58,8.62-6.16,9.66-11.63c1.37-7.27-4.42-14.47-12.26-15.26c-6.62-0.67-12.97,0.72-19.24,2.42
		c-11.2,3.02-21.82,7.34-31.95,12.71c-0.2,0.11-0.34,0.32-0.62,0.6c5.01,3.52,9.69,7.24,12.17,12.8c2.3,5.14,4.03,10.4,4.43,16.36
		c-7.17-4.37-13.81-1.94-20.37,0.9c-2.65,1.15-5.19,2.51-7.74,3.84c-6.1,3.19-12.2,3.17-18.46,0.35c-4.32-1.95-8.35-4.33-11.99-7.2
		c-5.79-4.58-12.24-5.69-19.46-4.01c-3.3,0.77-6.67,1.27-10.55,2c1.04-1.92,1.79-3.45,2.67-4.91c4.77-7.83,10.85-14.61,18.24-20.42
		c11.2-8.8,23.63-10.62,37.3-6.2c3.33,1.08,6.54,2.4,9.53,4.11c1.32,0.76,2.3,0.74,3.63,0.03c12.26-6.52,25.15-11.57,38.94-14.5
		c4.34-0.92,8.73-1.57,13.18-1.08c7.28,0.81,12.28,4.61,14.36,11.11c2.22,6.91-0.68,12.58-6.24,17.17
		c-2.39,1.98-5.25,3.33-8.05,4.73c-10.24,5.11-20.51,10.17-30.75,15.29C563.72,581.54,562.6,581.95,561.79,580.09z" />
		<path class="st5" d="M431.52,398.6c-11.41,1.07-22.15-1.02-32.27-6.04c-1.98-0.98-4.02-1.88-6.03-2.82
		c-1.34-0.93-2.7-1.84-4.02-2.8c-10.4-7.59-13.72-17.5-10.26-29.24c4.14-14.04,13.01-25.08,25.67-33.43
		c8.24-5.44,17.33-6.16,26.81-3.61c1.84,0.5,2.4,0.15,2.9-1.5c1.91-6.32,3.98-12.6,6-18.89c0.32-1,0.5-1.76-0.46-2.73
		c-1.29-1.3-0.32-3.84,1.64-4.97c1.44-0.84,3.52-0.37,4.42,0.99c1.05,1.59,0.4,4.6-1.39,5.1c-1.45,0.41-1.71,1.24-2.04,2.3
		c-1.99,6.3-3.92,12.61-6.07,18.87c-0.61,1.77-0.16,2.44,1.56,3.1c2.07,0.79,4.02,1.9,5.97,2.95c13.3,7.19,17.37,18.82,17.35,32.24
		c-0.01,10.52-3.58,20.19-9.38,29.08C447.33,394.26,439.98,397.4,431.52,398.6z M426.96,370.27l0.05,0.05
		c0.89-0.97-0.28-1.33-0.71-1.78c-2.74-2.85-5.62-5.59-8.32-8.48c-1.06-1.13-1.87-1.15-3.16-0.42c-6.12,3.46-8.93,8.88-10.45,15.12
		c-0.28,1.16,0.2,1.51,1.34,1.65c1.4,0.17,2.78,0.52,4.18,0.78c0.76,0.14,1.28,0.49,1.14,1.26c-0.15,0.83-0.88,0.87-1.56,0.76
		c-1.89-0.31-3.77-0.72-5.67-0.97c-1.68-0.23-2.25-0.93-1.92-2.54c0.93-4.6,2.53-8.91,5.57-12.69c0.36-0.45,1.08-0.78,0.81-1.65
		c-1.29-0.13-2.19,0.45-2.95,1.34c-1.23,1.42-2.01,3.05-2.58,4.79c-2.1,6.35-4.16,12.71-6.37,19.03c-0.52,1.5-0.18,2.18,1.22,2.96
		c8.1,4.47,16.8,6.84,26.2,7.03c5.85,0.12,5.85,0.15,6.31-5.24c0.03-0.31,0.08-0.62,0.08-0.94c-0.01-2.26,0.49-3.56,3.59-3.13
		c3.42,0.47,6.31-2.2,6.65-5.4c0.31-3-2.13-6.18-5.37-6.31c-2.07-0.09-3.14-0.99-4.24-2.29c-0.83-0.98-1.77-1.88-2.69-2.79
		C427.79,370.09,427.43,369.57,426.96,370.27z M412.88,355.91c-3.52-4.67-3.19-8.72,0.95-11.08c1.25-0.71,1.44-1.07,0.82-2.4
		c-1.91-4.09,1.55-8.27,6.33-7.83c1.16,0.11,2.31,0.34,3.46,0.52c2.62,0.41,4.83,1.37,5.64,3.99c0.78,2.55-0.04,4.68-2.33,6.18
		c-1.33,0.87-0.16,1.23,0.24,1.73c2.34,2.98,1.99,6.68-0.94,9.07c-0.66,0.54-1.44,0.95-2.18,1.44c6.35,4.69,8.85,8.21,9.19,13.38
		c0.1,1.57,0.57,2.22,2.28,2.62c3.96,0.94,6.41,4.26,6.3,8.04c-0.1,3.69-2.85,7.25-6.86,7.56c-3.29,0.25-3.64,1.79-3.66,4.1
		c0,0.55-0.02,1.1-0.12,1.64c-0.25,1.27,0.36,1.48,1.52,1.24c5.7-1.16,11.09-3.19,14.54-7.68c8.88-11.59,12.76-24.53,10.24-38.79
		c-1.17-6.65-3.54-12.9-9.23-17.54c-5.11-4.17-10.86-7.27-17.33-9.17c-10.41-3.06-19.93-1.57-28.54,4.85
		c-7.84,5.86-13.97,12.97-18.46,21.37c-2.53,4.74-4.17,9.7-4.71,14.99c-0.93,9.18,5.15,19.43,13.77,22.98
		c2.21-6.65,4.47-13.28,6.62-19.94C402.33,361.3,406.35,357.52,412.88,355.91z" />
		<path class="st4" d="M517.73,289.57c3.24,3.87,6.48,7.73,9.71,11.6c3.35,4.01,6.77,7.96,9.97,12.07c1.2,1.54,2.45,1.75,4.24,1.46
		c6.8-1.1,13.61-2.1,21.01-3.23c-3.76,4.26-7.14,8.11-10.55,11.95c-5.25,5.91-5.2,5.9-4.49,13.61c0.52,5.69,0.87,11.4,1.29,17.1
		c0.02,0.21-0.05,0.43-0.14,1.06c-1.95-2.18-3.69-4.11-5.41-6.06c-3.52-3.98-7.04-7.95-10.51-11.97c-0.77-0.89-1.54-1.16-2.78-1.03
		c-7.05,0.75-14.12,1.39-21.21,2.07c-0.29-0.84,0.51-1.07,0.92-1.44c5.09-4.64,10.2-9.27,15.34-13.86c1.02-0.91,1.29-1.7,0.9-3.05
		c-2.93-10.02-5.74-20.07-8.59-30.11C517.53,289.68,517.63,289.63,517.73,289.57z" />
		<path class="st4" d="M100.23,483.39c-7.24,0.82-14.28,1.66-21.34,2.39c-1.36,0.14-2.27,0.62-3.14,1.58
		c-5.03,5.55-10.12,11.05-15.2,16.56c-0.52,0.56-1.05,1.11-2.1,2.22c0.7-5.82,1.31-10.91,1.92-16c0.3-2.49,0.52-4.99,0.95-7.46
		c0.23-1.28-0.25-2.02-1.25-2.78c-5.24-4-10.43-8.05-15.65-12.08c0.53-0.8,1.26-0.46,1.85-0.46c6.6-0.07,13.21-0.16,19.81-0.1
		c1.93,0.02,3.16-0.48,4.3-2.03c5.33-7.2,10.82-14.3,16.26-21.43c0.52-0.69,1.06-1.36,1.9-1.91c-1.96,8.92-3.84,17.85-5.94,26.74
		c-0.39,1.65,0.13,2.36,1.42,3.22c4.84,3.22,9.61,6.51,14.38,9.81C99.03,482.12,99.9,482.37,100.23,483.39z" />
		<path class="st6" d="M317.76,326.47c-0.76,0.02-1.52,0.04-2.28,0.06c0.37-3.19,0.68-6.38,1.16-9.56c0.2-1.33-0.25-1.97-1.55-2.47
		c-2.24-0.85-4.41-1.86-6.6-2.83c-5.96-2.66-6.85-10.12-1.6-13.93c1.15-0.83,1.56-1.24,0.6-2.6c-2.15-3.04-1.04-7.19,2.28-9.26
		c0.8-0.5,1.26-0.67,0.62-1.69c-1.64-2.61-1.49-5.32,0.47-7.69c2.08-2.5,5.11-3.27,8.32-2.73c6.49,1.09,12.96,2.29,19.38,3.68
		c2.27,0.49,3.04-0.04,3.55-2.07c1.17-4.64,2.59-9.22,3.93-13.82c0.99-3.42,3.45-5.46,7.04-6.33c5-1.21,8.67,1.79,8.1,6.62
		c-0.65,5.51-1.32,11.02-2,16.53c-1.86,15.08-3.73,30.16-5.59,45.23c-0.8,0.03-1.6,0.07-2.4,0.1c0.14-0.69,0.33-1.38,0.41-2.08
		c2.04-16.72,4.07-33.44,6.11-50.17c0.1-0.78,0.04-1.44-0.58-2.15c-2.96-3.41-3-5.63-0.44-9.35c0.41-0.6,1.54-1.14,0.98-1.94
		c-0.62-0.88-1.81-1.07-2.95-0.9c-3.34,0.51-5.68,2.08-6.59,5.3c-1.44,5.14-3.06,10.24-4.37,15.42c-0.55,2.2-1.67,2.52-3.74,2.05
		c-2.55-0.59-5.15-0.98-8.09-1.52c0.87,1.17,1.89,1.36,2.73,1.81c2.31,1.24,4.86,2.1,6.73,4.01c2.81,2.87,2.78,7.14-0.18,9.7
		c-0.89,0.76-2,1.29-3.01,1.93c3.9,4.8,3.39,8.05-1.91,10.97c-1.21,0.67-0.62,1.16-0.3,1.84c1.44,3.09,0.8,5.91-1.67,8.2
		c-2.39,2.22-5.39,2.72-8.59,1.64c-1.73-0.58-3.46-1.19-5.1-1.94c-1.39-0.64-1.74-0.12-1.86,1.06
		C318.47,320.56,318.11,323.52,317.76,326.47z M335.14,296.96c0.21-0.42-0.18-0.43-0.43-0.54c-6.92-3.06-13.84-6.13-20.76-9.18
		c-0.64-0.28-1.31-0.13-1.95,0.05c-3.4,0.94-4.41,5.14-1.86,7.65c1.43,1.4,3.33,2.05,5.14,2.84c4.57,1.98,9.15,3.93,13.94,5.98
		c-1.14-4.12,0.77-7.88,5.54-7.38c-0.18,0.4,0.13,0.47,0.43,0.54c0.08,1.03,0,1.76-1.52,1.78c-2.33,0.03-3.22,1.97-1.86,3.83
		c0.39,0.53,0.86,0.96,0.43,1.65c-0.76,1.21,0.4,1.1,1.01,1.16c2.13,0.21,4.55-1.5,5.01-3.44
		C338.79,299.64,337.7,297.91,335.14,296.96z M328.18,316.79c3.44-0.05,5.46-1.52,6.09-4.1c0.6-2.45-0.66-4.67-3.35-5.83
		c-6.05-2.63-12.1-5.24-18.16-7.85c-2.23-0.96-4.09-0.48-5.59,1.41c-2.67,3.36-1.56,7.55,2.48,9.4c5.47,2.5,11.2,4.44,16.82,6.61
		C327.14,316.69,327.91,316.74,328.18,316.79z M338.76,284.58c-6.06-2.92-11.55-5.66-17.16-8.17c-1.27-0.57-2.87-0.78-4.42-0.62
		c-3.04,0.3-5.04,1.72-5.5,4.01c-0.45,2.24,0.85,4.61,3.42,5.73c6.28,2.74,12.59,5.41,18.91,8.06c2.09,0.88,3.96,0.08,5.53-1.16
		c1.61-1.27,2.01-3.02,1.41-4.91c-0.46-1.43-0.78-1.49-2.08-0.67c-0.3,0.19-0.78,0.2-1.17,0.2c-2.63,0.01-3.73,1.56-2.53,3.7
		c0.33,0.6,0.75,1.09,0.07,1.64c-0.78,0.63-1.41,0.17-1.93-0.37c-0.96-0.99-1.32-2.14-0.92-3.47
		C333.14,286,334.89,284.78,338.76,284.58z M358.71,261.04c-1.44,2.14-2.18,3.8-0.57,5.95
		C358.45,265.03,358.88,263.37,358.71,261.04z" />
		<path class="st4" d="M583.13,421.02c-2.44,8.61-4.74,16.97-7.22,25.29c-0.46,1.56-0.11,2.4,1.1,3.41c3.73,3.14,7.36,6.38,11,9.61
		c0.57,0.5,1.4,0.84,1.57,1.83c-5.45,0-10.85,0.17-16.23-0.07c-3-0.13-5.17,0.7-7.31,2.62c-4.8,4.33-9.82,8.45-15.06,12.91
		c-0.03-2.23,0.72-3.95,1.14-5.7c1.13-4.65,2.3-9.29,3.61-13.89c0.38-1.33,0.08-2.16-0.9-3.1c-4.05-3.91-8.01-7.88-12.53-12.34
		c4.14,0.43,7.57,0.78,10.99,1.15c2.99,0.32,5.99,0.56,8.95,1.02c1.37,0.21,2.13-0.13,2.93-1.14c5.67-7.16,11.39-14.27,17.11-21.39
		C582.34,421.14,582.56,421.15,583.13,421.02z" />
		<path class="st4" d="M53.11,576.14c-3.87,4.6-7.25,8.87-10.94,12.88c-1.76,1.91-2.17,3.79-1.92,6.19c0.62,6,1,12.02,1.46,18.04
		c0.03,0.36,0.23,0.76-0.33,1.23c-4.15-4.88-8.38-9.68-12.36-14.66c-1.41-1.76-2.85-2.21-5.06-1.96
		c-5.38,0.62-10.79,1.03-16.96,1.59c1.42-1.37,2.36-2.29,3.32-3.19c3.48-3.28,6.91-6.6,10.48-9.78c1.34-1.19,1.55-2.27,1.06-3.9
		c-2.53-8.59-4.93-17.21-7.41-25.94c1,0.19,1.2,0.91,1.6,1.41c5.19,6.43,10.41,12.85,15.51,19.34c1.03,1.31,2.01,1.72,3.74,1.43
		C40.98,577.86,46.68,577.09,53.11,576.14z" />
		<path class="st6" d="M485.08,456.87c-0.79-1.11-1.15-2.36-1.33-3.66c1.6-3.71,2.54-7.61,3.3-11.51c0.68-3.49-0.71-6.54-3.83-8.63
		c-2.57-1.73-5.33-3.21-8.01-4.8c-0.41-1.04-0.96-2.03-1-3.18c3.57,2.15,7.31,4.1,10.68,6.5c3.92,2.79,5.33,6.78,4.28,11.28
		C488.07,447.6,486.75,452.29,485.08,456.87z" />
		<path class="st7" d="M240.07,354.15c9.47,1.5,18.7,2.95,27.92,4.42c12.02,1.92,24.03,3.9,36.07,5.74c2,0.31,2.48,0.84,2.03,2.76
		c-5.33,22.77-10.57,45.55-15.83,68.33c-1.06,4.59-2.19,9.16-3.14,13.77c-0.28,1.38-0.84,1.6-2.18,1.35
		c-21.04-3.96-42.09-7.89-63.14-11.8c-1.43-0.27-2.03-0.53-1.64-2.21c6.16-26.85,12.21-53.71,18.33-80.57
		C238.66,355.13,238.42,353.58,240.07,354.15z M260.69,393.98c-5.46,1.51-9.54,6.36-9.39,10.9c0.11,3.32,3.39,6.17,8.18,7.11
		c4.28,0.84,7.57-0.4,9.21-3.47c2.87-5.37,1.91-9.44-3.28-13.63c1.17-1.22,2.35-2.43,3.52-3.65c0.48-0.5,0.8-1.07,0.16-1.64
		c-0.62-0.56-1.2-0.27-1.76,0.18c-0.84,0.68-1.38,1.71-2.67,2.17c0.12-1.03,0.23-1.88,0.32-2.73c0.07-0.67-0.05-1.33-0.87-1.46
		c-0.82-0.14-1.17,0.41-1.32,1.1c-0.17,0.8-0.37,1.59-0.58,2.48c-0.99-0.7-1.15-1.69-1.62-2.48c-0.43-0.71-0.95-1.17-1.79-0.74
		c-0.75,0.38-0.57,1.09-0.29,1.66C259.17,391.13,259.89,392.44,260.69,393.98z" />
		<path class="st7" d="M77.37,332.23c0.14,4.55-0.86,8.88-3,12.94c-4.67,8.86-11.02,16.48-19.93,21.88
		c-11.55,7.01-23.71,7.79-35.77,1.32C7.75,362.5-0.98,354.32-5.44,343.14c-7.47-18.74,5.45-41.97,26.5-48.45
		c11.12-3.42,21.85-2.76,32.05,3.02c11.22,6.35,20.25,14.33,23.37,26.84C77.11,327.08,77.4,329.64,77.37,332.23z" />
		<path class="st8" d="M100.39,584.15c4.03-4.57,8.7-7.23,15.18-7.08c10.36,0.23,20.74,0.08,31.11,0.05c1.37,0,2.6,0.22,3.86,0.77
		c5.6,2.44,11.23,4.83,16.89,7.15c0.92,0.38,2.26,1.66,3.02,0.2c0.77-1.49-1.08-1.63-2.03-2.04c-5.6-2.42-11.24-4.79-16.84-7.18
		c0.12-0.91,0.95-1.13,1.5-1.55c4.64-3.47,9.32-6.88,13.94-10.37c1.02-0.77,1.75-1.01,3.06-0.37c18.78,9.24,37.59,18.42,56.42,27.56
		c1.68,0.82,1.96,1.33,0.64,2.8c-3.82,4.25-7.45,8.66-11.15,13c-0.57,0.67-1.09,1.31-2.19,1.35c-6.83,0.24-12.46,3.27-17.78,6.9
		c-2.43,1.66-4.74,3.49-6.91,5.43c-1.27,1.13-2.22,1.31-3.85,0.59c-19.19-8.46-38.42-16.83-57.64-25.22c-8.4-3.67-16.8-7.33-25.2-11
		C101.75,584.84,101.11,584.5,100.39,584.15z" />
		<path class="st8" d="M120.44,315.23c6.53,1.55,10.95,4.76,13.6,10.44c3.7,7.95,7.93,15.69,11.87,23.55
		c0.56,1.12,1.31,1.93,2.4,2.59c5.18,3.16,10.27,6.46,15.52,9.51c1.89,1.1,2.19,2.2,1.81,4.16c-3.73,19.32-7.36,38.66-10.91,58.01
		c-0.33,1.8-0.88,2.15-2.69,1.66c-4.16-1.14-8.36-2.2-12.59-3.1c-1.75-0.37-1.95-1.03-1.75-2.57c1.23-9.79,1.5-19.54-2.59-28.92
		c-2.76-6.32-7.49-10.85-14.29-13.39c-0.88-0.33-1.52-0.49-1.5-1.68C119.73,355.47,120.08,335.42,120.44,315.23z" />
		<path class="st8" d="M440.1,494.2c7.28,1.41,14.5,3.05,21.66,4.92c-6.45,10.84-12.84,21.72-19.39,32.5
		c-2.68,4.42-8.15,5.75-13.05,3.47c-1.79-0.83-3.48-1.87-5.31-2.62c-1.64-0.67-1.69-1.45-1-2.86
		C428.76,517.83,434.42,506.01,440.1,494.2z" />
		<path class="st9" d="M285.83,454.62c-0.46,1.99-0.94,3.97-1.36,5.96c-0.41,1.91-1.86,0.93-2.77,0.76
		c-9.49-1.79-18.96-3.62-28.42-5.53c-11.25-2.27-22.48-4.68-33.74-6.92c-1.63-0.33-2.11-0.83-1.67-2.31
		c0.59-1.95,0.39-4.68,1.73-5.69c1.38-1.04,4.05,0.39,6.14,0.8c19.36,3.77,38.71,7.56,58.05,11.39
		C284.64,453.25,286.21,452.92,285.83,454.62z" />
		<path class="st9" d="M358.29,468.26c-0.59,2.27-1.05,4.18-1.6,6.06c-0.37,1.27-1.35,0.53-2.06,0.41
		c-14.26-2.59-28.51-5.2-42.76-7.82c-7.86-1.44-15.71-2.95-23.59-4.32c-1.51-0.26-1.98-0.63-1.46-2.09
		c0.55-1.55,0.91-3.18,1.11-4.81c0.19-1.51,0.79-1.67,2.29-1.37c14.04,2.81,28.09,5.54,42.14,8.3c8.01,1.57,16.01,3.12,24.01,4.74
		C357.08,467.5,358.42,467.19,358.29,468.26z" />
		<path class="st10" d="M119.28,378.86c8.91,3.31,13.44,9.46,15.5,17.38c2.02,7.78,1.63,15.67,0.67,23.56
		c-0.12,0.97-0.46,1.13-1.44,0.88c-4.75-1.19-9.52-2.33-14.28-3.46c-0.85-0.2-1.23-0.58-1.22-1.46
		C118.79,403.57,119.02,391.37,119.28,378.86z" />
		<path class="st10" d="M366.31,452.75c2.47,1.59,4.12,3.86,5.4,6.29c3.81,7.25,7.44,14.58,11.14,21.89
		c-7.61-1.38-15.22-2.79-22.84-4.14c-1.25-0.22-1.38-0.78-1.1-1.8c0.6-2.19,0.98-4.45,1.68-6.61c0.63-1.96,0.27-2.95-2.11-3.17
		c-2.12-0.2-4.19-0.76-6.86-1.27C356.8,459.99,361.55,456.37,366.31,452.75z" />
		<path class="st9" d="M336.2,432.85c0.68,0.78,1.96,0.82,2.51,1.76c-0.02,0.15-0.03,0.29-0.03,0.44
		c-4.75,3.99-8.65,8.66-12.24,13.57c-1.93,2.64-3.74,5.36-6.06,7.74c-0.99,1.02-1.89,1.42-3.44,1.06
		c-3.47-0.81-7.01-1.41-10.54-1.99c-1.35-0.22-1.8-0.48-0.89-1.72c4.27-5.78,8.1-11.83,13.34-16.96c4.46-4.37,9.6-6,15.86-4.32
		c0.29,0.08,0.62,0.01,0.93,0c0,0-0.03-0.09-0.03-0.09C335.42,432.9,335.93,432.76,336.2,432.85z M316.64,455.79
		c1.1-0.04,2.31-0.59,3.08-1.87c0.38-0.64,0.73-1.32-0.1-1.85c-0.69-0.44-1.15-0.04-1.68,0.47c-1.84,1.78-3.79,1.38-4.52-0.9
		c-0.21-0.66-0.43-1.26-1.25-1.17c-0.94,0.1-1.08,0.83-1.1,1.59C311.03,454.14,313.34,455.83,316.64,455.79z" />
		<path class="st11" d="M339.41,435.13c4.06,2.08,7.8,4.6,11.42,7.27c-5.55,5.36-11.16,10.69-15.53,17
		c-0.71,1.03-1.46,1.33-2.67,1.02c-0.79-0.2-1.63-0.25-2.44-0.37c1.15-1.05,3.23-0.59,4.06-2.21c0.36-0.71,0.95-1.43,0.05-2.07
		c-0.85-0.61-1.26,0.09-1.8,0.63c-1.19,1.2-4.06,1.1-4.16-0.18c-0.14-1.92-1.43-1.95-2.73-2.28c3.42-5.96,8.09-11.04,12.92-16
		C339.32,437.13,340.32,436.39,339.41,435.13z" />
		<path class="st11" d="M352.62,443.55c4.17,2.39,8.39,4.69,11.95,7.9c-5.54,4-10.81,8.34-16.65,11.99c0.2-1.2,1.46-1.44,1.8-2.43
		c0.19-0.55,0.32-1.09-0.22-1.5c-0.58-0.44-1.06-0.12-1.55,0.24c-2.45,1.75-3.94,1.32-4.62-1.36c-0.15-0.59-0.34-1.08-1.06-1.06
		c-0.69,0.02-0.96,0.49-1.11,1.07c-0.3,1.12,0.08,2.06,1.68,3.87c-0.52-0.09-0.89-0.16-1.26-0.22c-5.1-0.86-5.09-0.86-1.92-4.85
		C343.55,452.29,348.26,448.07,352.62,443.55z" />
		<path class="st11" d="M189.51,623.15c6.92-5.84,13.66-11.12,22.8-12.59c0.41,0.51,0.01,0.78-0.2,1.03
		c-4.11,4.82-8.23,9.62-12.34,14.44c-0.53,0.63-0.98,1.26-2.03,0.78C195.14,625.62,192.51,624.48,189.51,623.15z" />
		<path class="st6" d="M325.61,453.93c1.3,0.33,2.58,0.36,2.73,2.28c0.1,1.28,2.97,1.38,4.16,0.18c0.53-0.54,0.95-1.24,1.8-0.63
		c0.9,0.65,0.32,1.36-0.05,2.07c-0.83,1.62-2.91,1.15-4.06,2.21c-0.2,0-0.4-0.01-0.59-0.01c0.45-1.15-0.7-0.78-1.14-0.99
		c-1.41-0.66-2.45-1.49-2.75-3.06c-0.14-0.71,0.98-1.43-0.07-2.06L325.61,453.93z" />
		<path class="st11" d="M325.63,453.92c1.05,0.63-0.06,1.35,0.07,2.06c0.3,1.57,1.34,2.41,2.75,3.06c0.44,0.21,1.6-0.17,1.14,0.99
		c-2.54-0.57-5.08-1.15-7.98-1.81C323.11,456.62,324.37,455.27,325.63,453.92z" />
		<path class="st11" d="M338.69,435.05c0-0.15,0.01-0.29,0.03-0.44c0.25,0.19,0.5,0.37,0.75,0.56
		C339.21,435.13,338.95,435.09,338.69,435.05z" />
		<path class="st10" d="M317.76,326.47c0.34-2.96,0.71-5.91,1.02-8.87c0.13-1.19,0.47-1.7,1.86-1.06c1.65,0.75,3.38,1.36,5.1,1.94
		c3.2,1.07,6.2,0.57,8.59-1.64c2.47-2.29,3.11-5.11,1.67-8.2c-0.32-0.69-0.91-1.17,0.3-1.84c5.29-2.92,5.81-6.17,1.91-10.97
		c1.01-0.64,2.12-1.17,3.01-1.93c2.97-2.55,2.99-6.82,0.18-9.7c-1.87-1.91-4.42-2.77-6.73-4.01c-0.84-0.45-1.87-0.64-2.73-1.81
		c2.93,0.54,5.53,0.93,8.09,1.52c2.07,0.48,3.18,0.15,3.74-2.05c1.3-5.17,2.92-10.27,4.37-15.42c0.9-3.21,3.25-4.79,6.59-5.3
		c1.14-0.17,2.33,0.02,2.95,0.9c0.56,0.79-0.57,1.33-0.98,1.94c-2.55,3.73-2.52,5.94,0.44,9.35c0.62,0.71,0.67,1.37,0.58,2.15
		c-2.03,16.72-4.06,33.45-6.11,50.17c-0.09,0.7-0.27,1.38-0.41,2.08c-7.15,0.62-14.29,1.26-21.44,1.86
		C325.75,325.9,321.76,326.17,317.76,326.47z" />
		<path class="st11" d="M475.22,428.27c2.68,1.59,5.44,3.07,8.01,4.8c3.11,2.09,4.51,5.14,3.83,8.63c-0.76,3.9-1.71,7.8-3.3,11.51
		C480.62,444.99,477.99,436.61,475.22,428.27z" />
		<path class="st11" d="M429.63,447.08c-2.07-5.56-3.99-10.71-5.91-15.86c-0.22-0.59-0.45-1.18-0.62-1.78
		c-0.17-0.6,0.01-1.13,0.67-1.33c0.64-0.2,1.14,0.07,1.4,0.66c0.16,0.36,0.31,0.72,0.45,1.09c2.15,5.75,4.3,11.49,6.42,17.25
		c0.87,2.37,0.44,2.79-2.26,2.29c-6.3-1.16-12.6-2.31-18.89-3.51c-0.97-0.19-2.57-0.12-2.2-1.58c0.3-1.21,1.66-0.72,2.6-0.54
		c5.15,0.94,10.3,1.92,15.45,2.88C427.54,446.79,428.35,446.89,429.63,447.08z" />
		<path class="st1" d="M336.2,432.85c-0.28-0.09-0.78,0.05-0.58-0.51C335.81,432.51,336.01,432.68,336.2,432.85z" />
		<path class="st8" d="M468.01,587.82c-0.13,15.7,1.77,19.49,14.56,29.45c0.03,0.64-0.57,0.66-0.98,0.85
		c-12.4,5.78-24.78,11.62-37.41,16.94c-9.02,3.8-15.96,1.31-20.06-7.12c-3.56-7.33-2.81-11.17,3.5-16.78
		c7.6-6.74,16.65-11.49,25.74-16.15C458.11,592.58,462.95,590.3,468.01,587.82z" />
		<path class="st8" d="M412.88,355.91c-6.54,1.62-10.56,5.39-12.46,11.28c-2.15,6.66-4.41,13.29-6.62,19.94
		c-8.62-3.55-14.7-13.8-13.77-22.98c0.54-5.29,2.18-10.25,4.71-14.99c4.48-8.39,10.62-15.51,18.46-21.37
		c8.6-6.43,18.12-7.91,28.54-4.85c6.47,1.9,12.22,5,17.33,9.17c5.69,4.64,8.05,10.88,9.23,17.54c2.51,14.26-1.36,27.2-10.24,38.79
		c-3.44,4.49-8.84,6.52-14.54,7.68c-1.16,0.24-1.77,0.02-1.52-1.24c0.11-0.54,0.12-1.09,0.12-1.64c0.02-2.31,0.37-3.84,3.66-4.1
		c4.01-0.31,6.76-3.88,6.86-7.56c0.1-3.78-2.34-7.1-6.3-8.04c-1.71-0.4-2.17-1.05-2.28-2.62c-0.34-5.17-2.84-8.69-9.19-13.38
		c0.75-0.49,1.52-0.9,2.18-1.44c2.93-2.4,3.29-6.09,0.94-9.07c-0.4-0.51-1.57-0.86-0.24-1.73c2.29-1.5,3.12-3.63,2.33-6.18
		c-0.8-2.62-3.01-3.58-5.64-3.99c-1.15-0.18-2.3-0.42-3.46-0.52c-4.78-0.44-8.24,3.74-6.33,7.83c0.62,1.33,0.43,1.69-0.82,2.4
		C409.7,347.18,409.36,351.23,412.88,355.91z" />
		<path class="st9" d="M426.96,370.27c0.46-0.7,0.83-0.17,1.13,0.12c0.92,0.91,1.86,1.81,2.69,2.79c1.1,1.3,2.18,2.21,4.24,2.29
		c3.24,0.13,5.69,3.31,5.37,6.31c-0.34,3.2-3.23,5.87-6.65,5.4c-3.1-0.43-3.6,0.87-3.59,3.13c0,0.31-0.06,0.62-0.08,0.94
		c-0.45,5.39-0.45,5.36-6.31,5.24c-9.4-0.19-18.11-2.56-26.2-7.03c-1.4-0.77-1.75-1.46-1.22-2.96c2.21-6.32,4.27-12.68,6.37-19.03
		c0.57-1.74,1.35-3.36,2.58-4.79c0.77-0.89,1.67-1.47,2.95-1.34c0.27,0.87-0.44,1.19-0.81,1.65c-3.04,3.78-4.64,8.09-5.57,12.69
		c-0.33,1.62,0.24,2.32,1.92,2.54c1.9,0.26,3.78,0.66,5.67,0.97c0.69,0.11,1.42,0.07,1.56-0.76c0.14-0.77-0.38-1.12-1.14-1.26
		c-1.39-0.25-2.77-0.6-4.18-0.78c-1.15-0.14-1.63-0.49-1.34-1.65c1.52-6.24,4.33-11.65,10.45-15.12c1.29-0.73,2.11-0.71,3.16,0.42
		c2.69,2.89,5.57,5.63,8.32,8.48c0.43,0.44,1.6,0.8,0.71,1.78c-0.98-0.14-1.47-0.95-2.19-1.44c-4.73-3.26-11.08-2.89-15.37,0.87
		c-1.09,0.95-1.2,1.63-0.11,2.69c4.57,4.4,12.14,4.54,16.91,0.33C427.16,371.96,427.2,371.21,426.96,370.27z M409.44,382.94
		c0.33-0.02,0.67,0,0.99-0.05c0.87-0.15,2.07-0.12,1.96-1.3c-0.11-1.23-1.27-0.96-2.15-0.9c-1.35,0.09-2.66,0.02-3.84-0.67
		c-0.65-0.38-1.28-0.43-1.73,0.23c-0.56,0.83,0.09,1.3,0.74,1.69C406.63,382.66,407.99,382.96,409.44,382.94z" />
		<path class="st11" d="M328.18,316.79c-0.27-0.05-1.04-0.1-1.72-0.36c-5.62-2.17-11.35-4.1-16.82-6.61
		c-4.04-1.85-5.15-6.03-2.48-9.4c1.51-1.9,3.36-2.38,5.59-1.41c6.06,2.61,12.11,5.22,18.16,7.85c2.69,1.17,3.95,3.39,3.35,5.83
		C333.64,315.27,331.62,316.74,328.18,316.79z M324.53,312.51c0.03,0.18-0.01,0.61,0.15,0.95c0.49,1.08,1.09,2.54,2.54,2.03
		c1.76-0.63,0.23-1.55-0.22-2.36c-0.8-1.43,0.62-3.45,2.41-3.35c0.82,0.04,1.58,0.2,1.74-0.74c0.17-1.06-0.77-1.26-1.6-1.42
		C327.14,307.13,324.59,309.53,324.53,312.51z" />
		<path class="st11" d="M338.76,284.58c-3.87,0.2-5.62,1.42-6.38,3.95c-0.4,1.34-0.04,2.48,0.92,3.47c0.52,0.55,1.15,1,1.93,0.37
		c0.68-0.55,0.26-1.04-0.07-1.64c-1.2-2.14-0.1-3.69,2.53-3.7c0.4,0,0.87-0.01,1.17-0.2c1.3-0.81,1.63-0.76,2.08,0.67
		c0.6,1.89,0.2,3.64-1.41,4.91c-1.57,1.24-3.44,2.04-5.53,1.16c-6.32-2.65-12.64-5.32-18.91-8.06c-2.56-1.12-3.86-3.49-3.42-5.73
		c0.46-2.29,2.46-3.71,5.5-4.01c1.55-0.15,3.15,0.06,4.42,0.62C327.21,278.92,332.7,281.66,338.76,284.58z" />
		<path class="st11" d="M334.76,296.38c-4.77-0.51-6.68,3.26-5.54,7.38c-4.79-2.05-9.37-4-13.94-5.98c-1.81-0.78-3.71-1.43-5.14-2.84
		c-2.55-2.51-1.54-6.71,1.86-7.65c0.65-0.18,1.31-0.33,1.95-0.05c6.92,3.05,13.84,6.12,20.76,9.18
		C334.71,296.43,334.76,296.38,334.76,296.38z" />
		<path class="st11" d="M335.14,296.96c2.56,0.94,3.66,2.68,3.12,4.95c-0.46,1.94-2.88,3.65-5.01,3.44
		c-0.61-0.06-1.77,0.05-1.01-1.16c0.43-0.68-0.05-1.12-0.43-1.65c-1.36-1.87-0.47-3.8,1.86-3.83c1.52-0.02,1.6-0.75,1.52-1.78
		L335.14,296.96z" />
		<path class="st11" d="M358.71,261.04c0.17,2.33-0.26,3.99-0.57,5.95C356.53,264.84,357.27,263.18,358.71,261.04z" />
		<path class="st11" d="M335.19,296.92c-0.3-0.07-0.61-0.14-0.43-0.54c0,0-0.05,0.04-0.05,0.04c0.25,0.11,0.63,0.11,0.43,0.54
		C335.14,296.96,335.19,296.92,335.19,296.92z" />
		<path class="st6" d="M260.69,393.98c-0.8-1.54-1.52-2.85-2.18-4.2c-0.28-0.58-0.45-1.29,0.29-1.66c0.84-0.42,1.36,0.03,1.79,0.74
		c0.47,0.79,0.62,1.78,1.62,2.48c0.21-0.89,0.41-1.69,0.58-2.48c0.15-0.69,0.49-1.24,1.32-1.1c0.82,0.14,0.94,0.79,0.87,1.46
		c-0.09,0.85-0.2,1.7-0.32,2.73c1.29-0.47,1.83-1.5,2.67-2.17c0.56-0.45,1.14-0.74,1.76-0.18c0.64,0.57,0.32,1.14-0.16,1.64
		c-1.17,1.22-2.34,2.44-3.52,3.65c5.19,4.19,6.15,8.26,3.28,13.63c-1.64,3.07-4.93,4.31-9.21,3.47c-4.78-0.94-8.06-3.79-8.18-7.11
		C251.15,400.34,255.23,395.49,260.69,393.98z M267.96,402.84c-0.01-3.74-2.78-6.48-6.64-6.56c-3.36-0.08-7.84,4.72-7.79,8.34
		c0.04,2.85,4.19,5.56,8.46,5.51C265.63,410.09,267.96,407.24,267.96,402.84z" />
		<path class="st6" d="M316.64,455.79c-3.31,0.04-5.62-1.65-5.56-3.74c0.02-0.75,0.15-1.48,1.1-1.59c0.82-0.09,1.03,0.51,1.25,1.17
		c0.73,2.29,2.69,2.68,4.52,0.9c0.52-0.51,0.98-0.91,1.68-0.47c0.83,0.53,0.49,1.21,0.1,1.85
		C318.96,455.2,317.75,455.75,316.64,455.79z" />
		<path class="st6" d="M426.96,370.27c0.23,0.95,0.19,1.7-0.7,2.49c-4.76,4.21-12.33,4.07-16.91-0.33c-1.09-1.05-0.98-1.73,0.11-2.69
		c4.29-3.76,10.64-4.13,15.37-0.87c0.72,0.49,1.21,1.3,2.19,1.44C427.02,370.31,426.96,370.27,426.96,370.27z M415.89,373.45
		c2.94,0.52,5.3,0.05,7.48-1.31c0.81-0.5,1.03-0.93,0.12-1.53c-2.48-1.63-5.12-2.29-8.41-1.37
		C416.79,370.51,416.81,371.88,415.89,373.45z" />
		<path class="st6" d="M409.44,382.94c-1.44,0.02-2.81-0.28-4.03-1.01c-0.64-0.38-1.3-0.85-0.74-1.69c0.45-0.66,1.08-0.61,1.73-0.23
		c1.19,0.7,2.49,0.76,3.84,0.67c0.88-0.06,2.04-0.33,2.15,0.9c0.1,1.19-1.09,1.15-1.96,1.3
		C410.11,382.95,409.77,382.93,409.44,382.94z" />
		<path class="st6" d="M324.53,312.51c0.06-2.98,2.62-5.38,5.02-4.9c0.83,0.17,1.77,0.36,1.6,1.42c-0.15,0.95-0.91,0.79-1.74,0.74
		c-1.79-0.1-3.21,1.93-2.41,3.35c0.45,0.81,1.98,1.73,0.22,2.36c-1.45,0.52-2.05-0.95-2.54-2.03
		C324.52,313.12,324.55,312.7,324.53,312.51z" />
		<path class="st9" d="M267.96,402.84c0.01,4.4-2.33,7.25-5.97,7.29c-4.27,0.04-8.42-2.66-8.46-5.51c-0.05-3.62,4.43-8.41,7.79-8.34
		C265.18,396.36,267.95,399.1,267.96,402.84z" />
		<path class="st11" d="M415.89,373.45c0.93-1.57,0.91-2.93-0.81-4.21c3.29-0.92,5.93-0.27,8.41,1.37c0.91,0.6,0.69,1.03-0.12,1.53
		C421.19,373.5,418.83,373.97,415.89,373.45z" />
	</g>
</svg>