<?xml version="1.0" encoding="utf-8"?>
<!-- Generator: Adobe Illustrator 25.2.1, SVG Export Plug-In . SVG Version: 6.00 Build 0)  -->
<svg version="1.1" id="Camada_1" xmlns="http://www.w3.org/2000/svg" xmlns:xlink="http://www.w3.org/1999/xlink" x="0px" y="0px"
	 viewBox="0 0 494 496.1" style="enable-background:new 0 0 494 496.1;" xml:space="preserve">
<style type="text/css">
	.st0{stroke:#FFFFFF;stroke-width:6;stroke-miterlimit:10;}
	.st1{fill:#010101;stroke:#FFFFFF;stroke-width:6;stroke-miterlimit:10;}
</style>
<g>
	<path class="st0" d="M12.7,467.7c3.9-10.4,5.8-21.4,8.6-32.1c7.2-28.4,14.2-56.9,21.2-85.3c0.7-2.9,2-5.3,4.2-7.4
		c88.8-88.7,177.5-177.5,266.2-266.3c2.5-2.5,3.6-2.1,5.8,0.2c33,33.2,66.1,66.2,99.3,99.2c2.7,2.6,2.2,3.8-0.1,6.2
		C329.3,270.6,240.9,359,152.5,447.4c-2.6,2.6-5.5,4.2-9,5c-39,9.6-77.9,19.3-116.8,28.9c-0.2,0.1-0.4,0.5-0.5,0.7
		c-1.6,0-3.2,0-4.8,0c-4.3-1.5-7.3-4.2-8.6-8.6C12.7,471.5,12.7,469.6,12.7,467.7z"/>
	<path class="st1" d="M398,14.1c14.7,0.1,27.5,5,38,15.4c9.8,9.6,19.5,19.3,29.1,29.1c21.6,22.2,21.6,54.1-0.1,76.3
		c-11.1,11.3-22.4,22.3-33.5,33.6c-1.8,1.9-2.8,2.6-5.2,0.3c-33.4-33.6-67-67.1-100.5-100.6c-1.7-1.7-1.8-2.7,0-4.5
		c11.7-11.5,23.2-23.3,35-34.8C371.1,18.8,383.7,14.2,398,14.1z"/>
</g>
</svg>
